<?xml version="1.0" encoding="utf-8"?>
<!-- Generator: Adobe Illustrator 23.1.0, SVG Export Plug-In . SVG Version: 6.00 Build 0)  -->
<svg version="1.1" id="Calque_1" xmlns="http://www.w3.org/2000/svg" xmlns:xlink="http://www.w3.org/1999/xlink" x="0px" y="0px"
	 viewBox="0 0 120 84" style="enable-background:new 0 0 120 84;" xml:space="preserve">
<style type="text/css">
	.st0{fill:#FFFFFF;}
</style>
<g>
	<path class="st0" d="M16.6,70.7c-7.7,0-14-6.3-14-14c0-7.7,6.3-14,14-14c7.7,0,14,6.3,14,14C30.6,64.4,24.3,70.7,16.6,70.7
		 M16.6,49.3c-4,0-7.3,3.3-7.3,7.3c0,4,3.3,7.3,7.3,7.3s7.3-3.3,7.3-7.3C23.9,52.6,20.6,49.3,16.6,49.3"/>
	<path class="st0" d="M30.2,53.4c-1.4-6.2-7-10.9-13.7-10.9c-6.6,0-12.2,4.6-13.7,10.9c-0.2,1-0.4,2.1-0.4,3.2c0,7.7,6.3,14,14,14
		c7.7,0,14-6.3,14-14C30.6,55.5,30.5,54.5,30.2,53.4 M16.6,63.9c-4,0-7.3-3.3-7.3-7.3c0-1.1,0.3-2.2,0.7-3.2
		c1.2-2.4,3.7-4.1,6.6-4.1c2.9,0,5.4,1.7,6.6,4.1c0.5,1,0.7,2,0.7,3.2C23.9,60.7,20.6,63.9,16.6,63.9"/>
	<path class="st0" d="M53.5,53.4c-1.4-6.2-7-10.9-13.7-10.9c-4.8,0-9.1,2.5-11.6,6.2c-0.9,1.4-1.6,3-2,4.6c-0.2,1-0.4,2.1-0.4,3.2
		c0,7.7,6.3,14,14,14c7.7,0,14-6.3,14-14C53.9,55.5,53.7,54.5,53.5,53.4 M39.8,63.9c-4,0-7.3-3.3-7.3-7.3c0-1.1,0.3-2.2,0.7-3.2
		c1.2-2.4,3.7-4.1,6.6-4.1c2.9,0,5.4,1.7,6.6,4.1c0.5,1,0.7,2,0.7,3.2C47.1,60.7,43.8,63.9,39.8,63.9"/>
	<path class="st0" d="M110.9,53.4c-1.4-6.2-7-10.9-13.7-10.9c-6.6,0-12.2,4.6-13.7,10.9c-0.2,1-0.4,2.1-0.4,3.2c0,7.7,6.3,14,14,14
		s14-6.3,14-14C111.3,55.5,111.1,54.5,110.9,53.4 M97.2,63.9c-4,0-7.3-3.3-7.3-7.3c0-1.1,0.3-2.2,0.7-3.2c1.2-2.4,3.7-4.1,6.6-4.1
		c2.9,0,5.4,1.7,6.6,4.1c0.5,1,0.7,2,0.7,3.2C104.5,60.7,101.3,63.9,97.2,63.9"/>
	<path class="st0" d="M116.4,29.4l-9.6-9.6c-3.9-4.8-6.3-6-9.2-6.4H80.1v23.4H2.3v16.8h0.6c1.4-6.2,7-10.9,13.7-10.9
		c4.8,0,9.1,2.5,11.6,6.2c2.5-3.7,6.8-6.2,11.6-6.2c6.6,0,12.2,4.6,13.7,10.9h30.1c1.4-6.2,7-10.9,13.7-10.9
		c6.6,0,12.2,4.6,13.7,10.9h4.2c1.4,0,2.5-1.1,2.5-2.5V37.2C117.6,37.2,118.3,31.4,116.4,29.4 M88.3,30.5v-8.7h6.8l1.5,0.3
		c0.2,0.1,0.5,0.2,0.7,0.4l8.1,8H88.3z"/>
</g>
</svg>
