<?xml version="1.0" standalone="no"?>
<!DOCTYPE svg PUBLIC "-//W3C//DTD SVG 1.1//EN" "http://www.w3.org/Graphics/SVG/1.1/DTD/svg11.dtd" >
<svg xmlns="http://www.w3.org/2000/svg" xmlns:xlink="http://www.w3.org/1999/xlink" version="1.1">
<metadata>
Created by FontForge 20190801 at Fri May  5 13:18:53 2017
 By Jimmy Wärting
Copyright 2014 Pria Ravichandran (pria.ravichandran@gmail.com)
</metadata>
<defs>
<font id="PalanquinDark-Bold" horiz-adv-x="389" >
  <font-face 
    font-family="Palanquin Dark"
    font-weight="700"
    font-stretch="normal"
    units-per-em="1000"
    panose-1="2 11 8 4 2 2 3 2 2 4"
    ascent="770"
    descent="-230"
    x-height="484"
    cap-height="680"
    bbox="-683 -524 2458 1320"
    underline-thickness="50"
    underline-position="-150"
    unicode-range="U+000D-FB02"
  />
<missing-glyph horiz-adv-x="697" 
d="M602 696v-696h-508v696h508zM255 573v-451h185v451h-185z" />
    <glyph glyph-name=".notdef" horiz-adv-x="697" 
d="M602 696v-696h-508v696h508zM255 573v-451h185v451h-185z" />
    <glyph glyph-name=".null" horiz-adv-x="0" 
 />
    <glyph glyph-name=".null" horiz-adv-x="0" 
 />
    <glyph glyph-name="CR" unicode="&#xd;" horiz-adv-x="0" 
 />
    <glyph glyph-name="space" unicode=" " horiz-adv-x="220" 
 />
    <glyph glyph-name="uni00A0" unicode="&#xa0;" horiz-adv-x="220" 
 />
    <glyph glyph-name="uni200C" unicode="&#x200c;" horiz-adv-x="0" 
d="M-30 1237h60v-1305h-60v1305z" />
    <glyph glyph-name="uni200D" unicode="&#x200d;" horiz-adv-x="0" 
d="M74 1320l40 -40l-74 -74l74 -74l-39 -39l-45 44v-1205h-60v1204l-44 -43l-39 39l74 74l-74 74l40 40l73 -74z" />
    <glyph glyph-name="uni25CC" unicode="&#x25cc;" horiz-adv-x="672" 
d="M335 510q-14 0 -23 9t-9 23t9 23.5t23 9.5t23.5 -9.5t9.5 -23.5t-9.5 -23t-23.5 -9zM435 493q-14 0 -23 9t-9 23t9 23.5t23 9.5t23.5 -9.5t9.5 -23.5t-9.5 -23t-23.5 -9zM237 558q14 0 23 -9.5t9 -23.5t-9 -23t-23 -9t-23.5 9t-9.5 23t9.5 23.5t23.5 9.5zM520 437
q-14 0 -23 9t-9 23t9 23.5t23 9.5t23.5 -9.5t9.5 -23.5t-9.5 -23t-23.5 -9zM152 502q14 0 23 -9.5t9 -23.5t-9 -23t-23 -9t-23.5 9t-9.5 23t9.5 23.5t23.5 9.5zM573 349q-14 0 -23 9t-9 23t9 23.5t23 9.5t23.5 -9.5t9.5 -23.5t-9.5 -23t-23.5 -9zM99 414q14 0 23 -9.5
t9 -23.5t-9 -23t-23 -9t-23.5 9t-9.5 23t9.5 23.5t23.5 9.5zM589 254q-14 0 -23 9t-9 23t9 23.5t23 9.5t23.5 -9.5t9.5 -23.5t-9.5 -23t-23.5 -9zM83 319q14 0 23 -9.5t9 -23.5t-9 -23t-23 -9t-23.5 9t-9.5 23t9.5 23.5t23.5 9.5zM573 161q-14 0 -23 9t-9 23t9 23.5t23 9.5
t23.5 -9.5t9.5 -23.5t-9.5 -23t-23.5 -9zM99 226q14 0 23 -9.5t9 -23.5t-9 -23t-23 -9t-23.5 9t-9.5 23t9.5 23.5t23.5 9.5zM521 72q-14 0 -23 9t-9 23t9 23.5t23 9.5t23.5 -9.5t9.5 -23.5t-9.5 -23t-23.5 -9zM151 137q14 0 23 -9.5t9 -23.5t-9 -23t-23 -9t-23.5 9t-9.5 23
t9.5 23.5t23.5 9.5zM237 82q14 0 23 -9.5t9 -23.5t-9 -23t-23 -9t-23.5 9t-9.5 23t9.5 23.5t23.5 9.5zM435 17q-14 0 -23 9t-9 23t9 23.5t23 9.5t23.5 -9.5t9.5 -23.5t-9.5 -23t-23.5 -9zM335 0q-14 0 -23 9t-9 23t9 23.5t23 9.5t23.5 -9.5t9.5 -23.5t-9.5 -23t-23.5 -9z
" />
    <glyph glyph-name="A" unicode="A" horiz-adv-x="711" 
d="M353 462l-65 -185h133zM447 680l254 -662l-179 -18l-49 134h-235l-47 -134h-181l255 680h182z" />
    <glyph glyph-name="B" unicode="B" horiz-adv-x="645" 
d="M70 0v680h227q112 0 196 -46t84 -150v-5q-1 -36 -15.5 -65.5t-37.5 -52.5q40 -28 65.5 -68.5t25.5 -89.5q0 -117 -89 -160t-199 -43h-257zM291 537h-39v-115h41q42 0 69 13t27 40q0 31 -26 46.5t-72 15.5zM329 279h-77v-136h79q42 0 69 16t27 48q0 34 -26 53t-72 19z" />
    <glyph glyph-name="C" unicode="C" horiz-adv-x="606" 
d="M515 514q-54 19 -82 24.5t-62 5.5q-61 0 -102 -56.5t-41 -149.5q0 -96 43 -149t107 -53q37 0 70 10.5t59 26.5l69 -136q-40 -24 -95.5 -37t-107.5 -13q-166 0 -249.5 98t-83.5 252q0 157 89 256.5t240 99.5q51 0 105.5 -14.5t94.5 -41.5z" />
    <glyph glyph-name="D" unicode="D" horiz-adv-x="719" 
d="M70 0v680h298q157 0 239 -95.5t82 -240.5q0 -159 -91 -251.5t-234 -92.5h-294zM359 537h-107v-394h100q63 0 106 50t43 151q0 84 -36.5 138.5t-105.5 54.5z" />
    <glyph glyph-name="E" unicode="E" horiz-adv-x="588" 
d="M70 0v680h451l17 -143h-286v-124h209l17 -143h-226v-127h299l17 -143h-498z" />
    <glyph glyph-name="F" unicode="F" horiz-adv-x="538" 
d="M478 257h-226v-257h-182v679h441l17 -143h-276v-136h209z" />
    <glyph glyph-name="G" unicode="G" horiz-adv-x="676" 
d="M616 392v-355q-40 -24 -110.5 -37t-122.5 -13q-166 0 -254.5 92t-88.5 258q0 167 99 261.5t250 94.5q51 0 115.5 -14.5t104.5 -41.5l-54 -123q-54 19 -92 24.5t-72 5.5q-61 0 -112 -51t-51 -155q0 -110 48 -156t112 -46q14 0 30.5 1.5t33.5 4.5v117h-117l-16 133h297z
" />
    <glyph glyph-name="H" unicode="H" horiz-adv-x="752" 
d="M500 0v266h-248v-266h-182v680l182 6v-277h248v271h182v-680h-182z" />
    <glyph glyph-name="I" unicode="I" horiz-adv-x="322" 
d="M70 0v680h182v-680h-182z" />
    <glyph glyph-name="J" unicode="J" horiz-adv-x="325" 
d="M83 217v463h182v-516q0 -76 -42.5 -116t-148.5 -74l-74 144q55 22 69 47t14 52z" />
    <glyph glyph-name="K" unicode="K" horiz-adv-x="710" 
d="M70 0v680h182v-236l273 251l141 -102l-231 -216l275 -377h-231l-174 254l-53 -50v-204h-182z" />
    <glyph glyph-name="L" unicode="L" horiz-adv-x="568" 
d="M558 0h-488v680h182v-537h289z" />
    <glyph glyph-name="M" unicode="M" horiz-adv-x="779" 
d="M527 0v329l-92 -124l-73 -10l-110 134v-329h-182v680h125l205 -259l188 259h121v-680h-182z" />
    <glyph glyph-name="N" unicode="N" horiz-adv-x="753" 
d="M70 0v680h169l262 -369v369h182v-680h-170l-261 358v-358h-182z" />
    <glyph glyph-name="O" unicode="O" horiz-adv-x="743" 
d="M40 337q0 157 89 257t242 100q166 0 249 -102t83 -248q0 -158 -88 -258t-244 -100q-163 0 -247 102.5t-84 248.5zM227 338q0 -86 33 -143t110 -57q70 0 108 51.5t38 154.5q0 85 -33.5 141.5t-109.5 56.5q-68 0 -107 -56t-39 -148z" />
    <glyph glyph-name="P" unicode="P" horiz-adv-x="666" 
d="M70 0v680h286q113 0 196.5 -61t83.5 -184q0 -122 -89 -179.5t-199 -57.5h-96v-198h-182zM350 537h-98v-196h100q42 0 69 27t27 67q0 45 -26 73.5t-72 28.5z" />
    <glyph glyph-name="Q" unicode="Q" horiz-adv-x="743" 
d="M40 337q0 157 89 257t242 100q166 0 249 -102t83 -248q0 -69 -17.5 -128t-49.5 -105l61 -66l-112 -97l-65 68q-32 -14 -69.5 -22t-79.5 -8q-163 0 -247 102.5t-84 248.5zM227 338q0 -86 33 -143t110 -57q7 0 15 0.5t15 1.5l-84 89l120 102l70 -78q5 19 7.5 42t2.5 49
q0 85 -33.5 141.5t-109.5 56.5q-68 0 -107 -56t-39 -148z" />
    <glyph glyph-name="R" unicode="R" horiz-adv-x="704" 
d="M350 537h-98v-180h100q42 0 69 25.5t27 65.5q0 45 -26 67t-72 22zM70 0v680h286q113 0 196.5 -54.5t83.5 -177.5q0 -62 -25.5 -107t-66.5 -73l150 -268h-211l-110 214h-121v-214h-182z" />
    <glyph glyph-name="S" unicode="S" horiz-adv-x="564" 
d="M245 268q-68 34 -136 88.5t-68 141.5q1 84 69 139.5t184 55.5q51 0 105.5 -14.5t94.5 -41.5l-54 -123q-54 19 -82 24.5t-62 5.5q-31 0 -49 -14.5t-18 -33.5q0 -22 30.5 -38.5t72.5 -38.5q72 -37 139 -93t67 -139q0 -86 -72.5 -143t-198.5 -57q-52 0 -117.5 15.5
t-105.5 39.5l60 137q26 -16 73.5 -29.5t84.5 -13.5q43 0 65.5 17t22.5 36q0 18 -33 39t-72 40z" />
    <glyph glyph-name="T" unicode="T" horiz-adv-x="619" 
d="M210 0v537h-200v143h582l17 -143h-217v-537h-182z" />
    <glyph glyph-name="U" unicode="U" horiz-adv-x="730" 
d="M488 269v411h182v-420q0 -133 -84.5 -203.5t-220.5 -70.5t-220.5 70.5t-84.5 203.5v420h182v-411q0 -64 34.5 -97.5t88.5 -33.5t88.5 33.5t34.5 97.5z" />
    <glyph glyph-name="V" unicode="V" horiz-adv-x="711" 
d="M264 0l-254 662l179 18l168 -463l163 463h181l-255 -680h-182z" />
    <glyph glyph-name="W" unicode="W" horiz-adv-x="1143" 
d="M716 0l-147 415l-143 -415h-182l-234 662l179 18l148 -458l143 458h181l148 -458l143 458h181l-235 -680h-182z" />
    <glyph glyph-name="X" unicode="X" horiz-adv-x="747" 
d="M504 0l-140 186l-151 -198l-202 27l238 323l-239 318l216 27l138 -185l146 182h226l-257 -335l258 -345h-233z" />
    <glyph glyph-name="Y" unicode="Y" horiz-adv-x="669" 
d="M241 0v268l-231 394l189 18l132 -245l141 245h187l-236 -414v-266h-182z" />
    <glyph glyph-name="Z" unicode="Z" horiz-adv-x="604" 
d="M584 551l-347 -403l-7 -5h334l17 -143h-541l-20 128l339 403l8 6h-301l-17 143h516z" />
    <glyph glyph-name="a" unicode="a" horiz-adv-x="511" 
d="M182 163q0 -12 10 -20t23 -8q16 0 32 7t32 20v36h-56q-18 0 -29.5 -9.5t-11.5 -25.5zM46 456q38 17 96 31.5t118 14.5q99 0 150 -55t51 -147v-300h-81l-33 37q-22 -22 -58 -35t-77 -13q-92 0 -137 46t-45 121q0 79 53 115.5t137 36.5h58q-4 22 -21 34t-42 12t-59 -8.5
t-62 -20.5z" />
    <glyph glyph-name="b" unicode="b" horiz-adv-x="611" 
d="M60 0v695l182 11v-230q19 10 47.5 18t58.5 8q117 0 175 -72t58 -180q0 -109 -57.5 -185t-185.5 -76q-41 0 -82.5 17t-73.5 41l-30 -47h-92zM393 246q0 43 -23.5 75.5t-67.5 32.5q-11 0 -29 -4t-31 -10v-173q14 -13 35 -21.5t40 -8.5q41 0 58.5 36.5t17.5 72.5z" />
    <glyph glyph-name="c" unicode="c" horiz-adv-x="487" 
d="M410 328q-29 15 -50 20.5t-47 5.5q-37 0 -66 -30t-29 -82q0 -51 29 -78t66 -27q24 0 46 5.5t51 20.5l51 -125q-42 -33 -89 -41t-77 -8q-118 0 -191.5 65.5t-73.5 187.5t73.5 191t191.5 69q30 0 77 -8t89 -41z" />
    <glyph glyph-name="d" unicode="d" horiz-adv-x="611" 
d="M218 245q0 -43 23.5 -75.5t67.5 -32.5q11 0 29 4t31 10v172q-14 13 -35.5 22t-39.5 9q-41 0 -58.5 -36.5t-17.5 -72.5zM551 706v-706h-92l-32 50q-22 -20 -61.5 -40.5t-102.5 -20.5q-117 0 -175 72t-58 180q0 109 57.5 185t185.5 76q24 0 48.5 -6.5t47.5 -16.5v216z" />
    <glyph glyph-name="e" unicode="e" horiz-adv-x="553" 
d="M30 242q0 122 75.5 191t185.5 69q116 0 174 -75t58 -177v-63h-295q12 -28 36.5 -40t58.5 -12q32 0 65.5 6t61.5 20l51 -123q-42 -31 -104 -40t-92 -9q-118 0 -196.5 60.5t-78.5 192.5zM349 297q-1 16 -15 37.5t-48 21.5q-25 0 -40.5 -15.5t-22.5 -43.5h126z" />
    <glyph glyph-name="f" unicode="f" horiz-adv-x="471" 
d="M433 308h-151v-308h-182v308h-80v143h80v59q0 97 72 145t165 48q35 0 75.5 -13.5t58.5 -29.5l-52 -124q-17 10 -37 14.5t-33 4.5q-32 0 -49.5 -17.5t-17.5 -47.5v-39h134z" />
    <glyph glyph-name="g" unicode="g" horiz-adv-x="611" 
d="M369 151v172q-14 13 -35.5 22t-39.5 9q-41 0 -58.5 -36.5t-17.5 -72.5q0 -43 23.5 -75.5t67.5 -32.5q11 0 29 4t31 10zM551 484v-489q0 -105 -69.5 -159.5t-197.5 -54.5q-31 0 -93 12.5t-109 43.5l55 128q49 -24 81.5 -30.5t62.5 -6.5q31 0 59.5 12t28.5 35v35
q-21 -9 -47 -15t-59 -6q-117 0 -175 72t-58 180q0 109 57.5 185t185.5 76q41 0 82.5 -17.5t73.5 -40.5l31 40h91z" />
    <glyph glyph-name="h" unicode="h" horiz-adv-x="624" 
d="M60 0v695l182 11v-236q30 13 68 22.5t73 9.5q103 0 147 -57.5t44 -144.5v-300h-182v296q0 28 -17 43t-42 15q-17 0 -43 -9t-48 -19v-326h-182z" />
    <glyph glyph-name="i" unicode="i" horiz-adv-x="302" 
d="M150 551q-40 0 -69 29t-29 69q0 41 29 70.5t69 29.5q41 0 70.5 -29.5t29.5 -70.5q0 -40 -29.5 -69t-70.5 -29zM60 0v485h182v-485h-182z" />
    <glyph glyph-name="j" unicode="j" horiz-adv-x="302" 
d="M150 551q-40 0 -69 29t-29 69q0 41 29 70.5t69 29.5q41 0 70.5 -29.5t29.5 -70.5q0 -40 -29.5 -69t-70.5 -29zM242 485v-483q0 -78 -50 -120t-156 -76l-72 131q54 19 75 41t21 51v456h182z" />
    <glyph glyph-name="k" unicode="k" horiz-adv-x="567" 
d="M242 156v-156h-182v695l182 11v-360l181 153l109 -125l-134 -101l169 -273h-196l-99 178z" />
    <glyph glyph-name="l" unicode="l" horiz-adv-x="302" 
d="M60 0v695l182 11v-706h-182z" />
    <glyph glyph-name="m" unicode="m" horiz-adv-x="916" 
d="M509 447q30 17 74.5 36t101.5 19q95 0 138 -57.5t43 -144.5v-300h-182v296q0 28 -14 43t-35 15q-17 0 -39 -9.5t-43 -19.5q0 -6 0.5 -12.5t0.5 -12.5v-300h-182v296q0 28 -14 43t-35 15q-15 0 -37.5 -9t-43.5 -19v-326h-182v484h91l38 -42q30 18 76.5 39t107.5 21
q46 0 80 -15t56 -40z" />
    <glyph glyph-name="n" unicode="n" horiz-adv-x="624" 
d="M189 442q31 18 82 39t112 21q103 0 147 -57.5t44 -144.5v-300h-182v296q0 28 -17 43t-42 15q-17 0 -43 -9t-48 -19v-326h-182v484h91z" />
    <glyph glyph-name="o" unicode="o" horiz-adv-x="610" 
d="M30 245q0 122 80.5 189.5t194.5 67.5q120 0 197.5 -66t77.5 -196q0 -122 -81 -186.5t-198 -64.5t-194 63t-77 193zM218 245q0 -49 22 -78.5t63 -29.5q43 0 66 26t23 77q0 49 -22 81.5t-63 32.5q-43 0 -66 -29t-23 -80z" />
    <glyph glyph-name="p" unicode="p" horiz-adv-x="611" 
d="M393 246q0 43 -23.5 75.5t-67.5 32.5q-19 0 -34 -5t-26 -11v-171q14 -13 35 -21.5t40 -8.5q41 0 58.5 36.5t17.5 72.5zM60 -219v703h91l31 -42q37 29 78.5 44.5t87.5 15.5q117 0 175 -72t58 -180q0 -109 -57.5 -185t-185.5 -76q-24 0 -49 6.5t-47 16.5v-221z" />
    <glyph glyph-name="q" unicode="q" horiz-adv-x="611" 
d="M551 484v-692l-182 -11v229q-21 -9 -47 -15t-59 -6q-117 0 -175 72t-58 180q0 109 57.5 185t185.5 76q41 0 82.5 -17.5t73.5 -40.5l31 40h91zM218 245q0 -43 23.5 -75.5t67.5 -32.5q11 0 29 4t31 10v172q-14 13 -35.5 22t-39.5 9q-41 0 -58.5 -36.5t-17.5 -72.5z" />
    <glyph glyph-name="r" unicode="r" horiz-adv-x="395" 
d="M60 0v484h91l44 -49q30 20 71 35t82 15l37 -146q-36 0 -74 -10t-69 -34v-295h-182z" />
    <glyph glyph-name="s" unicode="s" horiz-adv-x="473" 
d="M234 337q0 -7 7.5 -11.5t33.5 -13.5q60 -21 115 -57.5t55 -103.5q0 -76 -50.5 -119t-151.5 -43q-30 0 -97.5 17t-109.5 50l51 125q29 -15 70.5 -29.5t67.5 -14.5q16 0 24 6t8 11q0 7 -8 12.5t-30 12.5q-60 21 -116.5 57.5t-56.5 103.5q0 76 57 119t158 43
q30 0 85.5 -14.5t97.5 -47.5l-51 -125q-29 15 -61 27t-58 12q-22 0 -31 -6t-9 -11z" />
    <glyph glyph-name="t" unicode="t" horiz-adv-x="466" 
d="M456 32q-18 -16 -58.5 -29.5t-75.5 -13.5q-93 0 -165 48t-72 145v140h-75v143h75v131l182 25v-156h117l17 -143h-134v-120q0 -30 17.5 -47.5t49.5 -17.5q13 0 33 4.5t37 14.5z" />
    <glyph glyph-name="u" unicode="u" horiz-adv-x="614" 
d="M425 41q-31 -17 -79.5 -38t-109.5 -21q-103 0 -144.5 57.5t-41.5 144.5v300h182v-296q0 -28 14.5 -43t39.5 -15q16 0 40 9t46 19v326h182v-484h-91z" />
    <glyph glyph-name="v" unicode="v" horiz-adv-x="569" 
d="M196 0l-186 467l178 18l97 -274l93 274h181l-191 -485h-172z" />
    <glyph glyph-name="w" unicode="w" horiz-adv-x="860" 
d="M513 0l-86 251l-85 -251h-166l-166 467l178 18l78 -275l77 275h171l82 -275l73 275h181l-171 -485h-166z" />
    <glyph glyph-name="x" unicode="x" horiz-adv-x="597" 
d="M383 0l-85 104l-83 -104h-205l178 241l-178 221l188 25l94 -119l94 117h201l-185 -254l185 -231h-204z" />
    <glyph glyph-name="y" unicode="y" horiz-adv-x="569" 
d="M188 -2l4 11l-182 458l178 18l97 -274l93 274h181l-213 -542q-23 -59 -86 -102.5t-135 -59.5l-61 141q36 15 76 34.5t48 41.5z" />
    <glyph glyph-name="z" unicode="z" horiz-adv-x="482" 
d="M42 485h387l9 -101l-186 -241h187l17 -143h-414l-22 94l180 242l9 6h-150z" />
    <glyph glyph-name="fi" unicode="&#xfb01;" horiz-adv-x="773" 
d="M433 308h-151v-308h-182v308h-80v143h80v59q0 97 72 145t165 48q35 0 75.5 -13.5t58.5 -29.5l-52 -124q-17 10 -37 14.5t-33 4.5q-32 0 -49.5 -17.5t-17.5 -47.5v-39h134zM621 551q-40 0 -69 29t-29 69q0 41 29 70.5t69 29.5q41 0 70.5 -29.5t29.5 -70.5q0 -40 -29.5 -69
t-70.5 -29zM531 0v485h182v-485h-182z" />
    <glyph glyph-name="fl" unicode="&#xfb02;" horiz-adv-x="773" 
d="M433 308h-151v-308h-182v308h-80v143h80v59q0 97 72 145t165 48q35 0 75.5 -13.5t58.5 -29.5l-52 -124q-17 10 -37 14.5t-33 4.5q-32 0 -49.5 -17.5t-17.5 -47.5v-39h134zM531 0v695l182 11v-706h-182z" />
    <glyph glyph-name="zero" unicode="0" horiz-adv-x="678" 
d="M40 284q0 140 89.5 217.5t209.5 77.5t209.5 -75t89.5 -218q0 -140 -89.5 -220t-210.5 -80q-113 0 -205.5 77.5t-92.5 220.5zM228 287q0 -71 32 -112t79 -41q46 0 78.5 40t32.5 109q0 70 -33 109t-79 39q-44 0 -77 -38.5t-33 -105.5z" />
    <glyph glyph-name="one" unicode="1" horiz-adv-x="493" 
d="M68 0l-16 143h135v197l-78 -36l-79 155l218 107h121v-423h87l17 -143h-405z" />
    <glyph glyph-name="two" unicode="2" horiz-adv-x="523" 
d="M250 579q122 0 166 -54.5t44 -116.5q0 -65 -29 -121.5t-98 -116.5l-31 -27h164l17 -143h-439v120l170 150q45 40 64 70t20 51q0 18 -15 29t-41 11q-35 0 -71 -20t-64 -39l-77 120q34 28 91.5 57.5t128.5 29.5z" />
    <glyph glyph-name="three" unicode="3" horiz-adv-x="565" 
d="M269 579q110 0 177.5 -49t67.5 -128q0 -36 -24 -76t-51 -54q35 -21 60.5 -64t25.5 -87q0 -88 -73.5 -143.5t-194.5 -55.5q-55 0 -120.5 19.5t-122.5 56.5l97 121q43 -27 77.5 -38.5t69.5 -11.5q34 0 56.5 15.5t22.5 41.5q0 29 -19.5 45t-49.5 16h-103l-15 143h82
q43 0 68.5 15.5t25.5 40.5q0 19 -18 32t-57 13q-28 0 -61 -12.5t-68 -36.5l-87 123q53 42 114 58t120 16z" />
    <glyph glyph-name="four" unicode="4" horiz-adv-x="627" 
d="M592 54h-91v-117h-182v117h-278l-21 133l345 384h136v-374h100zM234 197h85v100z" />
    <glyph glyph-name="five" unicode="5" horiz-adv-x="533" 
d="M61 180l19 386h394l-18 -143h-223v-65q12 7 26.5 11.5t35.5 4.5q101 0 154.5 -66t53.5 -154q0 -102 -68 -167.5t-186 -65.5q-54 0 -121.5 20.5t-117.5 55.5l91 129q45 -25 79.5 -37.5t71.5 -12.5t62 21t25 57q0 32 -18 50.5t-46 18.5q-23 0 -39 -14t-22 -29h-153z" />
    <glyph glyph-name="six" unicode="6" horiz-adv-x="617" 
d="M383 635l86 -126q-41 -10 -99.5 -40t-98.5 -77q21 10 41.5 16t34.5 6q102 0 171 -57.5t69 -143.5q0 -88 -68 -157t-181 -69q-126 0 -212 70t-86 210q0 119 97.5 226t245.5 142zM399 209q0 33 -19.5 55.5t-59.5 22.5q-24 0 -48.5 -14.5t-40.5 -32.5q8 -54 36 -80t64 -26
q34 0 51 24.5t17 50.5z" />
    <glyph glyph-name="seven" unicode="7" horiz-adv-x="525" 
d="M25 -30l251 453h-232l-17 143h454l34 -72l-309 -571z" />
    <glyph glyph-name="eight" unicode="8" horiz-adv-x="612" 
d="M572 197q0 -93 -70 -151.5t-195 -58.5q-121 0 -194 55.5t-73 154.5q0 43 24.5 81.5t58.5 62.5q-24 21 -42.5 51.5t-18.5 64.5q0 85 72 135.5t173 50.5q99 0 171 -50.5t72 -135.5q0 -34 -17.5 -65t-42.5 -52q34 -24 58 -62t24 -81zM305 494q-28 0 -41 -17t-13 -31
q0 -18 14 -35.5t42 -21.5q26 4 40 21.5t14 36.5q0 14 -13 30.5t-43 16.5zM228 205q0 -27 24 -48.5t54 -21.5q29 0 54 21.5t25 48.5q0 22 -20.5 46.5t-57.5 31.5q-40 -7 -59.5 -31.5t-19.5 -46.5z" />
    <glyph glyph-name="nine" unicode="9" horiz-adv-x="617" 
d="M234 -69l-86 126q40 9 98.5 39t98.5 78q-21 -10 -41 -16t-34 -6q-102 0 -171 57.5t-69 143.5q0 88 68 157t181 69q126 0 212 -70t86 -210q0 -119 -97.5 -226t-245.5 -142zM218 357q0 -33 19.5 -55.5t59.5 -22.5q24 0 48 14.5t41 32.5q-9 54 -36.5 80t-63.5 26
q-34 0 -51 -24.5t-17 -50.5z" />
    <glyph glyph-name="grave" unicode="`" horiz-adv-x="274" 
d="M10 787h180l74 -199h-140z" />
    <glyph glyph-name="dieresis" unicode="&#xa8;" horiz-adv-x="398" 
d="M93 769q36 0 60 -24.5t24 -58.5q0 -35 -24 -59t-60 -24q-33 0 -58 24t-25 59q0 34 25 58.5t58 24.5zM304 769q36 0 60 -24.5t24 -58.5q0 -35 -24 -59t-60 -24q-33 0 -58 24t-25 59q0 34 25 58.5t58 24.5z" />
    <glyph glyph-name="macron" unicode="&#xaf;" horiz-adv-x="310" 
d="M10 756h290v-143h-290v143z" />
    <glyph glyph-name="acute" unicode="&#xb4;" horiz-adv-x="274" 
d="M84 787h180l-114 -199h-140z" />
    <glyph glyph-name="circumflex" unicode="&#x2c6;" horiz-adv-x="475" 
d="M187 588h-177l174 199h107l174 -199h-173l-52 62z" />
    <glyph glyph-name="caron" unicode="&#x2c7;" horiz-adv-x="475" 
d="M10 787h177l53 -62l52 62h173l-174 -199h-107z" />
    <glyph glyph-name="breve" unicode="&#x2d8;" horiz-adv-x="380" 
d="M370 777q0 -86 -49 -137t-131 -52q-82 1 -131 52t-49 137h129q0 -25 13.5 -40.5t37.5 -15.5t37.5 15.5t13.5 40.5h129z" />
    <glyph glyph-name="dotaccent" unicode="&#x2d9;" horiz-adv-x="202" 
d="M102 778q40 0 65 -27t25 -65q0 -40 -25 -66t-65 -26q-38 0 -65 26t-27 66q0 38 27 65t65 27z" />
    <glyph glyph-name="ring" unicode="&#x2da;" horiz-adv-x="246" 
d="M123 826q49 0 86 -34t37 -83q0 -51 -37 -83t-86 -32q-50 0 -86.5 32t-36.5 83q0 49 36.5 83t86.5 34zM125 679q12 0 20 9t8 21t-8 20t-20 8t-21 -8t-9 -20t9 -21t21 -9z" />
    <glyph glyph-name="tilde" unicode="&#x2dc;" horiz-adv-x="391" 
d="M136 600h-126q0 90 40.5 125t86.5 35q31 0 54.5 -17t45.5 -17q8 0 15 10t7 19h122q0 -90 -38.5 -125t-84.5 -35q-31 0 -54.5 17t-45.5 17q-8 0 -15 -10t-7 -19z" />
    <glyph glyph-name="hungarumlaut" unicode="&#x2dd;" horiz-adv-x="483" 
d="M303 787h170l-114 -199h-130zM84 787h170l-114 -199h-130z" />
    <glyph glyph-name="ogonek" unicode="&#x2db;" horiz-adv-x="291" 
d="M35 5h144q-10 -13 -21 -39t-11 -45q0 -12 8 -22t21 -10q10 0 20 3.5t24 16.5l61 -102q-17 -20 -50 -33.5t-73 -13.5q-73 0 -110.5 45.5t-37.5 101.5q0 19 7.5 49t17.5 49z" />
    <glyph glyph-name="cedilla" unicode="&#xb8;" horiz-adv-x="277" 
d="M93 13h126l-20 -52q37 -12 52.5 -44.5t15.5 -58.5q0 -57 -43.5 -88.5t-97.5 -31.5q-29 0 -60 11t-56 30l38 86q10 -4 26 -9.5t30 -5.5q13 0 22 4.5t9 13.5q0 14 -22 23.5t-63 14.5z" />
    <glyph glyph-name="commaaccent" unicode="&#xf6c3;" horiz-adv-x="213" 
d="M111 -21q38 0 65 -29.5t27 -77.5q0 -59 -45.5 -114t-111.5 -80l-36 80q14 8 31 23t21 28q-18 11 -30.5 32t-12.5 46q0 34 26.5 63t65.5 29z" />
    <glyph glyph-name="Thorn" unicode="&#xde;" horiz-adv-x="666" 
d="M70 0v680h182v-98h104q113 0 196.5 -61t83.5 -184q0 -122 -89 -179.5t-199 -57.5h-96v-100h-182zM350 439h-98v-196h100q42 0 69 27t27 67q0 45 -26 73.5t-72 28.5z" />
    <glyph glyph-name="Eth" unicode="&#xd0;" horiz-adv-x="727" 
d="M0 413h78v267h298q157 0 239 -95.5t82 -240.5q0 -159 -91 -251.5t-234 -92.5h-294v270h-61zM367 537h-107v-124h109l17 -143h-126v-127h100q63 0 106 50t43 151q0 84 -36.5 138.5t-105.5 54.5z" />
    <glyph glyph-name="AE" unicode="&#xc6;" horiz-adv-x="987" 
d="M469 399l-91 -128h91v128zM967 0h-498v128h-192l-92 -131l-175 26l459 657h451l17 -143h-286v-124h209l17 -143h-226v-127h299z" />
    <glyph glyph-name="Dcroat" unicode="&#x110;" horiz-adv-x="727" 
d="M0 413h78v267h298q157 0 239 -95.5t82 -240.5q0 -159 -91 -251.5t-234 -92.5h-294v270h-61zM367 537h-107v-124h109l17 -143h-126v-127h100q63 0 106 50t43 151q0 84 -36.5 138.5t-105.5 54.5z" />
    <glyph glyph-name="Lslash" unicode="&#x141;" horiz-adv-x="611" 
d="M113 0v198l-42 -25l-71 133l113 69v305h182v-194l99 61l73 -133l-172 -105v-166h289l17 -143h-488z" />
    <glyph glyph-name="OE" unicode="&#x152;" horiz-adv-x="1033" 
d="M515 513q-28 13 -57.5 22t-72.5 9q-57 0 -107 -53.5t-50 -152.5q0 -96 43 -149t107 -53q34 0 71 10t66 29v338zM515 0v9q-34 -10 -71 -16t-71 -6q-166 0 -249.5 98t-83.5 252q0 157 89 256.5t240 99.5q35 0 73.5 -7.5t72.5 -20.5v15h451l17 -143h-286v-124h209l17 -143
h-226v-127h299l17 -143h-498z" />
    <glyph glyph-name="Oslash" unicode="&#xd8;" horiz-adv-x="743" 
d="M40 337q0 157 89 257t242 100q166 0 249 -102t83 -248q0 -158 -88 -258t-244 -100q-163 0 -247 102.5t-84 248.5zM373 542q-68 0 -107 -56t-39 -148q0 -38 6 -71.5t19 -58.5l139 333q-4 0 -9 0.5t-9 0.5zM360 138h10q70 0 108 51.5t38 154.5q0 33 -5 62t-15 53z" />
    <glyph glyph-name="germandbls" unicode="&#xdf;" horiz-adv-x="656" 
d="M60 472q0 102 71.5 166t191.5 64q104 0 183.5 -50.5t79.5 -148.5q0 -33 -13.5 -73.5t-43.5 -65.5q43 -17 72 -64.5t29 -99.5q0 -92 -67 -146t-175 -54h-93v149h76q30 0 52 17t22 48q0 35 -20 53.5t-46 18.5h-79v130h27q35 0 56 22.5t21 46.5q0 25 -18 44.5t-57 19.5
q-29 0 -58 -23t-29 -69v-457h-182v472z" />
    <glyph glyph-name="eth" unicode="&#xf0;" horiz-adv-x="617" 
d="M449 611l-36 -28q74 -66 119 -151t45 -165q0 -140 -86 -210t-212 -70q-113 0 -181 69t-68 157q0 86 69 143.5t171 57.5q16 0 38.5 -7.5t46.5 -19.5q-16 24 -36.5 47t-43.5 42l-74 -57l-91 87l54 42q-16 8 -31.5 14t-26.5 9l86 126q29 -6 57.5 -16.5t55.5 -23.5l58 45z
M218 209q0 -26 17 -50.5t51 -24.5q36 0 63.5 26t36.5 80q-17 18 -41 32.5t-48 14.5q-40 0 -59.5 -22.5t-19.5 -55.5z" />
    <glyph glyph-name="thorn" unicode="&#xfe;" horiz-adv-x="611" 
d="M393 246q0 43 -23.5 75.5t-67.5 32.5q-19 0 -34 -5t-26 -11v-171q14 -13 35 -21.5t40 -8.5q41 0 58.5 36.5t17.5 72.5zM60 -219v899l182 6v-207q25 11 51.5 17t54.5 6q117 0 175 -72t58 -180q0 -109 -57.5 -185t-185.5 -76q-24 0 -49 6.5t-47 16.5v-221z" />
    <glyph glyph-name="florin" unicode="&#x192;" horiz-adv-x="471" 
d="M282 70q0 -97 -72 -145t-165 -48q-35 0 -75.5 13.5t-58.5 29.5l52 124q17 -10 37 -14.5t33 -4.5q32 0 49.5 17.5t17.5 47.5v218h-80v143h80v59q0 97 72 145t165 48q35 0 75.5 -13.5t58.5 -29.5l-52 -124q-17 10 -37 14.5t-33 4.5q-32 0 -49.5 -17.5t-17.5 -47.5v-39h134
l17 -143h-151v-238z" />
    <glyph glyph-name="ae" unicode="&#xe6;" horiz-adv-x="811" 
d="M396 459q32 21 71 32t82 11q116 0 174 -75t58 -177v-63h-295q12 -28 36.5 -40t58.5 -12q32 0 65.5 6t61.5 20l51 -123q-42 -31 -104 -40t-92 -9q-60 0 -111.5 15t-88.5 47q-22 -24 -59.5 -43t-91.5 -19q-92 0 -137 46t-45 121q0 79 53 115.5t137 36.5h58q-4 22 -21 34
t-42 12t-59 -8.5t-62 -20.5l-48 131q38 17 96 31.5t118 14.5q43 0 77 -11t59 -32zM607 297q-1 16 -15 37.5t-48 21.5q-25 0 -40.5 -15.5t-22.5 -43.5h126zM215 135q28 0 47.5 12.5t32.5 25.5q-1 6 -2.5 12t-2.5 13h-67q-18 0 -29.5 -9.5t-11.5 -25.5q0 -12 10 -20t23 -8z
" />
    <glyph glyph-name="dcroat" unicode="&#x111;" horiz-adv-x="611" 
d="M218 245q0 -43 23.5 -75.5t67.5 -32.5q11 0 29 4t31 10v172q-14 13 -35.5 22t-39.5 9q-41 0 -58.5 -36.5t-17.5 -72.5zM267 643h102v52l182 11v-63h51l17 -113h-68v-530h-92l-32 50q-22 -20 -61.5 -40.5t-102.5 -20.5q-117 0 -175 72t-58 180q0 109 57.5 185t185.5 76
q24 0 48.5 -6.5t47.5 -16.5v51h-85z" />
    <glyph glyph-name="oe" unicode="&#x153;" horiz-adv-x="902" 
d="M472 448q34 26 76.5 40t91.5 14q116 0 174 -75t58 -177v-63h-295q12 -28 36.5 -40t58.5 -12q32 0 65.5 6t61.5 20l51 -123q-42 -31 -104 -40t-92 -9q-54 0 -101.5 12.5t-83.5 38.5q-36 -25 -76 -38t-98 -13q-118 0 -191.5 65.5t-73.5 187.5t73.5 191t191.5 69
q63 0 103 -14.5t74 -39.5zM698 297q-1 16 -15 37.5t-48 21.5q-25 0 -40.5 -15.5t-22.5 -43.5h126zM393 336q-22 10 -40 14t-40 4q-37 0 -66 -30t-29 -82q0 -51 29 -78t66 -27q19 0 37.5 3t40.5 13q-6 19 -9 41.5t-3 47.5t3.5 49t10.5 45z" />
    <glyph glyph-name="lacute" unicode="&#x13a;" horiz-adv-x="302" 
d="M153 932h175l-111 -194h-136zM60 0v695l182 11v-706h-182z" />
    <glyph glyph-name="lslash" unicode="&#x142;" horiz-adv-x="386" 
d="M98 0v196l-58 -40l-40 160l98 68v311l182 11v-196l65 45l41 -160l-106 -73v-322h-182z" />
    <glyph glyph-name="dotlessi" unicode="&#x131;" horiz-adv-x="302" 
d="M60 0v485h182v-485h-182z" />
    <glyph glyph-name="oslash" unicode="&#xf8;" horiz-adv-x="610" 
d="M30 245q0 122 80.5 189.5t194.5 67.5q120 0 197.5 -66t77.5 -196q0 -122 -81 -186.5t-198 -64.5t-194 63t-77 193zM307 360q-43 0 -70 -32t-27 -83q0 -13 1.5 -24.5t5.5 -21.5zM305 132q42 1 68.5 29.5t26.5 78.5q0 11 -2 22.5t-5 21.5z" />
    <glyph glyph-name="gcedilla" unicode="&#x123;" horiz-adv-x="611" 
d="M301 541q-38 0 -65 29.5t-27 77.5q0 59 45.5 114t111.5 80l36 -80q-14 -8 -31 -23t-21 -28q18 -11 30.5 -32t12.5 -46q0 -34 -26.5 -63t-65.5 -29zM369 151v172q-14 13 -35.5 22t-39.5 9q-41 0 -58.5 -36.5t-17.5 -72.5q0 -43 23.5 -75.5t67.5 -32.5q11 0 29 4t31 10z
M551 484v-489q0 -105 -69.5 -159.5t-197.5 -54.5q-31 0 -93 12.5t-109 43.5l55 128q49 -24 81.5 -30.5t62.5 -6.5q31 0 59.5 12t28.5 35v35q-21 -9 -47 -15t-59 -6q-117 0 -175 72t-58 180q0 109 57.5 185t185.5 76q41 0 82.5 -17.5t73.5 -40.5l31 40h91z" />
    <glyph glyph-name="Agrave" unicode="&#xc0;" horiz-adv-x="711" 
d="M178 932h175l72 -194h-136zM353 462l-65 -185h133zM447 680l254 -662l-179 -18l-49 134h-235l-47 -134h-181l255 680h182z" />
    <glyph glyph-name="Aacute" unicode="&#xc1;" horiz-adv-x="711" 
d="M348 932h175l-111 -194h-136zM353 462l-65 -185h133zM447 680l254 -662l-179 -18l-49 134h-235l-47 -134h-181l255 680h182z" />
    <glyph glyph-name="Acircumflex" unicode="&#xc2;" horiz-adv-x="711" 
d="M294 739h-177l174 199h107l174 -199h-173l-52 62zM353 462l-65 -185h133zM447 680l254 -662l-179 -18l-49 134h-235l-47 -134h-181l255 680h182z" />
    <glyph glyph-name="Atilde" unicode="&#xc3;" horiz-adv-x="711" 
d="M292 750h-126q0 90 40.5 125t86.5 35q31 0 54.5 -17t45.5 -17q8 0 15 10t7 19h122q0 -90 -38.5 -125t-84.5 -35q-31 0 -54.5 17t-45.5 17q-8 0 -15 -10t-7 -19zM353 462l-65 -185h133zM447 680l254 -662l-179 -18l-49 134h-235l-47 -134h-181l255 680h182z" />
    <glyph glyph-name="Adieresis" unicode="&#xc4;" horiz-adv-x="711" 
d="M246 919q36 0 60 -24.5t24 -58.5q0 -35 -24 -59t-60 -24q-33 0 -58 24t-25 59q0 34 25 58.5t58 24.5zM457 919q36 0 60 -24.5t24 -58.5q0 -35 -24 -59t-60 -24q-33 0 -58 24t-25 59q0 34 25 58.5t58 24.5zM353 462l-65 -185h133zM447 680l254 -662l-179 -18l-49 134h-235
l-47 -134h-181l255 680h182z" />
    <glyph glyph-name="Aring" unicode="&#xc5;" horiz-adv-x="711" 
d="M353 976q49 0 86 -34t37 -83q0 -51 -37 -83t-86 -32q-50 0 -86.5 32t-36.5 83q0 49 36.5 83t86.5 34zM355 829q12 0 20 9t8 21t-8 20t-20 8t-21 -8t-9 -20t9 -21t21 -9zM353 462l-65 -185h133zM447 680l254 -662l-179 -18l-49 134h-235l-47 -134h-181l255 680h182z" />
    <glyph glyph-name="Abreve" unicode="&#x102;" horiz-adv-x="711" 
d="M533 928q0 -86 -49 -137t-131 -52q-82 1 -131 52t-49 137h129q0 -25 13.5 -40.5t37.5 -15.5t37.5 15.5t13.5 40.5h129zM353 462l-65 -185h133zM447 680l254 -662l-179 -18l-49 134h-235l-47 -134h-181l255 680h182z" />
    <glyph glyph-name="Aogonek" unicode="&#x104;" horiz-adv-x="711" 
d="M447 680l254 -662q-20 -11 -45.5 -44.5t-25.5 -52.5q0 -12 8 -22t21 -10q10 0 20 3.5t24 16.5l61 -102q-17 -20 -50 -33.5t-73 -13.5q-73 0 -110.5 45.5t-37.5 101.5q0 19 8.5 49t20.5 44l-49 134h-235l-47 -134h-181l255 680h182zM353 462l-65 -185h133z" />
    <glyph glyph-name="Amacron" unicode="&#x100;" horiz-adv-x="711" 
d="M207 906h290v-143h-290v143zM353 462l-65 -185h133zM447 680l254 -662l-179 -18l-49 134h-235l-47 -134h-181l255 680h182z" />
    <glyph glyph-name="Ccedilla" unicode="&#xc7;" horiz-adv-x="606" 
d="M515 514q-54 19 -82 24.5t-62 5.5q-61 0 -102 -56.5t-41 -149.5q0 -96 43 -149t107 -53q37 0 70 10.5t59 26.5l69 -136q-28 -17 -66 -29t-77 -17l-11 -30q37 -12 52.5 -44.5t15.5 -58.5q0 -57 -43.5 -88.5t-97.5 -31.5q-29 0 -60 11t-56 30l38 86q10 -4 26 -9.5t30 -5.5
q13 0 22 4.5t9 13.5q0 14 -22 23.5t-63 14.5l34 86q-133 19 -200 112.5t-67 232.5q0 157 89 256.5t240 99.5q51 0 105.5 -14.5t94.5 -41.5z" />
    <glyph glyph-name="Cacute" unicode="&#x106;" horiz-adv-x="606" 
d="M317 932h175l-111 -194h-136zM515 514q-54 19 -82 24.5t-62 5.5q-61 0 -102 -56.5t-41 -149.5q0 -96 43 -149t107 -53q37 0 70 10.5t59 26.5l69 -136q-40 -24 -95.5 -37t-107.5 -13q-166 0 -249.5 98t-83.5 252q0 157 89 256.5t240 99.5q51 0 105.5 -14.5t94.5 -41.5z
" />
    <glyph glyph-name="Ccaron" unicode="&#x10c;" horiz-adv-x="606" 
d="M141 938h177l53 -62l52 62h173l-174 -199h-107zM515 514q-54 19 -82 24.5t-62 5.5q-61 0 -102 -56.5t-41 -149.5q0 -96 43 -149t107 -53q37 0 70 10.5t59 26.5l69 -136q-40 -24 -95.5 -37t-107.5 -13q-166 0 -249.5 98t-83.5 252q0 157 89 256.5t240 99.5
q51 0 105.5 -14.5t94.5 -41.5z" />
    <glyph glyph-name="Dcaron" unicode="&#x10e;" horiz-adv-x="719" 
d="M105 938h177l53 -62l52 62h173l-174 -199h-107zM70 0v680h298q157 0 239 -95.5t82 -240.5q0 -159 -91 -251.5t-234 -92.5h-294zM359 537h-107v-394h100q63 0 106 50t43 151q0 84 -36.5 138.5t-105.5 54.5z" />
    <glyph glyph-name="Egrave" unicode="&#xc8;" horiz-adv-x="588" 
d="M163 932h175l72 -194h-136zM70 0v680h451l17 -143h-286v-124h209l17 -143h-226v-127h299l17 -143h-498z" />
    <glyph glyph-name="Eacute" unicode="&#xc9;" horiz-adv-x="588" 
d="M307 932h175l-111 -194h-136zM70 0v680h451l17 -143h-286v-124h209l17 -143h-226v-127h299l17 -143h-498z" />
    <glyph glyph-name="Ecircumflex" unicode="&#xca;" horiz-adv-x="588" 
d="M250 739h-177l174 199h107l174 -199h-173l-52 62zM70 0v680h451l17 -143h-286v-124h209l17 -143h-226v-127h299l17 -143h-498z" />
    <glyph glyph-name="Edieresis" unicode="&#xcb;" horiz-adv-x="588" 
d="M199 919q36 0 60 -24.5t24 -58.5q0 -35 -24 -59t-60 -24q-33 0 -58 24t-25 59q0 34 25 58.5t58 24.5zM410 919q36 0 60 -24.5t24 -58.5q0 -35 -24 -59t-60 -24q-33 0 -58 24t-25 59q0 34 25 58.5t58 24.5zM568 0h-498v680h451l17 -143h-286v-124h209l17 -143h-226v-127
h299z" />
    <glyph glyph-name="Emacron" unicode="&#x112;" horiz-adv-x="588" 
d="M154 906h290v-143h-290v143zM568 0h-498v680h451l17 -143h-286v-124h209l17 -143h-226v-127h299z" />
    <glyph glyph-name="Edotaccent" unicode="&#x116;" horiz-adv-x="588" 
d="M307 928q40 0 65 -27t25 -65q0 -40 -25 -66t-65 -26q-38 0 -65 26t-27 66q0 38 27 65t65 27zM70 0v680h451l17 -143h-286v-124h209l17 -143h-226v-127h299l17 -143h-498z" />
    <glyph glyph-name="Eogonek" unicode="&#x118;" horiz-adv-x="588" 
d="M70 0v680h451l17 -143h-286v-124h209l17 -143h-226v-127h299l17 -143h-91q-10 -14 -19 -37.5t-9 -41.5q0 -12 8 -22t21 -10q10 0 20 3.5t24 16.5l61 -102q-17 -20 -50 -33.5t-73 -13.5q-73 0 -110.5 45.5t-37.5 101.5q0 18 6.5 46t15.5 47h-264z" />
    <glyph glyph-name="Ecaron" unicode="&#x11a;" horiz-adv-x="588" 
d="M69 938h177l53 -62l52 62h173l-174 -199h-107zM70 0v680h451l17 -143h-286v-124h209l17 -143h-226v-127h299l17 -143h-498z" />
    <glyph glyph-name="Gbreve" unicode="&#x11e;" horiz-adv-x="676" 
d="M579 928q0 -86 -49 -137t-131 -52q-82 1 -131 52t-49 137h129q0 -25 13.5 -40.5t37.5 -15.5t37.5 15.5t13.5 40.5h129zM555 514q-54 19 -92 24.5t-72 5.5q-61 0 -112 -51t-51 -155q0 -110 48 -156t112 -46q14 0 30.5 1.5t33.5 4.5v117h-117l-16 133h297v-355
q-40 -24 -110.5 -37t-122.5 -13q-166 0 -254.5 92t-88.5 258q0 167 99 261.5t250 94.5q51 0 115.5 -14.5t104.5 -41.5z" />
    <glyph glyph-name="Igrave" unicode="&#xcc;" horiz-adv-x="322" 
d="M0 932h175l72 -194h-136zM70 0v680h182v-680h-182z" />
    <glyph glyph-name="Iacute" unicode="&#xcd;" horiz-adv-x="322" 
d="M145 932h175l-111 -194h-136zM70 0v680h182v-680h-182z" />
    <glyph glyph-name="Icircumflex" unicode="&#xce;" horiz-adv-x="322" 
d="M114 739h-177l174 199h107l174 -199h-173l-52 62zM70 0v680h182v-680h-182z" />
    <glyph glyph-name="Idieresis" unicode="&#xcf;" horiz-adv-x="322" 
d="M50 919q36 0 60 -24.5t24 -58.5q0 -35 -24 -59t-60 -24q-33 0 -58 24t-25 59q0 34 25 58.5t58 24.5zM261 919q36 0 60 -24.5t24 -58.5q0 -35 -24 -59t-60 -24q-33 0 -58 24t-25 59q0 34 25 58.5t58 24.5zM70 0v680h182v-680h-182z" />
    <glyph glyph-name="Imacron" unicode="&#x12a;" horiz-adv-x="322" 
d="M17 906h290v-143h-290v143zM70 0v680h182v-680h-182z" />
    <glyph glyph-name="Iogonek" unicode="&#x12e;" horiz-adv-x="322" 
d="M70 0v680h182v-680q-19 -12 -43.5 -36t-24.5 -43q0 -12 8 -22t21 -10q10 0 20 3.5t24 16.5l61 -102q-17 -20 -50 -33.5t-73 -13.5q-73 0 -110.5 45.5t-37.5 101.5q0 19 6.5 46.5t16.5 46.5z" />
    <glyph glyph-name="Idotaccent" unicode="&#x130;" horiz-adv-x="322" 
d="M149 928q40 0 65 -27t25 -65q0 -40 -25 -66t-65 -26q-38 0 -65 26t-27 66q0 38 27 65t65 27zM70 0v680h182v-680h-182z" />
    <glyph glyph-name="Lacute" unicode="&#x139;" horiz-adv-x="568" 
d="M158 932h175l-111 -194h-136zM70 0v680h182v-537h289l17 -143h-488z" />
    <glyph glyph-name="Lcaron" unicode="&#x13d;" horiz-adv-x="568" 
d="M444 743q38 0 65 -29.5t27 -77.5q0 -59 -45.5 -114t-111.5 -80l-36 80q14 8 31 23t21 28q-18 11 -30.5 32t-12.5 46q0 34 26.5 63t65.5 29zM558 0h-488v680h182v-537h289z" />
    <glyph glyph-name="Ntilde" unicode="&#xd1;" horiz-adv-x="753" 
d="M311 750h-126q0 90 40.5 125t86.5 35q31 0 54.5 -17t45.5 -17q8 0 15 10t7 19h122q0 -90 -38.5 -125t-84.5 -35q-31 0 -54.5 17t-45.5 17q-8 0 -15 -10t-7 -19zM70 0v680h169l262 -369v369h182v-680h-170l-261 358v-358h-182z" />
    <glyph glyph-name="Nacute" unicode="&#x143;" horiz-adv-x="753" 
d="M360 932h175l-111 -194h-136zM70 0v680h169l262 -369v369h182v-680h-170l-261 358v-358h-182z" />
    <glyph glyph-name="Ncaron" unicode="&#x147;" horiz-adv-x="753" 
d="M147 938h177l53 -62l52 62h173l-174 -199h-107zM70 0v680h169l262 -369v369h182v-680h-170l-261 358v-358h-182z" />
    <glyph glyph-name="Ograve" unicode="&#xd2;" horiz-adv-x="743" 
d="M205 932h175l72 -194h-136zM40 337q0 157 89 257t242 100q166 0 249 -102t83 -248q0 -158 -88 -258t-244 -100q-163 0 -247 102.5t-84 248.5zM227 338q0 -86 33 -143t110 -57q70 0 108 51.5t38 154.5q0 85 -33.5 141.5t-109.5 56.5q-68 0 -107 -56t-39 -148z" />
    <glyph glyph-name="Oacute" unicode="&#xd3;" horiz-adv-x="743" 
d="M365 932h175l-111 -194h-136zM40 337q0 157 89 257t242 100q166 0 249 -102t83 -248q0 -158 -88 -258t-244 -100q-163 0 -247 102.5t-84 248.5zM227 338q0 -86 33 -143t110 -57q70 0 108 51.5t38 154.5q0 85 -33.5 141.5t-109.5 56.5q-68 0 -107 -56t-39 -148z" />
    <glyph glyph-name="Ocircumflex" unicode="&#xd4;" horiz-adv-x="743" 
d="M319 739h-177l174 199h107l174 -199h-173l-52 62zM40 337q0 157 89 257t242 100q166 0 249 -102t83 -248q0 -158 -88 -258t-244 -100q-163 0 -247 102.5t-84 248.5zM227 338q0 -86 33 -143t110 -57q70 0 108 51.5t38 154.5q0 85 -33.5 141.5t-109.5 56.5q-68 0 -107 -56
t-39 -148z" />
    <glyph glyph-name="Otilde" unicode="&#xd5;" horiz-adv-x="743" 
d="M312 750h-126q0 90 40.5 125t86.5 35q31 0 54.5 -17t45.5 -17q8 0 15 10t7 19h122q0 -90 -38.5 -125t-84.5 -35q-31 0 -54.5 17t-45.5 17q-8 0 -15 -10t-7 -19zM40 337q0 157 89 257t242 100q166 0 249 -102t83 -248q0 -158 -88 -258t-244 -100q-163 0 -247 102.5
t-84 248.5zM227 338q0 -86 33 -143t110 -57q70 0 108 51.5t38 154.5q0 85 -33.5 141.5t-109.5 56.5q-68 0 -107 -56t-39 -148z" />
    <glyph glyph-name="Odieresis" unicode="&#xd6;" horiz-adv-x="743" 
d="M265 919q36 0 60 -24.5t24 -58.5q0 -35 -24 -59t-60 -24q-33 0 -58 24t-25 59q0 34 25 58.5t58 24.5zM476 919q36 0 60 -24.5t24 -58.5q0 -35 -24 -59t-60 -24q-33 0 -58 24t-25 59q0 34 25 58.5t58 24.5zM40 337q0 157 89 257t242 100q166 0 249 -102t83 -248
q0 -158 -88 -258t-244 -100q-163 0 -247 102.5t-84 248.5zM227 338q0 -86 33 -143t110 -57q70 0 108 51.5t38 154.5q0 85 -33.5 141.5t-109.5 56.5q-68 0 -107 -56t-39 -148z" />
    <glyph glyph-name="Omacron" unicode="&#x14c;" horiz-adv-x="743" 
d="M222 906h290v-143h-290v143zM40 337q0 157 89 257t242 100q166 0 249 -102t83 -248q0 -158 -88 -258t-244 -100q-163 0 -247 102.5t-84 248.5zM227 338q0 -86 33 -143t110 -57q70 0 108 51.5t38 154.5q0 85 -33.5 141.5t-109.5 56.5q-68 0 -107 -56t-39 -148z" />
    <glyph glyph-name="Ohungarumlaut" unicode="&#x150;" horiz-adv-x="743" 
d="M467 932h165l-111 -194h-126zM255 932h165l-111 -194h-126zM40 337q0 157 89 257t242 100q166 0 249 -102t83 -248q0 -158 -88 -258t-244 -100q-163 0 -247 102.5t-84 248.5zM227 338q0 -86 33 -143t110 -57q70 0 108 51.5t38 154.5q0 85 -33.5 141.5t-109.5 56.5
q-68 0 -107 -56t-39 -148z" />
    <glyph glyph-name="Racute" unicode="&#x154;" horiz-adv-x="704" 
d="M285 932h175l-111 -194h-136zM350 537h-98v-180h100q42 0 69 25.5t27 65.5q0 45 -26 67t-72 22zM70 0v680h286q113 0 196.5 -54.5t83.5 -177.5q0 -62 -25.5 -107t-66.5 -73l150 -268h-211l-110 214h-121v-214h-182z" />
    <glyph glyph-name="Rcaron" unicode="&#x158;" horiz-adv-x="704" 
d="M95 938h177l53 -62l52 62h173l-174 -199h-107zM350 537h-98v-180h100q42 0 69 25.5t27 65.5q0 45 -26 67t-72 22zM70 0v680h286q113 0 196.5 -54.5t83.5 -177.5q0 -62 -25.5 -107t-66.5 -73l150 -268h-211l-110 214h-121v-214h-182z" />
    <glyph glyph-name="Sacute" unicode="&#x15a;" horiz-adv-x="564" 
d="M271 932h175l-111 -194h-136zM245 268q-68 34 -136 88.5t-68 141.5q0 84 68.5 139.5t184.5 55.5q51 0 105.5 -14.5t94.5 -41.5l-54 -123q-54 19 -82 24.5t-62 5.5q-31 0 -49 -14.5t-18 -33.5q0 -22 30.5 -38.5t72.5 -38.5q72 -37 139 -93t67 -139q0 -86 -72.5 -143
t-198.5 -57q-52 0 -117.5 15.5t-105.5 39.5l60 137q26 -16 73.5 -29.5t84.5 -13.5q43 0 65.5 17t22.5 36q0 18 -33 39t-72 40z" />
    <glyph glyph-name="Scaron" unicode="&#x160;" horiz-adv-x="564" 
d="M65 938h177l53 -62l52 62h173l-174 -199h-107zM245 268q-68 34 -136 88.5t-68 141.5q0 84 68.5 139.5t184.5 55.5q51 0 105.5 -14.5t94.5 -41.5l-54 -123q-54 19 -82 24.5t-62 5.5q-31 0 -49 -14.5t-18 -33.5q0 -22 30.5 -38.5t72.5 -38.5q72 -37 139 -93t67 -139
q0 -86 -72.5 -143t-198.5 -57q-52 0 -117.5 15.5t-105.5 39.5l60 137q26 -16 73.5 -29.5t84.5 -13.5q43 0 65.5 17t22.5 36q0 18 -33 39t-72 40z" />
    <glyph glyph-name="Tcaron" unicode="&#x164;" horiz-adv-x="619" 
d="M69 938h177l53 -62l52 62h173l-174 -199h-107zM210 0v537h-200v143h582l17 -143h-217v-537h-182z" />
    <glyph glyph-name="Ugrave" unicode="&#xd9;" horiz-adv-x="730" 
d="M202 932h175l72 -194h-136zM488 269v411h182v-420q0 -133 -84.5 -203.5t-220.5 -70.5t-220.5 70.5t-84.5 203.5v420h182v-411q0 -64 34.5 -97.5t88.5 -33.5t88.5 33.5t34.5 97.5z" />
    <glyph glyph-name="Uacute" unicode="&#xda;" horiz-adv-x="730" 
d="M346 932h175l-111 -194h-136zM488 269v411h182v-420q0 -133 -84.5 -203.5t-220.5 -70.5t-220.5 70.5t-84.5 203.5v420h182v-411q0 -64 34.5 -97.5t88.5 -33.5t88.5 33.5t34.5 97.5z" />
    <glyph glyph-name="Ucircumflex" unicode="&#xdb;" horiz-adv-x="730" 
d="M308 739h-177l174 199h107l174 -199h-173l-52 62zM488 269v411h182v-420q0 -133 -84.5 -203.5t-220.5 -70.5t-220.5 70.5t-84.5 203.5v420h182v-411q0 -64 34.5 -97.5t88.5 -33.5t88.5 33.5t34.5 97.5z" />
    <glyph glyph-name="Udieresis" unicode="&#xdc;" horiz-adv-x="730" 
d="M258 919q36 0 60 -24.5t24 -58.5q0 -35 -24 -59t-60 -24q-33 0 -58 24t-25 59q0 34 25 58.5t58 24.5zM469 919q36 0 60 -24.5t24 -58.5q0 -35 -24 -59t-60 -24q-33 0 -58 24t-25 59q0 34 25 58.5t58 24.5zM488 269v411h182v-420q0 -133 -84.5 -203.5t-220.5 -70.5
t-220.5 70.5t-84.5 203.5v420h182v-411q0 -64 34.5 -97.5t88.5 -33.5t88.5 33.5t34.5 97.5z" />
    <glyph glyph-name="Umacron" unicode="&#x16a;" horiz-adv-x="730" 
d="M221 906h290v-143h-290v143zM488 269v411h182v-420q0 -133 -84.5 -203.5t-220.5 -70.5t-220.5 70.5t-84.5 203.5v420h182v-411q0 -64 34.5 -97.5t88.5 -33.5t88.5 33.5t34.5 97.5z" />
    <glyph glyph-name="Uring" unicode="&#x16e;" horiz-adv-x="730" 
d="M353 976q49 0 86 -34t37 -83q0 -51 -37 -83t-86 -32q-50 0 -86.5 32t-36.5 83q0 49 36.5 83t86.5 34zM355 829q12 0 20 9t8 21t-8 20t-20 8t-21 -8t-9 -20t9 -21t21 -9zM488 269v411h182v-420q0 -133 -84.5 -203.5t-220.5 -70.5t-220.5 70.5t-84.5 203.5v420h182v-411
q0 -64 34.5 -97.5t88.5 -33.5t88.5 33.5t34.5 97.5z" />
    <glyph glyph-name="Uhungarumlaut" unicode="&#x170;" horiz-adv-x="730" 
d="M458 932h165l-111 -194h-126zM246 932h165l-111 -194h-126zM488 269v411h182v-420q0 -133 -84.5 -203.5t-220.5 -70.5t-220.5 70.5t-84.5 203.5v420h182v-411q0 -64 34.5 -97.5t88.5 -33.5t88.5 33.5t34.5 97.5z" />
    <glyph glyph-name="Uogonek" unicode="&#x172;" horiz-adv-x="730" 
d="M488 269v411h182v-420q0 -101 -50.5 -167t-135.5 -91q-10 -13 -20 -37.5t-10 -43.5q0 -12 8 -22t21 -10q10 0 20 3.5t24 16.5l61 -102q-17 -20 -50 -33.5t-73 -13.5q-73 0 -110.5 45.5t-37.5 101.5q0 15 5 38t12 42q-123 8 -198.5 78t-75.5 195v420h182v-411
q0 -64 34.5 -97.5t88.5 -33.5t88.5 33.5t34.5 97.5z" />
    <glyph glyph-name="Yacute" unicode="&#xdd;" horiz-adv-x="669" 
d="M302 932h175l-111 -194h-136zM241 0v268l-231 394l189 18l132 -245l141 245h187l-236 -414v-266h-182z" />
    <glyph glyph-name="Ydieresis" unicode="&#x178;" horiz-adv-x="669" 
d="M434 919q36 0 60 -24.5t24 -58.5q0 -35 -24 -59t-60 -24q-33 0 -58 24t-25 59q0 34 25 58.5t58 24.5zM223 919q36 0 60 -24.5t24 -58.5q0 -35 -24 -59t-60 -24q-33 0 -58 24t-25 59q0 34 25 58.5t58 24.5zM241 0v268l-231 394l189 18l132 -245l141 245h187l-236 -414
v-266h-182z" />
    <glyph glyph-name="Zacute" unicode="&#x179;" horiz-adv-x="604" 
d="M283 932h175l-111 -194h-136zM584 551l-347 -403l-7 -5h334l17 -143h-541l-20 128l339 403l8 6h-301l-17 143h516z" />
    <glyph glyph-name="Zdotaccent" unicode="&#x17b;" horiz-adv-x="604" 
d="M310 928q40 0 65 -27t25 -65q0 -40 -25 -66t-65 -26q-38 0 -65 26t-27 66q0 38 27 65t65 27zM49 680h516l19 -129l-347 -403l-7 -5h334l17 -143h-541l-20 128l339 403l8 6h-301z" />
    <glyph glyph-name="Zcaron" unicode="&#x17d;" horiz-adv-x="604" 
d="M93 938h177l53 -62l52 62h173l-174 -199h-107zM49 680h516l19 -129l-347 -403l-7 -5h334l17 -143h-541l-20 128l339 403l8 6h-301z" />
    <glyph glyph-name="Scedilla" unicode="&#x15e;" horiz-adv-x="564" 
d="M245 267q-69 34 -136.5 89t-67.5 142q1 84 69 139.5t184 55.5q51 0 105.5 -14.5t94.5 -41.5l-54 -123q-54 19 -82 24.5t-62 5.5q-31 0 -49 -14.5t-18 -33.5q0 -22 30.5 -38.5t72.5 -38.5q72 -37 139 -93t67 -139q0 -72 -51.5 -124.5t-142.5 -68.5l-12 -33
q37 -12 52.5 -44.5t15.5 -58.5q0 -57 -43.5 -88.5t-97.5 -31.5q-29 0 -60 11t-56 30l38 86q10 -4 26 -9.5t30 -5.5q13 0 22 4.5t9 13.5q0 14 -22 23.5t-63 14.5l34 84q-46 6 -94 19.5t-79 32.5l60 137q26 -16 73.5 -29.5t84.5 -13.5q43 0 65.5 17t22.5 36q0 18 -33 38.5
t-72 39.5z" />
    <glyph glyph-name="Gcedilla" unicode="&#x122;" horiz-adv-x="676" 
d="M555 514q-54 19 -92 24.5t-72 5.5q-61 0 -112 -51t-51 -155q0 -110 48 -156t112 -46q14 0 30.5 1.5t33.5 4.5v117h-117l-16 133h297v-355q-27 -16 -70.5 -27.5t-86.5 -16.5l-12 -32q37 -12 52.5 -44.5t15.5 -58.5q0 -57 -43.5 -88.5t-97.5 -31.5q-29 0 -60 11t-56 30
l38 86q10 -4 26 -9.5t30 -5.5q13 0 22 4.5t9 13.5q0 14 -22 23.5t-63 14.5l33 84q-141 13 -216 104t-75 243q0 167 99 261.5t250 94.5q51 0 115.5 -14.5t104.5 -41.5z" />
    <glyph glyph-name="Kcedilla" unicode="&#x136;" horiz-adv-x="710" 
d="M70 0v680h182v-236l273 251l141 -102l-231 -216l275 -377h-231l-174 254l-53 -50v-204h-182zM358 -21q38 0 65 -29.5t27 -77.5q0 -59 -45.5 -114t-111.5 -80l-36 80q14 8 31 23t21 28q-18 11 -30.5 32t-12.5 46q0 34 26.5 63t65.5 29z" />
    <glyph glyph-name="Lcedilla" unicode="&#x13b;" horiz-adv-x="568" 
d="M70 0v680h182v-537h289l17 -143h-488zM328 -21q38 0 65 -29.5t27 -77.5q0 -59 -45.5 -114t-111.5 -80l-36 80q14 8 31 23t21 28q-18 11 -30.5 32t-12.5 46q0 34 26.5 63t65.5 29z" />
    <glyph glyph-name="Ncedilla" unicode="&#x145;" horiz-adv-x="753" 
d="M70 0v680h169l262 -369v369h182v-680h-170l-261 358v-358h-182zM379 -21q38 0 65 -29.5t27 -77.5q0 -59 -45.5 -114t-111.5 -80l-36 80q14 8 31 23t21 28q-18 11 -30.5 32t-12.5 46q0 34 26.5 63t65.5 29z" />
    <glyph glyph-name="Rcedilla" unicode="&#x156;" horiz-adv-x="704" 
d="M350 537h-98v-180h100q42 0 69 25.5t27 65.5q0 45 -26 67t-72 22zM70 0v680h286q113 0 196.5 -54.5t83.5 -177.5q0 -62 -25.5 -107t-66.5 -73l150 -268h-211l-110 214h-121v-214h-182zM358 -21q38 0 65 -29.5t27 -77.5q0 -59 -45.5 -114t-111.5 -80l-36 80q14 8 31 23
t21 28q-18 11 -30.5 32t-12.5 46q0 34 26.5 63t65.5 29z" />
    <glyph glyph-name="Tcedilla" unicode="&#x162;" horiz-adv-x="619" 
d="M210 0v537h-200v143h582l17 -143h-217v-537h-31l-15 -39q37 -12 52.5 -44.5t15.5 -58.5q0 -57 -43.5 -88.5t-97.5 -31.5q-29 0 -60 11t-56 30l38 86q10 -4 26 -9.5t30 -5.5q13 0 22 4.5t9 13.5q0 14 -22 23.5t-63 14.5l38 94h-25z" />
    <glyph glyph-name="Scommaaccent" unicode="&#x218;" horiz-adv-x="564" 
d="M245 268q-68 34 -136 88.5t-68 141.5q0 84 68.5 139.5t184.5 55.5q51 0 105.5 -14.5t94.5 -41.5l-54 -123q-54 19 -82 24.5t-62 5.5q-31 0 -49 -14.5t-18 -33.5q0 -22 30.5 -38.5t72.5 -38.5q72 -37 139 -93t67 -139q0 -86 -72.5 -143t-198.5 -57q-52 0 -117.5 15.5
t-105.5 39.5l60 137q26 -16 73.5 -29.5t84.5 -13.5q43 0 65.5 17t22.5 36q0 18 -33 39t-72 40zM277 -21q38 0 65 -29.5t27 -77.5q0 -59 -45.5 -114t-111.5 -80l-36 80q14 8 31 23t21 28q-18 11 -30.5 32t-12.5 46q0 34 26.5 63t65.5 29z" />
    <glyph glyph-name="uni021A" unicode="&#x21a;" horiz-adv-x="619" 
d="M210 0v537h-200v143h582l17 -143h-217v-537h-182zM298 -21q38 0 65 -29.5t27 -77.5q0 -59 -45.5 -114t-111.5 -80l-36 80q14 8 31 23t21 28q-18 11 -30.5 32t-12.5 46q0 34 26.5 63t65.5 29z" />
    <glyph glyph-name="agrave" unicode="&#xe0;" horiz-adv-x="511" 
d="M97 787h180l74 -199h-140zM182 163q0 -12 10 -20t23 -8q16 0 32 7t32 20v36h-56q-18 0 -29.5 -9.5t-11.5 -25.5zM46 456q38 17 96 31.5t118 14.5q99 0 150 -55t51 -147v-300h-81l-33 37q-22 -22 -58 -35t-77 -13q-92 0 -137 46t-45 121q0 79 53 115.5t137 36.5h58
q-4 22 -21 34t-42 12t-59 -8.5t-62 -20.5z" />
    <glyph glyph-name="aacute" unicode="&#xe1;" horiz-adv-x="511" 
d="M239 787h180l-114 -199h-140zM182 163q0 -12 10 -20t23 -8q16 0 32 7t32 20v36h-56q-18 0 -29.5 -9.5t-11.5 -25.5zM46 456q38 17 96 31.5t118 14.5q99 0 150 -55t51 -147v-300h-81l-33 37q-22 -22 -58 -35t-77 -13q-92 0 -137 46t-45 121q0 79 53 115.5t137 36.5h58
q-4 22 -21 34t-42 12t-59 -8.5t-62 -20.5z" />
    <glyph glyph-name="acircumflex" unicode="&#xe2;" horiz-adv-x="511" 
d="M208 588h-177l174 199h107l174 -199h-173l-52 62zM182 163q0 -12 10 -20t23 -8q16 0 32 7t32 20v36h-56q-18 0 -29.5 -9.5t-11.5 -25.5zM46 456q38 17 96 31.5t118 14.5q99 0 150 -55t51 -147v-300h-81l-33 37q-22 -22 -58 -35t-77 -13q-92 0 -137 46t-45 121
q0 79 53 115.5t137 36.5h58q-4 22 -21 34t-42 12t-59 -8.5t-62 -20.5z" />
    <glyph glyph-name="atilde" unicode="&#xe3;" horiz-adv-x="511" 
d="M197 600h-126q0 90 40.5 125t86.5 35q31 0 54.5 -17t45.5 -17q8 0 15 10t7 19h122q0 -90 -38.5 -125t-84.5 -35q-31 0 -54.5 17t-45.5 17q-8 0 -15 -10t-7 -19zM182 163q0 -12 10 -20t23 -8q16 0 32 7t32 20v36h-56q-18 0 -29.5 -9.5t-11.5 -25.5zM46 456q38 17 96 31.5
t118 14.5q99 0 150 -55t51 -147v-300h-81l-33 37q-22 -22 -58 -35t-77 -13q-92 0 -137 46t-45 121q0 79 53 115.5t137 36.5h58q-4 22 -21 34t-42 12t-59 -8.5t-62 -20.5z" />
    <glyph glyph-name="adieresis" unicode="&#xe4;" horiz-adv-x="511" 
d="M154 769q36 0 60 -24.5t24 -58.5q0 -35 -24 -59t-60 -24q-33 0 -58 24t-25 59q0 34 25 58.5t58 24.5zM365 769q36 0 60 -24.5t24 -58.5q0 -35 -24 -59t-60 -24q-33 0 -58 24t-25 59q0 34 25 58.5t58 24.5zM182 163q0 -12 10 -20t23 -8q16 0 32 7t32 20v36h-56
q-18 0 -29.5 -9.5t-11.5 -25.5zM46 456q38 17 96 31.5t118 14.5q99 0 150 -55t51 -147v-300h-81l-33 37q-22 -22 -58 -35t-77 -13q-92 0 -137 46t-45 121q0 79 53 115.5t137 36.5h58q-4 22 -21 34t-42 12t-59 -8.5t-62 -20.5z" />
    <glyph glyph-name="aring" unicode="&#xe5;" horiz-adv-x="511" 
d="M257 826q49 0 86 -34t37 -83q0 -51 -37 -83t-86 -32q-50 0 -86.5 32t-36.5 83q0 49 36.5 83t86.5 34zM259 679q12 0 20 9t8 21t-8 20t-20 8t-21 -8t-9 -20t9 -21t21 -9zM182 163q0 -12 10 -20t23 -8q16 0 32 7t32 20v36h-56q-18 0 -29.5 -9.5t-11.5 -25.5zM46 456
q38 17 96 31.5t118 14.5q99 0 150 -55t51 -147v-300h-81l-33 37q-22 -22 -58 -35t-77 -13q-92 0 -137 46t-45 121q0 79 53 115.5t137 36.5h58q-4 22 -21 34t-42 12t-59 -8.5t-62 -20.5z" />
    <glyph glyph-name="amacron" unicode="&#x101;" horiz-adv-x="511" 
d="M113 756h290v-143h-290v143zM182 163q0 -12 10 -20t23 -8q16 0 32 7t32 20v36h-56q-18 0 -29.5 -9.5t-11.5 -25.5zM46 456q38 17 96 31.5t118 14.5q99 0 150 -55t51 -147v-300h-81l-33 37q-22 -22 -58 -35t-77 -13q-92 0 -137 46t-45 121q0 79 53 115.5t137 36.5h58
q-4 22 -21 34t-42 12t-59 -8.5t-62 -20.5z" />
    <glyph glyph-name="abreve" unicode="&#x103;" horiz-adv-x="511" 
d="M438 777q0 -86 -49 -137t-131 -52q-82 1 -131 52t-49 137h129q0 -25 13.5 -40.5t37.5 -15.5t37.5 15.5t13.5 40.5h129zM182 163q0 -12 10 -20t23 -8q16 0 32 7t32 20v36h-56q-18 0 -29.5 -9.5t-11.5 -25.5zM46 456q38 17 96 31.5t118 14.5q99 0 150 -55t51 -147v-300h-81
l-33 37q-22 -22 -58 -35t-77 -13q-92 0 -137 46t-45 121q0 79 53 115.5t137 36.5h58q-4 22 -21 34t-42 12t-59 -8.5t-62 -20.5z" />
    <glyph glyph-name="aogonek" unicode="&#x105;" horiz-adv-x="511" 
d="M46 456q38 17 96 31.5t118 14.5q99 0 150 -55t51 -147v-300q-10 -15 -19 -38.5t-9 -40.5q0 -12 8 -22t21 -10q10 0 20 3.5t24 16.5l61 -102q-17 -20 -50 -33.5t-73 -13.5q-73 0 -110.5 45.5t-37.5 101.5q0 40 16.5 71t38.5 55l-4 4q-22 -22 -58 -35t-77 -13
q-92 0 -137 46t-45 121q0 79 53 115.5t137 36.5h58q-4 22 -21 34t-42 12t-59 -8.5t-62 -20.5zM182 163q0 -12 10 -20t23 -8q16 0 32 7t32 20v36h-56q-18 0 -29.5 -9.5t-11.5 -25.5z" />
    <glyph glyph-name="ccedilla" unicode="&#xe7;" horiz-adv-x="487" 
d="M410 328q-29 15 -50 20.5t-47 5.5q-37 0 -66 -30t-29 -82q0 -51 29 -78t66 -27q24 0 46 5.5t51 20.5l51 -125q-28 -22 -58.5 -31.5t-57.5 -13.5l-12 -32q37 -12 52.5 -44.5t15.5 -58.5q0 -57 -43.5 -88.5t-97.5 -31.5q-29 0 -60 11t-56 30l38 86q10 -4 26 -9.5t30 -5.5
q13 0 22 4.5t9 13.5q0 14 -22 23.5t-63 14.5l36 91q-87 18 -138.5 81t-51.5 164q0 122 73.5 191t191.5 69q30 0 77 -8t89 -41z" />
    <glyph glyph-name="cacute" unicode="&#x107;" horiz-adv-x="487" 
d="M265 787h180l-114 -199h-140zM410 328q-29 15 -50 20.5t-47 5.5q-37 0 -66 -30t-29 -82q0 -51 29 -78t66 -27q24 0 46 5.5t51 20.5l51 -125q-42 -33 -89 -41t-77 -8q-118 0 -191.5 65.5t-73.5 187.5t73.5 191t191.5 69q30 0 77 -8t89 -41z" />
    <glyph glyph-name="ccaron" unicode="&#x10d;" horiz-adv-x="487" 
d="M17 787h177l53 -62l52 62h173l-174 -199h-107zM410 328q-29 15 -50 20.5t-47 5.5q-37 0 -66 -30t-29 -82q0 -51 29 -78t66 -27q24 0 46 5.5t51 20.5l51 -125q-42 -33 -89 -41t-77 -8q-118 0 -191.5 65.5t-73.5 187.5t73.5 191t191.5 69q30 0 77 -8t89 -41z" />
    <glyph glyph-name="dcaron" unicode="&#x10f;" horiz-adv-x="824" 
d="M722 742q38 0 65 -29.5t27 -77.5q0 -59 -45.5 -114t-111.5 -80l-36 80q14 8 31 23t21 28q-18 11 -30.5 32t-12.5 46q0 34 26.5 63t65.5 29zM218 245q0 -43 23.5 -75.5t67.5 -32.5q11 0 29 4t31 10v172q-14 13 -35.5 22t-39.5 9q-41 0 -58.5 -36.5t-17.5 -72.5zM551 706
v-706h-92l-32 50q-22 -20 -61.5 -40.5t-102.5 -20.5q-117 0 -175 72t-58 180q0 109 57.5 185t185.5 76q24 0 48.5 -6.5t47.5 -16.5v216z" />
    <glyph glyph-name="egrave" unicode="&#xe8;" horiz-adv-x="553" 
d="M118 787h180l74 -199h-140zM30 242q0 122 75.5 191t185.5 69q116 0 174 -75t58 -177v-63h-295q12 -28 36.5 -40t58.5 -12q32 0 65.5 6t61.5 20l51 -123q-42 -31 -104 -40t-92 -9q-118 0 -196.5 60.5t-78.5 192.5zM349 297q-1 16 -15 37.5t-48 21.5q-25 0 -40.5 -15.5
t-22.5 -43.5h126z" />
    <glyph glyph-name="eacute" unicode="&#xe9;" horiz-adv-x="553" 
d="M272 787h180l-114 -199h-140zM30 242q0 122 75.5 191t185.5 69q116 0 174 -75t58 -177v-63h-295q12 -28 36.5 -40t58.5 -12q32 0 65.5 6t61.5 20l51 -123q-42 -31 -104 -40t-92 -9q-118 0 -196.5 60.5t-78.5 192.5zM349 297q-1 16 -15 37.5t-48 21.5q-25 0 -40.5 -15.5
t-22.5 -43.5h126z" />
    <glyph glyph-name="ecircumflex" unicode="&#xea;" horiz-adv-x="553" 
d="M241 588h-177l174 199h107l174 -199h-173l-52 62zM30 242q0 122 75.5 191t185.5 69q116 0 174 -75t58 -177v-63h-295q12 -28 36.5 -40t58.5 -12q32 0 65.5 6t61.5 20l51 -123q-42 -31 -104 -40t-92 -9q-118 0 -196.5 60.5t-78.5 192.5zM349 297q-1 16 -15 37.5t-48 21.5
q-25 0 -40.5 -15.5t-22.5 -43.5h126z" />
    <glyph glyph-name="edieresis" unicode="&#xeb;" horiz-adv-x="553" 
d="M395 769q36 0 60 -24.5t24 -58.5q0 -35 -24 -59t-60 -24q-33 0 -58 24t-25 59q0 34 25 58.5t58 24.5zM184 769q36 0 60 -24.5t24 -58.5q0 -35 -24 -59t-60 -24q-33 0 -58 24t-25 59q0 34 25 58.5t58 24.5zM30 242q0 122 75.5 191t185.5 69q116 0 174 -75t58 -177v-63
h-295q12 -28 36.5 -40t58.5 -12q32 0 65.5 6t61.5 20l51 -123q-42 -31 -104 -40t-92 -9q-118 0 -196.5 60.5t-78.5 192.5zM349 297q-1 16 -15 37.5t-48 21.5q-25 0 -40.5 -15.5t-22.5 -43.5h126z" />
    <glyph glyph-name="emacron" unicode="&#x113;" horiz-adv-x="553" 
d="M137 756h290v-143h-290v143zM30 242q0 122 75.5 191t185.5 69q116 0 174 -75t58 -177v-63h-295q12 -28 36.5 -40t58.5 -12q32 0 65.5 6t61.5 20l51 -123q-42 -31 -104 -40t-92 -9q-118 0 -196.5 60.5t-78.5 192.5zM349 297q-1 16 -15 37.5t-48 21.5q-25 0 -40.5 -15.5
t-22.5 -43.5h126z" />
    <glyph glyph-name="edotaccent" unicode="&#x117;" horiz-adv-x="553" 
d="M286 778q40 0 65 -27t25 -65q0 -40 -25 -66t-65 -26q-38 0 -65 26t-27 66q0 38 27 65t65 27zM30 242q0 122 75.5 191t185.5 69q116 0 174 -75t58 -177v-63h-295q12 -28 36.5 -40t58.5 -12q32 0 65.5 6t61.5 20l51 -123q-42 -31 -104 -40t-92 -9q-118 0 -196.5 60.5
t-78.5 192.5zM349 297q-1 16 -15 37.5t-48 21.5q-25 0 -40.5 -15.5t-22.5 -43.5h126z" />
    <glyph glyph-name="eogonek" unicode="&#x119;" horiz-adv-x="553" 
d="M30 242q0 122 75.5 191t185.5 69q116 0 174 -75t58 -177v-63h-295q12 -28 36.5 -40t58.5 -12q32 0 65.5 6t61.5 20l51 -123q-17 -13 -38.5 -21.5t-43.5 -13.5q-10 -14 -20 -38.5t-10 -43.5q0 -12 8 -22t21 -10q10 0 20 3.5t24 16.5l61 -102q-17 -20 -50 -33.5t-73 -13.5
q-73 0 -110.5 45.5t-37.5 101.5q0 16 5.5 40t12.5 44q-104 7 -172 68t-68 183zM349 297q-1 16 -15 37.5t-48 21.5q-25 0 -40.5 -15.5t-22.5 -43.5h126z" />
    <glyph glyph-name="ecaron" unicode="&#x11b;" horiz-adv-x="553" 
d="M53 787h177l53 -62l52 62h173l-174 -199h-107zM30 242q0 122 75.5 191t185.5 69q116 0 174 -75t58 -177v-63h-295q12 -28 36.5 -40t58.5 -12q32 0 65.5 6t61.5 20l51 -123q-42 -31 -104 -40t-92 -9q-118 0 -196.5 60.5t-78.5 192.5zM349 297q-1 16 -15 37.5t-48 21.5
q-25 0 -40.5 -15.5t-22.5 -43.5h126z" />
    <glyph glyph-name="gbreve" unicode="&#x11f;" horiz-adv-x="611" 
d="M477 777q0 -86 -49 -137t-131 -52q-82 1 -131 52t-49 137h129q0 -25 13.5 -40.5t37.5 -15.5t37.5 15.5t13.5 40.5h129zM369 151v172q-14 13 -35.5 22t-39.5 9q-41 0 -58.5 -36.5t-17.5 -72.5q0 -43 23.5 -75.5t67.5 -32.5q11 0 29 4t31 10zM551 484v-489
q0 -105 -69.5 -159.5t-197.5 -54.5q-31 0 -93 12.5t-109 43.5l55 128q49 -24 81.5 -30.5t62.5 -6.5q31 0 59.5 12t28.5 35v35q-21 -9 -47 -15t-59 -6q-117 0 -175 72t-58 180q0 109 57.5 185t185.5 76q41 0 82.5 -17.5t73.5 -40.5l31 40h91z" />
    <glyph glyph-name="igrave" unicode="&#xec;" horiz-adv-x="302" 
d="M-2 787h180l74 -199h-140zM60 0v485h182v-485h-182z" />
    <glyph glyph-name="iacute" unicode="&#xed;" horiz-adv-x="302" 
d="M124 787h180l-114 -199h-140zM60 0v485h182v-485h-182z" />
    <glyph glyph-name="icircumflex" unicode="&#xee;" horiz-adv-x="302" 
d="M101 588h-177l174 199h107l174 -199h-173l-52 62zM60 0v485h182v-485h-182z" />
    <glyph glyph-name="idieresis" unicode="&#xef;" horiz-adv-x="302" 
d="M45 769q36 0 60 -24.5t24 -58.5q0 -35 -24 -59t-60 -24q-33 0 -58 24t-25 59q0 34 25 58.5t58 24.5zM256 769q36 0 60 -24.5t24 -58.5q0 -35 -24 -59t-60 -24q-33 0 -58 24t-25 59q0 34 25 58.5t58 24.5zM60 0v485h182v-485h-182z" />
    <glyph glyph-name="imacron" unicode="&#x12b;" horiz-adv-x="302" 
d="M6 756h290v-143h-290v143zM60 0v485h182v-485h-182z" />
    <glyph glyph-name="iogonek" unicode="&#x12f;" horiz-adv-x="302" 
d="M150 551q-40 0 -69 29t-29 69q0 41 29 70.5t69 29.5q41 0 70.5 -29.5t29.5 -70.5q0 -40 -29.5 -69t-70.5 -29zM60 0v485h182v-485h-21q-10 -14 -19 -37.5t-9 -41.5q0 -12 8 -22t21 -10q10 0 20 3.5t24 16.5l61 -102q-17 -20 -50 -33.5t-73 -13.5q-73 0 -110.5 45.5
t-37.5 101.5q0 18 6.5 46t15.5 47h-18z" />
    <glyph glyph-name="lcaron" unicode="&#x13e;" horiz-adv-x="515" 
d="M413 742q38 0 65 -29.5t27 -77.5q0 -59 -45.5 -114t-111.5 -80l-36 80q14 8 31 23t21 28q-18 11 -30.5 32t-12.5 46q0 34 26.5 63t65.5 29zM60 0v695l182 11v-706h-182z" />
    <glyph glyph-name="ntilde" unicode="&#xf1;" horiz-adv-x="624" 
d="M245 600h-126q0 90 40.5 125t86.5 35q31 0 54.5 -17t45.5 -17q8 0 15 10t7 19h122q0 -90 -38.5 -125t-84.5 -35q-31 0 -54.5 17t-45.5 17q-8 0 -15 -10t-7 -19zM189 442q31 18 82 39t112 21q103 0 147 -57.5t44 -144.5v-300h-182v296q0 28 -17 43t-42 15q-17 0 -43 -9
t-48 -19v-326h-182v484h91z" />
    <glyph glyph-name="nacute" unicode="&#x144;" horiz-adv-x="624" 
d="M278 787h180l-114 -199h-140zM189 442q31 18 82 39t112 21q103 0 147 -57.5t44 -144.5v-300h-182v296q0 28 -17 43t-42 15q-17 0 -43 -9t-48 -19v-326h-182v484h91z" />
    <glyph glyph-name="ncaron" unicode="&#x148;" horiz-adv-x="624" 
d="M100 787h177l53 -62l52 62h173l-174 -199h-107zM189 442q31 18 82 39t112 21q103 0 147 -57.5t44 -144.5v-300h-182v296q0 28 -17 43t-42 15q-17 0 -43 -9t-48 -19v-326h-182v484h91z" />
    <glyph glyph-name="ograve" unicode="&#xf2;" horiz-adv-x="610" 
d="M147 787h180l74 -199h-140zM30 245q0 122 80.5 189.5t194.5 67.5q120 0 197.5 -66t77.5 -196q0 -122 -81 -186.5t-198 -64.5t-194 63t-77 193zM218 245q0 -49 22 -78.5t63 -29.5q43 0 66 26t23 77q0 49 -22 81.5t-63 32.5q-43 0 -66 -29t-23 -80z" />
    <glyph glyph-name="oacute" unicode="&#xf3;" horiz-adv-x="610" 
d="M275 787h180l-114 -199h-140zM30 245q0 122 80.5 189.5t194.5 67.5q120 0 197.5 -66t77.5 -196q0 -122 -81 -186.5t-198 -64.5t-194 63t-77 193zM218 245q0 -49 22 -78.5t63 -29.5q43 0 66 26t23 77q0 49 -22 81.5t-63 32.5q-43 0 -66 -29t-23 -80z" />
    <glyph glyph-name="ocircumflex" unicode="&#xf4;" horiz-adv-x="610" 
d="M255 588h-177l174 199h107l174 -199h-173l-52 62zM30 245q0 122 80.5 189.5t194.5 67.5q120 0 197.5 -66t77.5 -196q0 -122 -81 -186.5t-198 -64.5t-194 63t-77 193zM218 245q0 -49 22 -78.5t63 -29.5q43 0 66 26t23 77q0 49 -22 81.5t-63 32.5q-43 0 -66 -29t-23 -80z
" />
    <glyph glyph-name="otilde" unicode="&#xf5;" horiz-adv-x="610" 
d="M244 600h-126q0 90 40.5 125t86.5 35q31 0 54.5 -17t45.5 -17q8 0 15 10t7 19h122q0 -90 -38.5 -125t-84.5 -35q-31 0 -54.5 17t-45.5 17q-8 0 -15 -10t-7 -19zM30 245q0 122 80.5 189.5t194.5 67.5q120 0 197.5 -66t77.5 -196q0 -122 -81 -186.5t-198 -64.5t-194 63
t-77 193zM218 245q0 -49 22 -78.5t63 -29.5q43 0 66 26t23 77q0 49 -22 81.5t-63 32.5q-43 0 -66 -29t-23 -80z" />
    <glyph glyph-name="odieresis" unicode="&#xf6;" horiz-adv-x="610" 
d="M196 769q36 0 60 -24.5t24 -58.5q0 -35 -24 -59t-60 -24q-33 0 -58 24t-25 59q0 34 25 58.5t58 24.5zM407 769q36 0 60 -24.5t24 -58.5q0 -35 -24 -59t-60 -24q-33 0 -58 24t-25 59q0 34 25 58.5t58 24.5zM30 245q0 122 80.5 189.5t194.5 67.5q120 0 197.5 -66t77.5 -196
q0 -122 -81 -186.5t-198 -64.5t-194 63t-77 193zM218 245q0 -49 22 -78.5t63 -29.5q43 0 66 26t23 77q0 49 -22 81.5t-63 32.5q-43 0 -66 -29t-23 -80z" />
    <glyph glyph-name="omacron" unicode="&#x14d;" horiz-adv-x="610" 
d="M157 756h290v-143h-290v143zM30 245q0 122 80.5 189.5t194.5 67.5q120 0 197.5 -66t77.5 -196q0 -122 -81 -186.5t-198 -64.5t-194 63t-77 193zM218 245q0 -49 22 -78.5t63 -29.5q43 0 66 26t23 77q0 49 -22 81.5t-63 32.5q-43 0 -66 -29t-23 -80z" />
    <glyph glyph-name="ohungarumlaut" unicode="&#x151;" horiz-adv-x="610" 
d="M388 787h170l-114 -199h-130zM169 787h170l-114 -199h-130zM30 245q0 122 80.5 189.5t194.5 67.5q120 0 197.5 -66t77.5 -196q0 -122 -81 -186.5t-198 -64.5t-194 63t-77 193zM218 245q0 -49 22 -78.5t63 -29.5q43 0 66 26t23 77q0 49 -22 81.5t-63 32.5q-43 0 -66 -29
t-23 -80z" />
    <glyph glyph-name="racute" unicode="&#x155;" horiz-adv-x="395" 
d="M162 787h180l-114 -199h-140zM60 0v484h91l44 -49q30 20 71 35t82 15l37 -146q-36 0 -74 -10t-69 -34v-295h-182z" />
    <glyph glyph-name="rcaron" unicode="&#x159;" horiz-adv-x="395" 
d="M-30 787h177l53 -62l52 62h173l-174 -199h-107zM60 0v484h91l44 -49q30 20 71 35t82 15l37 -146q-36 0 -74 -10t-69 -34v-295h-182z" />
    <glyph glyph-name="sacute" unicode="&#x15b;" horiz-adv-x="473" 
d="M213 787h180l-114 -199h-140zM234 337q0 -7 7.5 -11.5t33.5 -13.5q60 -21 115 -57.5t55 -103.5q0 -76 -50.5 -119t-151.5 -43q-30 0 -97.5 17t-109.5 50l51 125q29 -15 70.5 -29.5t67.5 -14.5q16 0 24 6t8 11q0 7 -8 12.5t-30 12.5q-60 21 -116.5 57.5t-56.5 103.5
q0 76 57 119t158 43q30 0 85.5 -14.5t97.5 -47.5l-51 -125q-29 15 -61 27t-58 12q-22 0 -31 -6t-9 -11z" />
    <glyph glyph-name="scaron" unicode="&#x161;" horiz-adv-x="473" 
d="M11 787h177l53 -62l52 62h173l-174 -199h-107zM234 337q0 -7 7.5 -11.5t33.5 -13.5q60 -21 115 -57.5t55 -103.5q0 -76 -50.5 -119t-151.5 -43q-30 0 -97.5 17t-109.5 50l51 125q29 -15 70.5 -29.5t67.5 -14.5q16 0 24 6t8 11q0 7 -8 12.5t-30 12.5q-60 21 -116.5 57.5
t-56.5 103.5q0 76 57 119t158 43q30 0 85.5 -14.5t97.5 -47.5l-51 -125q-29 15 -61 27t-58 12q-22 0 -31 -6t-9 -11z" />
    <glyph glyph-name="tcaron" unicode="&#x165;" horiz-adv-x="608" 
d="M506 742q38 0 65 -29.5t27 -77.5q0 -59 -45.5 -114t-111.5 -80l-36 80q14 8 31 23t21 28q-18 11 -30.5 32t-12.5 46q0 34 26.5 63t65.5 29zM456 32q-18 -16 -58.5 -29.5t-75.5 -13.5q-93 0 -165 48t-72 145v140h-75v143h75v131l182 25v-156h117l17 -143h-134v-120
q0 -30 17.5 -47.5t49.5 -17.5q13 0 33 4.5t37 14.5z" />
    <glyph glyph-name="ugrave" unicode="&#xf9;" horiz-adv-x="614" 
d="M159 787h180l74 -199h-140zM425 41q-31 -17 -79.5 -38t-109.5 -21q-103 0 -144.5 57.5t-41.5 144.5v300h182v-296q0 -28 14.5 -43t39.5 -15q16 0 40 9t46 19v326h182v-484h-91z" />
    <glyph glyph-name="uacute" unicode="&#xfa;" horiz-adv-x="614" 
d="M271 787h180l-114 -199h-140zM425 41q-31 -17 -79.5 -38t-109.5 -21q-103 0 -144.5 57.5t-41.5 144.5v300h182v-296q0 -28 14.5 -43t39.5 -15q16 0 40 9t46 19v326h182v-484h-91z" />
    <glyph glyph-name="ucircumflex" unicode="&#xfb;" horiz-adv-x="614" 
d="M250 588h-177l174 199h107l174 -199h-173l-52 62zM425 41q-31 -17 -79.5 -38t-109.5 -21q-103 0 -144.5 57.5t-41.5 144.5v300h182v-296q0 -28 14.5 -43t39.5 -15q16 0 40 9t46 19v326h182v-484h-91z" />
    <glyph glyph-name="udieresis" unicode="&#xfc;" horiz-adv-x="614" 
d="M404 769q36 0 60 -24.5t24 -58.5q0 -35 -24 -59t-60 -24q-33 0 -58 24t-25 59q0 34 25 58.5t58 24.5zM193 769q36 0 60 -24.5t24 -58.5q0 -35 -24 -59t-60 -24q-33 0 -58 24t-25 59q0 34 25 58.5t58 24.5zM425 41q-31 -17 -79.5 -38t-109.5 -21q-103 0 -144.5 57.5
t-41.5 144.5v300h182v-296q0 -28 14.5 -43t39.5 -15q16 0 40 9t46 19v326h182v-484h-91z" />
    <glyph glyph-name="umacron" unicode="&#x16b;" horiz-adv-x="614" 
d="M141 756h290v-143h-290v143zM425 41q-31 -17 -79.5 -38t-109.5 -21q-103 0 -144.5 57.5t-41.5 144.5v300h182v-296q0 -28 14.5 -43t39.5 -15q16 0 40 9t46 19v326h182v-484h-91z" />
    <glyph glyph-name="uring" unicode="&#x16f;" horiz-adv-x="614" 
d="M290 826q49 0 86 -34t37 -83q0 -51 -37 -83t-86 -32q-50 0 -86.5 32t-36.5 83q0 49 36.5 83t86.5 34zM292 679q12 0 20 9t8 21t-8 20t-20 8t-21 -8t-9 -20t9 -21t21 -9zM425 41q-31 -17 -79.5 -38t-109.5 -21q-103 0 -144.5 57.5t-41.5 144.5v300h182v-296
q0 -28 14.5 -43t39.5 -15q16 0 40 9t46 19v326h182v-484h-91z" />
    <glyph glyph-name="uhungarumlaut" unicode="&#x171;" horiz-adv-x="614" 
d="M173 787h170l-114 -199h-130zM392 787h170l-114 -199h-130zM425 41q-31 -17 -79.5 -38t-109.5 -21q-103 0 -144.5 57.5t-41.5 144.5v300h182v-296q0 -28 14.5 -43t39.5 -15q16 0 40 9t46 19v326h182v-484h-91z" />
    <glyph glyph-name="uogonek" unicode="&#x173;" horiz-adv-x="614" 
d="M425 41q-31 -17 -79.5 -38t-109.5 -21q-103 0 -144.5 57.5t-41.5 144.5v300h182v-296q0 -28 14.5 -43t39.5 -15q16 0 40 9t46 19v326h182v-484q-10 -11 -19 -35.5t-9 -43.5q0 -12 8 -22t21 -10q10 0 20 3.5t24 16.5l61 -102q-17 -20 -50 -33.5t-73 -13.5
q-73 0 -110.5 45.5t-37.5 101.5q0 39 14.5 72t30.5 52z" />
    <glyph glyph-name="yacute" unicode="&#xfd;" horiz-adv-x="569" 
d="M232 787h180l-114 -199h-140zM188 -2l4 11l-182 458l178 18l97 -274l93 274h181l-213 -542q-23 -59 -86 -102.5t-135 -59.5l-61 141q36 15 76 34.5t48 41.5z" />
    <glyph glyph-name="ydieresis" unicode="&#xff;" horiz-adv-x="569" 
d="M391 769q36 0 60 -24.5t24 -58.5q0 -35 -24 -59t-60 -24q-33 0 -58 24t-25 59q0 34 25 58.5t58 24.5zM180 769q36 0 60 -24.5t24 -58.5q0 -35 -24 -59t-60 -24q-33 0 -58 24t-25 59q0 34 25 58.5t58 24.5zM188 -2l4 11l-182 458l178 18l97 -274l93 274h181l-213 -542
q-23 -59 -86 -102.5t-135 -59.5l-61 141q36 15 76 34.5t48 41.5z" />
    <glyph glyph-name="zacute" unicode="&#x17a;" horiz-adv-x="482" 
d="M211 787h180l-114 -199h-140zM42 485h387l9 -101l-186 -241h187l17 -143h-414l-22 94l184 248h-145z" />
    <glyph glyph-name="zdotaccent" unicode="&#x17c;" horiz-adv-x="482" 
d="M247 778q40 0 65 -27t25 -65q0 -40 -25 -66t-65 -26q-38 0 -65 26t-27 66q0 38 27 65t65 27zM42 485h387l9 -101l-186 -241h187l17 -143h-414l-22 94l184 248h-145z" />
    <glyph glyph-name="zcaron" unicode="&#x17e;" horiz-adv-x="482" 
d="M10 787h177l53 -62l52 62h173l-174 -199h-107zM42 485h387l9 -101l-186 -241h187l17 -143h-414l-22 94l184 248h-145z" />
    <glyph glyph-name="scedilla" unicode="&#x15f;" horiz-adv-x="473" 
d="M234 337q0 -7 7.5 -11.5t33.5 -13.5q60 -21 115 -57.5t55 -103.5q0 -65 -36.5 -106.5t-110.5 -51.5l-12 -32q37 -12 52.5 -44.5t15.5 -58.5q0 -57 -43.5 -88.5t-97.5 -31.5q-29 0 -60 11t-56 30l38 86q10 -4 26 -9.5t30 -5.5q13 0 22 4.5t9 13.5q0 14 -22 23.5t-63 14.5
l37 93q-35 7 -73.5 21.5t-64.5 35.5l51 125q29 -15 70.5 -29.5t67.5 -14.5q16 0 24 6t8 11q0 7 -8 12.5t-30 12.5q-60 21 -116.5 57.5t-56.5 103.5q0 76 57 119t158 43q30 0 85.5 -14.5t97.5 -47.5l-51 -125q-29 15 -61 27t-58 12q-22 0 -31 -6t-9 -11z" />
    <glyph glyph-name="kcedilla" unicode="&#x137;" horiz-adv-x="567" 
d="M242 156v-156h-182v695l182 11v-360l181 153l109 -125l-134 -101l169 -273h-196l-99 178zM293 -21q38 0 65 -29.5t27 -77.5q0 -59 -45.5 -114t-111.5 -80l-36 80q14 8 31 23t21 28q-18 11 -30.5 32t-12.5 46q0 34 26.5 63t65.5 29z" />
    <glyph glyph-name="lcedilla" unicode="&#x13c;" horiz-adv-x="302" 
d="M60 0v695l182 11v-706h-182zM158 -21q38 0 65 -29.5t27 -77.5q0 -59 -45.5 -114t-111.5 -80l-36 80q14 8 31 23t21 28q-18 11 -30.5 32t-12.5 46q0 34 26.5 63t65.5 29z" />
    <glyph glyph-name="ncedilla" unicode="&#x146;" horiz-adv-x="624" 
d="M189 442q31 18 82 39t112 21q103 0 147 -57.5t44 -144.5v-300h-182v296q0 28 -17 43t-42 15q-17 0 -43 -9t-48 -19v-326h-182v484h91zM307 -21q38 0 65 -29.5t27 -77.5q0 -59 -45.5 -114t-111.5 -80l-36 80q14 8 31 23t21 28q-18 11 -30.5 32t-12.5 46q0 34 26.5 63
t65.5 29z" />
    <glyph glyph-name="rcedilla" unicode="&#x157;" horiz-adv-x="395" 
d="M60 0v484h91l44 -49q30 20 71 35t82 15l37 -146q-36 0 -74 -10t-69 -34v-295h-182zM155 -21q38 0 65 -29.5t27 -77.5q0 -59 -45.5 -114t-111.5 -80l-36 80q14 8 31 23t21 28q-18 11 -30.5 32t-12.5 46q0 34 26.5 63t65.5 29z" />
    <glyph glyph-name="tcedilla" unicode="&#x163;" horiz-adv-x="466" 
d="M401 322h-134v-120q0 -30 17.5 -47.5t49.5 -17.5q13 0 33 4.5t37 14.5l52 -124q-15 -13 -45 -24.5t-61 -15.5l-11 -31q37 -12 52.5 -44.5t15.5 -58.5q0 -57 -43.5 -88.5t-97.5 -31.5q-29 0 -60 11t-56 30l38 86q10 -4 26 -9.5t30 -5.5q13 0 22 4.5t9 13.5q0 14 -22 23.5
t-63 14.5l38 96q-61 18 -102 63t-41 117v140h-75v143h75v131l182 25v-156h117z" />
    <glyph glyph-name="scommaaccent" unicode="&#x219;" horiz-adv-x="473" 
d="M234 337q0 -7 7.5 -11.5t33.5 -13.5q60 -21 115 -57.5t55 -103.5q0 -76 -50.5 -119t-151.5 -43q-30 0 -97.5 17t-109.5 50l51 125q29 -15 70.5 -29.5t67.5 -14.5q16 0 24 6t8 11q0 7 -8 12.5t-30 12.5q-60 21 -116.5 57.5t-56.5 103.5q0 76 57 119t158 43
q30 0 85.5 -14.5t97.5 -47.5l-51 -125q-29 15 -61 27t-58 12q-22 0 -31 -6t-9 -11zM248 -21q38 0 65 -29.5t27 -77.5q0 -59 -45.5 -114t-111.5 -80l-36 80q14 8 31 23t21 28q-18 11 -30.5 32t-12.5 46q0 34 26.5 63t65.5 29z" />
    <glyph glyph-name="uni021B" unicode="&#x21b;" horiz-adv-x="466" 
d="M456 32q-18 -16 -58.5 -29.5t-75.5 -13.5q-93 0 -165 48t-72 145v140h-75v143h75v131l182 25v-156h117l17 -143h-134v-120q0 -30 17.5 -47.5t49.5 -17.5q13 0 33 4.5t37 14.5zM322 -21q38 0 65 -29.5t27 -77.5q0 -59 -45.5 -114t-111.5 -80l-36 80q14 8 31 23t21 28
q-18 11 -30.5 32t-12.5 46q0 34 26.5 63t65.5 29z" />
    <glyph glyph-name="softhyphen" unicode="&#xad;" horiz-adv-x="130" 
 />
    <glyph glyph-name="mu" unicode="&#xb5;" horiz-adv-x="595" 
d="M60 -219v703h182v-296q0 -28 14.5 -43t39.5 -15q16 0 40 9t46 19v326h182v-484h-91l-38 41q-31 -17 -79.5 -38t-109.5 -21h-4v-191z" />
    <glyph glyph-name="uni02C9" unicode="&#x2c9;" horiz-adv-x="310" 
d="M10 756h290v-143h-290v143z" />
    <glyph glyph-name="litre" unicode="&#x2113;" horiz-adv-x="514" 
d="M51 162l-41 150q1 1 2.5 1t2.5 1q18 7 41.5 16t50.5 20v182q0 77 59.5 123.5t133.5 46.5q80 0 132 -42t52 -116q0 -78 -58 -147t-137 -122v-90q0 -28 16.5 -38t50.5 -10q13 0 33 4.5t37 14.5l52 -124q-18 -16 -58.5 -29.5t-75.5 -13.5q-93 0 -165 34.5t-72 131.5v26
q-15 -5 -29 -10t-27 -9zM283 527v-87q17 22 28.5 47t11.5 52q0 9 -1.5 15t-18.5 6q-10 0 -15 -10.5t-5 -22.5z" />
    <glyph glyph-name="Ohm" unicode="&#x2126;" horiz-adv-x="746" 
d="M690 0h-256v143q46 19 65.5 79.5t19.5 115.5q0 92 -39 148t-107 56t-107 -56t-39 -148q0 -55 19 -115.5t66 -79.5v-143h-256l-16 143h63q-30 44 -46.5 94.5t-16.5 99.5q0 157 90 257t243 100t243 -100t90 -257q0 -49 -16.5 -99.5t-46.5 -94.5h63z" />
    <glyph glyph-name="Delta" unicode="&#x2206;" horiz-adv-x="699" 
d="M405 680l284 -662l-150 -18h-529l285 680h110zM347 408l-113 -265h228z" />
    <glyph glyph-name="divisionslash" unicode="&#x2215;" horiz-adv-x="496" 
d="M491 706l-299 -706h-187l298 706h188z" />
    <glyph glyph-name="bulletmath" unicode="&#x2219;" horiz-adv-x="308" 
d="M153 208q-51 0 -87 36t-36 87t36 87.5t87 36.5t88 -36.5t37 -87.5t-37 -87t-88 -36z" />
    <glyph glyph-name="Turkishlira" unicode="&#x20ba;" horiz-adv-x="664" 
d="M466 361l188 -1q0 -166 -88.5 -263t-254.5 -97h-182v279l-70 -24l-9 120l79 28v33l-70 -24l-9 121l79 28v131l182 15v-82l105 37l38 -112l-143 -50v-33l105 37l38 -112l-143 -50v-193q63 1 109 53t46 159z" />
    <glyph glyph-name="Ruble" unicode="&#x20bd;" horiz-adv-x="657" 
d="M94 0v63h-84l-10 123h94v32h-94v143h94v319h253q113 0 196.5 -56t83.5 -179q0 -122 -89 -174.5t-199 -52.5h-63v-32h220l10 -123h-230v-63h-182zM341 537h-65v-176h67q42 0 69 22t27 62q0 45 -26 68.5t-72 23.5z" />
    <glyph glyph-name="cent" unicode="&#xa2;" horiz-adv-x="487" 
d="M410 328q-29 15 -50 20.5t-47 5.5q-37 0 -66 -30t-29 -82q0 -51 29 -78t66 -27q24 0 46 5.5t51 20.5l51 -125q-23 -19 -49 -29t-50 -14v-131l-150 11v123q-84 20 -133 82.5t-49 161.5t49 163.5t133 86.5v139h150v-135q24 -4 50 -14.5t49 -28.5z" />
    <glyph glyph-name="sterling" unicode="&#xa3;" horiz-adv-x="512" 
d="M443 268h-150v-80q0 -12 -1.5 -23.5t-3.5 -21.5h197l17 -143h-463v143h11q29 1 45 19t16 46v60h-81v143h81v80q0 97 72 145t165 48q35 0 75.5 -13.5t58.5 -29.5l-52 -124q-17 10 -37 14.5t-33 4.5q-32 0 -49.5 -17.5t-17.5 -47.5v-60h133z" />
    <glyph glyph-name="currency" unicode="&#xa4;" horiz-adv-x="793" 
d="M396 342q-42 0 -67.5 -27t-26.5 -65q1 -39 28 -65t67 -26q42 0 68 27t26 65q0 39 -27.5 65t-67.5 26zM524 16q-27 -13 -60.5 -20t-66.5 -8q-33 1 -67 7.5t-61 19.5q-24 -24 -58.5 -61t-53.5 -57l-125 124l116 114q-11 25 -18 54t-7 60t7 61t19 55l-129 116l142 118
l107 -114q27 13 60.5 20t66.5 7t67 -6.5t61 -19.5q24 24 58.5 61t53.5 57l125 -124l-116 -114q11 -25 18 -54t7 -60t-7 -61t-19 -55l129 -116l-142 -118z" />
    <glyph glyph-name="yen" unicode="&#xa5;" horiz-adv-x="669" 
d="M116 200l-10 116h107l-203 346l189 18l132 -245l141 245h187l-208 -364h103l10 -116h-141v-34h131l10 -116h-141v-50h-182v50h-125l-10 116h135v34h-125z" />
    <glyph glyph-name="Euro" unicode="&#x20ac;" horiz-adv-x="686" 
d="M20 475h121q32 99 112 158.5t196 59.5q51 0 105.5 -14.5t94.5 -41.5l-54 -123q-54 19 -82 24.5t-62 5.5t-63 -18t-48 -51h186l10 -116h-228v-41h218l10 -116h-195q20 -32 50.5 -49t66.5 -17q37 0 70 10.5t59 26.5l69 -136q-40 -24 -95.5 -37t-107.5 -13q-127 0 -205.5 58
t-108.5 157h-107l-12 116h100v41h-88z" />
    <glyph glyph-name="dollar" unicode="$" horiz-adv-x="564" 
d="M269 795v-103q6 1 12 1h13h9t10 -1v107h119v-131q17 -6 33 -14t29 -17l-54 -123q-54 19 -82 24.5t-62 5.5q-31 0 -49 -14.5t-18 -33.5q0 -22 30.5 -38.5t72.5 -38.5q72 -37 139 -93t67 -139q0 -56 -31 -100.5t-87 -70.5v-138l-119 13v97q-8 -1 -17 -1h-17h-14v-106h-118
v125q-26 7 -50 16.5t-41 19.5l60 137q26 -16 73.5 -29.5t84.5 -13.5q43 0 65.5 17t22.5 36q0 18 -33 39t-72 40q-68 34 -136 88.5t-68 143.5q0 52 29 95t81 68v137z" />
    <glyph glyph-name="comma" unicode="," horiz-adv-x="213" 
d="M111 147q38 0 65 -29.5t27 -77.5q0 -59 -45.5 -114t-111.5 -80l-36 80q14 8 31 23t21 28q-18 11 -30.5 32t-12.5 46q0 34 26.5 63t65.5 29z" />
    <glyph glyph-name="period" unicode="." horiz-adv-x="203" 
d="M102 183q38 0 64.5 -26.5t26.5 -65.5t-26.5 -65t-64.5 -26q-39 0 -65.5 26t-26.5 65t26.5 65.5t65.5 26.5z" />
    <glyph glyph-name="exclam" unicode="!" horiz-adv-x="243" 
d="M51 248l-20 466h182l-20 -506zM122 183q38 0 64.5 -26.5t26.5 -65.5t-26.5 -65t-64.5 -26q-39 0 -65.5 26t-26.5 65t26.5 65.5t65.5 26.5z" />
    <glyph glyph-name="exclamdown" unicode="&#xa1;" horiz-adv-x="243" 
d="M121 531q-38 0 -64.5 26.5t-26.5 65.5t26.5 65t64.5 26q39 0 65.5 -26t26.5 -65t-26.5 -65.5t-65.5 -26.5zM192 466l20 -466h-182l20 506z" />
    <glyph glyph-name="colon" unicode=":" horiz-adv-x="203" 
d="M102 476q38 0 64.5 -26.5t26.5 -65.5t-26.5 -65t-64.5 -26q-39 0 -65.5 26t-26.5 65t26.5 65.5t65.5 26.5zM102 183q38 0 64.5 -26.5t26.5 -65.5t-26.5 -65t-64.5 -26q-39 0 -65.5 26t-26.5 65t26.5 65.5t65.5 26.5z" />
    <glyph glyph-name="semicolon" unicode=";" horiz-adv-x="203" 
d="M102 476q38 0 64.5 -26.5t26.5 -65.5t-26.5 -65t-64.5 -26q-39 0 -65.5 26t-26.5 65t26.5 65.5t65.5 26.5zM100 183q38 0 65 -29.5t27 -77.5q0 -59 -45.5 -114t-111.5 -80l-36 80q14 8 31 23t21 28q-18 11 -30.5 32t-12.5 46q0 34 26.5 63t65.5 29z" />
    <glyph glyph-name="question" unicode="?" horiz-adv-x="487" 
d="M221 701q105 0 170.5 -53t65.5 -139q0 -61 -41 -108.5t-136 -81.5l-12 -115l-143 39l-7 159q66 21 108.5 52t42.5 58q0 19 -14.5 30t-36.5 11q-25 0 -65 -9.5t-100 -43.5l-23 149q51 29 99 40.5t92 11.5zM187 183q38 0 64.5 -26.5t26.5 -65.5t-26.5 -65t-64.5 -26
q-39 0 -65.5 26t-26.5 65t26.5 65.5t65.5 26.5z" />
    <glyph glyph-name="questiondown" unicode="&#xbf;" horiz-adv-x="487" 
d="M300 481q-38 0 -64.5 26.5t-26.5 65.5t26.5 65t64.5 26q39 0 65.5 -26t26.5 -65t-26.5 -65.5t-65.5 -26.5zM266 -37q-105 0 -170.5 53t-65.5 139q0 61 41 108.5t136 81.5l12 115l143 -39l7 -159q-66 -21 -108.5 -52t-42.5 -58q0 -19 14.5 -30t36.5 -11q25 0 65 9.5
t100 43.5l23 -149q-51 -29 -99 -40.5t-92 -11.5z" />
    <glyph glyph-name="asterisk" unicode="*" horiz-adv-x="444" 
d="M285 403l-63 93q-16 -22 -33 -48t-30 -45l-117 74l72 91l-94 17l34 129l97 -28v96h144v-96l95 28l34 -129l-94 -17l72 -91z" />
    <glyph glyph-name="quotedbl" unicode="&#x22;" horiz-adv-x="423" 
d="M321 742q38 0 65 -29.5t27 -77.5q0 -59 -45.5 -114t-111.5 -80l-36 80q14 8 31 23t21 28q-18 11 -30.5 32t-12.5 46q0 34 26.5 63t65.5 29zM111 742q38 0 65 -29.5t27 -77.5q0 -59 -45.5 -114t-111.5 -80l-36 80q14 8 31 23t21 28q-18 11 -30.5 32t-12.5 46q0 34 26.5 63
t65.5 29z" />
    <glyph glyph-name="quotesingle" unicode="'" horiz-adv-x="213" 
d="M111 742q38 0 65 -29.5t27 -77.5q0 -59 -45.5 -114t-111.5 -80l-36 80q14 8 31 23t21 28q-18 11 -30.5 32t-12.5 46q0 34 26.5 63t65.5 29z" />
    <glyph glyph-name="quoteleft" unicode="&#x2018;" horiz-adv-x="213" 
d="M102 441q-38 0 -65 29.5t-27 77.5q0 59 45.5 114t111.5 80l36 -80q-14 -8 -31 -23t-21 -28q18 -11 30.5 -32t12.5 -46q0 -34 -26.5 -63t-65.5 -29z" />
    <glyph glyph-name="quoteright" unicode="&#x2019;" horiz-adv-x="213" 
d="M111 742q38 0 65 -29.5t27 -77.5q0 -59 -45.5 -114t-111.5 -80l-36 80q14 8 31 23t21 28q-18 11 -30.5 32t-12.5 46q0 34 26.5 63t65.5 29z" />
    <glyph glyph-name="quotesinglbase" unicode="&#x201a;" horiz-adv-x="213" 
d="M111 147q38 0 65 -29.5t27 -77.5q0 -59 -45.5 -114t-111.5 -80l-36 80q14 8 31 23t21 28q-18 11 -30.5 32t-12.5 46q0 34 26.5 63t65.5 29z" />
    <glyph glyph-name="quotedblleft" unicode="&#x201c;" horiz-adv-x="423" 
d="M102 441q-38 0 -65 29.5t-27 77.5q0 59 45.5 114t111.5 80l36 -80q-14 -8 -31 -23t-21 -28q18 -11 30.5 -32t12.5 -46q0 -34 -26.5 -63t-65.5 -29zM312 441q-38 0 -65 29.5t-27 77.5q0 59 45.5 114t111.5 80l36 -80q-14 -8 -31 -23t-21 -28q18 -11 30.5 -32t12.5 -46
q0 -34 -26.5 -63t-65.5 -29z" />
    <glyph glyph-name="quotedblright" unicode="&#x201d;" horiz-adv-x="423" 
d="M321 742q38 0 65 -29.5t27 -77.5q0 -59 -45.5 -114t-111.5 -80l-36 80q14 8 31 23t21 28q-18 11 -30.5 32t-12.5 46q0 34 26.5 63t65.5 29zM111 742q38 0 65 -29.5t27 -77.5q0 -59 -45.5 -114t-111.5 -80l-36 80q14 8 31 23t21 28q-18 11 -30.5 32t-12.5 46q0 34 26.5 63
t65.5 29z" />
    <glyph glyph-name="quotedblbase" unicode="&#x201e;" horiz-adv-x="423" 
d="M321 147q38 0 65 -29.5t27 -77.5q0 -59 -45.5 -114t-111.5 -80l-36 80q14 8 31 23t21 28q-18 11 -30.5 32t-12.5 46q0 34 26.5 63t65.5 29zM111 147q38 0 65 -29.5t27 -77.5q0 -59 -45.5 -114t-111.5 -80l-36 80q14 8 31 23t21 28q-18 11 -30.5 32t-12.5 46q0 34 26.5 63
t65.5 29z" />
    <glyph glyph-name="periodcentered" unicode="&#xb7;" horiz-adv-x="203" 
d="M102 355q38 0 64.5 -26.5t26.5 -65.5t-26.5 -65t-64.5 -26q-39 0 -65.5 26t-26.5 65t26.5 65.5t65.5 26.5z" />
    <glyph glyph-name="parenleft" unicode="(" horiz-adv-x="350" 
d="M167 -39q-59 78 -93 169.5t-34 190.5q0 97 33 185.5t94 175.5l163 -37q-43 -59 -75.5 -153.5t-32.5 -169.5q0 -77 32 -174t75 -149z" />
    <glyph glyph-name="parenright" unicode=")" horiz-adv-x="350" 
d="M183 682q59 -78 93 -169.5t34 -190.5q0 -97 -33 -185.5t-94 -175.5l-163 37q43 59 75.5 153.5t32.5 169.5q0 77 -32 174t-75 149z" />
    <glyph glyph-name="bracketleft" unicode="[" horiz-adv-x="448" 
d="M70 -87v783h368l-16 -143h-170v-497h169l17 -143h-368z" />
    <glyph glyph-name="bracketright" unicode="]" horiz-adv-x="448" 
d="M378 696v-783h-368l17 143h169v497h-170l-16 143h368z" />
    <glyph glyph-name="braceleft" unicode="{" horiz-adv-x="349" 
d="M252 310q10 -7 22 -20.5t12 -41.5q0 -34 -17.5 -58t-17.5 -52q0 -14 8 -24.5t30 -10.5h37l13 -142h-113q-74 0 -108 34.5t-34 91.5q0 37 16.5 72t16.5 50q0 17 -13 27.5t-29 10.5h-45v126h45q16 0 29 10.5t13 27.5q0 15 -16.5 50t-16.5 72q0 57 34 91.5t108 34.5h113
l-13 -142h-37q-22 0 -30 -10.5t-8 -24.5q0 -28 17.5 -52t17.5 -58q0 -29 -12 -42t-22 -20z" />
    <glyph glyph-name="braceright" unicode="}" horiz-adv-x="349" 
d="M97 310q-10 7 -22 20.5t-12 41.5q0 34 17.5 58t17.5 52q0 14 -8 24.5t-30 10.5h-37l-13 142h113q74 0 108 -34.5t34 -91.5q0 -37 -16.5 -72t-16.5 -50q0 -17 13 -27.5t29 -10.5h45v-126h-45q-16 0 -29 -10.5t-13 -27.5q0 -15 16.5 -50t16.5 -72q0 -57 -34 -91.5
t-108 -34.5h-113l13 142h37q22 0 30 10.5t8 24.5q0 28 -17.5 52t-17.5 58q0 29 12 42t22 20z" />
    <glyph glyph-name="slash" unicode="/" horiz-adv-x="496" 
d="M491 706l-299 -706h-187l298 706h188z" />
    <glyph glyph-name="backslash" unicode="\" horiz-adv-x="496" 
d="M304 0l-299 710h188l298 -710h-187z" />
    <glyph glyph-name="bar" unicode="|" horiz-adv-x="382" 
d="M100 0v713l182 -16v-713z" />
    <glyph glyph-name="brokenbar" unicode="&#xa6;" horiz-adv-x="382" 
d="M100 410v303l182 -16v-303zM100 0v303l182 -16v-303z" />
    <glyph glyph-name="guillemotleft" unicode="&#xab;" horiz-adv-x="407" 
d="M358 73l-157 151v45l157 152l33 -107l-66 -67l66 -68zM177 73l-157 151v45l157 152l33 -107l-66 -67l66 -68z" />
    <glyph glyph-name="guillemotright" unicode="&#xbb;" horiz-adv-x="407" 
d="M49 421l157 -151v-45l-157 -152l-33 107l66 67l-66 68zM230 421l157 -151v-45l-157 -152l-33 107l66 67l-66 68z" />
    <glyph glyph-name="pi" unicode="&#x3c0;" horiz-adv-x="802" 
d="M480 0v342h-158v-342h-182v342h-100v143h722v-143h-100v-342h-182z" />
    <glyph glyph-name="dagger" unicode="&#x2020;" horiz-adv-x="506" 
d="M345 780v-155h113l18 -142h-142v-483h-169v483h-116l-19 142h135v155h180z" />
    <glyph glyph-name="daggerdbl" unicode="&#x2021;" horiz-adv-x="519" 
d="M163 -6l5 160h-119l-19 143h138v186h-119l-19 142h135v155h188v-155h118l18 -142h-136v-186h118l18 -143h-139l5 -153z" />
    <glyph glyph-name="bullet" unicode="&#x2022;" horiz-adv-x="308" 
d="M153 208q-51 0 -87 36t-36 87t36 87.5t87 36.5t88 -36.5t37 -87.5t-37 -87t-88 -36z" />
    <glyph glyph-name="ellipsis" unicode="&#x2026;" horiz-adv-x="580" 
d="M93 166q35 0 59 -24t24 -59q0 -36 -24 -59.5t-59 -23.5t-59 23.5t-24 59.5q0 35 24 59t59 24zM487 165q35 0 59 -24t24 -59q0 -36 -24 -59.5t-59 -23.5t-59 23.5t-24 59.5q0 35 24 59t59 24zM290 165q35 0 59 -24t24 -59q0 -36 -24 -59.5t-59 -23.5t-59 23.5t-24 59.5
q0 35 24 59t59 24z" />
    <glyph glyph-name="guilsinglleft" unicode="&#x2039;" horiz-adv-x="256" 
d="M207 58l-187 161v65l187 162l33 -137l-66 -57l66 -58z" />
    <glyph glyph-name="guilsinglright" unicode="&#x203a;" horiz-adv-x="256" 
d="M49 446l187 -161v-65l-187 -162l-33 137l66 57l-66 58z" />
    <glyph glyph-name="hyphen" unicode="-" horiz-adv-x="332" 
d="M312 202h-281l-11 143h282z" />
    <glyph glyph-name="underscore" unicode="_" horiz-adv-x="436" 
d="M416 0h-385l-11 143h386z" />
    <glyph glyph-name="endash" unicode="&#x2013;" horiz-adv-x="436" 
d="M416 202h-385l-11 143h386z" />
    <glyph glyph-name="emdash" unicode="&#x2014;" horiz-adv-x="553" 
d="M533 202h-502l-11 143h503z" />
    <glyph glyph-name="numbersign" unicode="#" horiz-adv-x="627" 
d="M607 82h-139l-23 -97l-147 5l21 92h-95l-23 -97l-147 5l21 92h-44l-11 133h87l18 78h-94l-11 133h137l22 91h149l-22 -91h95l22 91h149l-22 -91h47l10 -133h-89l-18 -78h97zM274 293l-18 -78h95l18 78h-95z" />
    <glyph glyph-name="percent" unicode="%" horiz-adv-x="974" 
d="M730 706l-299 -706h-187l298 706h188zM195 337q-83 0 -129 49t-46 133t48.5 133.5t131.5 49.5q87 0 134.5 -50.5t47.5 -134.5q0 -83 -51 -131.5t-136 -48.5zM244 517q0 28 -9 44.5t-33 16.5q-20 0 -32 -14t-12 -45q0 -30 9 -45.5t31 -15.5q24 0 35 14.5t11 44.5zM767 1
q-83 0 -129 49t-46 133t48.5 133.5t131.5 49.5q87 0 134.5 -50.5t47.5 -134.5q0 -83 -51 -131.5t-136 -48.5zM816 181q0 28 -9 44.5t-33 16.5q-20 0 -32 -14t-12 -45q0 -30 9 -45.5t31 -15.5q24 0 35 14.5t11 44.5z" />
    <glyph glyph-name="plus" unicode="+" horiz-adv-x="563" 
d="M543 202h-177v-202l-168 8v194h-167l-11 143h178v185h168v-185h167z" />
    <glyph glyph-name="divide" unicode="&#xf7;" horiz-adv-x="492" 
d="M246 551q38 0 64.5 -26.5t26.5 -65.5t-26.5 -65t-64.5 -26q-39 0 -65.5 26t-26.5 65t26.5 65.5t65.5 26.5zM472 207h-441l-11 133h442zM246 183q38 0 64.5 -26.5t26.5 -65.5t-26.5 -65t-64.5 -26q-39 0 -65.5 26t-26.5 65t26.5 65.5t65.5 26.5z" />
    <glyph glyph-name="multiply" unicode="&#xd7;" horiz-adv-x="587" 
d="M20 50l170 209l-162 204l163 24l96 -123l95 120h185l-192 -234q37 -48 87 -111.5t88 -109.5h-181l-89 117q-22 -28 -48 -61.5t-48 -60.5z" />
    <glyph glyph-name="plusminus" unicode="&#xb1;" horiz-adv-x="525" 
d="M505 292h-167v-143l-148 8v135h-157l-11 123h168v155h148v-155h157zM503 0h-472l-11 123h473z" />
    <glyph glyph-name="less" unicode="&#x3c;" horiz-adv-x="382" 
d="M329 -2l-299 214v81l299 212l33 -157l-135 -95l135 -96z" />
    <glyph glyph-name="equal" unicode="=" horiz-adv-x="523" 
d="M503 293h-472l-11 133h473zM503 82h-472l-11 133h473z" />
    <glyph glyph-name="greater" unicode="&#x3e;" horiz-adv-x="382" 
d="M53 505l299 -214v-81l-299 -212l-33 157l135 95l-135 96z" />
    <glyph glyph-name="degree" unicode="&#xb0;" horiz-adv-x="295" 
d="M148 720q54 0 95.5 -38.5t41.5 -93.5q0 -56 -41.5 -93.5t-95.5 -37.5q-57 0 -97.5 37.5t-40.5 93.5q0 55 40.5 93.5t97.5 38.5zM175 586q0 11 -7.5 19.5t-18.5 8.5q-10 0 -18 -8t-8 -18t8 -19t18 -9q11 0 18.5 8t7.5 18z" />
    <glyph glyph-name="onesuperior" unicode="&#xb9;" horiz-adv-x="384" 
d="M59 337l-12 108h102v148l-59 -27l-60 117l165 81h91v-319h66l12 -108h-305z" />
    <glyph glyph-name="twosuperior" unicode="&#xb2;" horiz-adv-x="409" 
d="M195 771q91 0 124 -41t33 -87q0 -49 -22 -90.5t-73 -87.5l-23 -21h123l12 -107h-329v90l128 113q34 29 48 51.5t15 38.5q0 13 -11.5 21.5t-30.5 8.5q-26 0 -53.5 -15t-47.5 -29l-58 90q25 21 68.5 43t96.5 22z" />
    <glyph glyph-name="threesuperior" unicode="&#xb3;" horiz-adv-x="427" 
d="M205 771q83 0 133 -36.5t50 -96.5q0 -26 -18 -56.5t-38 -40.5q26 -16 45.5 -48t19.5 -65q0 -66 -55.5 -107.5t-145.5 -41.5q-41 0 -90 14.5t-92 42.5l73 91q32 -20 58 -29t52 -9q25 0 42 12t17 31q0 22 -15 33.5t-37 11.5h-77l-11 108h61q33 0 52 11t19 30q0 14 -14 24
t-43 10q-21 0 -45.5 -9.5t-50.5 -27.5l-65 93q40 31 85.5 43t89.5 12z" />
    <glyph glyph-name="onequarter" unicode="&#xbc;" horiz-adv-x="993" 
d="M59 337l-12 108h102v148l-59 -27l-60 117l165 81h91v-319h66l12 -108h-305zM671 485l-281 -485h-167l280 485h168zM960 -75h-71v-91h-141v91h-216l-16 103l268 298h105v-290h78zM682 36h66v77z" />
    <glyph glyph-name="onehalf" unicode="&#xbd;" horiz-adv-x="970" 
d="M59 337l-12 108h102v148l-59 -27l-60 117l165 81h91v-319h66l12 -108h-305zM691 485l-281 -485h-167l280 485h168zM786 325q91 0 124 -41t33 -87q0 -49 -22 -90.5t-73 -87.5l-23 -21h123l12 -107h-329v90l128 113q34 29 48 51.5t15 38.5q0 13 -11.5 21.5t-30.5 8.5
q-26 0 -53.5 -15t-47.5 -29l-58 90q25 21 68.5 43t96.5 22z" />
    <glyph glyph-name="threequarters" unicode="&#xbe;" horiz-adv-x="1013" 
d="M691 485l-281 -485h-167l280 485h168zM205 771q83 0 133 -36.5t50 -96.5q0 -26 -18 -56.5t-38 -40.5q26 -16 45.5 -48t19.5 -65q0 -66 -55.5 -107.5t-145.5 -41.5q-41 0 -90 14.5t-92 42.5l73 91q32 -20 58 -29t52 -9q25 0 42 12t17 31q0 22 -15 33.5t-37 11.5h-77
l-11 108h61q33 0 52 11t19 30q0 14 -14 24t-43 10q-21 0 -45.5 -9.5t-50.5 -27.5l-65 93q40 31 85.5 43t89.5 12zM980 -75h-71v-91h-141v91h-216l-16 103l268 298h105v-290h78zM702 36h66v77z" />
    <glyph glyph-name="estimated" unicode="&#x212e;" horiz-adv-x="553" 
d="M30 242q0 122 75.5 191t185.5 69q116 0 174 -75t58 -177v-63h-295q12 -28 36.5 -40t58.5 -12q32 0 65.5 6t61.5 20l51 -123q-42 -31 -104 -40t-92 -9q-118 0 -196.5 60.5t-78.5 192.5zM349 297q-1 16 -15 37.5t-48 21.5q-25 0 -40.5 -15.5t-22.5 -43.5h126z" />
    <glyph glyph-name="partialdiff" unicode="&#x2202;" horiz-adv-x="617" 
d="M30 213q0 86 69 143.5t171 57.5q13 0 31.5 -5t38.5 -15q-49 50 -120.5 77.5t-113.5 37.5l86 126q158 -32 271.5 -134.5t113.5 -233.5q0 -140 -86 -210t-212 -70q-113 0 -181 69t-68 157zM218 209q0 -26 17 -50.5t51 -24.5q36 0 63.5 26t36.5 80q-17 18 -41 32.5t-48 14.5
q-40 0 -59.5 -22.5t-19.5 -55.5z" />
    <glyph glyph-name="product" unicode="&#x220f;" horiz-adv-x="802" 
d="M520 0v537h-239v-537h-181v680h602v-680h-182z" />
    <glyph glyph-name="summation" unicode="&#x2211;" horiz-adv-x="531" 
d="M481 537h-214l114 -163v-58l-115 -173h228l17 -143h-451v130l150 214q-37 52 -74 103.5t-74 102.5v130h402z" />
    <glyph glyph-name="minus" unicode="&#x2212;" horiz-adv-x="476" 
d="M456 202h-425l-11 143h426z" />
    <glyph glyph-name="radical" unicode="&#x221a;" horiz-adv-x="750" 
d="M745 706l-298 -706h-252l-190 351h205l114 -212l237 567h184z" />
    <glyph glyph-name="infinity" unicode="&#x221e;" horiz-adv-x="914" 
d="M626 0q-57 0 -101.5 24.5t-72.5 55.5q-20 -31 -67.5 -55.5t-94.5 -24.5q-109 0 -179.5 66.5t-70.5 175.5q0 116 70.5 184t177.5 68q57 0 101.5 -24.5t72.5 -55.5q20 31 67.5 55.5t94.5 24.5q117 0 183.5 -66.5t66.5 -175.5q0 -111 -70.5 -181.5t-177.5 -70.5zM696 255
q0 28 -22 50t-56 22q-29 0 -53.5 -36.5t-36.5 -75.5q18 -22 40.5 -35t49.5 -13q34 0 56 26.5t22 61.5zM218 239q0 -28 22 -50t56 -22q29 0 53.5 36.5t36.5 75.5q-18 22 -40.5 35t-49.5 13q-34 0 -56 -26.5t-22 -61.5z" />
    <glyph glyph-name="integral" unicode="&#x222b;" horiz-adv-x="570" 
d="M376 14q0 -97 -72 -145t-165 -48q-35 0 -75.5 13.5t-58.5 29.5l52 124q17 -10 37 -14.5t33 -4.5q32 0 49.5 17.5t17.5 47.5v556q0 97 72 145t165 48q35 0 75.5 -13.5t58.5 -29.5l-52 -124q-17 10 -37 14.5t-33 4.5q-32 0 -49.5 -17.5t-17.5 -47.5v-556z" />
    <glyph glyph-name="approxequal" unicode="&#x2248;" horiz-adv-x="545" 
d="M399 472l126 -20q0 -77 -30 -118.5t-106 -41.5q-43 0 -90.5 17t-90.5 17q-19 0 -40.5 -16.5t-21.5 -32.5l-126 20q0 78 40.5 119t119.5 41q41 0 93.5 -17t83.5 -17q19 0 30.5 16.5t11.5 32.5zM399 266l126 -20q0 -74 -30 -117t-106 -43q-43 0 -90.5 17t-90.5 17
q-19 0 -40.5 -16.5t-21.5 -32.5l-126 20q0 81 40.5 120.5t119.5 39.5q41 0 93.5 -17t83.5 -17q19 0 30.5 16.5t11.5 32.5z" />
    <glyph glyph-name="notequal" unicode="&#x2260;" horiz-adv-x="553" 
d="M533 72h-253l-39 -82h-167l36 82h-79l-11 143h154l31 71h-174l-11 143h248l41 88h169l-39 -88h84l10 -143h-158l-32 -71h180z" />
    <glyph glyph-name="lessequal" unicode="&#x2264;" horiz-adv-x="386" 
d="M326 158l-299 164v81l299 162l33 -137l-135 -65l135 -66zM366 0h-335l-11 123h336z" />
    <glyph glyph-name="greaterequal" unicode="&#x2265;" horiz-adv-x="386" 
d="M60 565l299 -164v-81l-299 -162l-33 137l135 65l-135 66zM366 0h-335l-11 123h336z" />
    <glyph glyph-name="perthousand" unicode="&#x2030;" horiz-adv-x="1375" 
d="M730 706l-299 -706h-187l298 706h188zM195 337q-83 0 -129 49t-46 133t48.5 133.5t131.5 49.5q87 0 134.5 -50.5t47.5 -134.5q0 -83 -51 -131.5t-136 -48.5zM244 517q0 28 -9 44.5t-33 16.5q-20 0 -32 -14t-12 -45q0 -30 9 -45.5t31 -15.5q24 0 35 14.5t11 44.5zM1168 1
q-83 0 -129 49t-46 133t48.5 133.5t131.5 49.5q87 0 134.5 -50.5t47.5 -134.5q0 -83 -51 -131.5t-136 -48.5zM767 1q-83 0 -129 49t-46 133t48.5 133.5t131.5 49.5q87 0 134.5 -50.5t47.5 -134.5q0 -83 -51 -131.5t-136 -48.5zM1217 181q0 28 -9 44.5t-33 16.5
q-20 0 -32 -14t-12 -45q0 -30 9 -45.5t31 -15.5q24 0 35 14.5t11 44.5zM816 181q0 28 -9 44.5t-33 16.5q-20 0 -32 -14t-12 -45q0 -30 9 -45.5t31 -15.5q24 0 35 14.5t11 44.5z" />
    <glyph glyph-name="fraction" unicode="&#x2044;" horiz-adv-x="496" 
d="M491 706l-299 -706h-187l298 706h188z" />
    <glyph glyph-name="lozenge" unicode="&#x25ca;" horiz-adv-x="592" 
d="M262 0l-242 274v51l241 275h71l240 -275v-51l-241 -274h-69zM182 297l114 -134l115 134l-115 135z" />
    <glyph glyph-name="copyright" unicode="&#xa9;" horiz-adv-x="905" 
d="M845 336q0 -157 -108 -267.5t-285 -110.5q-175 0 -283.5 110.5t-108.5 267.5q0 160 108.5 270t283.5 110q177 0 285 -110t108 -270zM195 337q0 -108 70.5 -181.5t186.5 -73.5q117 0 186.5 73.5t69.5 181.5q0 109 -64 182.5t-192 73.5q-116 0 -186.5 -73.5t-70.5 -182.5z
M565 411q-25 13 -43.5 18t-41.5 5q-32 0 -57.5 -26t-25.5 -72q0 -45 25.5 -68.5t57.5 -23.5q21 0 40.5 5t44.5 18l44 -109q-37 -29 -78 -36t-67 -7q-103 0 -167 57.5t-64 163.5t64 166.5t167 60.5q26 0 67 -7t78 -36z" />
    <glyph glyph-name="registered" unicode="&#xae;" horiz-adv-x="745" 
d="M684 475q0 -141 -92 -239t-250 -98q-157 0 -249 98t-92 239q0 143 92 241.5t249 98.5q158 0 250 -98.5t92 -241.5zM112 476q0 -100 61 -166.5t169 -67.5q107 1 169 67.5t62 166.5q0 101 -62 167.5t-169 66.5q-108 0 -169 -66.5t-61 -167.5zM331 574h-31v-82h31
q22 0 36.5 10.5t14.5 31.5q0 24 -13.5 32t-37.5 8zM195 300v356h149q58 0 106 -29t48 -93q0 -34 -16.5 -58.5t-41.5 -39.5l58 -136h-119l-43 112h-36v-112h-105z" />
    <glyph glyph-name="trademark" unicode="&#x2122;" horiz-adv-x="824" 
d="M137 290v286h-107v104h337l12 -104h-117v-286h-125zM668 290v170l-37 -41l-52 -6l-48 52v-175h-125v390h91l108 -127q22 31 50 63.5t50 63.5h89v-390h-126z" />
    <glyph glyph-name="ampersand" unicode="&#x26;" horiz-adv-x="699" 
d="M228 218q0 -42 23.5 -67t67.5 -25q16 0 30.5 6.5t28.5 17.5l-138 120q-6 -12 -9 -25.5t-3 -26.5zM337 403l129 -110q13 33 21 66.5t12 61.5l160 -64q-5 -46 -19.5 -92t-36.5 -88l76 -64l-107 -132l-74 64q-39 -31 -85.5 -50t-97.5 -19q-113 0 -194 58.5t-81 177.5
q0 47 23.5 94t62.5 81q-16 24 -24.5 49.5t-8.5 56.5q0 81 63 142t163 61q58 0 108.5 -15t93.5 -46l-49 -124q-34 19 -66 27.5t-63 8.5q-37 0 -54.5 -18.5t-17.5 -38.5q0 -19 16 -37.5t50 -49.5z" />
    <glyph glyph-name="at" unicode="@" horiz-adv-x="832" 
d="M600 39l44 -101q-63 -33 -117 -41t-103 -8q-156 0 -275 88.5t-119 260.5q0 152 108 272t305 120q154 0 256.5 -95.5t102.5 -225.5q0 -123 -77 -189t-158 -66q-19 0 -37.5 5t-32.5 17q-18 -9 -37.5 -14t-41.5 -5q-96 0 -141.5 48t-45.5 124q0 93 62 157t149 64
q7 0 13.5 -0.5t13.5 -1.5l89 -11l41 -54l-23 -183q0 -4 0.5 -6.5t1.5 -2.5q19 0 47 30t28 83q0 72 -48 131t-156 59q-113 0 -186.5 -72t-73.5 -191q0 -107 74 -161t170 -54q24 0 78.5 5t88.5 18zM377 237q0 -13 9 -25.5t30 -12.5q9 0 14.5 8t6.5 18l13 100
q-38 0 -55.5 -25.5t-17.5 -62.5z" />
    <glyph glyph-name="asciicircum" unicode="^" horiz-adv-x="495" 
d="M197 141h-177l156 283h144l155 -283h-173l-52 112z" />
    <glyph glyph-name="asciitilde" unicode="~" horiz-adv-x="525" 
d="M389 400h126q0 -90 -30 -150t-106 -60q-43 0 -90.5 17t-90.5 17q-19 0 -40.5 -16.5t-21.5 -32.5h-126q0 90 40.5 150t119.5 60q41 0 93.5 -17t83.5 -17q19 0 30.5 16.5t11.5 32.5z" />
    <glyph glyph-name="section" unicode="&#xa7;" horiz-adv-x="721" 
d="M219 390q0 -22 30.5 -39t71.5 -39q34 -17 68.5 -38.5t62.5 -46.5q25 7 38 20.5t13 28.5q0 18 -33 38.5t-72 39.5q-32 16 -66 36.5t-63 45.5q-24 -4 -37 -17t-13 -29zM194 576v11q1 82 69 137.5t184 55.5q51 0 105.5 -14.5t94.5 -41.5l-54 -123q-54 19 -82 24.5t-62 5.5
q-31 0 -49 -14.5t-18 -33.5q0 -22 30.5 -38.5t72.5 -38.5q72 -37 139 -93t67 -139q0 -66 -43 -116t-121 -71q0 -1 0.5 -3t0.5 -3q0 -86 -72.5 -143t-198.5 -57q-52 0 -117.5 15.5t-105.5 39.5l60 137q26 -16 73.5 -29.5t84.5 -13.5q43 0 65.5 17t22.5 36q0 18 -33 39t-72 40
q-68 34 -136 88.5t-68 143.5q0 65 43.5 114t119.5 68z" />
    <glyph glyph-name="ordfeminine" unicode="&#xaa;" horiz-adv-x="387" 
d="M148 461q0 -4 5.5 -7t14.5 -3q11 0 21.5 5t17.5 14v5h-36q-10 0 -16.5 -3.5t-6.5 -10.5zM41 669q28 13 69 23t84 10q70 0 106.5 -39t36.5 -105v-214h-58l-23 27q-16 -16 -41.5 -25t-54.5 -9q-66 0 -98 32.5t-32 86.5q0 56 37.5 82t97.5 26h34q-5 7 -14.5 11.5t-22.5 4.5
q-18 0 -42.5 -6.5t-43.5 -14.5z" />
    <glyph glyph-name="logicalnot" unicode="&#xac;" horiz-adv-x="534" 
d="M524 110l-168 7v164h-333l-13 143h496l18 -67v-247z" />
    <glyph glyph-name="paragraph" unicode="&#xb6;" horiz-adv-x="1073" 
d="M1073 680v-143h-138v-537h-182v537h-179v-537h-181v191h-25q-122 0 -215 60t-93 188q0 130 86.5 185.5t208.5 55.5h718z" />
    <glyph glyph-name="ordmasculine" unicode="&#xba;" horiz-adv-x="422" 
d="M205 337q-83 0 -129 49t-46 133t48.5 133.5t131.5 49.5q87 0 134.5 -50.5t47.5 -134.5q0 -83 -51 -131.5t-136 -48.5zM254 517q0 28 -9 44.5t-33 16.5q-20 0 -32 -14t-12 -45q0 -30 9 -45.5t31 -15.5q24 0 35 14.5t11 44.5z" />
    <glyph glyph-name="dv_CandrabinduInverted" unicode="&#x900;" horiz-adv-x="0" 
d="M-8 964q34 75 112 114.5t156 39.5t156 -39.5t112 -114.5l-126 -77q-18 36 -55 63t-87 27t-87 -27t-55 -63zM260 925q35 0 60 -25.5t25 -59.5t-25 -59.5t-60 -25.5q-34 0 -59.5 25.5t-25.5 59.5t25.5 59.5t59.5 25.5z" />
    <glyph glyph-name="dv_Candrabindu" unicode="&#x901;" horiz-adv-x="0" 
d="M392 936q-35 0 -60 25.5t-25 59.5t25 59.5t60 25.5q34 0 59.5 -25.5t25.5 -59.5t-25.5 -59.5t-59.5 -25.5zM660 897q-34 -75 -112 -114.5t-156 -39.5t-156 39.5t-112 114.5l126 77q18 -36 55 -63t87 -27t87 27t55 63z" />
    <glyph glyph-name="dv_Anusvara" unicode="&#x902;" horiz-adv-x="0" 
d="M94 771q-37 0 -63.5 26.5t-26.5 63.5t26.5 64t63.5 27t64 -27t27 -64t-27 -63.5t-64 -26.5z" />
    <glyph glyph-name="dv_Visarga" unicode="&#x903;" horiz-adv-x="241" 
d="M120 357q-37 0 -63.5 26.5t-26.5 63.5t26.5 64t63.5 27t64 -27t27 -64t-27 -63.5t-64 -26.5zM120 37q-37 0 -63.5 26.5t-26.5 63.5t26.5 64t63.5 27t64 -27t27 -64t-27 -63.5t-64 -26.5z" />
    <glyph glyph-name="dv_ShortA" unicode="&#x904;" horiz-adv-x="986" 
d="M406 955l156 -21q0 -28 12 -38t32 -10h69q90 -1 145 -47.5t55 -109.5v-49h105l17 -143h-113v-553l-182 16v282h-177q15 -19 23.5 -46.5t8.5 -56.5q0 -81 -63.5 -138t-212.5 -57q-60 0 -119 14t-108 38l32 147q41 -23 88 -38t92 -15q52 0 80.5 20t28.5 54q0 41 -29 60.5
t-80 19.5h-113l-19 134h132q47 0 71 20.5t24 51.5q0 28 -20.5 45.5t-65.5 17.5q-37 0 -76 -10.5t-95 -35.5l-35 143q48 21 108 35t110 14q134 0 195 -52.5t61 -140.5q0 -24 -10 -50t-23 -38h192v119h-100l-16 143h127v5q0 28 -17.5 42.5t-37.5 14.5h-54q-90 1 -144 43
t-54 108v62z" />
    <glyph glyph-name="dv_A" unicode="&#x905;" horiz-adv-x="986" 
d="M702 0v282h-177q15 -19 23.5 -46.5t8.5 -56.5q0 -81 -63.5 -138t-212.5 -57q-60 0 -119 14t-108 38l32 147q41 -23 88 -38t92 -15q52 0 80.5 20t28.5 54q0 41 -29 60.5t-80 19.5h-113l-19 134h132q47 0 71 20.5t24 51.5q0 28 -20.5 45.5t-65.5 17.5q-37 0 -76 -10.5
t-95 -35.5l-35 143q48 21 108 35t110 14q134 0 195 -52.5t61 -140.5q0 -24 -10 -50t-23 -38h192v119h-100l-16 143h394l17 -143h-113v-553z" />
    <glyph glyph-name="dv_Aa" unicode="&#x906;" horiz-adv-x="1357" 
d="M702 0v282h-177q15 -19 23.5 -46.5t8.5 -56.5q0 -81 -63.5 -138t-212.5 -57q-60 0 -119 14t-108 38l32 147q41 -23 88 -38t92 -15q52 0 80.5 20t28.5 54q0 41 -29 60.5t-80 19.5h-113l-19 134h132q47 0 71 20.5t24 51.5q0 28 -20.5 45.5t-65.5 17.5q-37 0 -76 -10.5
t-95 -35.5l-35 143q48 21 108 35t110 14q134 0 195 -52.5t61 -140.5q0 -24 -10 -50t-23 -38h192v119h-100l-16 143h765l17 -143h-113v-553l-182 16v537h-189v-553z" />
    <glyph glyph-name="dv_I" unicode="&#x907;" horiz-adv-x="568" 
d="M244 133q11 -1 21.5 -2t20.5 -1q30 0 47 8.5t17 23.5q0 10 -7.5 17t-19.5 7h-79q-69 0 -126.5 43t-57.5 120q0 81 52.5 120.5t129.5 39.5h80v28h-317l-16 143h573l17 -143h-100v-172h-222q-12 0 -18.5 -4.5t-6.5 -11.5t7 -13.5t19 -6.5h59q94 0 156 -35.5t62 -128.5
q0 -66 -54 -118.5t-155 -60.5l9 -16l52 -69l-118 -85l-127 171q-32 16 -62 47.5t-30 77.5q0 36 24 58t59 22q34 0 63 -17t48 -42z" />
    <glyph glyph-name="dv_Ii" unicode="&#x908;" horiz-adv-x="568" 
d="M244 133q11 -1 21.5 -2t20.5 -1q30 0 47 8.5t17 23.5q0 10 -7.5 17t-19.5 7h-79q-69 0 -126.5 43t-57.5 120q0 81 52.5 120.5t129.5 39.5h80v28h-317l-16 143h292q-11 23 -18.5 55.5t-7.5 52.5q0 65 43.5 117.5t128.5 52.5q46 0 84 -15.5t58 -38.5l-70 -119
q-17 15 -28.5 19t-23.5 4q-16 0 -24.5 -11.5t-8.5 -25.5q0 -21 10.5 -47.5t21.5 -43.5h116l17 -143h-100v-172h-222q-12 0 -18.5 -4.5t-6.5 -11.5t7 -13.5t19 -6.5h59q94 0 156 -35.5t62 -128.5q0 -66 -54 -118.5t-155 -60.5l9 -16l52 -69l-118 -85l-127 171
q-32 16 -62 47.5t-30 77.5q0 36 24 58t59 22q34 0 63 -17t48 -42z" />
    <glyph glyph-name="dv_U" unicode="&#x909;" horiz-adv-x="637" 
d="M648 537h-95q1 -7 1.5 -15.5t0.5 -15.5q0 -53 -20 -95t-51 -68q35 -19 60 -58.5t25 -96.5q0 -81 -63.5 -142.5t-212.5 -61.5q-60 0 -119 14t-108 38l32 147q41 -23 88 -38t92 -15q52 0 80.5 20t28.5 54q0 41 -29 60.5t-80 19.5h-113l-19 134h132q47 0 71 20.5t24 51.5
q0 14 -5.5 26.5t-17.5 20.5h-345l-16 143h642z" />
    <glyph glyph-name="dv_Uu" unicode="&#x90a;" horiz-adv-x="933" 
d="M743 200q0 34 -24 53t-62 19q-34 0 -55.5 -12.5t-37.5 -28.5q2 -10 3.5 -21t1.5 -22q0 -81 -63.5 -142.5t-212.5 -61.5q-60 0 -119 14t-108 38l32 147q41 -23 88 -38t92 -15q52 0 80.5 20t28.5 54q0 41 -29 60.5t-80 19.5h-113l-19 134h132q47 0 71 20.5t24 51.5
q0 14 -5.5 26.5t-17.5 20.5h-345l-16 143h938l17 -143h-391q1 -7 1.5 -15.5t0.5 -15.5q0 -53 -20 -95t-51 -68l12 -7q22 28 66 53t104 25q107 0 174.5 -54.5t67.5 -147.5q0 -123 -73 -173.5t-162 -54.5l-25 142q46 0 70.5 20t24.5 54z" />
    <glyph glyph-name="dv_VocalicR" unicode="&#x90b;" horiz-adv-x="943" 
d="M363 0v147l-194 -120l-95 131l225 136q-25 18 -47 26t-41 8q-8 0 -42 -11t-74 -30l-66 147q39 19 96.5 34t76.5 15q59 0 90 -9.5t71 -30.5v94h-358l-16 143h948l17 -143h-409v-169q21 3 43.5 9t35.5 12q-4 11 -6.5 23.5t-2.5 26.5q0 43 26 63t61 20q59 0 98 -29t39 -77
q0 -10 -3.5 -30t-10.5 -26q40 -28 60 -74.5t20 -80.5q0 -87 -54 -133t-144 -46q-28 0 -54.5 5.5t-57.5 16.5l40 138q27 -8 38 -11.5t24 -3.5q16 0 25 7t9 20q0 12 -5 31t-17 40q-30 -18 -78.5 -30t-85.5 -16v-239z" />
    <glyph glyph-name="dv_VocalicL" unicode="&#x90c;" horiz-adv-x="903" 
d="M678 -31q0 -14 14 -21.5t39 -7.5q9 0 31 2.5t36 7.5l29 -136q-17 -7 -46 -12t-62 -5q-66 0 -128.5 42.5t-62.5 126.5q0 53 26 91.5t65 58.5v171q-6 21 -20 34.5t-30 13.5q-22 0 -36.5 -23t-14.5 -59v-130l-157 16v114q0 36 -14 58t-47 22q-25 0 -41 -15.5t-16 -34.5
q0 -42 14.5 -88t77.5 -174l-168 -47q-54 107 -80.5 177.5t-26.5 145.5q0 80 64 133t165 53q51 0 90.5 -21.5t57.5 -46.5q19 25 51.5 46.5t85.5 21.5q11 0 21.5 -1.5t23.5 -5.5v61h-614l-16 143h908l17 -143h-113v-545h-90q-13 0 -23 -6t-10 -17z" />
    <glyph glyph-name="dv_CandraE" unicode="&#x90d;" horiz-adv-x="786" 
d="M656 897q-34 -75 -110 -114.5t-154 -39.5t-154 39.5t-110 114.5l126 77q18 -36 53 -63t85 -27t85 27t53 63zM506 304v233h-219v-351q0 -19 5.5 -40t30.5 -37l246 -154l-85 -136l-286 172q-54 32 -73.5 69.5t-19.5 105.5v371h-100l-16 143h791l17 -143h-109v-256
q0 -77 -56.5 -124.5t-161.5 -81.5l-76 136q59 20 85.5 39.5t26.5 53.5z" />
    <glyph glyph-name="dv_ShortE" unicode="&#x90e;" horiz-adv-x="786" 
d="M97 955l156 -21q0 -28 12 -38t32 -10h184q90 0 145 -47t55 -110v-49h99l17 -143h-109v-256q0 -77 -56.5 -124.5t-161.5 -81.5l-76 136q59 20 85.5 39.5t26.5 53.5v233h-219v-351q0 -19 5.5 -40t30.5 -37l246 -154l-85 -136l-286 172q-54 32 -73.5 69.5t-19.5 105.5v371
h-100l-16 143h530v5q0 28 -17.5 42.5t-37.5 14.5h-169q-90 0 -144 42.5t-54 108.5v62z" />
    <glyph glyph-name="dv_E" unicode="&#x90f;" horiz-adv-x="786" 
d="M506 304v233h-219v-351q0 -19 5.5 -40t30.5 -37l246 -154l-85 -136l-286 172q-54 32 -73.5 69.5t-19.5 105.5v371h-100l-16 143h791l17 -143h-109v-256q0 -77 -56.5 -124.5t-161.5 -81.5l-76 136q59 20 85.5 39.5t26.5 53.5z" />
    <glyph glyph-name="dv_Ai" unicode="&#x910;" horiz-adv-x="786" 
d="M506 304v233h-219v-351q0 -19 5.5 -40t30.5 -37l246 -154l-85 -136l-286 172q-54 32 -73.5 69.5t-19.5 105.5v371h-100l-16 143h465l-227 204l142 81l284 -285h127l17 -143h-109v-256q0 -77 -56.5 -124.5t-161.5 -81.5l-76 136q59 20 85.5 39.5t26.5 53.5z" />
    <glyph glyph-name="dv_CandraO" unicode="&#x911;" horiz-adv-x="1357" 
d="M1254 897q-34 -75 -110 -114.5t-154 -39.5t-154 39.5t-110 114.5l126 77q18 -36 53 -63t85 -27t85 27t53 63zM702 0v282h-177q15 -19 23.5 -46.5t8.5 -56.5q0 -81 -63.5 -138t-212.5 -57q-60 0 -119 14t-108 38l32 147q41 -23 88 -38t92 -15q52 0 80.5 20t28.5 54
q0 41 -29 60.5t-80 19.5h-113l-19 134h132q47 0 71 20.5t24 51.5q0 28 -20.5 45.5t-65.5 17.5q-37 0 -76 -10.5t-95 -35.5l-35 143q48 21 108 35t110 14q134 0 195 -52.5t61 -140.5q0 -24 -10 -50t-23 -38h192v119h-100l-16 143h765l17 -143h-113v-553l-182 16v537h-189
v-553z" />
    <glyph glyph-name="dv_ShortO" unicode="&#x912;" horiz-adv-x="1357" 
d="M702 0v282h-177q15 -19 23.5 -46.5t8.5 -56.5q0 -81 -63.5 -138t-212.5 -57q-60 0 -119 14t-108 38l32 147q41 -23 88 -38t92 -15q52 0 80.5 20t28.5 54q0 41 -29 60.5t-80 19.5h-113l-19 134h132q47 0 71 20.5t24 51.5q0 28 -20.5 45.5t-65.5 17.5q-37 0 -76 -10.5
t-95 -35.5l-35 143q48 21 108 35t110 14q134 0 195 -52.5t61 -140.5q0 -24 -10 -50t-23 -38h192v119h-100l-16 143h500v5q0 28 -17.5 42.5t-37.5 14.5h-169q-90 0 -144 42.5t-54 108.5v62l156 -21q0 -28 12 -38t32 -10h184q90 0 145 -47t55 -110v-49h103l17 -143h-113v-553
l-182 16v537h-189v-553z" />
    <glyph glyph-name="dv_O" unicode="&#x913;" horiz-adv-x="1357" 
d="M702 0v282h-177q15 -19 23.5 -46.5t8.5 -56.5q0 -81 -63.5 -138t-212.5 -57q-60 0 -119 14t-108 38l32 147q41 -23 88 -38t92 -15q52 0 80.5 20t28.5 54q0 41 -29 60.5t-80 19.5h-113l-19 134h132q47 0 71 20.5t24 51.5q0 28 -20.5 45.5t-65.5 17.5q-37 0 -76 -10.5
t-95 -35.5l-35 143q48 21 108 35t110 14q134 0 195 -52.5t61 -140.5q0 -24 -10 -50t-23 -38h192v119h-100l-16 143h435l-227 204l142 81l284 -285h131l17 -143h-113v-553l-182 16v537h-189v-553z" />
    <glyph glyph-name="dv_Au" unicode="&#x914;" horiz-adv-x="1357" 
d="M702 0v282h-177q15 -19 23.5 -46.5t8.5 -56.5q0 -81 -63.5 -138t-212.5 -57q-60 0 -119 14t-108 38l32 147q41 -23 88 -38t92 -15q52 0 80.5 20t28.5 54q0 41 -29 60.5t-80 19.5h-113l-19 134h132q47 0 71 20.5t24 51.5q0 28 -20.5 45.5t-65.5 17.5q-37 0 -76 -10.5
t-95 -35.5l-35 143q48 21 108 35t110 14q134 0 195 -52.5t61 -140.5q0 -24 -10 -50t-23 -38h192v119h-100l-16 143h470q-13 11 -42 25.5t-78 14.5h-110l-34 151h138q19 0 38 -0.5t36 -4.5q-8 25 -20.5 57.5t-19.5 53.5l160 45l80 -342h147l17 -143h-113v-553l-182 16v537
h-189v-553z" />
    <glyph glyph-name="dv_Ka" unicode="&#x915;" horiz-adv-x="940" 
d="M382 238v64q-7 11 -25 28.5t-50 17.5q-42 0 -63.5 -23t-21.5 -55t21.5 -55t63.5 -23q32 0 50 17.5t25 28.5zM629 192q46 0 70.5 22t24.5 56q0 32 -19 55t-61 23q-32 0 -52.5 -17.5t-27.5 -28.5v-318l-182 16v73q-7 -7 -41.5 -15t-67.5 -8q-106 0 -171 62.5t-65 157.5
t65 157.5t171 62.5q33 0 67.5 -8t41.5 -15v70h-377l-16 143h945l17 -143h-387v-75q7 7 41.5 17.5t67.5 10.5q106 0 171 -62.5t65 -157.5q0 -123 -73 -175.5t-162 -56.5z" />
    <glyph glyph-name="dv_Kha" unicode="&#x916;" horiz-adv-x="1088" 
d="M568 133q-40 28 -63.5 71.5t-23.5 94.5q0 87 63 147t160 60q30 0 61.5 -7.5t38.5 -13.5v52h-383q7 -21 10 -43.5t3 -39.5q0 -79 -30 -127t-77 -73q28 -46 82.5 -85t120.5 -39q10 0 19.5 1t18.5 2zM657 299q0 -29 20 -50t58 -21q30 0 46.5 16t22.5 26v59q-6 10 -22.5 26
t-46.5 16q-38 0 -58 -21t-20 -51zM804 0v63q-51 -40 -122 -64.5t-161 -24.5q-154 0 -248 75.5t-132 166.5h-9q-47 0 -70 14.5t-28 39.5q0 60 43 108t97 48q16 0 30 -13t23 -30q15 11 22.5 35.5t7.5 41.5q0 22 -7.5 44.5t-23.5 32.5h-221l-16 143h1093l17 -143h-113v-553z
" />
    <glyph glyph-name="dv_Ga" unicode="&#x917;" horiz-adv-x="792" 
d="M327 537l-1 -339q0 -48 -22 -74.5t-73 -26.5q-62 0 -121 49.5t-59 123.5q0 49 27.5 68.5t66.5 19.5v179h-140l-16 143h797l17 -143h-113v-553l-182 16v537h-181z" />
    <glyph glyph-name="dv_Gha" unicode="&#x918;" horiz-adv-x="777" 
d="M493 0v95q-24 -22 -73.5 -36t-92.5 -14q-104 0 -180 47.5t-76 160.5q0 35 19.5 76.5t47.5 60.5q-27 23 -42 54.5t-15 63.5q0 4 0.5 13t1.5 16h-78l-16 143h782l17 -143h-113v-553zM493 352v185h-228q-4 -4 -5.5 -15t-1.5 -18q0 -20 15.5 -34t50.5 -14h62l25 -141h-91
q-33 0 -49 -18t-16 -41q0 -24 21 -40.5t53 -16.5q55 0 109.5 39t54.5 114z" />
    <glyph glyph-name="dv_Nga" unicode="&#x919;" horiz-adv-x="706" 
d="M619 253q-37 0 -63.5 26.5t-26.5 63.5t26.5 64t63.5 27t64 -27t27 -64t-27 -63.5t-64 -26.5zM87 183q41 -23 97.5 -38t101.5 -15q30 0 47 8.5t17 23.5q0 10 -7.5 17t-19.5 7h-79q-69 0 -126.5 43t-57.5 120q0 81 52.5 120.5t129.5 39.5h80v28h-317l-16 143h711l17 -143
h-238v-172h-222q-12 0 -18.5 -4.5t-6.5 -11.5t7 -13.5t19 -6.5h59q94 0 156 -35.5t62 -128.5q0 -72 -62 -126.5t-179 -54.5q-60 0 -125 14t-114 38z" />
    <glyph glyph-name="dv_Ca" unicode="&#x91a;" horiz-adv-x="756" 
d="M472 0v66q-28 -8 -59 -13t-53 -5q-103 0 -179.5 54t-76.5 158q0 16 2.5 32t7.5 31h-85l-16 143h392l20 -143h-60q-42 0 -63 -17t-21 -46q0 -30 23.5 -47t55.5 -17q28 0 66 17t46 43v281h-467l-16 143h761l17 -143h-113v-553z" />
    <glyph glyph-name="dv_Cha" unicode="&#x91b;" horiz-adv-x="841" 
d="M149 351q-28 28 -44.5 67t-16.5 73q0 10 1.5 21.5t4.5 24.5h-89l-16 143h846l17 -143h-146v-41q37 -22 55.5 -64t18.5 -92q0 -131 -118 -243t-296 -112q-134 0 -212.5 60.5t-78.5 161.5q0 43 19.5 82t54.5 62zM561 235q-48 4 -79.5 41.5t-31.5 91.5q0 46 25.5 82t68.5 53
v34h-242q-16 -8 -21 -23t-5 -24q0 -26 18.5 -47t64.5 -21h30l17 -143h-42q-57 0 -79 -18t-22 -49q0 -30 32 -47t78 -17q56 0 109.5 23.5t78.5 63.5z" />
    <glyph glyph-name="dv_Ja" unicode="&#x91c;" horiz-adv-x="846" 
d="M562 0v318h-85q4 -13 6 -28.5t2 -30.5q0 -110 -71.5 -170t-178.5 -60q-62 0 -121.5 17.5t-102.5 45.5l27 163q44 -39 91 -58.5t98 -19.5q39 0 64.5 22.5t25.5 53.5q0 27 -19 46t-53 19h-76l-20 142h413v77h-557l-16 143h851l17 -143h-113v-553z" />
    <glyph glyph-name="dv_Jha" unicode="&#x91d;" horiz-adv-x="917" 
d="M633 537h-154v-172h-222q-12 0 -18.5 -4.5t-6.5 -11.5t7 -13.5t19 -6.5h59q56 0 102 -12t75 -40h139v260zM244 133q11 -1 21.5 -2t20.5 -1q30 0 47 8.5t17 23.5q0 10 -7.5 17t-19.5 7h-79q-69 0 -126.5 43t-57.5 120q0 81 52.5 120.5t129.5 39.5h80v28h-317l-16 143h922
l17 -143h-113v-553l-182 16v148h-99q-7 -61 -59.5 -108t-148.5 -54l9 -16l52 -69l-118 -85l-127 171q-32 16 -62 47.5t-30 77.5q0 36 24 58t59 22q34 0 63 -17t48 -42z" />
    <glyph glyph-name="dv_Nya" unicode="&#x91e;" horiz-adv-x="862" 
d="M578 0v194h-91q-20 -78 -89 -116t-154 -38q-57 0 -117.5 18t-104.5 48l34 164q45 -44 95.5 -62.5t87.5 -18.5t60 22.5t23 59.5q0 34 -21 57t-61 23q-19 0 -46.5 -3t-68.5 -15l-39 139q53 19 89.5 23t68.5 4q85 0 154 -40.5t91 -119.5h89v198h-573l-16 143h867l17 -143
h-113v-553z" />
    <glyph glyph-name="dv_Tta" unicode="&#x91f;" horiz-adv-x="697" 
d="M634 36q-36 -21 -103.5 -36.5t-142.5 -15.5q-138 0 -232.5 58.5t-94.5 187.5q0 117 96.5 177.5t235.5 60.5v69h-388l-16 143h702l17 -143h-133v-209h-176q-69 0 -109 -25.5t-40 -74.5q0 -60 48 -80.5t104 -20.5t107.5 14.5t92.5 37.5z" />
    <glyph glyph-name="dv_Ttha" unicode="&#x920;" horiz-adv-x="736" 
d="M368 -17q-118 0 -212.5 57t-94.5 190q0 101 61.5 157.5t157.5 72.5v77h-275l-16 143h741l17 -143h-285v-77q89 -15 152.5 -67.5t63.5 -161.5q0 -122 -91 -185t-219 -63zM368 123q54 0 86.5 27.5t32.5 75.5q0 46 -32 74t-86 28q-51 0 -85 -28.5t-34 -74.5q0 -49 32 -75.5
t86 -26.5z" />
    <glyph glyph-name="dv_Dda" unicode="&#x921;" horiz-adv-x="568" 
d="M87 183q41 -23 97.5 -38t101.5 -15q30 0 47 8.5t17 23.5q0 10 -7.5 17t-19.5 7h-79q-69 0 -126.5 43t-57.5 120q0 81 52.5 120.5t129.5 39.5h80v28h-317l-16 143h573l17 -143h-100v-172h-222q-12 0 -18.5 -4.5t-6.5 -11.5t7 -13.5t19 -6.5h59q94 0 156 -35.5t62 -128.5
q0 -72 -62 -126.5t-179 -54.5q-60 0 -125 14t-114 38z" />
    <glyph glyph-name="dv_Ddha" unicode="&#x922;" horiz-adv-x="694" 
d="M375 -19q-116 0 -218.5 56t-102.5 213q0 128 98.5 188t235.5 60v39h-383l-16 143h699l17 -143h-135v-179h-182q-72 0 -110.5 -31t-38.5 -88q0 -40 26 -76t89 -39q-4 10 -6 24.5t-2 21.5q0 60 40.5 97t102.5 37q60 0 99 -41.5t39 -103.5q0 -73 -66 -125.5t-186 -52.5z" />
    <glyph glyph-name="dv_Nna" unicode="&#x923;" horiz-adv-x="1051" 
d="M600 313q0 -120 -83.5 -178t-179.5 -58t-179.5 58t-83.5 178v224h-69l-16 143h1056l17 -143h-113v-553l-182 16v537h-167v-224zM429 342v195h-184v-195q0 -60 24 -88.5t68 -28.5t68 28.5t24 88.5z" />
    <glyph glyph-name="dv_Ta" unicode="&#x924;" horiz-adv-x="738" 
d="M454 0v305h-167q-21 0 -37 -11t-16 -33q0 -34 34 -98t85 -146l-161 -39q-42 65 -89 149t-47 153q0 93 53 130.5t136 37.5h209v89h-449l-16 143h743l17 -143h-113v-553z" />
    <glyph glyph-name="dv_Tha" unicode="&#x925;" horiz-adv-x="796" 
d="M512 0v159q-25 -15 -65.5 -19t-72.5 -4q-95 0 -169.5 62.5t-74.5 150.5l33 36q14 5 27 21.5t17 39.5q-7 -2 -15.5 -3t-16.5 -1q-49 0 -88 31t-39 87q0 60 43.5 99t110.5 39q89 0 137.5 -63.5t48.5 -149.5q0 -37 -14.5 -85t-50.5 -76q13 -14 33 -26.5t52 -12.5
q38 0 68 17.5t36 42.5v192h-69l-16 143h363l17 -143h-113v-553z" />
    <glyph glyph-name="dv_Da" unicode="&#x926;" horiz-adv-x="651" 
d="M620 -1l-156 -58l-61 112q-16 -2 -32.5 -3t-28.5 -1q-125 0 -203.5 61t-78.5 180q0 101 79 161.5t188 60.5v25h-322l-16 143h656l17 -143h-144v-163h-165q-59 0 -96.5 -21.5t-37.5 -65.5q0 -43 35 -70t88 -27q4 40 30.5 64t63.5 24q53 0 97.5 -28.5t44.5 -74.5
q0 -16 -7.5 -30t-19.5 -30q10 -17 24 -40.5t45 -75.5z" />
    <glyph glyph-name="dv_Dha" unicode="&#x927;" horiz-adv-x="780" 
d="M359 456l25 -141h-91q-33 0 -49 -18t-16 -41q0 -24 23 -43.5t66 -19.5q55 0 117 47t62 122v175h-66l-16 143h360l17 -143h-113v-553l-182 16v95q-24 -22 -81 -39t-100 -17q-110 0 -190.5 48.5t-80.5 165.5q0 35 19.5 76.5t47.5 60.5q-27 23 -42 56t-15 65q0 74 50.5 128
t136.5 54q49 0 87.5 -16.5t58.5 -36.5l-85 -115q-11 4 -19 6t-19 2q-14 0 -23.5 -9t-9.5 -20q0 -20 15.5 -34t50.5 -14h62z" />
    <glyph glyph-name="dv_Na" unicode="&#x928;" horiz-adv-x="690" 
d="M426 0v262h-151q0 -39 -17 -71.5t-66 -32.5q-74 0 -126 55.5t-52 117.5q0 30 23 52t63 22h326v132h-421l-16 143h715l17 -143h-113v-553z" />
    <glyph glyph-name="dv_Nnna" unicode="&#x929;" horiz-adv-x="710" 
d="M426 0v262h-151q0 -39 -17 -71.5t-66 -32.5q-74 0 -126 55.5t-52 117.5q0 30 23 52t63 22h326v132h-421l-16 143h715l17 -143h-113v-553zM169 -89q-37 0 -63.5 26.5t-26.5 63.5t26.5 64t63.5 27t64 -27t27 -64t-27 -63.5t-64 -26.5z" />
    <glyph glyph-name="dv_Pa" unicode="&#x92a;" horiz-adv-x="742" 
d="M458 0v144q-16 -11 -49.5 -19t-64.5 -8q-96 0 -178 58t-82 178v184h-79l-16 143h747l17 -143h-113v-553zM458 326v211h-203v-155q0 -63 26.5 -90t75.5 -27q42 0 66.5 20t34.5 41z" />
    <glyph glyph-name="dv_Pha" unicode="&#x92b;" horiz-adv-x="1016" 
d="M458 326v211h-203v-155q0 -63 26.5 -90t75.5 -27q42 0 68.5 19.5t32.5 41.5zM458 0v144q-16 -11 -49.5 -19t-64.5 -8q-96 0 -178 58t-82 178v184h-79l-16 143h1021l17 -143h-387v-81q7 7 41.5 17.5t67.5 10.5q106 0 171 -62.5t65 -157.5q0 -123 -73 -175.5t-162 -56.5
l-45 154q46 0 70.5 22t24.5 56q0 32 -19 55t-61 23q-32 0 -52.5 -17.5t-27.5 -28.5v-312z" />
    <glyph glyph-name="dv_Ba" unicode="&#x92c;" horiz-adv-x="671" 
d="M273 50q-106 0 -171 62.5t-65 157.5t65 157.5t171 62.5q31 0 67 -7.5t47 -14.5v69h-382l-16 143h676l17 -143h-113v-553l-182 16v71q-11 -7 -47 -14t-67 -7zM383 229l4 5v71q-8 12 -27 27.5t-49 15.5q-8 0 -15.5 -1.5t-14.5 -2.5zM222 270q0 -32 23.5 -55t65.5 -23
q4 0 8.5 0.5t8.5 1.5l-98 111q-4 -7 -6 -16.5t-2 -18.5z" />
    <glyph glyph-name="dv_Bha" unicode="&#x92d;" horiz-adv-x="854" 
d="M570 0v177h-194q0 -39 -17 -71.5t-66 -32.5q-74 0 -126 55.5t-52 117.5q0 30 23 52t66 22v86h-7q-66 0 -107.5 40t-41.5 109q0 63 44.5 103t110.5 40q80 0 126.5 -48t46.5 -139v-191h194v217h-100l-16 143h394l17 -143h-113v-553z" />
    <glyph glyph-name="dv_Ma" unicode="&#x92e;" horiz-adv-x="773" 
d="M489 0v177h-194q0 -39 -17 -71.5t-66 -32.5q-74 0 -126 55.5t-52 117.5q0 30 23 52t63 22h4v217h-119l-16 143h778l17 -143h-113v-553zM489 320v217h-194v-217h194z" />
    <glyph glyph-name="dv_Ya" unicode="&#x92f;" horiz-adv-x="709" 
d="M425 0v158q-26 -14 -65 -18t-71 -4q-95 0 -169.5 62.5t-74.5 150.5l33 36q17 7 31.5 29t14.5 53q0 16 -10 39t-23 31h-86l-16 143h714l17 -143h-113v-553zM238 324q13 -14 33 -26.5t52 -12.5q36 0 65 15.5t37 38.5v198h-135q5 -16 9 -39.5t4 -36.5q0 -43 -14.5 -76
t-50.5 -61z" />
    <glyph glyph-name="dv_Ra" unicode="&#x930;" horiz-adv-x="507" 
d="M518 537h-97q7 -21 10 -43.5t3 -39.5q0 -65 -36 -124.5t-109 -92.5l140 -229l-156 -41l-142 248q-6 0 -11 0.5t-11 0.5q-29 0 -49.5 14.5t-25.5 39.5q0 60 43 108t97 48q16 0 30 -13t23 -30q15 11 22.5 35.5t7.5 41.5q0 22 -7.5 44.5t-23.5 32.5h-221l-16 143h512z" />
    <glyph glyph-name="dv_Rra" unicode="&#x931;" horiz-adv-x="507" 
d="M518 537h-97q7 -21 10 -43.5t3 -39.5q0 -65 -36 -124.5t-109 -92.5l140 -229l-156 -41l-142 248q-6 0 -11 0.5t-11 0.5q-29 0 -49.5 14.5t-25.5 39.5q0 60 43 108t97 48q16 0 30 -13t23 -30q15 11 22.5 35.5t7.5 41.5q0 22 -7.5 44.5t-23.5 32.5h-221l-16 143h512z
M90 -89q-37 0 -63.5 26.5t-26.5 63.5t26.5 64t63.5 27t64 -27t27 -64t-27 -63.5t-64 -26.5z" />
    <glyph glyph-name="dv_La" unicode="&#x932;" horiz-adv-x="903" 
d="M619 0v287q-6 21 -20 34.5t-30 13.5q-22 0 -36.5 -23t-14.5 -59v-130l-157 16v114q0 36 -14 58t-47 22q-25 0 -41 -15.5t-16 -34.5q0 -42 14.5 -88t77.5 -174l-168 -47q-54 107 -80.5 177.5t-26.5 145.5q0 80 64 133t165 53q51 0 90.5 -21.5t57.5 -46.5q19 25 51.5 46.5
t85.5 21.5q11 0 21.5 -1.5t23.5 -5.5v61h-614l-16 143h908l17 -143h-113v-553z" />
    <glyph glyph-name="dv_Lla" unicode="&#x933;" horiz-adv-x="923" 
d="M639 0q-57 0 -101.5 24.5t-72.5 55.5q-20 -31 -67.5 -55.5t-94.5 -24.5q-109 0 -179.5 66.5t-70.5 175.5q0 116 70.5 184t177.5 68q57 0 101.5 -24.5t72.5 -55.5q11 16 31.5 32t45.5 27v64h-547l-16 143h928l17 -143h-212v-54q78 -22 121.5 -83t43.5 -148
q0 -111 -70.5 -181.5t-177.5 -70.5zM231 239q0 -28 22 -50t56 -22q29 0 53.5 36.5t36.5 75.5q-18 22 -40.5 35t-49.5 13q-34 0 -56 -26.5t-22 -61.5zM709 255q0 28 -22 50t-56 22q-29 0 -53.5 -36.5t-36.5 -75.5q18 -22 40.5 -35t49.5 -13q34 0 56 26.5t22 61.5z" />
    <glyph glyph-name="dv_Llla" unicode="&#x934;" horiz-adv-x="923" 
d="M639 0q-57 0 -101.5 24.5t-72.5 55.5q-20 -31 -67.5 -55.5t-94.5 -24.5q-109 0 -179.5 66.5t-70.5 175.5q0 116 70.5 184t177.5 68q57 0 101.5 -24.5t72.5 -55.5q11 16 31.5 32t45.5 27v64h-547l-16 143h928l17 -143h-212v-54q78 -22 121.5 -83t43.5 -148
q0 -111 -70.5 -181.5t-177.5 -70.5zM231 239q0 -28 22 -50t56 -22q29 0 53.5 36.5t36.5 75.5q-18 22 -40.5 35t-49.5 13q-34 0 -56 -26.5t-22 -61.5zM709 255q0 28 -22 50t-56 22q-29 0 -53.5 -36.5t-36.5 -75.5q18 -22 40.5 -35t49.5 -13q34 0 56 26.5t22 61.5zM471 -200
q-37 0 -63.5 26.5t-26.5 63.5t26.5 64t63.5 27t64 -27t27 -64t-27 -63.5t-64 -26.5z" />
    <glyph glyph-name="dv_Va" unicode="&#x935;" horiz-adv-x="666" 
d="M273 50q-106 0 -171 62.5t-65 157.5t65 157.5t171 62.5q33 0 67.5 -8t41.5 -15v70h-377l-16 143h671l17 -143h-113v-553l-182 16v73q-7 -7 -41.5 -15t-67.5 -8zM222 270q0 -32 21.5 -55t63.5 -23q32 0 50 17.5t25 28.5v64q-7 11 -25 28.5t-50 17.5q-42 0 -63.5 -23
t-21.5 -55z" />
    <glyph glyph-name="dv_Sha" unicode="&#x936;" horiz-adv-x="874" 
d="M590 0v537h-100l-16 143h394l17 -143h-113v-553zM254 354q15 11 22.5 35.5t7.5 41.5q0 11 -2 18.5t-3 10.5q-17 -11 -41.5 -17t-49.5 -6q-54 0 -97 34t-43 93q0 62 46.5 98t115.5 36q112 0 181.5 -80t69.5 -178q0 -65 -36 -132t-109 -100l123 -200l-156 -41l-125 219
q-6 0 -11 0.5t-11 0.5q-29 0 -49.5 14.5t-25.5 39.5q0 60 43 108t97 48q16 0 30 -13t23 -30z" />
    <glyph glyph-name="dv_Ssa" unicode="&#x937;" horiz-adv-x="742" 
d="M458 0v144q-16 -11 -49.5 -19t-64.5 -8q-96 0 -178 58t-82 178v184h-79l-16 143h747l17 -143h-113v-553zM458 537h-142l142 -202v202zM255 382q0 -63 26.5 -90t75.5 -27q18 0 33 4.5t27 11.5l-162 229v-128z" />
    <glyph glyph-name="dv_Sa" unicode="&#x938;" horiz-adv-x="877" 
d="M593 537h-172q7 -21 10 -43.5t3 -39.5q0 -20 -3 -39.5t-10 -38.5h172v161zM593 0v247h-284l-20 -10l140 -229l-156 -41l-142 248q-6 0 -11 0.5t-11 0.5q-29 0 -49.5 14.5t-25.5 39.5q0 60 43 108t97 48q16 0 30 -13t23 -30q15 11 22.5 35.5t7.5 41.5q0 22 -7.5 44.5
t-23.5 32.5h-221l-16 143h882l17 -143h-113v-553z" />
    <glyph glyph-name="dv_Ha" unicode="&#x939;" horiz-adv-x="581" 
d="M300 376q88 0 159 -44t71 -113q0 -40 -18.5 -68.5t-45.5 -42.5q-87 51 -101 61l-14 9q4 3 9 7.5t5 13t-14.5 22t-48.5 13.5q-25 0 -43.5 -13t-18.5 -32q0 -40 51.5 -50.5t97.5 -14.5q2 0 4 -0.5t4 -0.5l-34 -142q-130 4 -213 51.5t-83 156.5q0 28 9.5 53.5t27.5 47.5
q-14 17 -21.5 39t-7.5 48q0 72 54.5 110.5t125.5 38.5h56v11h-306l-16 143h586l17 -143h-99v-145h-210q-15 0 -20.5 -4t-5.5 -11v-5q10 1 21 2.5t22 1.5z" />
    <glyph glyph-name="dv_MarwariDda" unicode="&#x978;" horiz-adv-x="689" 
d="M369 208h-74q0 -39 -17 -71.5t-66 -32.5q-74 0 -126 55.5t-52 117.5q0 30 23 52t63 22h4v186h-119l-16 143h694l17 -143h-405v-186h69q106 0 182.5 -58t76.5 -165v-143q-25 0 -103 8l-79 9v126q0 37 -18.5 58.5t-53.5 21.5z" />
    <glyph glyph-name="dv_MatraOe" unicode="&#x93a;" horiz-adv-x="0" 
d="M12 888v-208h-182v224z" />
    <glyph glyph-name="dv_MatraOoe" unicode="&#x93b;" 
d="M287 888v-208h96l17 -143h-113v-553l-182 16v537h-100l-16 143h116v224z" />
    <glyph glyph-name="dv_Nukta" unicode="&#x93c;" horiz-adv-x="0" 
d="M94 -233q-37 0 -63.5 26.5t-26.5 63.5t26.5 64t63.5 27t64 -27t27 -64t-27 -63.5t-64 -26.5z" />
    <glyph glyph-name="dv_Avagraha" unicode="&#x93d;" horiz-adv-x="575" 
d="M113 208q49 -34 92.5 -53.5t76.5 -19.5q28 0 46 13t18 36q0 36 -30.5 81t-102.5 126l-145 164v125h425l17 -143h-197l44 -59q40 -54 105 -142.5t65 -157.5q0 -75 -57.5 -135.5t-191.5 -60.5q-43 0 -114 20t-134 66z" />
    <glyph glyph-name="dv_MatraAa" unicode="&#x93e;" 
d="M105 0v537h-100l-16 143h394l17 -143h-113v-553z" />
    <glyph glyph-name="dv_MatraI" unicode="&#x93f;" 
d="M734 699q-122 53 -235 81.5t-191 28.5q-35 0 -52.5 -21t-17.5 -35q0 -15 5 -34.5t20 -38.5h120l17 -143h-113v-553l-182 16v537h-100l-16 143h82q-9 17 -17 43.5t-8 56.5q0 90 64.5 147.5t180.5 57.5q117 0 268.5 -47t257.5 -101z" />
    <glyph glyph-name="dv_MatraIi" unicode="&#x940;" 
d="M105 0v537h-100l-16 143h97q-16 32 -68.5 72.5t-99.5 40.5q-4 0 -9 -3.5t-5 -7.5q0 -8 12 -26t29 -32l-182 -36q-20 24 -31 51.5t-11 60.5q0 64 53 109.5t132 45.5q114 0 218 -82t153 -193h106l17 -143h-113v-553z" />
    <glyph glyph-name="dv_MatraU" unicode="&#x941;" horiz-adv-x="0" 
d="M-342 -80q49 -66 99.5 -100t87.5 -34q16 0 24 10t8 21t-8.5 21t-23.5 10h-71v134h73q78 0 128.5 -45t50.5 -125q0 -78 -54 -123.5t-129 -45.5q-79 0 -156 50.5t-140 152.5z" />
    <glyph glyph-name="dv_MatraUu" unicode="&#x942;" horiz-adv-x="0" 
d="M8 -295q-49 66 -99.5 100t-87.5 34q-16 0 -24 -10t-8 -21t8.5 -21t23.5 -10h71v-134h-73q-78 0 -128.5 45t-50.5 125q0 78 54 123.5t129 45.5q79 0 156 -50.5t140 -152.5z" />
    <glyph glyph-name="dv_MatraVocalicR" unicode="&#x943;" horiz-adv-x="0" 
d="M-205 -185q0 -14 14 -21.5t39 -7.5q9 0 31 2.5t36 7.5l29 -136q-17 -7 -46 -12t-62 -5q-66 0 -128.5 42.5t-62.5 126.5q0 80 55 125t118 45h100v-144h-90q-13 0 -23 -6t-10 -17z" />
    <glyph glyph-name="dv_MatraVocalicRr" unicode="&#x944;" horiz-adv-x="0" 
d="M-274 -190q-8 12 -12.5 26.5t-4.5 27.5q0 63 41.5 90.5t87.5 27.5h74v-108h-48q-7 0 -13.5 -4t-6.5 -11q0 -10 8 -13t12 -3h51l-20 -67q-31 0 -43 -4t-12 -10q0 -8 7.5 -12t16.5 -4h41l-22 -108h-45q-46 0 -87.5 28.5t-41.5 88.5q0 13 5 28t12 27z" />
    <glyph glyph-name="dv_MatraCandraE" unicode="&#x945;" horiz-adv-x="0" 
d="M518 897q-34 -75 -110 -114.5t-154 -39.5t-154 39.5t-110 114.5l126 77q18 -36 53 -63t85 -27t85 27t53 63z" />
    <glyph glyph-name="dv_MatraShortE" unicode="&#x946;" horiz-adv-x="0" 
d="M-638 955l156 -21q0 -28 12 -38t32 -10h154q90 0 145 -47t55 -110v-79h-162v35q0 28 -17.5 42.5t-37.5 14.5h-139q-90 0 -144 42.5t-54 108.5v62z" />
    <glyph glyph-name="dv_MatraE" unicode="&#x947;" horiz-adv-x="0" 
d="M-62 653l-175 -18l-277 249l142 81z" />
    <glyph glyph-name="dv_MatraAi" unicode="&#x948;" horiz-adv-x="0" 
d="M-109 680l-145 -3q-12 11 -42 27t-81 16h-110l-34 151h138q19 0 38 -0.5t36 -4.5q-8 25 -20.5 57.5t-19.5 53.5l160 45z" />
    <glyph glyph-name="dv_MatraCandraO" unicode="&#x949;" 
d="M459 897q-34 -75 -110 -114.5t-154 -39.5t-154 39.5t-110 114.5l126 77q18 -36 53 -63t85 -27t85 27t53 63zM105 0v537h-100l-16 143h394l17 -143h-113v-553z" />
    <glyph glyph-name="dv_MatraShortO" unicode="&#x94a;" 
d="M-304 955l156 -21q0 -28 12 -38t32 -10h184q90 0 145 -47t55 -110v-49h103l17 -143h-113v-553l-182 16v537h-100l-16 143h129v5q0 28 -17.5 42.5t-37.5 14.5h-169q-90 0 -144 42.5t-54 108.5v62z" />
    <glyph glyph-name="dv_MatraO" unicode="&#x94b;" 
d="M252 680h131l17 -143h-113v-553l-182 16v537h-100l-16 143h64l-227 204l142 81z" />
    <glyph glyph-name="dv_MatraAu" unicode="&#x94c;" 
d="M256 680h127l17 -143h-113v-553l-182 16v537h-100l-16 143h119q-13 11 -42 25.5t-78 14.5h-110l-34 151h138q19 0 38 -0.5t36 -4.5q-8 25 -20.5 57.5t-19.5 53.5l160 45z" />
    <glyph glyph-name="dv_MatraAw" unicode="&#x94f;" 
d="M105 0v537h-100l-16 143h127q-1 5 -5.5 11t-14.5 6h-98q-85 0 -137 43.5t-52 115.5v46l127 -22q0 -31 14.5 -49t42.5 -18h52q-31 20 -50 52.5t-19 75.5v46l127 -21q0 -34 14.5 -58.5t37.5 -33.5q52 -20 85 -59.5t33 -97.5v-37h110l17 -143h-113v-553z" />
    <glyph glyph-name="dv_Halant" unicode="&#x94d;" horiz-adv-x="0" 
d="M-109 -383l-238 205l120 109l224 -220z" />
    <glyph glyph-name="dv_MatraUe" unicode="&#x956;" horiz-adv-x="0" 
d="M-15 -140l135 82q23 -41 62 -56t64 -15t65 14t61 57l135 -82q-39 -69 -112.5 -99.5t-148.5 -30.5t-148.5 30.5t-112.5 99.5z" />
    <glyph glyph-name="dv_MatraUue" unicode="&#x957;" horiz-adv-x="0" 
d="M451 -55l112 -64q-51 -87 -120 -112t-115 -25q-47 0 -115.5 25.5t-117.5 111.5l114 65q17 -47 51 -66.5t68 -19.5q30 0 64.5 16t58.5 69zM535 -176l109 -66q-55 -84 -143 -116.5t-173 -32.5q-81 0 -173.5 32.5t-146.5 113.5l109 68q34 -41 91 -66t120 -25t116 22.5
t91 69.5z" />
    <glyph glyph-name="dv_PrishtaMatraE" unicode="&#x94e;" 
d="M105 0v680h278l17 -143h-113v-553z" />
    <glyph glyph-name="dv_Aw" unicode="&#x975;" horiz-adv-x="1357" 
d="M702 0v282h-177q15 -19 23.5 -46.5t8.5 -56.5q0 -81 -63.5 -138t-212.5 -57q-60 0 -119 14t-108 38l32 147q41 -23 88 -38t92 -15q52 0 80.5 20t28.5 54q0 41 -29 60.5t-80 19.5h-113l-19 134h132q47 0 71 20.5t24 51.5q0 28 -20.5 45.5t-65.5 17.5q-37 0 -76 -10.5
t-95 -35.5l-35 143q48 21 108 35t110 14q134 0 195 -52.5t61 -140.5q0 -24 -10 -50t-23 -38h192v119h-100l-16 143h488q-1 5 -5.5 11t-14.5 6h-98q-85 0 -137 43.5t-52 115.5v46l127 -22q0 -31 14.5 -49t42.5 -18h52q-31 20 -50 52.5t-19 75.5v46l127 -21q0 -34 14.5 -58.5
t37.5 -33.5q52 -20 85 -59.5t33 -97.5v-37h120l17 -143h-113v-553l-182 16v537h-189v-553z" />
    <glyph glyph-name="dv_Om" unicode="&#x950;" horiz-adv-x="921" 
d="M638 840q-35 0 -60 25.5t-25 59.5t25 59.5t60 25.5q34 0 59.5 -25.5t25.5 -59.5t-25.5 -59.5t-59.5 -25.5zM906 801q-34 -75 -112 -114.5t-156 -39.5t-156 39.5t-112 114.5l126 77q18 -36 55 -63t87 -27t87 27t55 63zM552 231q2 -10 3.5 -21t1.5 -22q0 -81 -63.5 -142.5
t-212.5 -61.5q-60 0 -119 14t-108 38l32 147q41 -23 88 -38t92 -15q52 0 80.5 20t28.5 54q0 41 -29 60.5t-80 19.5h-113l-19 134h132q47 0 71 20.5t24 51.5q0 28 -20.5 45.5t-65.5 17.5q-37 0 -76 -10.5t-95 -35.5l-35 143q48 21 108 35t110 14q134 0 195 -52.5t61 -140.5
q0 -53 -20 -95t-51 -68l12 -7q22 28 66 53t104 25q107 0 174.5 -54.5t67.5 -147.5q0 -123 -73 -173.5t-162 -54.5l-25 142q46 0 70.5 20t24.5 54t-24 53t-62 19q-34 0 -55.5 -12.5t-37.5 -28.5z" />
    <glyph glyph-name="dv_Udatta" unicode="&#x951;" horiz-adv-x="0" 
d="M167 743h-132l-15 235h164z" />
    <glyph glyph-name="dv_Anudatta" unicode="&#x952;" horiz-adv-x="0" 
d="M568 -214h-533l-16 143h532z" />
    <glyph glyph-name="dv_Graveaccent" unicode="&#x953;" horiz-adv-x="0" 
d="M256 744h-123l-152 235h170z" />
    <glyph glyph-name="dv_Acuteaccent" unicode="&#x954;" horiz-adv-x="0" 
d="M129 744h-123l106 235h169z" />
    <glyph glyph-name="dv_MatraCandraLongE" unicode="&#x955;" horiz-adv-x="0" 
d="M376 1120l124 -69q-49 -94 -116.5 -124.5t-137.5 -30.5q-72 0 -140 31t-115 124l126 70q24 -50 62.5 -70t66.5 -20t64 17.5t66 71.5zM508 747h-483l-14 131h483z" />
    <glyph glyph-name="dv_Ue" unicode="&#x976;" horiz-adv-x="986" 
d="M702 0v282h-177q15 -19 23.5 -46.5t8.5 -56.5q0 -81 -63.5 -138t-212.5 -57q-60 0 -119 14t-108 38l32 147q41 -23 88 -38t92 -15q52 0 80.5 20t28.5 54q0 41 -29 60.5t-80 19.5h-113l-19 134h132q47 0 71 20.5t24 51.5q0 28 -20.5 45.5t-65.5 17.5q-37 0 -76 -10.5
t-95 -35.5l-35 143q48 21 108 35t110 14q134 0 195 -52.5t61 -140.5q0 -24 -10 -50t-23 -38h192v119h-100l-16 143h394l17 -143h-113v-553zM294 -140l135 82q23 -41 62 -56t64 -15t65 14t61 57l135 -82q-39 -69 -112.5 -99.5t-148.5 -30.5t-148.5 30.5t-112.5 99.5z" />
    <glyph glyph-name="dv_Uue" unicode="&#x977;" horiz-adv-x="986" 
d="M702 0v282h-177q15 -19 23.5 -46.5t8.5 -56.5q0 -81 -63.5 -138t-212.5 -57q-60 0 -119 14t-108 38l32 147q41 -23 88 -38t92 -15q52 0 80.5 20t28.5 54q0 41 -29 60.5t-80 19.5h-113l-19 134h132q47 0 71 20.5t24 51.5q0 28 -20.5 45.5t-65.5 17.5q-37 0 -76 -10.5
t-95 -35.5l-35 143q48 21 108 35t110 14q134 0 195 -52.5t61 -140.5q0 -24 -10 -50t-23 -38h192v119h-100l-16 143h394l17 -143h-113v-553zM658 -55l112 -64q-51 -87 -120 -112t-115 -25q-47 0 -115.5 25.5t-117.5 111.5l114 65q17 -47 51 -66.5t68 -19.5q30 0 64.5 16
t58.5 69zM742 -176l109 -66q-55 -84 -143 -116.5t-173 -32.5q-81 0 -173.5 32.5t-146.5 113.5l109 68q34 -41 91 -66t120 -25t116 22.5t91 69.5z" />
    <glyph glyph-name="dv_Qa" unicode="&#x958;" horiz-adv-x="940" 
d="M382 238v64q-7 11 -25 28.5t-50 17.5q-42 0 -63.5 -23t-21.5 -55t21.5 -55t63.5 -23q32 0 50 17.5t25 28.5zM629 192q46 0 70.5 22t24.5 56q0 32 -19 55t-61 23q-32 0 -52.5 -17.5t-27.5 -28.5v-318l-182 16v73q-7 -7 -41.5 -15t-67.5 -8q-106 0 -171 62.5t-65 157.5
t65 157.5t171 62.5q33 0 67.5 -8t41.5 -15v70h-377l-16 143h945l17 -143h-387v-75q7 7 41.5 17.5t67.5 10.5q106 0 171 -62.5t65 -157.5q0 -123 -73 -175.5t-162 -56.5zM169 -181q-37 0 -63.5 26.5t-26.5 63.5t26.5 64t63.5 27t64 -27t27 -64t-27 -63.5t-64 -26.5z" />
    <glyph glyph-name="dv_Khha" unicode="&#x959;" horiz-adv-x="1088" 
d="M568 133q-40 28 -63.5 71.5t-23.5 94.5q0 87 63 147t160 60q30 0 61.5 -7.5t38.5 -13.5v52h-383q7 -21 10 -43.5t3 -39.5q0 -79 -30 -127t-77 -73q28 -46 82.5 -85t120.5 -39q10 0 19.5 1t18.5 2zM804 270v59q-6 10 -22.5 26t-46.5 16q-38 0 -58 -21t-20 -51
q0 -29 20 -50t58 -21q30 0 46.5 16t22.5 26zM114 -106q-37 0 -63.5 26.5t-26.5 63.5t26.5 64t63.5 27t64 -27t27 -64t-27 -63.5t-64 -26.5zM804 0v63q-51 -40 -122 -64.5t-161 -24.5q-154 0 -248 75.5t-132 166.5h-9q-47 0 -70 14.5t-28 39.5q0 60 43 108t97 48q16 0 30 -13
t23 -30q15 11 22.5 35.5t7.5 41.5q0 22 -7.5 44.5t-23.5 32.5h-221l-16 143h1093l17 -143h-113v-553z" />
    <glyph glyph-name="dv_Ghha" unicode="&#x95a;" horiz-adv-x="792" 
d="M327 537l-1 -339q0 -48 -22 -74.5t-73 -26.5q-62 0 -121 49.5t-59 123.5q0 49 27.5 68.5t66.5 19.5v179h-140l-16 143h797l17 -143h-113v-553l-182 16v537h-181zM193 -129q-37 0 -63.5 26.5t-26.5 63.5t26.5 64t63.5 27t64 -27t27 -64t-27 -63.5t-64 -26.5z" />
    <glyph glyph-name="dv_Za" unicode="&#x95b;" horiz-adv-x="846" 
d="M562 0v318h-85q4 -13 6 -28.5t2 -30.5q0 -110 -71.5 -170t-178.5 -60q-62 0 -121.5 17.5t-102.5 45.5l27 163q44 -39 91 -58.5t98 -19.5q39 0 64.5 22.5t25.5 53.5q0 27 -19 46t-53 19h-76l-20 142h413v77h-557l-16 143h851l17 -143h-113v-553zM236 -200
q-37 0 -63.5 26.5t-26.5 63.5t26.5 64t63.5 27t64 -27t27 -64t-27 -63.5t-64 -26.5z" />
    <glyph glyph-name="dv_Dddha" unicode="&#x95c;" horiz-adv-x="568" 
d="M87 183q41 -23 97.5 -38t101.5 -15q30 0 47 8.5t17 23.5q0 10 -7.5 17t-19.5 7h-79q-69 0 -126.5 43t-57.5 120q0 81 52.5 120.5t129.5 39.5h80v28h-317l-16 143h573l17 -143h-100v-172h-222q-12 0 -18.5 -4.5t-6.5 -11.5t7 -13.5t19 -6.5h59q94 0 156 -35.5t62 -128.5
q0 -72 -62 -126.5t-179 -54.5q-60 0 -125 14t-114 38zM295 -230q-37 0 -63.5 26.5t-26.5 63.5t26.5 64t63.5 27t64 -27t27 -64t-27 -63.5t-64 -26.5z" />
    <glyph glyph-name="dv_Rha" unicode="&#x95d;" horiz-adv-x="694" 
d="M375 -19q-116 0 -218.5 56t-102.5 213q0 128 98.5 188t235.5 60v39h-383l-16 143h699l17 -143h-135v-179h-182q-72 0 -110.5 -31t-38.5 -88q0 -40 26 -76t89 -39q-4 10 -6 24.5t-2 21.5q0 60 40.5 97t102.5 37q60 0 99 -41.5t39 -103.5q0 -73 -66 -125.5t-186 -52.5z
M376 -217q-37 0 -63.5 26.5t-26.5 63.5t26.5 64t63.5 27t64 -27t27 -64t-27 -63.5t-64 -26.5z" />
    <glyph glyph-name="dv_Fa" unicode="&#x95e;" horiz-adv-x="1016" 
d="M458 326v211h-203v-155q0 -63 26.5 -90t75.5 -27q42 0 68.5 19.5t32.5 41.5zM458 0v144q-16 -11 -49.5 -19t-64.5 -8q-96 0 -178 58t-82 178v184h-79l-16 143h1021l17 -143h-387v-81q7 7 41.5 17.5t67.5 10.5q106 0 171 -62.5t65 -157.5q0 -123 -73 -175.5t-162 -56.5
l-45 154q46 0 70.5 22t24.5 56q0 32 -19 55t-61 23q-32 0 -52.5 -17.5t-27.5 -28.5v-312zM169 -90q-37 0 -63.5 26.5t-26.5 63.5t26.5 64t63.5 27t64 -27t27 -64t-27 -63.5t-64 -26.5z" />
    <glyph glyph-name="dv_Yya" unicode="&#x95f;" horiz-adv-x="709" 
d="M425 0v158q-26 -14 -65 -18t-71 -4q-95 0 -169.5 62.5t-74.5 150.5l33 36q17 7 31.5 29t14.5 53q0 16 -10 39t-23 31h-86l-16 143h714l17 -143h-113v-553zM238 324q13 -14 33 -26.5t52 -12.5q36 0 65 15.5t37 38.5v198h-135q5 -16 9 -39.5t4 -36.5q0 -43 -14.5 -76
t-50.5 -61zM155 -90q-37 0 -63.5 26.5t-26.5 63.5t26.5 64t63.5 27t64 -27t27 -64t-27 -63.5t-64 -26.5z" />
    <glyph glyph-name="dv_VocalicRr" unicode="&#x960;" horiz-adv-x="943" 
d="M671 -14q-7 12 -12 25.5t-5 30.5q0 43 38.5 76.5t38.5 65.5q0 12 -5 38t-17 47q-30 -18 -78.5 -30t-85.5 -16v-239l-182 16v147l-194 -120l-95 131l225 136q-25 18 -47 26t-41 8q-8 0 -42 -11t-74 -30l-66 147q39 19 96.5 34t76.5 15q59 0 90 -9.5t71 -30.5v94h-358
l-16 143h948l17 -143h-409v-169q21 3 43.5 9t35.5 12q-4 11 -6.5 23.5t-2.5 26.5q0 43 26 63t61 20q59 0 98 -29t39 -77q0 -10 -3.5 -30t-10.5 -26q40 -28 60 -81.5t20 -87.5q0 -56 -36 -81t-43 -57q0 -10 6.5 -15.5t13.5 -5.5h14l-20 -98q-31 0 -43 -4t-12 -10
q0 -8 7.5 -12t16.5 -4h41l-22 -108h-45q-46 0 -87.5 28.5t-41.5 88.5q0 13 5 37t12 36z" />
    <glyph glyph-name="dv_VocalicLl" unicode="&#x961;" horiz-adv-x="903" 
d="M615 -43q-8 12 -12.5 26.5t-4.5 27.5q0 22 5.5 39t15.5 30v207q-6 21 -20 34.5t-30 13.5q-22 0 -36.5 -23t-14.5 -59v-130l-157 16v114q0 36 -14 58t-47 22q-25 0 -41 -15.5t-16 -34.5q0 -42 14.5 -88t77.5 -174l-168 -47q-54 107 -80.5 177.5t-26.5 145.5q0 80 64 133
t165 53q51 0 90.5 -21.5t57.5 -46.5q19 25 51.5 46.5t85.5 21.5q11 0 21.5 -1.5t23.5 -5.5v61h-614l-16 143h908l17 -143h-113v-516h-48q-7 0 -13.5 -4t-6.5 -11q0 -10 8 -13t12 -3h51l-20 -67q-31 0 -43 -4t-12 -10q0 -8 7.5 -12t16.5 -4h41l-22 -108h-45q-46 0 -87.5 28.5
t-41.5 88.5q0 13 5 28t12 27z" />
    <glyph glyph-name="dv_MatraVocalicL" unicode="&#x962;" horiz-adv-x="0" 
d="M307 -168v-110l-112 29v81q0 15 -9.5 22.5t-21.5 7.5q-11 0 -18.5 -8.5t-7.5 -18.5q0 -28 17.5 -60.5t62.5 -115.5l-123 -28q-40 78 -60 126t-20 96q0 57 40 92.5t103 35.5q30 0 54 -11.5t38 -31.5q16 19 42.5 31t54.5 12q62 0 101 -37.5t39 -90.5q0 -30 -16 -59t-16 -38
q0 -5 3.5 -7t10.5 -2h20l-30 -111h-39q-28 0 -63 17.5t-35 63.5q0 35 20 62t20 57q0 9 -7 17.5t-18 8.5t-20.5 -8t-9.5 -22z" />
    <glyph glyph-name="dv_MatraVocalicLl" unicode="&#x963;" horiz-adv-x="0" 
d="M297 -168v-110l-112 29v81q0 15 -9.5 22.5t-21.5 7.5q-11 0 -18.5 -8.5t-7.5 -18.5q0 -28 17.5 -60.5t62.5 -115.5l-123 -28q-40 78 -60 126t-20 96q0 57 40 92.5t103 35.5q30 0 54 -11.5t38 -31.5q16 19 42.5 31t54.5 12q62 0 101 -37.5t39 -90.5q0 -30 -16 -59t-16 -38
q0 -5 3.5 -7t10.5 -2h20l-23 -91h-43q-9 0 -15 -4.5t-6 -11.5q0 -9 6 -12.5t11 -3.5h48l-28 -88h-27q-43 0 -72 23t-29 72q0 13 5.5 27t15.5 21q-4 7 -7 17t-3 21q0 35 20 62t20 57q0 9 -7 17.5t-18 8.5t-20.5 -8t-9.5 -22z" />
    <glyph glyph-name="dv_Danda" unicode="&#x964;" horiz-adv-x="502" 
d="M160 0v771l182 -16v-771z" />
    <glyph glyph-name="dv_DoubleDanda" unicode="&#x965;" horiz-adv-x="921" 
d="M589 0v771l172 -16v-771zM160 0v771l172 -16v-771z" />
    <glyph glyph-name="dv_Zero" unicode="&#x966;" horiz-adv-x="695" 
d="M350 54q-132 0 -214 83.5t-82 201.5t82 202t213 84t213.5 -83.5t82.5 -202.5q0 -118 -82 -201.5t-213 -83.5zM237 339q0 -59 34 -99.5t83 -40.5q51 0 79.5 40.5t28.5 99.5q0 60 -31.5 100.5t-81.5 40.5q-51 0 -81.5 -40.5t-30.5 -100.5z" />
    <glyph glyph-name="dv_One" unicode="&#x967;" horiz-adv-x="432" 
d="M51 344l104 82q-34 16 -61.5 49t-27.5 72q0 73 45.5 112.5t114.5 39.5q77 0 119.5 -48t42.5 -118q0 -49 -27 -103.5t-91 -100.5l-49 -35q44 -63 92 -135.5t91 -133.5l-164 -41l-192 299z" />
    <glyph glyph-name="dv_Two" unicode="&#x968;" horiz-adv-x="549" 
d="M274 383q23 10 36.5 35t13.5 42q0 29 -21 53.5t-55 24.5q-30 0 -67.5 -14t-65.5 -36l-67 142q31 25 91.5 47t110.5 22q128 0 189.5 -75.5t61.5 -160.5q0 -65 -44.5 -133t-120.5 -93l140 -229l-156 -41l-142 248q-6 0 -11 0.5t-11 0.5q-29 0 -49.5 14.5t-25.5 39.5
q0 60 43 108t97 48q16 0 30 -13t23 -30z" />
    <glyph glyph-name="dv_Three" unicode="&#x969;" horiz-adv-x="552" 
d="M286 699q107 0 159 -57.5t52 -130.5q0 -31 -14 -66t-39 -60q28 -22 46 -57.5t18 -71.5q0 -69 -49 -125t-134 -69l53 -68l-119 -84l-127 171q-33 16 -62.5 46t-29.5 77q0 39 25.5 60t57.5 21q36 0 70.5 -22t51.5 -55q26 1 51.5 15.5t25.5 32.5q0 22 -20 41t-63 19h-91
l-20 138h116q31 0 49 11t18 38q0 13 -12.5 25t-41.5 12q-34 0 -81 -15.5t-87 -37.5l-26 162q46 24 106 37t117 13z" />
    <glyph glyph-name="dv_Four" unicode="&#x96a;" horiz-adv-x="734" 
d="M147 172q0 48 29 101.5t80 97.5q-41 46 -109 104t-117 97l114 142q90 -72 139.5 -118.5t83.5 -83.5q34 37 83.5 83.5t139.5 118.5l114 -142q-49 -39 -117 -97t-109 -104q51 -46 80 -98.5t29 -100.5q0 -93 -65 -142t-155 -49t-155 49t-65 142zM367 146q17 0 26.5 10
t9.5 22q0 13 -10 29t-26 29q-17 -13 -26.5 -29t-9.5 -29q0 -12 9.5 -22t26.5 -10z" />
    <glyph glyph-name="dv_Five" unicode="&#x96b;" horiz-adv-x="582" 
d="M290 147q37 -12 54 -15t31 -3q16 0 25 8.5t9 20.5q0 17 -7 39.5t-15 36.5q-16 -2 -26 -3t-22 -1q-106 0 -194.5 56.5t-88.5 181.5v212h182v-212q0 -43 22.5 -64.5t57.5 -25.5q-1 4 -1 7.5v7.5q1 31 26 65.5t70 34.5q55 0 90 -37.5t35 -88.5q0 -21 -8.5 -44t-19.5 -30
q19 -19 40.5 -66.5t21.5 -90.5q0 -74 -41 -114.5t-135 -40.5q-16 0 -58 4.5t-88 22.5z" />
    <glyph glyph-name="dv_Six" unicode="&#x96c;" horiz-adv-x="587" 
d="M112 385q-25 25 -39 60t-14 66q0 73 52 130.5t159 57.5q57 0 117 -13t106 -37l-26 -162q-40 22 -87 37.5t-81 15.5q-29 0 -41.5 -12t-12.5 -25q0 -27 18 -38t49 -11h116l-20 -138h-91q-43 0 -63 -19.5t-20 -46.5q0 -28 25.5 -41.5t55.5 -13.5q2 40 27.5 65t68.5 25
t86 -30t43 -79q0 -16 -6 -34.5t-16 -34.5q8 -16 19.5 -35t49.5 -82l-154 -58l-61 114q-16 -6 -37 -8.5t-39 -2.5q-109 0 -178.5 59.5t-69.5 155.5q0 36 18 74.5t46 60.5z" />
    <glyph glyph-name="dv_Seven" unicode="&#x96d;" horiz-adv-x="740" 
d="M501 415q-4 22 -17.5 37.5t-32.5 15.5q-13 0 -23.5 -9t-10.5 -25t12 -25t28 -9q13 0 23.5 4t20.5 11zM501 247q-14 -4 -28 -6t-26 -2q-88 0 -147.5 53t-59.5 134q0 87 57 146t146 59q119 0 188 -90.5t69 -237.5q0 -131 -88 -226.5t-248 -95.5q-169 0 -256.5 105.5
t-87.5 294.5h185q0 -109 43 -169.5t116 -60.5q51 0 86.5 27.5t50.5 68.5z" />
    <glyph glyph-name="dv_Eight" unicode="&#x96e;" horiz-adv-x="586" 
d="M225 230q0 -32 19 -54.5t55 -22.5q31 0 57.5 27.5t26.5 111.5l162 -47v-14q0 -82 -57 -166t-191 -84q-119 0 -188 70.5t-69 175.5q0 142 107.5 276t199.5 211l108 -132q-107 -101 -168.5 -184.5t-61.5 -167.5z" />
    <glyph glyph-name="dv_Nine" unicode="&#x96f;" horiz-adv-x="466" 
d="M231 693q87 0 137 -53t50 -129q0 -63 -35 -106t-92 -59l8 -11q51 -78 74.5 -121.5t23.5 -87.5q0 -57 -50.5 -97.5t-137.5 -56.5l-30 143l8 2q19 5 28 9.5t9 15.5q0 6 -27.5 42t-76.5 113q-28 39 -54 94.5t-26 108.5q0 77 52.5 135t138.5 58z" />
    <glyph glyph-name="dv_Abbreviation" unicode="&#x970;" horiz-adv-x="601" 
d="M303 538q113 0 185.5 -73.5t72.5 -177.5q0 -103 -71.5 -175.5t-187.5 -72.5q-119 0 -190.5 73t-71.5 179q0 103 72 175t191 72zM302 185q32 0 54.5 28.5t22.5 75.5q0 46 -22 73t-55 27q-32 0 -55.5 -28t-23.5 -72q0 -48 22 -76t57 -28z" />
    <glyph glyph-name="dv_Highspacedot" unicode="&#x971;" horiz-adv-x="261" 
d="M130 205q-37 0 -63.5 26.5t-26.5 63.5t26.5 64t63.5 27t64 -27t27 -64t-27 -63.5t-64 -26.5z" />
    <glyph glyph-name="dv_CandraA" unicode="&#x972;" horiz-adv-x="1045" 
d="M1056 897q-34 -75 -110 -114.5t-154 -39.5t-154 39.5t-110 114.5l126 77q18 -36 53 -63t85 -27t85 27t53 63zM702 0v282h-177q15 -19 23.5 -46.5t8.5 -56.5q0 -81 -63.5 -138t-212.5 -57q-60 0 -119 14t-108 38l32 147q41 -23 88 -38t92 -15q52 0 80.5 20t28.5 54
q0 41 -29 60.5t-80 19.5h-113l-19 134h132q47 0 71 20.5t24 51.5q0 28 -20.5 45.5t-65.5 17.5q-37 0 -76 -10.5t-95 -35.5l-35 143q48 21 108 35t110 14q134 0 195 -52.5t61 -140.5q0 -24 -10 -50t-23 -38h192v119h-100l-16 143h394l17 -143h-113v-553z" />
    <glyph glyph-name="dv_Oe" unicode="&#x973;" horiz-adv-x="986" 
d="M884 888v-208h96l17 -143h-113v-553l-182 16v282h-177q15 -19 23.5 -46.5t8.5 -56.5q0 -81 -63.5 -138t-212.5 -57q-60 0 -119 14t-108 38l32 147q41 -23 88 -38t92 -15q52 0 80.5 20t28.5 54q0 41 -29 60.5t-80 19.5h-113l-19 134h132q47 0 71 20.5t24 51.5
q0 28 -20.5 45.5t-65.5 17.5q-37 0 -76 -10.5t-95 -35.5l-35 143q48 21 108 35t110 14q134 0 195 -52.5t61 -140.5q0 -24 -10 -50t-23 -38h192v119h-100l-16 143h116v224z" />
    <glyph glyph-name="dv_Ooe" unicode="&#x974;" horiz-adv-x="1357" 
d="M702 0v282h-177q15 -19 23.5 -46.5t8.5 -56.5q0 -81 -63.5 -138t-212.5 -57q-60 0 -119 14t-108 38l32 147q41 -23 88 -38t92 -15q52 0 80.5 20t28.5 54q0 41 -29 60.5t-80 19.5h-113l-19 134h132q47 0 71 20.5t24 51.5q0 28 -20.5 45.5t-65.5 17.5q-37 0 -76 -10.5
t-95 -35.5l-35 143q48 21 108 35t110 14q134 0 195 -52.5t61 -140.5q0 -24 -10 -50t-23 -38h192v119h-100l-16 143h487v224l182 -16v-208h96l17 -143h-113v-553l-182 16v537h-189v-553z" />
    <glyph glyph-name="dv_Zha" unicode="&#x979;" horiz-adv-x="846" 
d="M562 0v318h-85q4 -13 6 -28.5t2 -30.5q0 -110 -71.5 -170t-178.5 -60q-62 0 -121.5 17.5t-102.5 45.5l27 163q44 -39 91 -58.5t98 -19.5q39 0 64.5 22.5t25.5 53.5q0 27 -19 46t-53 19h-76l-20 142h413v77h-557l-16 143h851l17 -143h-113v-553zM121 -156q-35 0 -60 25.5
t-25 59.5q0 35 25 60.5t60 25.5t60.5 -25.5t25.5 -60.5q0 -34 -25.5 -59.5t-60.5 -25.5zM354 -156q-35 0 -60 25.5t-25 59.5q0 35 25 60.5t60 25.5t60.5 -25.5t25.5 -60.5q0 -34 -25.5 -59.5t-60.5 -25.5zM236 -310q-35 0 -60 25.5t-25 59.5q0 35 25 60.5t60 25.5
t60.5 -25.5t25.5 -60.5q0 -34 -25.5 -59.5t-60.5 -25.5z" />
    <glyph glyph-name="dv_HeavyYa" unicode="&#x97a;" horiz-adv-x="709" 
d="M425 0v158q-26 -14 -65 -18t-71 -4q-95 0 -169.5 62.5t-74.5 150.5l33 36q17 7 31.5 29t14.5 53q0 16 -10 39t-23 31h-86l-16 143h714l17 -143h-113v-553zM425 537h-98l97 -201v1.5t1 1.5v198zM238 324q13 -14 33 -26.5t52 -12.5q14 0 27.5 2.5t24.5 7.5l-82 170v-4
q0 -43 -9.5 -76t-45.5 -61z" />
    <glyph glyph-name="dv_Gga" unicode="&#x97b;" horiz-adv-x="792" 
d="M327 537l-1 -339q0 -48 -22 -74.5t-73 -26.5q-62 0 -121 49.5t-59 123.5q0 49 27.5 68.5t66.5 19.5v179h-140l-16 143h797l17 -143h-113v-553l-182 16v537h-181zM703 -214h-617l-16 143h616z" />
    <glyph glyph-name="dv_Jja" unicode="&#x97c;" horiz-adv-x="846" 
d="M562 0v318h-85q4 -13 6 -28.5t2 -30.5q0 -110 -71.5 -170t-178.5 -60q-62 0 -121.5 17.5t-102.5 45.5l27 163q44 -39 91 -58.5t98 -19.5q39 0 64.5 22.5t25.5 53.5q0 27 -19 46t-53 19h-76l-20 142h413v77h-557l-16 143h851l17 -143h-113v-553zM720 -214h-658l-16 143
h657z" />
    <glyph glyph-name="dv_GlottalStop" unicode="&#x97d;" horiz-adv-x="573" 
d="M290 699q116 0 179.5 -65.5t63.5 -152.5q0 -65 -50 -130.5t-128 -103.5q0 -57 0.5 -122t0.5 -122l-182 53v285q75 24 125 61t50 77q0 28 -19.5 48.5t-47.5 20.5q-43 0 -93.5 -20t-110.5 -61l-24 164q54 34 112.5 51t123.5 17z" />
    <glyph glyph-name="dv_Ddda" unicode="&#x97e;" horiz-adv-x="568" 
d="M87 183q41 -23 97.5 -38t101.5 -15q30 0 47 8.5t17 23.5q0 10 -7.5 17t-19.5 7h-79q-69 0 -126.5 43t-57.5 120q0 81 52.5 120.5t129.5 39.5h80v28h-317l-16 143h573l17 -143h-100v-172h-222q-12 0 -18.5 -4.5t-6.5 -11.5t7 -13.5t19 -6.5h59q94 0 156 -35.5t62 -128.5
q0 -72 -62 -126.5t-179 -54.5q-60 0 -125 14t-114 38zM525 -214h-451l-16 143h450z" />
    <glyph glyph-name="dv_Bba" unicode="&#x97f;" horiz-adv-x="671" 
d="M273 50q-106 0 -171 62.5t-65 157.5t65 157.5t171 62.5q31 0 67 -7.5t47 -14.5v69h-382l-16 143h676l17 -143h-113v-553l-182 16v71q-11 -7 -47 -14t-67 -7zM383 229l4 5v71q-8 12 -27 27.5t-49 15.5q-8 0 -15.5 -1.5t-14.5 -2.5zM222 270q0 -32 23.5 -55t65.5 -23
q4 0 8.5 0.5t8.5 1.5l-98 111q-4 -7 -6 -16.5t-2 -18.5zM587 -214h-501l-16 143h500z" />
    <glyph glyph-name="dv_La.MAR" horiz-adv-x="863" 
d="M60 297q0 80 64 133t165 53q49 0 90 -23t60 -48q10 13 28.5 28t41.5 25v72h-504l-16 143h868l17 -143h-203v-65q67 -19 107.5 -65.5t40.5 -109.5q0 -75 -26.5 -145.5t-80.5 -177.5l-168 47q63 128 77.5 174t14.5 88q0 19 -16 34.5t-41 15.5q-33 0 -47 -22t-14 -58v-130
l-157 16v114q0 36 -14 58t-47 22q-25 0 -41 -15.5t-16 -34.5q0 -42 14.5 -88t77.5 -174l-168 -47q-54 107 -80.5 177.5t-26.5 145.5z" />
    <glyph glyph-name="dv_Sha.MAR" horiz-adv-x="839" 
d="M555 0v537h-249v-31q66 -23 99 -76.5t33 -111.5q0 -53 -33.5 -105t-90.5 -78l84 -133l-167 -43l-85 149h-5q-31 0 -53 16t-27 43q0 57 40 103t93 46q15 0 26.5 -7.5t20.5 -19.5q7 5 11 13t4 13q0 16 -12 26t-29 10q-22 0 -54 -8.5t-60 -30.5l-71 150q18 14 46.5 26.5
t59.5 20.5v28h-131l-16 143h844l17 -143h-113v-553z" />
    <glyph glyph-name="dv_oldJha" horiz-adv-x="1128" 
d="M570 0v177h-194q0 -39 -17 -71.5t-66 -32.5q-74 0 -126 55.5t-52 117.5q0 30 23 52t66 22v86h-7q-66 0 -107.5 40t-41.5 109q0 63 44.5 103t110.5 40q80 0 126.5 -48t46.5 -139v-191h194v217h-100l-16 143h668l17 -143h-387v-81q7 7 41.5 17.5t67.5 10.5q106 0 171 -62.5
t65 -157.5q0 -123 -73 -175.5t-162 -56.5l-45 154q46 0 70.5 22t24.5 56q0 32 -19 55t-61 23q-32 0 -52.5 -17.5t-27.5 -28.5v-312z" />
    <glyph glyph-name="dv_KSsa" horiz-adv-x="802" 
d="M518 0v302h-66q-50 0 -113.5 11.5t-106.5 36.5q-19 -17 -32 -47t-13 -43q0 -20 12 -36t29 -16h4q4 35 28.5 56.5t63.5 21.5q43 0 84.5 -29.5t41.5 -76.5q0 -16 -6 -33t-16 -32l54 -117l-150 -56l-49 112q-13 -4 -29 -4.5t-26 -0.5q-88 0 -150 54.5t-62 155.5
q0 49 29.5 103.5t65.5 84.5q-16 19 -25.5 43t-9.5 58q0 61 41 106t113 45t112.5 -43t40.5 -103q0 -25 -4.5 -46t-15.5 -40q22 -7 46.5 -10t43.5 -3h65v226h278l17 -143h-113v-553z" />
    <glyph glyph-name="dv_JNya" horiz-adv-x="878" 
d="M594 0v318h-85q4 -13 6 -28.5t2 -30.5q0 -101 -62 -160.5t-157 -68.5q19 -23 32 -41t17 -23l-118 -85l-127 171q-32 16 -62 47.5t-30 77.5q0 36 24 58t59 22q39 0 72 -23t49 -54q11 -1 22.5 -2t22.5 -1q39 0 64.5 22.5t25.5 53.5q0 27 -19 46t-53 19h-76l-20 142h413v77
h-589l-16 143h883l17 -143h-113v-553z" />
    <glyph glyph-name="dv_Jha.NEP" horiz-adv-x="561" 
d="M334 289q7 5 11 13t4 13q0 16 -12 26t-29 10q-16 0 -31.5 -2.5t-28.5 -5.5q-20 -15 -47 -23.5t-59 -8.5q-46 0 -84 15.5t-58 38.5l70 119q17 -15 28.5 -19t23.5 -4q16 0 24.5 11.5t8.5 25.5q0 10 -2 20t-6 19h-142l-16 143h566l17 -143h-266q1 -4 2 -8.5t2 -8.5
q113 0 167 -63.5t54 -138.5q0 -53 -33.5 -105t-90.5 -78l84 -133l-167 -43l-85 149h-5q-31 0 -53 16t-27 43q0 57 40 103t93 46q15 0 26.5 -7.5t20.5 -19.5z" />
    <glyph glyph-name="dv_Reph" horiz-adv-x="0" 
d="M-100 674h-167q-12 22 -20.5 57t-8.5 57q0 65 43.5 117.5t128.5 52.5q46 0 84 -15.5t58 -38.5l-70 -119q-17 15 -28.5 19t-23.5 4q-16 0 -24.5 -11.5t-8.5 -25.5q0 -22 12.5 -51.5t24.5 -45.5z" />
    <glyph glyph-name="dv_Reph.MAR" horiz-adv-x="555" 
d="M566 537h-561l-16 143h560zM543 330q-34 -75 -110 -114.5t-154 -39.5t-154 39.5t-110 114.5l126 77q18 -36 53 -63t85 -27t85 27t53 63z" />
    <glyph glyph-name="dv_Rakar" horiz-adv-x="0" 
d="M94 -207l-126 80l178 161h106l175 -161l-117 -80l-108 97q-24 -22 -55.5 -50t-52.5 -47z" />
    <glyph glyph-name="dv_MatraI.1" 
d="M850 699q-125 44 -268 77t-264 33q-35 0 -57.5 -19t-22.5 -43q0 -15 5 -31.5t20 -35.5h120l17 -143h-113v-553l-182 16v537h-100l-16 143h82q-9 17 -17 43.5t-8 56.5q0 97 69.5 151t185.5 54q156 0 330.5 -47.5t301.5 -100.5z" />
    <glyph glyph-name="dv_MatraI.2" 
d="M46 780q0 97 75.5 151t204.5 54q240 0 538.5 -59t423.5 -97l-77 -130q-137 34 -410.5 72t-454.5 38q-56 0 -82 -19t-26 -43q0 -15 5 -31.5t20 -35.5h120l17 -143h-113v-553l-182 16v537h-100l-16 143h82q-9 17 -17 43.5t-8 56.5z" />
    <glyph glyph-name="dv_MatraI.3" 
d="M46 780q0 97 75.5 151t204.5 54q240 0 445 -56.5t327 -99.5l-77 -130q-137 37 -315.5 73.5t-359.5 36.5q-56 0 -82 -19t-26 -43q0 -15 5 -31.5t20 -35.5h120l17 -143h-113v-553l-182 16v537h-100l-16 143h82q-9 17 -17 43.5t-8 56.5z" />
    <glyph glyph-name="dv_MatraI.4" 
d="M644 699q-104 49 -184.5 79.5t-158.5 30.5q-35 0 -49 -21t-14 -35q0 -15 5 -34.5t20 -38.5h120l17 -143h-113v-553l-182 16v537h-100l-16 143h82q-9 17 -17 43.5t-8 56.5q0 90 61 147.5t177 57.5q117 0 233.5 -47t209.5 -101z" />
    <glyph glyph-name="dv_MatraIReph" 
d="M733 699q-122 53 -234.5 81.5t-190.5 28.5q-35 0 -52.5 -21t-17.5 -35q0 -15 5 -34.5t20 -38.5h120l17 -143h-113v-553l-182 16v537h-100l-16 143h82q-9 17 -17 43.5t-8 56.5q0 90 64.5 147.5t180.5 57.5q96 0 219 -33.5t226 -77.5q19 37 57.5 60.5t93.5 23.5
q46 0 84 -15.5t58 -38.5l-70 -119q-17 15 -28.5 19t-23.5 4q-16 0 -24.5 -11.5t-8.5 -25.5q0 -22 12.5 -51.5t24.5 -45.5h-167q-3 5 -6 11.5t-5 13.5z" />
    <glyph glyph-name="dv_MatraIReph.1" 
d="M849 699q-125 44 -268 77t-263 33q-35 0 -57.5 -19t-22.5 -43q0 -15 5 -31.5t20 -35.5h120l17 -143h-113v-553l-182 16v537h-100l-16 143h82q-9 17 -17 43.5t-8 56.5q0 97 69.5 151t185.5 54q132 0 279 -35.5t269 -80.5q19 38 58 63.5t96 25.5q46 0 84 -15.5t58 -38.5
l-70 -119q-17 15 -28.5 19t-23.5 4q-16 0 -24.5 -11.5t-8.5 -25.5q0 -22 12.5 -51.5t24.5 -45.5h-167q-3 5 -6 11.5t-5 13.5z" />
    <glyph glyph-name="dv_MatraIReph.2" 
d="M1388 674h-167q-3 5 -6 11.5t-5 13.5q-137 34 -410 72t-454 38q-56 0 -82 -19t-26 -43q0 -15 5 -31.5t20 -35.5h120l17 -143h-113v-553l-182 16v537h-100l-16 143h82q-9 17 -17 43.5t-8 56.5q0 97 75.5 151t204.5 54q207 0 464 -46.5t413 -86.5q16 45 57 75.5t104 30.5
q46 0 84 -15.5t58 -38.5l-70 -119q-17 15 -28.5 19t-23.5 4q-16 0 -24.5 -11.5t-8.5 -25.5q0 -22 12.5 -51.5t24.5 -45.5z" />
    <glyph glyph-name="dv_MatraIReph.3" 
d="M1198 674h-167q-3 5 -6 11.5t-5 13.5q-137 37 -315 73.5t-359 36.5q-56 0 -82 -19t-26 -43q0 -15 5 -31.5t20 -35.5h120l17 -143h-113v-553l-182 16v537h-100l-16 143h82q-9 17 -17 43.5t-8 56.5q0 97 75.5 151t204.5 54q203 0 383 -42.5t306 -85.5q17 43 57 72t102 29
q46 0 84 -15.5t58 -38.5l-70 -119q-17 15 -28.5 19t-23.5 4q-16 0 -24.5 -11.5t-8.5 -25.5q0 -22 12.5 -51.5t24.5 -45.5z" />
    <glyph glyph-name="dv_MatraIReph.4" 
d="M643 699q-104 49 -184 79.5t-158 30.5q-35 0 -49 -21t-14 -35q0 -15 5 -34.5t20 -38.5h120l17 -143h-113v-553l-182 16v537h-100l-16 143h82q-9 17 -17 43.5t-8 56.5q0 90 61 147.5t177 57.5q94 0 188.5 -31.5t176.5 -73.5q20 34 57 56t91 22q46 0 84 -15.5t58 -38.5
l-70 -119q-17 15 -28.5 19t-23.5 4q-16 0 -24.5 -11.5t-8.5 -25.5q0 -22 12.5 -51.5t24.5 -45.5h-167q-3 5 -6 11.5t-5 13.5z" />
    <glyph glyph-name="dv_MatraIi.1" 
d="M105 0v537h-100l-16 143h87q-57 32 -165.5 74.5t-227.5 42.5q-15 0 -24.5 -8.5t-9.5 -17.5q0 -13 12.5 -27t28.5 -20l-182 -36q-20 24 -31 51.5t-11 60.5q0 64 57.5 109.5t136.5 45.5q201 0 379.5 -96.5t235.5 -178.5h108l17 -143h-113v-553z" />
    <glyph glyph-name="dv_MatraIi.2" 
d="M105 0v537h-100l-16 143h95q-31 32 -106.5 72.5t-139.5 40.5q-16 0 -25 -7t-9 -19q0 -8 12 -22t29 -21l-182 -36q-20 24 -31 51.5t-11 60.5q0 64 54 109.5t141 45.5q126 0 261.5 -84t198.5 -191h107l17 -143h-113v-553z" />
    <glyph glyph-name="dv_MatraIiReph.1" 
d="M105 0v537h-100l-16 143h87q-57 32 -165.5 74.5t-227.5 42.5q-15 0 -24.5 -8.5t-9.5 -17.5q0 -13 12.5 -27t28.5 -20l-182 -36q-20 24 -31 51.5t-11 60.5q0 64 57.5 109.5t136.5 45.5q116 0 228.5 -36t200.5 -87q13 51 54.5 88.5t112.5 37.5q46 0 84 -15.5t58 -38.5
l-70 -119q-17 15 -28.5 19t-23.5 4q-16 0 -24.5 -11.5t-8.5 -25.5q0 -21 10.5 -47.5t21.5 -43.5h108l17 -143h-113v-553z" />
    <glyph glyph-name="dv_MatraIiReph.2" 
d="M105 0v537h-100l-16 143h95q-31 32 -106.5 72.5t-139.5 40.5q-16 0 -25 -7t-9 -19q0 -8 12 -22t29 -21l-182 -36q-20 24 -31 51.5t-11 60.5q0 64 54 109.5t141 45.5q69 0 143 -27t140 -70q17 42 57.5 71t101.5 29q46 0 84 -15.5t58 -38.5l-70 -119q-17 15 -28.5 19
t-23.5 4q-16 0 -24.5 -11.5t-8.5 -25.5q0 -21 10.5 -47.5t21.5 -43.5h106l17 -143h-113v-553z" />
    <glyph glyph-name="dv_MatraIiReph" 
d="M105 0v537h-100l-16 143h97q-16 32 -68.5 72.5t-99.5 40.5q-4 0 -9 -3.5t-5 -7.5q0 -8 12 -26t29 -32l-182 -36q-20 24 -31 51.5t-11 60.5q0 64 53 109.5t132 45.5q54 0 107.5 -20t100.5 -54q20 34 57 55.5t90 21.5q46 0 84 -15.5t58 -38.5l-70 -119q-17 15 -28.5 19
t-23.5 4q-16 0 -24.5 -11.5t-8.5 -25.5q0 -21 10.5 -47.5t21.5 -43.5h103l17 -143h-113v-553z" />
    <glyph glyph-name="dv_MatraEReph" horiz-adv-x="0" 
d="M-109 674l-204 6l-227 204l142 81l107 -107q17 42 57 71t101 29q46 0 84 -15.5t58 -38.5l-70 -119q-17 15 -28.5 19t-23.5 4q-16 0 -24.5 -11.5t-8.5 -25.5q0 -22 12.5 -51.5t24.5 -45.5z" />
    <glyph glyph-name="dv_MatraAiReph" horiz-adv-x="0" 
d="M-111 680l-145 -3q-12 11 -42 27t-81 16h-110l-34 151h138q19 0 38 -0.5t36 -4.5q-8 25 -20.5 57.5t-19.5 53.5l160 45l17 -72q13 4 27 6t29 2q46 0 84 -15.5t58 -38.5l-70 -119q-17 15 -28.5 19t-23.5 4q-16 0 -24.5 -11.5t-8.5 -25.5v-6z" />
    <glyph glyph-name="dv_MatraOReph" 
d="M105 0v537h-100l-16 143h64l-227 204l142 81l106 -107q17 42 57.5 71t101.5 29q46 0 84 -15.5t58 -38.5l-70 -119q-17 15 -28.5 19t-23.5 4q-16 0 -24.5 -11.5t-8.5 -25.5q0 -21 10.5 -47.5t21.5 -43.5h131l17 -143h-113v-553z" />
    <glyph glyph-name="dv_MatraAuReph" 
d="M256 680h127l17 -143h-113v-553l-182 16v537h-100l-16 143h119q-13 11 -42 25.5t-78 14.5h-110l-34 151h138q19 0 38 -0.5t36 -4.5q-8 25 -20.5 57.5t-19.5 53.5l160 45l16 -72q13 4 27 6t30 2q46 0 84 -15.5t58 -38.5l-70 -119q-17 15 -28.5 19t-23.5 4
q-16 0 -24.5 -11.5t-8.5 -25.5v-6z" />
    <glyph glyph-name="dv_RakarMatraU" horiz-adv-x="0" 
d="M94 -197l-126 80l178 151h106l175 -151l-117 -80l-108 87q-24 -22 -55.5 -45t-52.5 -42zM9 -247q49 -66 99.5 -100t87.5 -34q16 0 24 10t8 21t-8.5 21t-23.5 10h-71v134h73q78 0 128.5 -45t50.5 -125q0 -78 -54 -123.5t-129 -45.5q-79 0 -156 50.5t-140 152.5z" />
    <glyph glyph-name="dv_RakarMatraUu" horiz-adv-x="0" 
d="M94 -197l-126 80l178 151h106l175 -151l-117 -80l-108 87q-24 -22 -55.5 -45t-52.5 -42zM383 -462q-49 66 -99.5 100t-87.5 34q-16 0 -24 -10t-8 -21t8.5 -21t23.5 -10h71v-134h-73q-78 0 -128.5 45t-50.5 125q0 78 54 123.5t129 45.5q79 0 156 -50.5t140 -152.5z" />
    <glyph glyph-name="dv_KRa" horiz-adv-x="940" 
d="M222 280q0 -32 21.5 -55t63.5 -23q32 0 50 17.5t25 28.5v64q-7 11 -25 28.5t-50 17.5q-42 0 -63.5 -23t-21.5 -55zM382 0v65l-251 -146l-112 116l112 64q-44 29 -69 76t-25 105q0 95 65 157.5t171 62.5q33 0 67.5 -8t41.5 -15v60h-377l-16 143h945l17 -143h-387v-65
q7 7 41.5 17.5t67.5 10.5q106 0 171 -62.5t65 -157.5q0 -123 -73 -175.5t-162 -56.5l-45 154q46 0 70.5 22t24.5 56q0 32 -19 55t-61 23q-32 0 -52.5 -17.5t-27.5 -28.5v-328z" />
    <glyph glyph-name="dv_KRa.NEP" horiz-adv-x="921" 
d="M363 0v147l-194 -120l-95 131l225 136q-25 18 -47 26t-41 8q-8 0 -42 -11t-74 -30l-66 147q39 19 96.5 34t76.5 15q59 0 90 -9.5t71 -30.5v94h-358l-16 143h926l17 -143h-387v-75q7 7 41.5 17.5t67.5 10.5q106 0 171 -62.5t65 -157.5q0 -123 -73 -175.5t-162 -56.5
l-45 154q46 0 70.5 22t24.5 56q0 32 -19 55t-61 23q-32 0 -52.5 -17.5t-27.5 -28.5v-318z" />
    <glyph glyph-name="dv_KhRa" horiz-adv-x="1088" 
d="M535 161q-25 27 -39.5 62.5t-14.5 75.5q0 87 63 147t160 60q30 0 61.5 -7.5t38.5 -13.5v52h-383q7 -21 10 -43.5t3 -39.5q0 -76 -28 -123.5t-73 -73.5q31 -38 79.5 -67.5t104.5 -29.5h9t9 1zM657 299q0 -29 20 -50t58 -21q30 0 46.5 16t22.5 26v59q-6 10 -22.5 26
t-46.5 16q-38 0 -58 -21t-20 -51zM804 0v61l-314 -212l-109 129l59 38q-112 15 -186 72t-112 128h-10q-47 0 -70 14.5t-28 39.5q0 60 43 108t97 48q16 0 30 -13t23 -30q15 11 22.5 35.5t7.5 41.5q0 22 -7.5 44.5t-23.5 32.5h-221l-16 143h1093l17 -143h-113v-553z" />
    <glyph glyph-name="dv_GRa" horiz-adv-x="792" 
d="M508 0v88l-266 -180l-109 129l375 245v255h-182v-280q0 -48 -22 -74.5t-73 -26.5q-62 0 -121 49.5t-59 123.5q0 49 27.5 68.5t66.5 19.5v120h-140l-16 143h797l17 -143h-113v-553z" />
    <glyph glyph-name="dv_GhRa" horiz-adv-x="777" 
d="M255 256q0 -24 21 -40.5t53 -16.5q10 0 22 1.5t23 4.5l119 77v255h-228q-4 -4 -5.5 -15t-1.5 -18q0 -20 15.5 -34t50.5 -14h62l25 -141h-91q-33 0 -49 -18t-16 -41zM675 -16l-182 16v88l-266 -180l-109 129l58 38q-47 23 -76 67t-29 111q0 35 19.5 76.5t47.5 60.5
q-27 23 -42 54.5t-15 63.5q0 4 0.5 13t1.5 16h-78l-16 143h782l17 -143h-113v-553z" />
    <glyph glyph-name="dv_CRa" horiz-adv-x="756" 
d="M472 0v76h-2t-2 -1l-267 -166l-123 110l128 76q-46 25 -74 69.5t-28 105.5q0 16 2.5 32t7.5 31h-85l-16 143h392l20 -143h-60q-42 0 -63 -17t-21 -46q0 -30 23.5 -47t55.5 -17q28 0 66 17t46 43v271h-467l-16 143h761l17 -143h-113v-553z" />
    <glyph glyph-name="dv_JRa" horiz-adv-x="919" 
d="M635 0v88l-166 -180l-142 82l308 324v24h-158q4 -13 6 -28.5t2 -30.5q0 -110 -71.5 -170t-178.5 -60q-62 0 -121.5 17.5t-102.5 45.5l27 163q44 -39 91 -58.5t98 -19.5q39 0 64.5 22.5t25.5 53.5q0 27 -19 46t-53 19h-76l-20 142h486v57h-630l-16 143h924l17 -143h-113
v-553z" />
    <glyph glyph-name="dv_JhRa" horiz-adv-x="986" 
d="M702 537h-223v-172h-222q-12 0 -18.5 -4.5t-6.5 -11.5t7 -13.5t19 -6.5h59q54 0 99 -11t74 -37h212v256zM702 0v66l-79 -125l-140 71l93 140h-42q-4 -63 -57.5 -111t-150.5 -55l9 -16l52 -69l-118 -85l-127 171q-32 16 -62 47.5t-30 77.5q0 36 24 58t59 22q34 0 63 -17
t48 -42q11 -1 21.5 -2t20.5 -1q30 0 47 8.5t17 23.5q0 10 -7.5 17t-19.5 7h-79q-69 0 -126.5 43t-57.5 120q0 81 52.5 120.5t129.5 39.5h80v28h-317l-16 143h991l17 -143h-113v-553z" />
    <glyph glyph-name="dv_TRa" horiz-adv-x="647" 
d="M363 0v147l-194 -120l-95 131l225 136q-25 18 -47 26t-41 8q-8 0 -42 -11t-74 -30l-66 147q39 19 96.5 34t76.5 15q59 0 90 -9.5t71 -30.5v94h-358l-16 143h652l17 -143h-113v-553z" />
    <glyph glyph-name="dv_TRa.alt" horiz-adv-x="778" 
d="M494 0v195l-87 -86l-99 96l125 110h-146q-21 0 -37 -11t-16 -33q0 -34 34 -103t85 -151l-161 -39q-42 65 -89 154t-47 158q0 93 53 130.5t136 37.5h249v79h-489l-16 143h783l17 -143h-113v-553z" />
    <glyph glyph-name="dv_ThRa" horiz-adv-x="796" 
d="M512 0v156l-291 -235l-122 109l171 127q-60 26 -100 77.5t-40 114.5l33 36q14 5 27 21.5t17 39.5q-7 -2 -15.5 -3t-16.5 -1q-49 0 -88 31t-39 87q0 60 43.5 99t110.5 39q89 0 137.5 -63.5t48.5 -149.5q0 -37 -14.5 -85t-50.5 -76q13 -14 33 -26.5t52 -12.5q38 0 68 17.5
t36 42.5v192h-69l-16 143h363l17 -143h-113v-553z" />
    <glyph glyph-name="dv_DRa" horiz-adv-x="651" 
d="M620 -1l-156 -58l-59 107l-88 -152l-169 41l78 128q-76 22 -121 79t-45 146q0 101 79 161.5t188 60.5v25h-322l-16 143h656l17 -143h-144v-163h-165q-59 0 -96.5 -21.5t-37.5 -65.5q0 -43 35 -70t88 -27q4 40 30.5 64t63.5 24q53 0 97.5 -28.5t44.5 -74.5q0 -16 -7.5 -30
t-19.5 -30q10 -17 24 -40.5t45 -75.5z" />
    <glyph glyph-name="dv_DhRa" horiz-adv-x="780" 
d="M496 0v88l-266 -180l-109 129l43 28q-54 23 -87 69t-33 119q0 35 19.5 76.5t47.5 60.5q-27 23 -42 56t-15 65q0 74 50.5 128t136.5 54q49 0 87.5 -16.5t58.5 -36.5l-85 -115q-11 4 -19 6t-19 2q-14 0 -23.5 -9t-9.5 -20q0 -20 15.5 -34t50.5 -14h62l25 -141h-91
q-33 0 -49 -18t-16 -41q0 -24 23 -43.5t66 -19.5q14 0 30.5 3.5t32.5 9.5l116 76v255h-66l-16 143h360l17 -143h-113v-553z" />
    <glyph glyph-name="dv_NRa" horiz-adv-x="710" 
d="M426 0v133l-198 -191l-117 108l263 247l-94 23q-7 -33 -26.5 -58.5t-54.5 -25.5q-5 0 -11 1t-13 2q-63 15 -100 68.5t-37 108.5q0 8 1 16.5t3 16.5q6 24 26 39t49 15q7 0 13.5 -1t13.5 -2l282 -68v105h-421l-16 143h715l17 -143h-113v-553z" />
    <glyph glyph-name="dv_PRa" horiz-adv-x="742" 
d="M458 326v211h-203v-155q0 -63 26.5 -90t75.5 -27q42 0 66.5 20t34.5 41zM458 0v140l-271 -219l-122 109l152 113q-57 26 -95 78.5t-38 131.5v184h-79l-16 143h747l17 -143h-113v-553z" />
    <glyph glyph-name="dv_PhRa" horiz-adv-x="1016" 
d="M458 326v211h-203v-155q0 -63 26.5 -90t75.5 -27q42 0 68.5 19.5t32.5 41.5zM458 0v140l-271 -219l-122 109l152 113q-57 26 -95 78.5t-38 131.5v184h-79l-16 143h1021l17 -143h-387v-81q7 7 41.5 17.5t67.5 10.5q106 0 171 -62.5t65 -157.5q0 -123 -73 -175.5
t-162 -56.5l-45 154q46 0 70.5 22t24.5 56q0 32 -19 55t-61 23q-32 0 -52.5 -17.5t-27.5 -28.5v-312z" />
    <glyph glyph-name="dv_BRa" horiz-adv-x="666" 
d="M382 322q-10 11 -27.5 23.5t-43.5 12.5q-8 0 -15.5 -1.5t-14.5 -2.5l101 -114v82zM222 280q0 -32 23.5 -55t65.5 -23q4 0 8.5 0.5t8.5 1.5l-98 111q-4 -7 -6 -16.5t-2 -18.5zM382 0v65l-251 -146l-112 116l112 64q-44 29 -69 76t-25 105q0 95 65 157.5t171 62.5
q28 0 61 -6.5t48 -12.5v56h-377l-16 143h671l17 -143h-113v-553z" />
    <glyph glyph-name="dv_BhRa" horiz-adv-x="854" 
d="M570 0v77l-205 -185l-128 104l228 197h-78q0 -39 -23.5 -61t-59.5 -22q-74 0 -126 45t-52 107q0 28 20.5 50t57.5 24v70h-7q-66 0 -107.5 40t-41.5 109q0 63 44.5 103t110.5 40q80 0 126.5 -48t46.5 -139v-175h194v201h-100l-16 143h394l17 -143h-113v-553z" />
    <glyph glyph-name="dv_MRa" horiz-adv-x="763" 
d="M479 336v201h-184v-201h184zM479 0v78l-206 -186l-128 104l228 197h-78q0 -39 -23.5 -61t-59.5 -22q-74 0 -126 45t-52 107q0 30 23 52t63 22h4v201h-119l-16 143h768l17 -143h-113v-553z" />
    <glyph glyph-name="dv_YRa" horiz-adv-x="709" 
d="M238 324q13 -14 33 -26.5t52 -12.5q36 0 65 15.5t37 38.5v198h-135q5 -16 9 -39.5t4 -36.5q0 -43 -14.5 -76t-50.5 -61zM425 0v157l-292 -236l-122 109l172 128q-60 26 -99 77t-39 114l33 36q17 7 31.5 29t14.5 53q0 16 -10 39t-23 31h-86l-16 143h714l17 -143h-113v-553
z" />
    <glyph glyph-name="dv_LRa" horiz-adv-x="903" 
d="M619 0v60l-113 -152l-132 93l245 298v4q-6 21 -20 34.5t-30 13.5q-22 0 -36.5 -23t-14.5 -59v-83l-157 16v67q0 36 -14 58t-47 22q-25 0 -41 -15.5t-16 -34.5q0 -42 14.5 -96t77.5 -182l-168 -47q-54 107 -80.5 185.5t-26.5 153.5q0 80 64 133t165 53q51 0 90.5 -21.5
t57.5 -46.5q19 25 51.5 46.5t85.5 21.5q11 0 21.5 -1.5t23.5 -5.5v45h-614l-16 143h908l17 -143h-113v-553z" />
    <glyph glyph-name="dv_VRa" horiz-adv-x="666" 
d="M222 280q0 -32 21.5 -55t63.5 -23q32 0 50 17.5t25 28.5v64q-7 11 -25 28.5t-50 17.5q-42 0 -63.5 -23t-21.5 -55zM382 0v65l-251 -146l-112 116l112 64q-44 29 -69 76t-25 105q0 95 65 157.5t171 62.5q33 0 67.5 -8t41.5 -15v60h-377l-16 143h671l17 -143h-113v-553z
" />
    <glyph glyph-name="dv_ShRa" horiz-adv-x="746" 
d="M462 0v176l-284 -195l-58 156l213 146l-72 47l-177 -115l-60 148l119 78q-14 20 -23 45t-9 62q0 60 42.5 105.5t110.5 45.5t110.5 -42.5t42.5 -108.5q0 -27 -7.5 -55.5t-24.5 -50.5l77 -62v300h278l17 -143h-113v-553z" />
    <glyph glyph-name="dv_SsRa" horiz-adv-x="742" 
d="M458 537h-142l142 -202v202zM255 382q0 -63 26.5 -90t75.5 -27q18 0 33 4.5t27 11.5l-162 229v-128zM458 0v140l-271 -219l-122 109l152 113q-57 26 -95 78.5t-38 131.5v184h-79l-16 143h747l17 -143h-113v-553z" />
    <glyph glyph-name="dv_SRa" horiz-adv-x="877" 
d="M593 537h-172q7 -21 10 -43.5t3 -39.5q0 -20 -3 -39.5t-10 -38.5h172v161zM309 247l-20 -10l60 -99l147 109h-187zM593 0v132l-164 -124l-156 -41l-142 248q-6 0 -11 0.5t-11 0.5q-29 0 -49.5 14.5t-25.5 39.5q0 60 43 108t97 48q16 0 30 -13t23 -30q15 11 22.5 35.5
t7.5 41.5q0 22 -7.5 44.5t-23.5 32.5h-221l-16 143h882l17 -143h-113v-553z" />
    <glyph glyph-name="dv_HRa" horiz-adv-x="591" 
d="M310 376q88 0 159 -44t71 -113q0 -40 -15.5 -68.5t-42.5 -42.5l-104 65q2 3 5.5 10t3.5 14t-7.5 13t-18.5 7l-12 -91l-80 12l13 94q-23 -5 -37.5 -23t-14.5 -46q0 -42 55.5 -64.5t101.5 -26.5l-34 -142q-130 4 -213 64t-83 169q0 40 19.5 75.5t37.5 51.5q-14 17 -21.5 39
t-7.5 48q0 72 54.5 110.5t125.5 38.5h56v11h-316l-16 143h596l17 -143h-99v-145h-210q-15 0 -20.5 -4t-5.5 -11v-5q10 1 21 2.5t22 1.5z" />
    <glyph glyph-name="dv_QRa" horiz-adv-x="940" 
d="M222 280q0 -32 21.5 -55t63.5 -23q32 0 50 17.5t25 28.5v64q-7 11 -25 28.5t-50 17.5q-42 0 -63.5 -23t-21.5 -55zM382 0v65l-251 -146l-112 116l112 64q-44 29 -69 76t-25 105q0 95 65 157.5t171 62.5q33 0 67.5 -8t41.5 -15v60h-377l-16 143h945l17 -143h-387v-65
q7 7 41.5 17.5t67.5 10.5q106 0 171 -62.5t65 -157.5q0 -123 -73 -175.5t-162 -56.5l-45 154q46 0 70.5 22t24.5 56q0 32 -19 55t-61 23q-32 0 -52.5 -17.5t-27.5 -28.5v-328zM317 -200q-37 0 -63.5 26.5t-26.5 63.5t26.5 64t63.5 27t64 -27t27 -64t-27 -63.5t-64 -26.5z
" />
    <glyph glyph-name="dv_KhhRa" horiz-adv-x="1088" 
d="M535 161q-25 27 -39.5 62.5t-14.5 75.5q0 87 63 147t160 60q30 0 61.5 -7.5t38.5 -13.5v52h-383q7 -21 10 -43.5t3 -39.5q0 -76 -28 -123.5t-73 -73.5q31 -38 79.5 -67.5t104.5 -29.5h9t9 1zM804 270v59q-6 10 -22.5 26t-46.5 16q-38 0 -58 -21t-20 -51q0 -29 20 -50
t58 -21q30 0 46.5 16t22.5 26zM114 -106q-37 0 -63.5 26.5t-26.5 63.5t26.5 64t63.5 27t64 -27t27 -64t-27 -63.5t-64 -26.5zM804 0v61l-314 -212l-109 129l59 38q-112 15 -186 72t-112 128h-10q-47 0 -70 14.5t-28 39.5q0 60 43 108t97 48q16 0 30 -13t23 -30
q15 11 22.5 35.5t7.5 41.5q0 22 -7.5 44.5t-23.5 32.5h-221l-16 143h1093l17 -143h-113v-553z" />
    <glyph glyph-name="dv_GhhRa" horiz-adv-x="792" 
d="M508 0v88l-266 -180l-109 129l375 245v255h-182v-280q0 -48 -22 -74.5t-73 -26.5q-62 0 -121 49.5t-59 123.5q0 49 27.5 68.5t66.5 19.5v120h-140l-16 143h797l17 -143h-113v-553zM446 -200q-37 0 -63.5 26.5t-26.5 63.5t26.5 64t63.5 27t64 -27t27 -64t-27 -63.5
t-64 -26.5z" />
    <glyph glyph-name="dv_ZRa" horiz-adv-x="919" 
d="M635 0v88l-166 -180l-142 82l308 324v24h-158q4 -13 6 -28.5t2 -30.5q0 -110 -71.5 -170t-178.5 -60q-62 0 -121.5 17.5t-102.5 45.5l27 163q44 -39 91 -58.5t98 -19.5q39 0 64.5 22.5t25.5 53.5q0 27 -19 46t-53 19h-76l-20 142h486v57h-630l-16 143h924l17 -143h-113
v-553zM159 -200q-37 0 -63.5 26.5t-26.5 63.5t26.5 64t63.5 27t64 -27t27 -64t-27 -63.5t-64 -26.5z" />
    <glyph glyph-name="dv_FRa" horiz-adv-x="1016" 
d="M458 326v211h-203v-155q0 -63 26.5 -90t75.5 -27q42 0 68.5 19.5t32.5 41.5zM458 0v140l-271 -219l-122 109l152 113q-57 26 -95 78.5t-38 131.5v184h-79l-16 143h1021l17 -143h-387v-81q7 7 41.5 17.5t67.5 10.5q106 0 171 -62.5t65 -157.5q0 -123 -73 -175.5
t-162 -56.5l-45 154q46 0 70.5 22t24.5 56q0 32 -19 55t-61 23q-32 0 -52.5 -17.5t-27.5 -28.5v-312zM381 -200q-37 0 -63.5 26.5t-26.5 63.5t26.5 64t63.5 27t64 -27t27 -64t-27 -63.5t-64 -26.5z" />
    <glyph glyph-name="dv_YyRa" horiz-adv-x="709" 
d="M238 324q13 -14 33 -26.5t52 -12.5q36 0 65 15.5t37 38.5v198h-135q5 -16 9 -39.5t4 -36.5q0 -43 -14.5 -76t-50.5 -61zM425 0v157l-292 -236l-122 109l172 128q-60 26 -99 77t-39 114l33 36q17 7 31.5 29t14.5 53q0 16 -10 39t-23 31h-86l-16 143h714l17 -143h-113v-553
zM334 -200q-37 0 -63.5 26.5t-26.5 63.5t26.5 64t63.5 27t64 -27t27 -64t-27 -63.5t-64 -26.5z" />
    <glyph glyph-name="dv_KSsRa" horiz-adv-x="973" 
d="M689 0v190l-62 -84l-169 41l119 155h-125q-50 0 -113.5 11.5t-106.5 36.5q-19 -17 -32 -47t-13 -43q0 -20 12 -36t29 -16h4q4 35 28.5 56.5t63.5 21.5q43 0 84.5 -29.5t41.5 -76.5q0 -16 -6 -33t-16 -32l54 -117l-150 -56l-49 112q-13 -4 -29 -4.5t-26 -0.5
q-88 0 -150 54.5t-62 155.5q0 49 29.5 103.5t65.5 84.5q-16 19 -25.5 43t-9.5 58q0 61 41 106t113 45t112.5 -43t40.5 -103q0 -25 -4.5 -46t-15.5 -40q22 -7 46.5 -10t43.5 -3h236v226h278l17 -143h-113v-553z" />
    <glyph glyph-name="dv_KR.half" horiz-adv-x="709" 
d="M382 248v64q-7 11 -25 28.5t-50 17.5q-42 0 -63.5 -23t-21.5 -55t21.5 -55t63.5 -23q32 0 50 17.5t25 28.5zM825 343h-181q-32 0 -52.5 -17.5t-27.5 -28.5v-313l-182 16v65l-251 -146l-112 116l112 64q-44 29 -69 76t-25 105q0 95 65 157.5t171 62.5q33 0 67.5 -8
t41.5 -15v60h-377l-16 143h714l17 -143h-156v-79q7 7 41.5 17.5t67.5 10.5h152v-143z" />
    <glyph glyph-name="dv_GhR.half" horiz-adv-x="385" 
d="M497 285v-194l-270 -183l-109 129l58 38q-47 23 -76 67t-29 111q0 35 19.5 76.5t47.5 60.5q-27 23 -42 54.5t-15 63.5q0 4 0.5 13t1.5 16h-78l-16 143h390l17 -143h-131q-4 -4 -5.5 -15t-1.5 -18q0 -20 15.5 -34t50.5 -14h62l25 -141h-91q-33 0 -49 -18t-16 -41
q0 -24 21 -40.5t53 -16.5q10 0 22 1.5t23 4.5z" />
    <glyph glyph-name="dv_TR.half" horiz-adv-x="255" 
d="M266 537h-261l-16 143h260zM390 164l-221 -137l-95 131l225 136q-25 18 -47 26t-41 8q-8 0 -42 -11t-74 -30l-66 147q39 19 96.5 34t76.5 15q60 0 91.5 -10t73.5 -32q1 -3 12 -140z" />
    <glyph glyph-name="dv_DhR.half" horiz-adv-x="388" 
d="M500 285v-194l-270 -183l-109 129l43 28q-54 23 -87 69t-33 119q0 35 19.5 76.5t47.5 60.5q-27 23 -42 56t-15 65q0 74 50.5 128t136.5 54q49 0 87.5 -16.5t58.5 -36.5l-85 -115q-11 4 -19 6t-19 2q-14 0 -23.5 -9t-9.5 -20q0 -20 15.5 -34t50.5 -14h62l25 -141h-91
q-33 0 -49 -18t-16 -41q0 -24 23 -43.5t66 -19.5q14 0 30.5 3.5t32.5 9.5z" />
    <glyph glyph-name="dv_PR.half" horiz-adv-x="348" 
d="M458 326v-182h4l-275 -223l-122 109l152 113q-57 26 -95 78.5t-38 131.5v184h-79l-16 143h353l17 -143h-104v-155q0 -63 26.5 -90t75.5 -27q42 0 66.5 20t34.5 41z" />
    <glyph glyph-name="dv_VR.half" horiz-adv-x="582" 
d="M593 537h-588l-16 143h587zM37 270q0 95 70.5 157.5t189.5 62.5q124 0 192 -62.5t68 -157.5q0 -81 -50 -139t-140 -75l-236 -137l-112 116l109 62q-43 30 -67 74.5t-24 98.5zM222 270q0 -32 20 -55t55 -23q40 0 57.5 23t17.5 55t-17.5 55t-57.5 23q-37 0 -56 -23t-19 -55
z" />
    <glyph glyph-name="dv_ShR.half" horiz-adv-x="362" 
d="M492 356v-159l-314 -216l-58 156l213 146l-72 47l-177 -115l-60 148l119 78q-14 20 -23 45t-9 62q0 60 42.5 105.5t110.5 45.5t110.5 -42.5t42.5 -108.5q0 -27 -7.5 -55.5t-24.5 -50.5z" />
    <glyph glyph-name="dv_SsR.half" horiz-adv-x="348" 
d="M359 537h-43l159 -226l-17 -26v-141h4l-275 -223l-122 109l152 113q-57 26 -95 78.5t-38 131.5v184h-79l-16 143h353zM255 382q0 -63 26.5 -90t75.5 -27q18 0 33 4.5t27 11.5l-162 229v-128z" />
    <glyph glyph-name="dv_SR.half" horiz-adv-x="507" 
d="M681 199l-252 -191l-156 -41l-142 248q-6 0 -11 0.5t-11 0.5q-29 0 -49.5 14.5t-25.5 39.5q0 60 43 108t97 48q16 0 30 -13t23 -30q15 11 22.5 35.5t7.5 41.5q0 22 -7.5 44.5t-23.5 32.5h-221l-16 143h512l17 -143h-97q7 -21 10 -43.5t3 -39.5q0 -20 -3 -39.5t-10 -38.5
h259l17 -129h-62zM309 247l-20 -10l60 -99l147 109h-187z" />
    <glyph glyph-name="dv_GR.half" horiz-adv-x="414" 
d="M327 537v-280q0 -48 -22.5 -74.5t-73.5 -26.5q-62 0 -121 49.5t-59 123.5q0 49 27.5 68.5t66.5 19.5v120h-140l-16 143h419l17 -143h-98zM512 285v-194l-270 -183l-109 129z" />
    <glyph glyph-name="dv_DR.half" horiz-adv-x="651" 
d="M620 -1l-156 -58l-59 107l-88 -152l-169 41l78 128q-76 22 -121 79t-45 146q0 101 79 161.5t188 60.5v25h-322l-16 143h656l17 -143h-144v-163h-165q-59 0 -96.5 -21.5t-37.5 -65.5q0 -43 35 -70t88 -27q4 40 30.5 64t63.5 24q53 0 97.5 -28.5t44.5 -74.5q0 -16 -7.5 -30
t-19.5 -30q10 -17 24 -40.5t45 -75.5zM537 -383l-238 205l120 109l224 -220z" />
    <glyph glyph-name="dv_BhR.half" horiz-adv-x="462" 
d="M571 336v-100l74 -91l-280 -253l-128 104l228 197h-78q0 -39 -23.5 -61t-59.5 -22q-74 0 -126 45t-52 107q0 28 20.5 50t57.5 24v70h-7q-66 0 -107.5 40t-41.5 109q0 63 44.5 103t110.5 40q80 0 126.5 -48t46.5 -139v-175h195z" />
    <glyph glyph-name="dv_ChRYa" horiz-adv-x="1476" 
d="M1192 537h-890q-16 -8 -21 -23t-5 -24q0 -26 18.5 -47t64.5 -21h30l17 -143h-42q-57 0 -79 -18t-22 -49q0 -30 32 -47t78 -17q56 0 109.5 23.5t78.5 63.5q-48 4 -79.5 41.5t-31.5 91.5q0 64 48 107t124 43q26 0 48 -6.5t39 -17.5h215q80 0 116.5 -34t36.5 -78
q0 -40 -16 -65.5t-39 -41.5q10 -10 26 -18t40 -8q38 0 68 17.5t36 42.5v228zM261 -207l-126 80l134 122q-91 19 -142.5 75t-51.5 137q0 43 19.5 82t54.5 62q-28 28 -44.5 67t-16.5 73q0 10 1.5 21.5t4.5 24.5h-89l-16 143h1481l17 -143h-113v-553l-182 16v123
q-24 -15 -52 -19t-60 -4q-92 0 -167.5 63t-75.5 151l33 37h-91q0 -3 0.5 -6t0.5 -5q0 -113 -89.5 -214t-229.5 -131l133 -122l-117 -80l-108 97q-24 -22 -55.5 -50t-52.5 -47z" />
    <glyph glyph-name="dv_TtTtYa" horiz-adv-x="1181" 
d="M897 537h-426v-52h158q80 0 116.5 -34t36.5 -78q0 -40 -16 -65.5t-39 -41.5q10 -10 26 -18t40 -8q38 0 68 17.5t36 42.5v237zM897 0v114q-24 -15 -52 -19t-60 -4q-92 0 -167.5 63t-75.5 151l33 37h-259q-44 0 -63 -18.5t-19 -41.5q0 -28 23.5 -46t60.5 -18t80.5 12
t84.5 34l34 -142q-10 -6 -21.5 -12t-24.5 -10v-223h-155q-44 0 -63 -18.5t-19 -41.5q0 -28 23.5 -46t60.5 -18t80.5 12t84.5 34l34 -142q-35 -21 -93.5 -36.5t-115.5 -15.5q-113 0 -186.5 55t-73.5 163q0 95 66.5 145t169.5 56v46q-104 6 -170 61t-66 157q0 95 66.5 145
t169.5 56v48h-279l-16 143h1186l17 -143h-113v-553z" />
    <glyph glyph-name="dv_TthTthYa" horiz-adv-x="1251" 
d="M393 537v-52q23 -5 44 -14t39 -21h223q80 0 116.5 -34t36.5 -78q0 -40 -16 -65.5t-39 -41.5q10 -10 26 -18t40 -8q38 0 68 17.5t36 42.5v272h-574zM230 277q0 -25 20.5 -47t53.5 -22t53.5 22t20.5 47t-20.5 47t-53.5 22t-53.5 -22t-20.5 -47zM967 0v79q-24 -15 -52 -19
t-60 -4q-92 0 -167.5 63t-75.5 151l33 37h-83q1 -7 1.5 -15t0.5 -15q0 -86 -47 -138.5t-124 -70.5v-37q77 -18 124 -70t47 -138q0 -108 -73.5 -163t-186.5 -55t-186.5 55t-73.5 163q0 83 44.5 135t117.5 71v42q-73 19 -117.5 71t-44.5 135t44.5 135t117.5 71v54h-201
l-16 143h1256l17 -143h-113v-553zM230 -177q0 -25 20.5 -47t53.5 -22t53.5 22t20.5 47t-20.5 47t-53.5 22t-53.5 -22t-20.5 -47z" />
    <glyph glyph-name="dv_DdDdYa" horiz-adv-x="1109" 
d="M825 537h-421v-20h153q80 0 116.5 -30.5t36.5 -74.5q0 -40 -16 -65.5t-39 -41.5q10 -10 26 -18t40 -8q38 0 68 17.5t36 42.5v198zM70 -209q38 -21 86 -35t83 -14q19 0 29.5 4t10.5 12q0 4 -3 6.5t-9 2.5h-63q-60 0 -109.5 39t-49.5 105q0 71 45.5 107t111.5 36h55v13h-13
q-49 0 -104 12t-101 34l31 141q38 -21 86 -35t83 -14q19 0 29.5 4t10.5 12q0 4 -3 6.5t-9 2.5h-63q-60 0 -109.5 39t-49.5 105q0 71 45.5 107t111.5 36h55v20h-252l-16 143h1114l17 -143h-113v-553l-182 16v153q-24 -15 -52 -19t-60 -4q-92 0 -167.5 63t-75.5 151l33 37
h-289q-4 0 -7 -2t-3 -6t3.5 -6t7.5 -2h48q81 0 133.5 -30.5t52.5 -111.5q0 -29 -11.5 -55.5t-33.5 -47.5v-202h-190q-4 0 -7 -2t-3 -6t3.5 -6t7.5 -2h48q81 0 133.5 -30.5t52.5 -111.5q0 -62 -52.5 -109t-152.5 -47q-49 0 -104 12t-101 34z" />
    <glyph glyph-name="dv_DdhDdhYa" horiz-adv-x="1221" 
d="M937 537h-466v-39h198q80 0 116.5 -34t36.5 -78q0 -40 -16 -65.5t-39 -41.5q10 -10 26 -18t40 -8q38 0 68 17.5t36 42.5v224zM535 -253q0 -60 -53 -101t-151 -41q-120 0 -201.5 58.5t-81.5 166.5q0 95 66.5 152t169.5 63v19q-102 11 -169 68t-67 155q0 95 66.5 152
t169.5 63v35h-279l-16 143h1226l17 -143h-113v-553l-182 16v127q-24 -15 -52 -19t-60 -4q-92 0 -167.5 63t-75.5 151l33 37h-299q-44 0 -63 -22t-19 -52q0 -22 15 -40t40 -26q5 45 40 75t81 30q54 0 89.5 -31t35.5 -85q0 -33 -16.5 -61.5t-47.5 -47.5v-197h-155
q-44 0 -63 -22t-19 -52q0 -22 15 -40t40 -26q5 45 40 75t81 30q54 0 89.5 -31t35.5 -85z" />
    <glyph glyph-name="dv_DdhRYa" horiz-adv-x="1291" 
d="M570 537v-35h169q80 0 116.5 -34t36.5 -78q0 -40 -16 -65.5t-39 -41.5q10 -10 26 -18t40 -8q38 0 68 17.5t36 42.5v220h-437zM273 -207l-126 80l129 117q-89 17 -155.5 76.5t-66.5 183.5q0 128 98.5 188t235.5 60v39h-383l-16 143h1296l17 -143h-113v-553l-182 16v131
q-24 -15 -52 -19t-60 -4q-92 0 -167.5 63t-75.5 151l33 36h-297q-72 0 -110.5 -31t-38.5 -88q0 -40 26 -76t89 -39q-4 10 -6 24.5t-2 21.5q0 60 40.5 97t102.5 37q60 0 99 -41.5t39 -103.5q0 -57 -39.5 -102t-112.5 -64l131 -120l-117 -80l-108 97q-24 -22 -55.5 -50
t-52.5 -47z" />
    <glyph glyph-name="dv_DGRa" horiz-adv-x="651" 
d="M620 -1l-144 -50l-33 80l-39 -123l-151 25l40 120q-13 1 -26.5 4t-25.5 6v-148q0 -38 -17.5 -59.5t-57.5 -21.5q-50 0 -97 39.5t-47 97.5q0 39 22 54.5t53 15.5v116q-18 27 -27.5 61t-9.5 74q0 101 79 161.5t188 60.5v25h-322l-16 143h656l17 -143h-144v-163h-165
q-59 0 -96.5 -21.5t-37.5 -65.5q0 -43 35 -70t88 -27q4 40 30.5 64t63.5 24q53 0 97.5 -28.5t44.5 -74.5q0 -16 -7.5 -30t-19.5 -30q10 -17 24 -40.5t45 -75.5z" />
    <glyph glyph-name="dv_DDYa" horiz-adv-x="1176" 
d="M482 537v-22h142q80 0 116.5 -29t36.5 -73q0 -40 -16 -65.5t-39 -41.5q10 -10 26 -18t40 -8q38 0 68 17.5t36 42.5v197h-410zM892 0v154q-24 -15 -52 -19t-60 -4q-92 0 -167.5 63t-75.5 151l33 37h-298q-15 0 -20.5 -7.5t-5.5 -14.5q0 -4 6 -11.5t14 -7.5q9 0 19 2.5
t27 2.5h134l18 -134h-146q-38 0 -57.5 -9.5t-19.5 -28.5q0 -18 21 -29t61 -11h9q8 27 30.5 43t56.5 16q43 0 84.5 -29.5t41.5 -76.5q0 -16 -6 -33t-16 -32l54 -117l-150 -56l-59 138l-32 -2t-31 -1q-80 0 -165 39.5t-85 145.5q0 37 10.5 59t35.5 46q-17 19 -27 44.5
t-10 48.5q0 72 54.5 110.5t125.5 38.5h56v21h-295l-16 143h1181l17 -143h-113v-553z" />
    <glyph glyph-name="dv_DBRa" horiz-adv-x="651" 
d="M350 49l58 -60q5 7 9 15t5 15l-19 34q-14 -2 -28 -3t-25 -1zM275 24q0 -25 16 -46t50 -21q6 0 12 1t11 2l-85 87q-2 -6 -3 -12t-1 -11zM673 -88l-156 -58l-19 34q-13 -13 -33.5 -27.5t-45.5 -24.5l-89 -125l-158 63l56 71q-51 27 -79.5 76t-28.5 106q0 21 6.5 43.5
t16.5 35.5q-40 31 -61.5 77t-21.5 107q0 101 79 161.5t188 60.5v25h-322l-16 143h656l17 -143h-144v-163h-165q-59 0 -96.5 -21.5t-37.5 -65.5q0 -43 35 -70t88 -27q4 40 30.5 64t63.5 24q53 0 97.5 -28.5t44.5 -74.5q0 -16 -7.5 -30t-19.5 -30q10 -17 50.5 -84t71.5 -119z
" />
    <glyph glyph-name="dv_DRYa" horiz-adv-x="877" 
d="M318 208q-38 0 -57.5 -7.5t-19.5 -26.5t33.5 -28.5t86.5 -9.5q12 0 26 1.5t28 3.5l178 157v239h-111v-155h-210q-15 0 -20.5 -7.5t-5.5 -14.5q0 -4 6 -11.5t14 -7.5q9 0 19 0.5t27 0.5h138l18 -134h-150zM775 -16l-182 16v104l-305 -269l-97 109l52 46q-87 16 -137.5 60
t-50.5 119q0 37 10.5 59t35.5 46q-17 19 -27 44.5t-10 48.5q0 72 54.5 110.5t125.5 38.5h56v21h-295l-16 143h882l17 -143h-113v-553z" />
    <glyph glyph-name="dv_DVYa" horiz-adv-x="1236" 
d="M518 537v-30h166q80 0 116.5 -29t36.5 -73q0 -40 -16 -65.5t-39 -41.5q10 -10 26 -18t40 -8q38 0 68 17.5t36 42.5v205h-434zM297 23q0 -25 19 -39.5t37 -15.5q32 0 50 14t22 32l-22 39q-16 -2 -32.5 -3t-28.5 -1h-19.5t-18.5 1q-3 -6 -5 -13t-2 -14zM673 -88l-156 -58
l-19 33q-25 -16 -60.5 -31.5t-89.5 -15.5q-97 0 -151.5 52.5t-54.5 135.5q0 18 4.5 36.5t10.5 31.5q-46 30 -71.5 79t-25.5 115q0 101 79 161.5t188 60.5v25h-322l-16 143h1241l17 -143h-113v-553l-182 16v146q-24 -15 -52 -19t-60 -4q-92 0 -167.5 63t-75.5 151l33 37h-277
q-59 0 -96.5 -21.5t-37.5 -65.5q0 -43 35 -70t88 -27q4 40 30.5 64t63.5 24q53 0 97.5 -28.5t44.5 -74.5q0 -16 -7.5 -30t-19.5 -30q10 -17 50.5 -84t71.5 -119z" />
    <glyph glyph-name="dv_DVRa" horiz-adv-x="651" 
d="M297 23q0 -25 19 -39.5t37 -15.5q32 0 50 14t22 32l-22 39q-16 -2 -32.5 -3t-28.5 -1h-19.5t-18.5 1q-3 -6 -5 -13t-2 -14zM673 -88l-156 -58l-19 33q-13 -9 -30.5 -18.5t-39.5 -16.5l-84 -118l-158 63l52 66q-46 23 -71 66t-25 99q0 18 4.5 36.5t10.5 31.5
q-46 30 -71.5 79t-25.5 115q0 101 79 161.5t188 60.5v25h-322l-16 143h656l17 -143h-144v-163h-165q-59 0 -96.5 -21.5t-37.5 -65.5q0 -43 35 -70t88 -27q4 40 30.5 64t63.5 24q53 0 97.5 -28.5t44.5 -74.5q0 -16 -7.5 -30t-19.5 -30q10 -17 50.5 -84t71.5 -119z" />
    <glyph glyph-name="dv_DhNYa" horiz-adv-x="1143" 
d="M672 324q13 -14 33 -26.5t52 -12.5q36 0 65 15.5t37 38.5v198h-135q5 -16 9 -39.5t4 -36.5q0 -43 -14.5 -76t-50.5 -61zM859 0v158q-26 -14 -65 -18t-71 -4q-36 0 -70.5 9.5t-64.5 27.5l-251 -169q11 -16 19 -34t8 -36q0 -17 -9 -33t-28 -29q-22 -16 -47.5 -23.5
t-50.5 -7.5q-44 0 -84 19.5t-62 51.5q-6 9 -9.5 19.5t-3.5 20.5q0 18 10 36.5t32 33.5l59 41q-57 22 -92 68.5t-35 121.5q0 35 19.5 76.5t47.5 60.5q-27 23 -42 56t-15 65q0 74 50.5 128t136.5 54q49 0 87.5 -16.5t58.5 -36.5l-85 -115q-11 4 -19 6t-19 2q-14 0 -23.5 -9
t-9.5 -20q0 -20 15.5 -34t50.5 -14h62l25 -141h-91q-33 0 -49 -18t-16 -41q0 -24 23 -43.5t66 -19.5q15 0 32 3.5t33 10.5l109 75q-6 16 -9 33t-3 34l33 36q17 7 31.5 29t14.5 53q0 16 -10 39t-23 31h-86l-16 143h714l17 -143h-113v-553z" />
    <glyph glyph-name="dv_NNYa" horiz-adv-x="1063" 
d="M592 324q13 -14 33 -26.5t52 -12.5q36 0 65 15.5t37 38.5v198h-135q5 -16 9 -39.5t4 -36.5q0 -43 -14.5 -76t-50.5 -61zM779 0v158q-26 -14 -65 -18t-71 -4q-44 0 -85 14.5t-74 39.5l-137 -81q10 -16 16.5 -33.5t6.5 -33.5q0 -18 -9 -34.5t-31 -29.5q-21 -13 -43.5 -19
t-45.5 -6q-46 0 -88.5 22t-64.5 57q-5 8 -7.5 17.5t-2.5 19.5q0 19 11 38t35 33l272 167l-116 28q-7 -33 -26.5 -58.5t-54.5 -25.5q-5 0 -11 1t-13 2q-63 15 -100 68.5t-37 108.5q0 8 1 16.5t3 16.5q6 24 26 39t49 15q7 0 13.5 -1t13.5 -2l329 -81q2 7 3.5 15.5t1.5 17.5
q0 16 -10 39t-23 31h-440l-16 143h1068l17 -143h-113v-553z" />
    <glyph glyph-name="dv_PTthYa" horiz-adv-x="1272" 
d="M256 469q0 -51 21 -76.5t52 -25.5t47 25.5t16 76.5v68h-136v-68zM988 537h-425v-43h157q80 0 116.5 -34t36.5 -78q0 -40 -16 -65.5t-39 -41.5q10 -10 26 -18t40 -8q38 0 68 17.5t36 42.5v228zM988 0v123q-24 -15 -52 -19t-60 -4q-92 0 -167.5 63t-75.5 151l33 37h-116
q-6 -16 -14.5 -29.5t-18.5 -24.5q25 -26 40.5 -66.5t15.5 -74.5q0 -91 -62 -153t-190 -62q-124 0 -185 62t-61 153q0 34 15.5 74.5t40.5 66.5q-21 23 -33.5 54.5t-12.5 70.5v115h-80l-16 143h1277l17 -143h-113v-553zM347 220q-6 -1 -11.5 -1h-11.5h-12t-12 1
q-22 -9 -35.5 -27t-13.5 -37q0 -29 19.5 -49.5t54.5 -20.5q32 0 52 20.5t20 49.5q0 19 -14 37t-36 27z" />
    <glyph glyph-name="dv_BhRYa" horiz-adv-x="1171" 
d="M700 324q13 -14 33 -26.5t52 -12.5q36 0 65 15.5t37 38.5v198h-135q5 -16 9 -39.5t4 -36.5q0 -43 -14.5 -76t-50.5 -61zM887 0v158q-26 -14 -65 -18t-71 -4q-25 0 -48.5 4.5t-45.5 12.5l-292 -261l-128 104l228 197h-78q0 -39 -23.5 -61t-59.5 -22q-74 0 -126 45t-52 107
q0 28 20.5 50t57.5 24v70h-7q-66 0 -107.5 40t-41.5 109q0 63 44.5 103t110.5 40q80 0 126.5 -48t46.5 -139v-175h131v13l33 36q17 7 31.5 29t14.5 53q0 16 -10 39t-23 31h-86l-16 143h714l17 -143h-113v-553z" />
    <glyph glyph-name="dv_ShRYa" horiz-adv-x="1116" 
d="M498 537h-81q-1 -25 -9 -50t-23 -45l87 -71l13 14q17 7 31.5 29t14.5 53q0 16 -10 39t-23 31zM645 324q13 -14 33 -26.5t52 -12.5q36 0 65 15.5t37 38.5v198h-135q5 -16 9 -39.5t4 -36.5q0 -43 -14.5 -76t-50.5 -61zM832 0v158q-26 -14 -65 -18t-71 -4q-52 0 -100.5 20
t-82.5 54l-335 -229l-58 156l213 146l-72 47l-177 -115l-60 148l119 78q-14 20 -23 45t-9 62q0 60 42.5 105.5t110.5 45.5q22 0 42.5 -5t36.5 -14h767l17 -143h-113v-553z" />
    <glyph glyph-name="dv_SsTtYa" horiz-adv-x="1164" 
d="M310 537l80 -96q1 6 1.5 13.5t0.5 14.5v68h-82zM988 537h-425v-43h157q80 0 116.5 -34t36.5 -78q0 -40 -16 -65.5t-39 -41.5q10 -10 26 -18t40 -8q38 0 68 17.5t36 42.5v228zM256 469q0 -51 21 -76.5t52 -25.5q8 0 15.5 1.5t14.5 5.5l-103 125v-30zM550 351
q-26 -67 -92.5 -99.5t-133.5 -32.5h-14.5t-14.5 1q-20 -9 -32 -26t-12 -35q0 -35 32 -53.5t65 -18.5q46 0 82 15t73 34l5 3l32 -143q-33 -23 -82 -37.5t-124 -14.5q-128 0 -193.5 60t-65.5 155q0 33 15 73t39 66q-20 24 -32 55t-12 69v115h-80l-16 143h1277l17 -143h-113
v-553l-182 16v123q-24 -15 -52 -19t-60 -4q-92 0 -167.5 63t-75.5 151l33 37h-116z" />
    <glyph glyph-name="dv_SsTtVa" horiz-adv-x="625" 
d="M310 537l80 -96q1 6 1.5 13.5t0.5 14.5v68h-82zM256 469q0 -51 21 -76.5t52 -25.5q8 0 15.5 1.5t14.5 5.5l-103 125v-30zM563 422q0 -104 -78 -153.5t-161 -49.5h-14.5t-14.5 1q-20 -9 -32 -26t-12 -35q0 -35 32 -58t65 -23q46 0 82 15t73 34l5 3l32 -143l-20 -12v-343
l-174 20v34q-16 -4 -35 -6t-33 -2q-81 0 -143.5 55.5t-63.5 150.5q0 40 12.5 76t34.5 64q-22 28 -32.5 62t-10.5 73q0 33 15 73t39 66q-20 24 -32 55t-12 69v115h-80l-16 143h630l17 -143h-73v-115zM346 -65h-12q-17 0 -33 1.5t-31 3.5q-11 -10 -18.5 -24.5t-7.5 -31.5
q0 -26 18.5 -37.5t33.5 -11.5q14 0 28.5 6.5t21.5 14.5v79z" />
    <glyph glyph-name="dv_SsTthYa" horiz-adv-x="1272" 
d="M310 537l80 -96q1 6 1.5 13.5t0.5 14.5v68h-82zM988 537h-425v-43h157q80 0 116.5 -34t36.5 -78q0 -40 -16 -65.5t-39 -41.5q10 -10 26 -18t40 -8q38 0 68 17.5t36 42.5v228zM256 469q0 -51 21 -76.5t52 -25.5q8 0 15.5 1.5t14.5 5.5l-103 125v-30zM988 0v123
q-24 -15 -52 -19t-60 -4q-92 0 -167.5 63t-75.5 151l33 37h-116q-6 -16 -14.5 -29.5t-18.5 -24.5q25 -26 40.5 -66.5t15.5 -74.5q0 -91 -62 -153t-190 -62q-124 0 -185 62t-61 153q0 34 15.5 74.5t40.5 66.5q-21 23 -33.5 54.5t-12.5 70.5v115h-80l-16 143h1277l17 -143
h-113v-553zM347 220q-6 -1 -11.5 -1h-11.5h-12t-12 1q-22 -9 -35.5 -27t-13.5 -37q0 -29 19.5 -49.5t54.5 -20.5q32 0 52 20.5t20 49.5q0 19 -14 37t-36 27z" />
    <glyph glyph-name="dv_HMYa" horiz-adv-x="1620" 
d="M257 372v-10q10 1 21 2.5t22 1.5h344v171h-151v-145h-210q-15 0 -20.5 -6.5t-5.5 -13.5zM1149 324q13 -14 33 -26.5t52 -12.5q36 0 65 15.5t37 38.5v198h-135q5 -16 9 -39.5t4 -36.5q0 -43 -14.5 -76t-50.5 -61zM989 385q17 7 31.5 29t14.5 53q0 16 -10 39t-23 31h-187
v-217h143q-1 7 -1.5 14.5t-0.5 14.5zM1336 0v158q-26 -14 -65 -18t-71 -4q-38 0 -74 11t-67 30h-244q0 -39 -17 -71.5t-66 -32.5q-68 0 -117.5 47t-58.5 104h-254q-25 0 -43.5 -13t-18.5 -32q0 -42 55.5 -47t101.5 -9l-34 -142q-130 4 -213 49t-83 154q0 28 9.5 56t27.5 50
q-14 17 -21.5 39t-7.5 48q0 72 54.5 110.5t125.5 38.5h56v11h-306l-16 143h1625l17 -143h-113v-553z" />
    <glyph glyph-name="dv_NgYa" horiz-adv-x="1406" 
d="M479 537v-29h375q80 0 116.5 -34t36.5 -78q0 -40 -16 -65.5t-39 -41.5q10 -10 26 -18t40 -8q38 0 68 17.5t36 42.5v214h-643zM650 158q-37 0 -63.5 26.5t-26.5 63.5t26.5 64t63.5 27t64 -27t27 -64t-27 -63.5t-64 -26.5zM1122 0v137q-24 -15 -52 -19t-60 -4
q-92 0 -167.5 63t-75.5 151l33 37h-543q-12 0 -18.5 -4.5t-6.5 -11.5t7 -13.5t19 -6.5h59q94 0 156 -35.5t62 -128.5q0 -72 -62 -126.5t-179 -54.5q-60 0 -125 14t-114 38l32 147q41 -23 97.5 -38t101.5 -15q30 0 47 8.5t17 23.5q0 10 -7.5 17t-19.5 7h-79q-69 0 -126.5 43
t-57.5 120q0 81 52.5 120.5t129.5 39.5h80v28h-317l-16 143h1411l17 -143h-113v-553z" />
    <glyph glyph-name="dv_TtTta" horiz-adv-x="584" 
d="M595 537h-124v-195h-155q-44 0 -63 -18.5t-19 -41.5q0 -28 23.5 -46t60.5 -18t80.5 12t84.5 34l34 -142q-10 -6 -21.5 -12t-24.5 -10v-223h-155q-44 0 -63 -18.5t-19 -41.5q0 -28 23.5 -46t60.5 -18t80.5 12t84.5 34l34 -142q-35 -21 -93.5 -36.5t-115.5 -15.5
q-113 0 -186.5 55t-73.5 163q0 95 66.5 145t169.5 56v46q-104 6 -170 61t-66 157q0 95 66.5 145t169.5 56v48h-279l-16 143h589z" />
    <glyph glyph-name="dv_TtTtha" horiz-adv-x="584" 
d="M595 537h-124v-195h-155q-44 0 -63 -18.5t-19 -41.5q0 -28 23.5 -46t60.5 -18t80.5 12t84.5 34l34 -142q-22 -13 -53.5 -24.5t-66.5 -18.5v-48q77 -18 124 -70t47 -138q0 -108 -73.5 -163t-186.5 -55t-186.5 55t-73.5 163q0 83 44.5 135t117.5 71v53q-73 19 -117.5 71
t-44.5 135q0 95 66.5 145t169.5 56v48h-279l-16 143h589zM234 -177q0 -25 20.5 -47t53.5 -22t53.5 22t20.5 47t-20.5 47t-53.5 22t-53.5 -22t-20.5 -47z" />
    <glyph glyph-name="dv_TtDdha" horiz-adv-x="584" 
d="M595 537h-124v-195h-155q-44 0 -63 -18.5t-19 -41.5q0 -28 23.5 -46t60.5 -18t80.5 12t84.5 34l34 -142q-10 -6 -21.5 -12t-24.5 -10v-202h-155q-44 0 -63 -22t-19 -52q0 -22 15 -40t40 -26q5 45 40 75t81 30q54 0 89.5 -31t35.5 -85q0 -60 -53 -101t-151 -41
q-120 0 -201.5 58.5t-81.5 166.5q0 95 66.5 152t169.5 63v25q-104 6 -170 61t-66 157q0 95 66.5 145t169.5 56v48h-279l-16 143h589z" />
    <glyph glyph-name="dv_TtYa" horiz-adv-x="1304" 
d="M1020 0v100q-24 -15 -52 -19t-60 -4q-92 0 -167.5 63t-75.5 151l33 37h-299q-69 0 -109 -25.5t-40 -74.5q0 -60 48 -80.5t104 -20.5t107.5 14.5t92.5 37.5l32 -143q-36 -21 -103.5 -36.5t-142.5 -15.5q-138 0 -232.5 58.5t-94.5 187.5q0 117 96.5 177.5t235.5 60.5v69
h-388l-16 143h1309l17 -143h-113v-553zM575 537v-66h177q80 0 116.5 -34t36.5 -78q0 -40 -16 -65.5t-39 -41.5q10 -10 26 -18t40 -8q38 0 68 17.5t36 42.5v251h-445z" />
    <glyph glyph-name="dv_TtVa" horiz-adv-x="697" 
d="M602 179l32 -143q-9 -5 -20 -10.5t-24 -9.5v-377l-182 21v44q-12 -7 -35 -11.5t-43 -4.5q-88 0 -163.5 57t-75.5 167q0 39 12.5 76t35.5 65q-37 30 -57.5 74t-20.5 103q0 117 96.5 177.5t235.5 60.5v69h-388l-16 143h702l17 -143h-133v-209h-176q-69 0 -109 -25.5
t-40 -74.5q0 -60 48 -80.5t104 -20.5t107.5 14.5t92.5 37.5zM408 -16h-20q-19 0 -36.5 1.5t-34.5 2.5q-14 -9 -26 -26.5t-12 -41.5q0 -34 23.5 -48t47.5 -14q15 0 33 7t25 16v103z" />
    <glyph glyph-name="dv_TthTtha" horiz-adv-x="594" 
d="M605 537h-212v-52q77 -18 124 -70.5t47 -137.5q0 -86 -47 -138.5t-124 -70.5v-37q77 -18 124 -70t47 -138q0 -108 -73.5 -163t-186.5 -55t-186.5 55t-73.5 163q0 83 44.5 135t117.5 71v42q-73 19 -117.5 71t-44.5 135t44.5 135t117.5 71v54h-201l-16 143h599zM230 277
q0 -25 20.5 -47t53.5 -22t53.5 22t20.5 47t-20.5 47t-53.5 22t-53.5 -22t-20.5 -47zM230 -177q0 -25 20.5 -47t53.5 -22t53.5 22t20.5 47t-20.5 47t-53.5 22t-53.5 -22t-20.5 -47z" />
    <glyph glyph-name="dv_TthYa" horiz-adv-x="1373" 
d="M462 537v-77q17 -3 33 -7t32 -9h294q80 0 116.5 -34t36.5 -78q0 -40 -16 -65.5t-39 -41.5q10 -10 26 -18t40 -8q38 0 68 17.5t36 42.5v278h-627zM368 123q54 0 86.5 27.5t32.5 75.5q0 46 -32 74t-86 28q-51 0 -85 -28.5t-34 -74.5q0 -49 32 -75.5t86 -26.5zM368 -17
q-118 0 -212.5 57t-94.5 190q0 101 61.5 157.5t157.5 72.5v77h-275l-16 143h1378l17 -143h-113v-553l-182 16v73q-24 -15 -52 -19t-60 -4q-92 0 -167.5 63t-75.5 151l33 37h-98q4 -16 6.5 -33.5t2.5 -36.5q0 -122 -91 -185t-219 -63z" />
    <glyph glyph-name="dv_DdTta" horiz-adv-x="492" 
d="M479 -343q-35 -21 -93.5 -36.5t-115.5 -15.5q-113 0 -186.5 55t-73.5 163q0 95 67.5 144.5t147.5 56.5v25q-46 2 -95.5 14.5t-90.5 31.5l31 141q38 -21 86 -35t83 -14q19 0 29.5 6.5t10.5 14.5q0 4 -3 9t-9 5h-63q-60 0 -109.5 39t-49.5 105q0 71 45.5 107t111.5 36h55
v28h-252l-16 143h497l17 -143h-99v-164h-190q-4 0 -7 -2t-3 -6t3.5 -6t7.5 -2h48q81 0 133.5 -35.5t52.5 -116.5q0 -24 -10 -46t-27 -41v-241h-134q-44 0 -63 -18.5t-19 -41.5q0 -28 23.5 -46t60.5 -18t80.5 12t84.5 34z" />
    <glyph glyph-name="dv_DdDda" horiz-adv-x="492" 
d="M70 -209q38 -21 86 -35t83 -14q19 0 29.5 4t10.5 12q0 4 -3 6.5t-9 2.5h-63q-60 0 -109.5 39t-49.5 105q0 71 45.5 107t111.5 36h55v13h-13q-49 0 -104 12t-101 34l31 141q38 -21 86 -35t83 -14q19 0 29.5 4t10.5 12q0 4 -3 6.5t-9 2.5h-63q-60 0 -109.5 39t-49.5 105
q0 71 45.5 107t111.5 36h55v20h-252l-16 143h497l17 -143h-99v-156h-190q-4 0 -7 -2t-3 -6t3.5 -6t7.5 -2h48q81 0 133.5 -30.5t52.5 -111.5q0 -29 -11.5 -55.5t-33.5 -47.5v-202h-190q-4 0 -7 -2t-3 -6t3.5 -6t7.5 -2h48q81 0 133.5 -30.5t52.5 -111.5q0 -62 -52.5 -109
t-152.5 -47q-49 0 -104 12t-101 34z" />
    <glyph glyph-name="dv_DdDdha" horiz-adv-x="492" 
d="M496 -253q0 -60 -53 -101t-151 -41q-120 0 -201.5 55t-81.5 163q0 95 56.5 152t159.5 70v4q-46 2 -95.5 14.5t-90.5 31.5l31 141q38 -21 86 -35t83 -14q19 0 29.5 6.5t10.5 14.5q0 4 -3 9t-9 5h-63q-60 0 -109.5 39t-49.5 105q0 71 45.5 107t111.5 36h55v28h-252l-16 143
h497l17 -143h-99v-164h-190q-4 0 -7 -2t-3 -6t3.5 -6t7.5 -2h48q81 0 133.5 -35.5t52.5 -116.5q0 -24 -10 -46t-27 -41v-220h-135q-44 0 -63 -22t-19 -52q0 -22 15 -40t40 -26q5 45 40 75t81 30q54 0 89.5 -31t35.5 -85z" />
    <glyph glyph-name="dv_DdYa" horiz-adv-x="1205" 
d="M479 537v-29h174q80 0 116.5 -34t36.5 -78q0 -40 -16 -65.5t-39 -41.5q10 -10 26 -18t40 -8q38 0 68 17.5t36 42.5v214h-442zM921 0v137q-24 -15 -52 -19t-60 -4q-92 0 -167.5 63t-75.5 151l33 37h-342q-12 0 -18.5 -4.5t-6.5 -11.5t7 -13.5t19 -6.5h59q94 0 156 -35.5
t62 -128.5q0 -72 -62 -126.5t-179 -54.5q-60 0 -125 14t-114 38l32 147q41 -23 97.5 -38t101.5 -15q30 0 47 8.5t17 23.5q0 10 -7.5 17t-19.5 7h-79q-69 0 -126.5 43t-57.5 120q0 81 52.5 120.5t129.5 39.5h80v28h-317l-16 143h1210l17 -143h-113v-553z" />
    <glyph glyph-name="dv_DdhDdha" horiz-adv-x="584" 
d="M535 -253q0 -60 -53 -101t-151 -41q-120 0 -201.5 58.5t-81.5 166.5q0 95 66.5 152t169.5 63v19q-102 11 -169 68t-67 155q0 95 66.5 152t169.5 63v35h-279l-16 143h589l17 -143h-124v-182h-155q-44 0 -63 -22t-19 -52q0 -22 15 -40t40 -26q5 45 40 75t81 30
q54 0 89.5 -31t35.5 -85q0 -33 -16.5 -61.5t-47.5 -47.5v-197h-155q-44 0 -63 -22t-19 -52q0 -22 15 -40t40 -26q5 45 40 75t81 30q54 0 89.5 -31t35.5 -85z" />
    <glyph glyph-name="dv_DdhYa" horiz-adv-x="1291" 
d="M570 537v-35h169q80 0 116.5 -34t36.5 -78q0 -40 -16 -65.5t-39 -41.5q10 -10 26 -18t40 -8q38 0 68 17.5t36 42.5v220h-437zM1007 0v131q-24 -15 -52 -19t-60 -4q-92 0 -167.5 63t-75.5 151l33 36h-297q-72 0 -110.5 -31t-38.5 -88q0 -40 26 -76t89 -39q-4 10 -6 24.5
t-2 21.5q0 60 40.5 97t102.5 37q60 0 99 -41.5t39 -103.5q0 -73 -66 -125.5t-186 -52.5q-116 0 -218.5 56t-102.5 213q0 128 98.5 188t235.5 60v39h-383l-16 143h1296l17 -143h-113v-553z" />
    <glyph glyph-name="dv_DGa" horiz-adv-x="651" 
d="M620 -1l-156 -58l-61 112q-16 -2 -32.5 -3t-28.5 -1q-14 0 -28 1t-27 2v-152q0 -43 -19 -66.5t-65 -23.5q-55 0 -107.5 44t-52.5 109q0 43 24.5 60.5t59.5 17.5v78q-32 30 -49.5 73t-17.5 98q0 101 79 161.5t188 60.5v25h-322l-16 143h656l17 -143h-144v-163h-165
q-59 0 -96.5 -21.5t-37.5 -65.5q0 -43 35 -70t88 -27q4 40 30.5 64t63.5 24q53 0 97.5 -28.5t44.5 -74.5q0 -16 -7.5 -30t-19.5 -30q10 -17 24 -40.5t45 -75.5z" />
    <glyph glyph-name="dv_DDa" horiz-adv-x="580" 
d="M244 516h56v21h-295l-16 143h585l17 -143h-109v-155h-210q-15 0 -20.5 -7.5t-5.5 -14.5q0 -4 6 -11.5t14 -7.5q9 0 19 0.5t27 0.5h138l18 -134h-150q-38 0 -57.5 -7.5t-19.5 -26.5q0 -18 21 -29t61 -11h9q8 27 30.5 43t56.5 16q43 0 84.5 -29.5t41.5 -76.5q0 -16 -6 -33
t-16 -32l54 -117l-150 -56l-59 138l-32 -2t-31 -1q-80 0 -165 39.5t-85 145.5q0 37 10.5 59t35.5 46q-17 19 -27 44.5t-10 48.5q0 72 54.5 110.5t125.5 38.5z" />
    <glyph glyph-name="dv_DNa" horiz-adv-x="651" 
d="M620 -1l-156 -58l-61 111l-44 -53q22 -14 38.5 -34t16.5 -45q0 -11 -4 -23t-12 -24q-27 -39 -68 -57.5t-83 -18.5q-25 0 -49.5 6.5t-43.5 19.5q-14 10 -22 25t-8 33q0 13 4.5 27.5t14.5 27.5l95 125q-81 22 -129.5 79.5t-48.5 149.5q0 101 79 161.5t188 60.5v25h-322
l-16 143h656l17 -143h-144v-163h-165q-59 0 -96.5 -21.5t-37.5 -65.5q0 -43 35 -70t88 -27q4 40 30.5 64t63.5 24q53 0 97.5 -28.5t44.5 -74.5q0 -16 -7.5 -30t-19.5 -30q10 -17 24 -40.5t45 -75.5z" />
    <glyph glyph-name="dv_DBa" horiz-adv-x="651" 
d="M350 49l58 -60q5 7 9 15t5 15l-19 34q-14 -2 -28 -3t-25 -1zM275 24q0 -25 16 -46t50 -21q6 0 12 1t11 2l-85 87q-2 -6 -3 -12t-1 -11zM673 -88l-156 -58l-19 34q-22 -22 -64.5 -45t-97.5 -23q-99 0 -157.5 62t-58.5 145q0 21 6.5 43.5t16.5 35.5q-40 31 -61.5 77
t-21.5 107q0 101 79 161.5t188 60.5v25h-322l-16 143h656l17 -143h-144v-163h-165q-59 0 -96.5 -21.5t-37.5 -65.5q0 -43 35 -70t88 -27q4 40 30.5 64t63.5 24q53 0 97.5 -28.5t44.5 -74.5q0 -16 -7.5 -30t-19.5 -30q10 -17 50.5 -84t71.5 -119z" />
    <glyph glyph-name="dv_DMa" horiz-adv-x="920" 
d="M479 329v-165h157v373h-157v-172h-222q-12 0 -18.5 -4.5t-6.5 -11.5t7 -13.5t19 -6.5h221zM636 -39v60h-151q0 -45 -12.5 -65t-34.5 -20q-74 0 -144 39t-70 115q0 30 23 52t63 22h12v22h-78q-69 0 -126.5 43t-57.5 120q0 81 52.5 120.5t129.5 39.5h80v28h-317l-16 143
h925l17 -143h-113v-592z" />
    <glyph glyph-name="dv_DYa" horiz-adv-x="877" 
d="M318 208q-38 0 -57.5 -7.5t-19.5 -26.5t33.5 -28.5t86.5 -9.5q65 0 143.5 38.5t88.5 130.5v232h-111v-155h-210q-15 0 -20.5 -7.5t-5.5 -14.5q0 -4 6 -11.5t14 -7.5q9 0 19 0.5t27 0.5h138l18 -134h-150zM775 -16l-182 16v51q-29 -28 -103.5 -49t-135.5 -21
q-136 0 -217.5 46t-81.5 142q0 37 10.5 59t35.5 46q-17 19 -27 44.5t-10 48.5q0 72 54.5 110.5t125.5 38.5h56v21h-295l-16 143h882l17 -143h-113v-553z" />
    <glyph glyph-name="dv_DVa" horiz-adv-x="651" 
d="M297 23q0 -25 19 -39.5t37 -15.5q32 0 50 14t22 32l-22 39q-16 -2 -32.5 -3t-28.5 -1h-19.5t-18.5 1q-3 -6 -5 -13t-2 -14zM673 -88l-156 -58l-19 33q-25 -16 -60.5 -31.5t-89.5 -15.5q-97 0 -151.5 52.5t-54.5 135.5q0 18 4.5 36.5t10.5 31.5q-46 30 -71.5 79t-25.5 115
q0 101 79 161.5t188 60.5v25h-322l-16 143h656l17 -143h-144v-163h-165q-59 0 -96.5 -21.5t-37.5 -65.5q0 -43 35 -70t88 -27q4 40 30.5 64t63.5 24q53 0 97.5 -28.5t44.5 -74.5q0 -16 -7.5 -30t-19.5 -30q10 -17 50.5 -84t71.5 -119z" />
    <glyph glyph-name="dv_HMa" horiz-adv-x="1043" 
d="M257 372q12 1 24 2.5t24 1.5q28 0 57.5 -5t55.5 -14q4 0 8.5 0.5t8.5 0.5h324v179h-266v-145h-210q-15 0 -20.5 -4t-5.5 -11v-5zM759 0l2 215h-151q0 -39 -17 -71.5t-66 -32.5q-55 0 -99 32t-65 77q-10 5 -24.5 9.5t-31.5 4.5q-25 0 -46 -13t-21 -32q0 -40 51.5 -50.5
t97.5 -14.5q2 0 4 -0.5t4 -0.5l-34 -142q-130 4 -213 51.5t-83 156.5q0 28 10 53t28 47q-14 17 -22 39.5t-8 48.5q0 72 54.5 110.5t125.5 38.5h56v11h-306l-16 143h1048l17 -143h-113v-553z" />
    <glyph glyph-name="dv_HYa" horiz-adv-x="1201" 
d="M493 537v-11h156q80 0 116.5 -29.5t36.5 -73.5q0 -40 -16 -65.5t-39 -41.5q10 -10 26 -18t40 -8q38 0 68 17.5t36 42.5v187h-424zM917 0v164q-24 -15 -52 -19t-60 -4q-92 0 -167.5 63t-75.5 151l33 37h-312q-15 0 -20.5 -4t-5.5 -11v-5q10 1 21 2.5t22 1.5q88 0 159 -44
t71 -113q0 -40 -18.5 -68.5t-45.5 -42.5q-87 51 -101 61l-14 9q4 3 9 7.5t5 13t-14.5 22t-48.5 13.5q-25 0 -43.5 -13t-18.5 -32q0 -40 51.5 -50.5t97.5 -14.5q2 0 4 -0.5t4 -0.5l-34 -142q-130 4 -213 51.5t-83 156.5q0 28 9.5 53.5t27.5 47.5q-14 17 -21.5 39t-7.5 48
q0 72 54.5 110.5t125.5 38.5h56v11h-306l-16 143h1206l17 -143h-113v-553z" />
    <glyph glyph-name="dv_KSsMYa" horiz-adv-x="1522" 
d="M382 537q-1 -20 -5.5 -37t-13.5 -33q22 -7 46.5 -10t43.5 -3h93v83h-164zM1051 324q13 -14 33 -26.5t52 -12.5q36 0 65 15.5t37 38.5v198h-135q5 -16 9 -39.5t4 -36.5q0 -43 -14.5 -76t-50.5 -61zM891 385q17 7 31.5 29t14.5 53q0 16 -10 39t-23 31h-187v-217h143
q-1 7 -1.5 14.5t-0.5 14.5zM1238 0v158q-26 -14 -65 -18t-71 -4q-38 0 -74 11t-67 30h-244q0 -39 -17 -71.5t-66 -32.5q-74 0 -126 55.5t-52 117.5q0 16 7 31t20 25h-31q-50 0 -113.5 11.5t-106.5 36.5q-19 -17 -32 -47t-13 -43q0 -20 12 -36t29 -16h4q4 35 28.5 56.5
t63.5 21.5q43 0 84.5 -29.5t41.5 -76.5q0 -16 -6 -33t-16 -32l54 -117l-150 -56l-49 112q-13 -4 -29 -4.5t-26 -0.5q-88 0 -150 54.5t-62 155.5q0 49 29.5 103.5t65.5 84.5q-16 19 -25.5 43t-9.5 58q0 61 41 106t113 45q23 0 43.5 -5t37.5 -14h1205l17 -143h-113v-553z" />
    <glyph glyph-name="dv_KSPRa" horiz-adv-x="1938" 
d="M1110 537q7 -21 10 -43.5t3 -39.5q0 -20 -3 -39.5t-10 -38.5h170v161h-170zM1654 326v211h-203v-155q0 -63 26.5 -90t75.5 -27q42 0 66.5 20t34.5 41zM564 537v-159q7 7 41.5 17.5t67.5 10.5h125q15 9 31.5 14.5t33.5 5.5q16 0 30 -13t23 -30q15 11 22.5 35.5t7.5 41.5
q0 22 -7.5 44.5t-23.5 32.5h-351zM222 270q0 -32 21.5 -55t63.5 -23q32 0 50 17.5t25 28.5v64q-7 11 -25 28.5t-50 17.5q-42 0 -63.5 -23t-21.5 -55zM1654 0v140l-271 -219l-122 109l152 113q-35 16 -64 42t-46 62h-305l-20 -10l140 -229l-156 -41l-142 248q-6 0 -11 0.5
t-11 0.5q-28 0 -47.5 12.5t-26.5 34.5h-80q-32 0 -52.5 -17.5t-27.5 -28.5v-233l-182 16v73q-7 -7 -41.5 -15t-67.5 -8q-106 0 -171 62.5t-65 157.5t65 157.5t171 62.5q33 0 67.5 -8t41.5 -15v70h-377l-16 143h1943l17 -143h-113v-553z" />
    <glyph glyph-name="dv_KSPLa" horiz-adv-x="2447" 
d="M1110 537q7 -21 10 -43.5t3 -39.5q0 -20 -3 -39.5t-10 -38.5h170v161h-170zM1451 382q0 -58 23 -87.5t66 -29.5q20 0 36.5 7.5t27.5 20.5v4q0 80 64 133t165 53q51 0 90.5 -21.5t57.5 -46.5q19 25 51.5 46.5t85.5 21.5q11 0 21.5 -1.5t23.5 -5.5v61h-712v-155zM564 537
v-159q7 7 41.5 17.5t67.5 10.5h125q15 9 31.5 14.5t33.5 5.5q16 0 30 -13t23 -30q15 11 22.5 35.5t7.5 41.5q0 22 -7.5 44.5t-23.5 32.5h-351zM382 238v64q-7 11 -25 28.5t-50 17.5q-42 0 -63.5 -23t-21.5 -55t21.5 -55t63.5 -23q32 0 50 17.5t25 28.5zM1637 132
q-23 -7 -47.5 -11t-49.5 -4q-72 0 -138.5 32t-98.5 98h-305l-20 -10l140 -229l-156 -41l-142 248q-6 0 -11 0.5t-11 0.5q-28 0 -47.5 12.5t-26.5 34.5h-80q-32 0 -52.5 -17.5t-27.5 -28.5v-233l-182 16v73q-7 -7 -41.5 -15t-67.5 -8q-106 0 -171 62.5t-65 157.5t65 157.5
t171 62.5q33 0 67.5 -8t41.5 -15v70h-377l-16 143h2452l17 -143h-113v-553l-182 16v287q-6 21 -20 34.5t-30 13.5q-22 0 -36.5 -23t-14.5 -59v-130l-157 16v114q0 36 -14 58t-47 22q-25 0 -41 -15.5t-16 -34.5q0 -42 14.5 -88t77.5 -174l-168 -47q-24 47 -42.5 85.5
t-31.5 72.5z" />
    <glyph glyph-name="dv_KSPLa.MAR" horiz-adv-x="2407" 
d="M1280 537h-170q7 -21 10 -43.5t3 -39.5q0 -20 -3 -39.5t-10 -38.5h170v161zM1604 297q0 80 64 133t165 53q49 0 90 -23t60 -48q10 13 28.5 28t41.5 25v72h-602v-155q0 -58 23 -87.5t66 -29.5q20 0 36.5 7.5t27.5 20.5v4zM564 537v-159q7 7 41.5 17.5t67.5 10.5h125
q15 9 31.5 14.5t33.5 5.5q16 0 30 -13t23 -30q15 11 22.5 35.5t7.5 41.5q0 22 -7.5 44.5t-23.5 32.5h-351zM222 270q0 -32 21.5 -55t63.5 -23q32 0 50 17.5t25 28.5v64q-7 11 -25 28.5t-50 17.5q-42 0 -63.5 -23t-21.5 -55zM1637 132q-23 -7 -47.5 -11t-49.5 -4
q-72 0 -138.5 32t-98.5 98h-305l-20 -10l140 -229l-156 -41l-142 248q-6 0 -11 0.5t-11 0.5q-28 0 -47.5 12.5t-26.5 34.5h-80q-32 0 -52.5 -17.5t-27.5 -28.5v-233l-182 16v73q-7 -7 -41.5 -15t-67.5 -8q-106 0 -171 62.5t-65 157.5t65 157.5t171 62.5q33 0 67.5 -8
t41.5 -15v70h-377l-16 143h2412l17 -143h-203v-65q67 -19 107.5 -65.5t40.5 -109.5q0 -75 -26.5 -145.5t-80.5 -177.5l-168 47q63 128 77.5 174t14.5 88q0 19 -16 34.5t-41 15.5q-33 0 -47 -22t-14 -58v-130l-157 16v114q0 36 -14 58t-47 22q-25 0 -41 -15.5t-16 -34.5
q0 -42 14.5 -88t77.5 -174l-168 -47q-24 47 -42.5 85.5t-31.5 72.5z" />
    <glyph glyph-name="dv_TSNYa" horiz-adv-x="1966" 
d="M1495 324q13 -14 33 -26.5t52 -12.5q36 0 65 15.5t37 38.5v198h-135q5 -16 9 -39.5t4 -36.5q0 -43 -14.5 -76t-50.5 -61zM1348 537h-576q7 -21 10 -43.5t3 -39.5q0 -20 -3 -39.5t-10 -38.5h162q10 13 28 21t42 8h356q9 11 15 27t6 35q0 16 -10 39t-23 31zM1682 0v158
q-26 -14 -65 -18t-71 -4q-70 0 -131 35t-91 91h-145q0 -39 -17 -71.5t-66 -32.5t-89.5 26t-63.5 63h-283l-20 -10l140 -229l-156 -41l-142 248q-6 0 -11 0.5t-11 0.5q-28 0 -48 13t-26 36h-99q-21 0 -37 -11t-16 -33q0 -34 35 -86t84 -118l-161 -39q-46 54 -91 123.5
t-45 138.5q0 93 53 130.5t136 37.5h218q14 8 30 13t32 5t30 -13t23 -30q15 11 22.5 35.5t7.5 41.5q0 22 -7.5 44.5t-23.5 32.5h-572l-16 143h1971l17 -143h-113v-553z" />
    <glyph glyph-name="dv_NSMYa" horiz-adv-x="1967" 
d="M781 537q7 -21 10 -43.5t3 -39.5q0 -20 -3 -39.5t-10 -38.5h210v161h-210zM1496 324q13 -14 33 -26.5t52 -12.5q36 0 65 15.5t37 38.5v198h-135q5 -16 9 -39.5t4 -36.5q0 -43 -14.5 -76t-50.5 -61zM1336 385q17 7 31.5 29t14.5 53q0 16 -10 39t-23 31h-187v-217h143
q-1 7 -1.5 14.5t-0.5 14.5zM1683 0v158q-26 -14 -65 -18t-71 -4q-38 0 -74 11t-67 30h-244q0 -39 -17 -71.5t-66 -32.5q-74 0 -126 55.5t-52 118.5h-232l-20 -10l140 -229l-156 -41l-142 248q-6 0 -11 0.5t-11 0.5q-27 0 -46.5 12t-26.5 34h-121q0 -39 -17 -71.5t-66 -32.5
q-74 0 -126 55.5t-52 117.5q0 30 23 52t63 22h367q15 10 32 15.5t35 5.5q16 0 30 -13t23 -30q15 11 22.5 35.5t7.5 41.5q0 22 -7.5 44.5t-23.5 32.5h-581l-16 143h1972l17 -143h-113v-553z" />
    <glyph glyph-name="dv_KKYa" horiz-adv-x="2067" 
d="M1233 537v-89q7 7 41.5 17.5t67.5 10.5h139q-2 16 -11.5 35t-20.5 26h-216zM1596 324q13 -14 33 -26.5t52 -12.5q36 0 65 15.5t37 38.5v198h-135q5 -16 9 -39.5t4 -36.5q0 -43 -14.5 -76t-50.5 -61zM564 537v-89q7 7 41.5 17.5t67.5 10.5h179q20 7 42.5 10.5t47.5 3.5
q33 0 67.5 -8t41.5 -15v70h-487zM942 50q-106 0 -171 62.5t-65 157.5q0 16 2 32t6 31h-70q-32 0 -52.5 -17.5t-27.5 -28.5v-303l-182 16v73q-7 -7 -41.5 -15t-67.5 -8q-106 0 -171 62.5t-65 157.5t65 157.5t171 62.5q33 0 67.5 -8t41.5 -15v70h-377l-16 143h2072l17 -143
h-113v-553l-182 16v158q-26 -14 -65 -18t-71 -4q-90 0 -163 57t-80 140h-91q-32 0 -52.5 -17.5t-27.5 -28.5v-303l-182 16v73q-7 -7 -41.5 -15t-67.5 -8zM891 270q0 -32 21.5 -55t63.5 -23q32 0 50 17.5t25 28.5v64q-7 11 -25 28.5t-50 17.5q-42 0 -63.5 -23t-21.5 -55z
M382 238v64q-7 11 -25 28.5t-50 17.5q-42 0 -63.5 -23t-21.5 -55t21.5 -55t63.5 -23q32 0 50 17.5t25 28.5z" />
    <glyph glyph-name="dv_KTYa" horiz-adv-x="1769" 
d="M1298 324q13 -14 33 -26.5t52 -12.5q36 0 65 15.5t37 38.5v198h-135q5 -16 9 -39.5t4 -36.5q0 -43 -14.5 -76t-50.5 -61zM564 537v-149q7 7 41.5 17.5t67.5 10.5h132q25 16 57.5 24t71.5 8h248q1 4 1.5 9t0.5 10q0 16 -10 39t-23 31h-587zM222 270q0 -32 21.5 -55
t63.5 -23q32 0 50 17.5t25 28.5v64q-7 11 -25 28.5t-50 17.5q-42 0 -63.5 -23t-21.5 -55zM1485 0v158q-26 -14 -65 -18t-71 -4q-83 0 -151.5 48.5t-87.5 120.5h-134q-21 0 -37 -11t-16 -33q0 -34 34 -98t85 -146l-161 -39q-41 63 -87 144.5t-49 150.5h-101
q-32 0 -52.5 -17.5t-27.5 -28.5v-243l-182 16v73q-7 -7 -41.5 -15t-67.5 -8q-106 0 -171 62.5t-65 157.5t65 157.5t171 62.5q33 0 67.5 -8t41.5 -15v70h-377l-16 143h1774l17 -143h-113v-553z" />
    <glyph glyph-name="dv_KTRa" horiz-adv-x="1341" 
d="M1057 0v147l-194 -120l-95 131l225 136q-25 18 -47 26t-41 8q-8 0 -42 -11t-74 -30l-16 36h-129q-32 0 -52.5 -17.5t-27.5 -28.5v-293l-182 16v73q-7 -7 -41.5 -15t-67.5 -8q-106 0 -171 62.5t-65 157.5t65 157.5t171 62.5q33 0 67.5 -8t41.5 -15v70h-377l-16 143h1346
l17 -143h-113v-553zM564 537v-99q7 7 41.5 17.5t67.5 10.5h139q28 7 51 12t33 5q59 0 90 -9.5t71 -30.5v94h-493zM382 238v64q-7 11 -25 28.5t-50 17.5q-42 0 -63.5 -23t-21.5 -55t21.5 -55t63.5 -23q32 0 50 17.5t25 28.5z" />
    <glyph glyph-name="dv_KTRa.alt" horiz-adv-x="1467" 
d="M564 537v-149q7 7 41.5 17.5t67.5 10.5h119q25 22 61.5 32t80.5 10h249v79h-619zM382 238v64q-7 11 -25 28.5t-50 17.5q-42 0 -63.5 -23t-21.5 -55t21.5 -55t63.5 -23q32 0 50 17.5t25 28.5zM1183 0v195l-87 -86l-99 96l125 110h-146q-21 0 -37 -11t-16 -33
q0 -34 34 -103t85 -151l-161 -39q-40 61 -84.5 143.5t-50.5 151.5h-102q-32 0 -52.5 -17.5t-27.5 -28.5v-243l-182 16v73q-7 -7 -41.5 -15t-67.5 -8q-106 0 -171 62.5t-65 157.5t65 157.5t171 62.5q33 0 67.5 -8t41.5 -15v70h-377l-16 143h1472l17 -143h-113v-553z" />
    <glyph glyph-name="dv_KTVa" horiz-adv-x="1726" 
d="M564 537v-149q7 7 41.5 17.5t67.5 10.5h142q25 16 57.5 24t71.5 8h243q28 19 65.5 30.5t80.5 11.5q33 0 67.5 -8t41.5 -15v70h-878zM222 270q0 -32 21.5 -55t63.5 -23q32 0 50 17.5t25 28.5v64q-7 11 -25 28.5t-50 17.5q-42 0 -63.5 -23t-21.5 -55zM1442 238v64
q-7 11 -25 28.5t-50 17.5q-42 0 -63.5 -23t-21.5 -55t21.5 -55t63.5 -23q32 0 50 17.5t25 28.5zM1333 50q-106 0 -171 62.5t-65 157.5q0 7 0.5 14t1.5 15v6h-113q-21 0 -37 -11t-16 -33q0 -34 34 -98t85 -146l-161 -39q-41 63 -87 144.5t-49 150.5h-111q-32 0 -52.5 -17.5
t-27.5 -28.5v-243l-182 16v73q-7 -7 -41.5 -15t-67.5 -8q-106 0 -171 62.5t-65 157.5t65 157.5t171 62.5q33 0 67.5 -8t41.5 -15v70h-377l-16 143h1731l17 -143h-113v-553l-182 16v73q-7 -7 -41.5 -15t-67.5 -8z" />
    <glyph glyph-name="dv_KPRa" horiz-adv-x="1421" 
d="M564 537v-89q7 7 41.5 17.5t67.5 10.5h90v61h-199zM1137 326v211h-203v-155q0 -63 26.5 -90t75.5 -27q42 0 66.5 20t34.5 41zM222 270q0 -32 21.5 -55t63.5 -23q32 0 50 17.5t25 28.5v64q-7 11 -25 28.5t-50 17.5q-42 0 -63.5 -23t-21.5 -55zM1137 0v140l-271 -219
l-122 109l152 113q-53 25 -90.5 72t-42.5 118h-119q-32 0 -52.5 -17.5t-27.5 -28.5v-303l-182 16v73q-7 -7 -41.5 -15t-67.5 -8q-106 0 -171 62.5t-65 157.5t65 157.5t171 62.5q33 0 67.5 -8t41.5 -15v70h-377l-16 143h1426l17 -143h-113v-553z" />
    <glyph glyph-name="dv_KVYa" horiz-adv-x="1699" 
d="M1228 324q13 -14 33 -26.5t52 -12.5q36 0 65 15.5t37 38.5v198h-135q5 -16 9 -39.5t4 -36.5q0 -43 -14.5 -76t-50.5 -61zM838 466q28 11 60 17.5t68 6.5q43 0 80.5 -8.5t67.5 -23.5v9q0 16 -10 39t-23 31h-517v-99q7 7 41.5 17.5t67.5 10.5h165zM1415 0v158
q-26 -14 -65 -18t-71 -4q-22 0 -44.5 4t-43.5 11q-31 -46 -88.5 -73.5t-136.5 -27.5q-116 0 -188 62.5t-72 157.5q0 13 1.5 26.5t4.5 26.5h-68q-32 0 -52.5 -17.5t-27.5 -28.5v-293l-182 16v73q-7 -7 -41.5 -15t-67.5 -8q-106 0 -171 62.5t-65 157.5t65 157.5t171 62.5
q33 0 67.5 -8t41.5 -15v70h-377l-16 143h1704l17 -143h-113v-553zM891 270q0 -32 20 -55t55 -23q40 0 57.5 23t17.5 55t-17.5 55t-57.5 23q-37 0 -56 -23t-19 -55zM382 238v64q-7 11 -25 28.5t-50 17.5q-42 0 -63.5 -23t-21.5 -55t21.5 -55t63.5 -23q32 0 50 17.5t25 28.5z
" />
    <glyph glyph-name="dv_KSsMa" horiz-adv-x="1225" 
d="M382 537q-1 -20 -5.5 -37t-13.5 -33q22 -7 46.5 -10t43.5 -3h123v83h-194zM941 320v217h-194v-217h194zM941 0v177h-194q0 -39 -17 -71.5t-66 -32.5q-74 0 -126 55.5t-52 117.5q0 16 7 31t20 25h-61q-50 0 -113.5 11.5t-106.5 36.5q-19 -17 -32 -47t-13 -43q0 -20 12 -36
t29 -16h4q4 35 28.5 56.5t63.5 21.5q43 0 84.5 -29.5t41.5 -76.5q0 -16 -6 -33t-16 -32l54 -117l-150 -56l-49 112q-13 -4 -29 -4.5t-26 -0.5q-88 0 -150 54.5t-62 155.5q0 49 29.5 103.5t65.5 84.5q-16 19 -25.5 43t-9.5 58q0 61 41 106t113 45q23 0 43.5 -5t37.5 -14h908
l17 -143h-113v-553z" />
    <glyph glyph-name="dv_KSsYa" horiz-adv-x="1141" 
d="M383 538q-1 -20 -5.5 -37.5t-14.5 -33.5q16 -9 39 -16t51 -7h100q1 5 2 11t1 12q0 16 -10.5 40t-23.5 31h-139zM670 324q13 -14 33 -26.5t52 -12.5q36 0 65 15.5t37 38.5v198h-135q5 -16 9 -39.5t4 -36.5q0 -43 -14.5 -76t-50.5 -61zM857 0v158q-26 -14 -65 -18t-71 -4
q-79 0 -146 44.5t-89 111.5h-34q-50 0 -113.5 16.5t-106.5 41.5q-19 -17 -32 -47t-13 -43q0 -20 12 -36t29 -16h4q4 35 28.5 56.5t63.5 21.5q43 0 84.5 -29.5t41.5 -76.5q0 -16 -6 -33t-16 -32l54 -117l-150 -56l-49 112q-13 -4 -29 -4.5t-26 -0.5q-88 0 -150 54.5
t-62 155.5q0 49 29.5 103.5t65.5 84.5q-16 19 -25.5 43t-9.5 58q0 61 41 106t113 45q23 0 43.5 -5t37.5 -14h824l17 -143h-113v-553z" />
    <glyph glyph-name="dv_KSsVa" horiz-adv-x="1088" 
d="M382 537q-1 -20 -5.5 -37t-13.5 -33q22 -7 46.5 -10t43.5 -3h105q28 17 62.5 26.5t74.5 9.5q33 0 67.5 -8t41.5 -15v70h-422zM695 50q-106 0 -171 62.5t-65 157.5q0 8 0.5 16t1.5 16h-9q-50 0 -113.5 11.5t-106.5 36.5q-19 -17 -32 -47t-13 -43q0 -20 12 -36t29 -16h4
q4 35 28.5 56.5t63.5 21.5q43 0 84.5 -29.5t41.5 -76.5q0 -16 -6 -33t-16 -32l54 -117l-150 -56l-49 112q-13 -4 -29 -4.5t-26 -0.5q-88 0 -150 54.5t-62 155.5q0 49 29.5 103.5t65.5 84.5q-16 19 -25.5 43t-9.5 58q0 61 41 106t113 45q23 0 43.5 -5t37.5 -14h771l17 -143
h-113v-553l-182 16v73q-7 -7 -41.5 -15t-67.5 -8zM644 270q0 -32 21.5 -55t63.5 -23q32 0 50 17.5t25 28.5v64q-7 11 -25 28.5t-50 17.5q-42 0 -63.5 -23t-21.5 -55z" />
    </font>
</defs>
</svg>
