<?xml version="1.0" encoding="utf-8"?>
<!-- Generator: Adobe Illustrator 23.1.0, SVG Export Plug-In . SVG Version: 6.00 Build 0)  -->
<svg version="1.1" id="Calque_1" xmlns="http://www.w3.org/2000/svg" xmlns:xlink="http://www.w3.org/1999/xlink" x="0px" y="0px"
	 viewBox="0 0 1289.1 225.6" style="enable-background:new 0 0 1289.1 225.6;" xml:space="preserve">
<style type="text/css">
	.st0{fill:#1D4545;}
</style>
<g>
	<path class="st0" d="M588,173v-5.4c14.4-0.8,17.7-1.7,17.7-12.3v-75c0-10.5-3.2-11.7-17.7-12.4v-5.2h65.2
		c48.3,0,76.4,19.2,76.4,55.1c0,35.7-28.5,55.1-76.6,55.1H588z M639.4,71.6c-3.6,0-6,1.9-6,4.7v83c0,3,2.4,4.7,6,4.7H653
		c27.3,0,46.5-10.5,46.5-46.1c0-35.7-18.9-46.3-46.3-46.3H639.4z"/>
	<path class="st0" d="M795,87.4l-34.3,70.7c-3.2,6.5,1.6,8.8,15.2,9.6v5.4H732v-5.4c9-0.8,13.4-3.5,16.8-10.4l45.9-94.5h18.1
		l45.9,94c3.4,7.4,7.4,10.1,15.8,10.9v5.4h-58v-5.4c13.4-0.8,16.6-2.7,13.2-9.6L795,87.4z M795,87.4"/>
	<path class="st0" d="M877.7,167.7c14.4-0.8,17.9-1.7,17.9-12.3v-75c0-10.5-3.4-11.7-17.9-12.4v-5.2h49.1l61,74V80.4
		c0-10.5-3-11.7-17.5-12.4v-5.2h47.7V68c-14.4,0.8-17.5,1.9-17.5,12.4V173h-16.2l-76-92.4v74.8c0,10.6,3.2,11.5,17.7,12.3v5.4h-48.3
		V167.7z"/>
	<path class="st0" d="M1153.5,140l5.6,2.7l-19.5,30.4h-113.1v-5.4c14.4-0.8,17.7-1.7,17.7-12.3v-75c0-10.5-3.2-11.7-17.7-12.4v-5.2
		h112.9l12.4,27.1l-5.6,2.2c-12.8-13.9-27.5-20.5-53-20.5h-15.4c-3.6,0-6,1.9-6,4.7V111h28.1c14.6,0,17.2-5.4,17.9-14.3h7.4v37.6
		h-7.4c-0.6-9-3.2-14.3-17.9-14.3h-28.1v39.4c0,3,2.4,4.7,6,4.7h15.6C1121.4,164.1,1139.4,153.8,1153.5,140z"/>
	<path class="st0" d="M1281.4,140l5.6,2.7l-19.5,30.4h-102.5v-5.4c14.4-0.8,17.7-1.7,17.7-12.3v-75c0-10.5-3.2-11.7-17.7-12.4v-5.2
		h63V68c-14.4,0.8-17.7,1.9-17.7,12.4v78.9c0,3,2.4,4.7,6,4.7h9.6C1249.3,164.1,1267.4,153.8,1281.4,140z"/>
</g>
<g>
	<path class="st0" d="M117.7,108.5c0,35.6-25.3,66.8-62.7,66.8c-28.3,0-48.7-17.1-48.7-45.7c0-35.4,25.4-66.7,62.7-66.7
		C97.5,62.9,117.7,80,117.7,108.5z M95.9,99.1c0-16-7.2-27.9-26-27.9c-29.6,0-41.7,44.7-41.7,67.8c0,16.2,7.4,28,26,28
		C83.6,167,95.9,122.4,95.9,99.1z"/>
	<path class="st0" d="M179.9,122.5c2-8.2-1.4-11.6-7.9-11.6c-6.2,0-12.2,2.2-18.2,5.5l-10.9,44c-1.2,4.9,0,6.5,7.5,7.2l-1.4,5.2
		h-37.6l1.2-5.2c8-0.8,10-2.3,11.2-7.2l18.6-75.8c0.9-3.5,0.2-4.8-2.9-4.8h-5.1l1.1-4.6l24.5-12.5h6.9l-11.1,45
		c6.9-3.9,16.9-7.4,25.1-7.4c10.2,0,22.5,3.7,17.7,22.3l-9.2,37.7c-1.2,4.9-0.2,6.5,7.4,7.2l-1.2,5.2h-28.3L179.9,122.5z"/>
	<path class="st0" d="M233.6,162.4c0,6.5-4.9,12.5-12.8,12.5c-7.5,0-11.9-5.5-11.9-11.7c0-6.5,4.8-12.3,12.8-12.3
		C229.2,150.9,233.6,156.3,233.6,162.4z M229.9,78.9c2.6-10.9,8.2-16,15.1-16c7.7,0,11.9,7.5,9.1,18.5c-4,16-15.1,28.2-23.7,59.3
		h-7.2C230.7,107.6,225.6,96,229.9,78.9z"/>
</g>
<g>
	<path class="st0" d="M328.2,118.2c0-6-3.1-10.9-10.8-10.9c-19.1,0-25.6,24.9-25.6,40.7c0,13.6,6.8,20.9,18.6,20.9
		c10.3,0,18.5-6.8,25.7-18l5.1,3.5c-8.2,12.9-17.9,20.9-32,20.9c-20,0-31.9-11.7-31.9-29.3c0-23.6,15.7-44.8,40.3-44.8
		c14.2,0,24.8,7.4,24.8,16.8c0,5.2-3.4,7.7-7.1,7.7C331.4,125.8,328.2,123,328.2,118.2z"/>
	<path class="st0" d="M382.8,72.6c0,9.5-12.5,24-23.3,31.6l-2.5-2.5c7.5-6.6,12.2-12.3,15.1-19.7c-5.2-0.3-8.8-3.9-8.8-9.2
		c0-5.4,4.2-9.9,10-9.9C379,62.9,382.8,66.9,382.8,72.6z"/>
	<path class="st0" d="M383,147.3c0,12.3,5.5,21.6,19.9,21.6c9.7,0,19.7-6.6,26.6-17.7l5.1,3.1c-8,13.2-19.4,21.1-33.4,21.1
		c-20.6,0-32.6-13.6-32.6-30.8c0-26.8,18.9-43.3,40.7-43.3c16.8,0,30,8.9,27,29.6h-51C383.5,136.7,383,142.5,383,147.3z
		 M423.8,124.7c2.3-11.7-4.3-17.4-14.2-17.4c-11.7,0-18.8,8-22.5,17.4H423.8z"/>
	<path class="st0" d="M507.1,151.5c0,15.4-13.7,23.9-30.5,23.9c-9.9,0-18.2-3.5-23.7-7.7l-2.8,5.4h-3.9l-2.6-25.9l3.7-0.6
		c5.9,16.6,17.4,22.8,29.4,22.8c9.1,0,17.6-3.7,17.6-13.2c0-7.9-8.2-10.6-17.2-13.2c-14.3-4.3-24-8-24-19.9
		c0-12.8,11.4-21.7,28-21.7c9.2,0,15.6,2.8,20.2,6.5l2.3-4.2h3.9l2,22.2l-3.9,0.5c-4.5-13.9-13.9-19.1-24.3-19.1
		c-10.2,0-14.9,4.9-14.9,11.1c0,6.6,7.4,9.2,15.9,11.9C494.3,133.9,507.1,138.1,507.1,151.5z"/>
	<path class="st0" d="M536.4,174.7c-10.5,0-17.2-4-13.6-18.5l11.6-46.4h-10.3l0.8-3.2c13.2-4.3,19.9-12.6,25.6-25.9h4.9l-5.7,22.8
		h18.3l-1.5,6.3h-18.3l-11.7,47c-1.8,7.2-0.2,10.8,6.2,10.8c3.2,0,6.5-0.6,10-1.8l-1.5,6C547.2,173.5,540.8,174.7,536.4,174.7z"/>
</g>
<g>
	<path class="st0" d="M764.5,130.3c1.3-2.8,3.6-5.2,6.3-7c2.7-1.8,5.8-2.9,9-3.6c6.3-1.4,12.5-0.9,18.3,0c5.8,1,11.2,2.6,16.4,4.1
		c2.6,0.7,5.1,1.4,7.5,1.8c1.3,0.2,2.4,0.2,3.7,0.1c1.3-0.2,2.5-0.7,3.9-1.5c-0.3,1.5-1,3.1-2.3,4.3c-1.2,1.2-2.8,2.2-4.3,2.8
		c-3.2,1.3-6.5,1.6-9.5,1.7c-6.2,0.2-11.9-0.8-17.3-1.7c-5.4-0.9-10.6-1.9-15.7-2.4C775.4,128.4,770.5,128.5,764.5,130.3z"/>
</g>
</svg>
