<?xml version="1.0" encoding="utf-8"?>
<!-- Generator: Adobe Illustrator 21.0.0, SVG Export Plug-In . SVG Version: 6.00 Build 0)  -->
<svg version="1.1" id="Calque_1" xmlns="http://www.w3.org/2000/svg" xmlns:xlink="http://www.w3.org/1999/xlink" x="0px" y="0px"
	 viewBox="0 0 200 60" style="enable-background:new 0 0 200 60;" xml:space="preserve">
<style type="text/css">
	.st0{fill:#E8D9C5;}
</style>
<g>
	<rect x="7.3" y="29.6" class="st0" width="12.1" height="21"/>
	<rect x="25.1" y="29.6" class="st0" width="12.1" height="21"/>
	<rect x="41.6" y="29.6" class="st0" width="12.1" height="21"/>
	<path class="st0" d="M149.9,33.6H1.7c-0.4,0-0.8-0.4-0.8-0.8v-6.3c0-0.4,0.4-0.8,0.8-0.8h148.3c0.4,0,0.8,0.4,0.8,0.8v6.3
		C150.7,33.2,150.4,33.6,149.9,33.6z"/>
	<path class="st0" d="M188.5,39.5c-3.2,4.8-8.6,7.9-14.8,7.9c-9.8,0-17.8-8-17.8-17.8c0-9.8,8-17.8,17.8-17.8c4.3,0,8.2,1.5,11.3,4
		h12.3c-4.7-8.1-13.5-13.6-23.6-13.6c-15.1,0-27.3,12.2-27.3,27.3c0,15.1,12.2,27.3,27.3,27.3c11.6,0,21.5-7.2,25.5-17.5H188.5z"/>
</g>
</svg>
