<?xml version="1.0" encoding="utf-8"?>
<!-- Generator: Adobe Illustrator 23.1.0, SVG Export Plug-In . SVG Version: 6.00 Build 0)  -->
<svg version="1.1" id="Calque_1" xmlns="http://www.w3.org/2000/svg" xmlns:xlink="http://www.w3.org/1999/xlink" x="0px" y="0px"
	 viewBox="0 0 120 84" style="enable-background:new 0 0 120 84;" xml:space="preserve">
<style type="text/css">
	.st0{fill:#FFFFFF;}
	.st1{clip-path:url(#SVGID_2_);fill:none;stroke:#044938;stroke-width:1.2047;stroke-miterlimit:10;}
	.st2{clip-path:url(#SVGID_2_);fill:#044938;}
</style>
<path class="st0" d="M25.6,50.7c-5.4,0-9.8,4.4-9.8,9.8s4.4,9.8,9.8,9.8s9.8-4.4,9.8-9.8S31.1,50.7,25.6,50.7z M25.6,65.9
	c-3,0-5.4-2.4-5.4-5.4s2.4-5.4,5.4-5.4s5.4,2.4,5.4,5.4S28.6,65.9,25.6,65.9z"/>
<path class="st0" d="M90.6,50.7c-5.4,0-9.8,4.4-9.8,9.8s4.4,9.8,9.8,9.8c5.4,0,9.8-4.4,9.8-9.8S96,50.7,90.6,50.7z M90.6,65.9
	c-3,0-5.4-2.4-5.4-5.4s2.4-5.4,5.4-5.4c3,0,5.4,2.4,5.4,5.4S93.6,65.9,90.6,65.9z"/>
<rect x="36.5" y="56.5" class="st0" width="43.3" height="2.8"/>
<path class="st0" d="M115.7,53.2V30.2c0-1.8-1.4-3.2-3.2-3.2l-11.7-1.3l-6.7-11.5c-0.8-1.3-2.1-2.1-3.6-2.1h-8.1v0H14.9
	c-2.6,0-4.7,2.1-4.7,4.7v35.8H6.3c-1.5,0-2.7,1.2-2.7,2.7v4.1h11.1v-3.5h66.7h0.9h19.1v4.1h12.8c1.8,0,3.2-1.4,3.2-3.2v-3.5H115.7z
	 M93.5,28h-8.8H75c-0.5,0-0.9-0.4-0.9-0.9l0.4-11.7c0-0.5,0.4-0.8,0.9-0.8h11.4c0.4,0,0.7,0.2,0.8,0.6l2.3,6c0,0.1,0.1,0.2,0.1,0.2
	l4.1,5.2C94.6,27.2,94.2,28,93.5,28z"/>
<g>
	<defs>
		<rect id="SVGID_1_" x="24.8" y="19.1" width="48.2" height="33.7"/>
	</defs>
	<clipPath id="SVGID_2_">
		<use xlink:href="#SVGID_1_"  style="overflow:visible;"/>
	</clipPath>
	<path class="st1" d="M62.5,40.5V24.3c0-2.4-1.9-4.3-4.3-4.3c-2.4,0-4.3,1.9-4.3,4.3v16.3c-1.4,1.2-2.3,3-2.3,5c0,3.7,3,6.7,6.7,6.7
		s6.7-3,6.7-6.7C64.9,43.5,64,41.7,62.5,40.5z"/>
	<path class="st2" d="M59.1,42.6v-1.3c0-0.5-0.4-0.9-0.9-0.9c-0.5,0-0.9,0.4-0.9,0.9v1.3c-1.2,0.4-2.1,1.5-2.1,2.9c0,1.6,1.3,3,3,3
		c1.6,0,3-1.3,3-3C61.3,44.1,60.4,43,59.1,42.6"/>
	<polygon class="st2" points="45.7,44.8 45.7,27.4 45.8,27.2 48.7,24.8 47.7,23.5 45.7,25.2 45.7,21.5 43.9,21.5 43.9,25.2 
		41.9,23.5 40.8,24.8 43.7,27.2 43.9,27.4 43.9,44.8 43.7,44.9 40.8,47.3 41.9,48.6 43.9,46.9 43.9,50.7 45.7,50.7 45.7,46.9 
		47.7,48.6 48.7,47.3 45.8,44.9 	"/>
	<path class="st2" d="M51.5,41c0.2-0.2,0.3-0.3,0.5-0.5v-1.4l-14.3-8.2l0-0.2L37,27l-1.6,0.3l0.4,2.5L32.6,28l-0.9,1.6l3.2,1.9
		l-2.4,0.9l0.6,1.6l3.5-1.3l0.2-0.1L51.5,41z"/>
	<polygon class="st2" points="51.9,33 51.9,30.9 36.8,39.6 36.6,39.6 33.1,38.3 32.5,39.9 34.9,40.7 31.7,42.6 32.6,44.2 35.8,42.3 
		35.4,44.8 37,45.1 37.6,41.4 37.7,41.2 	"/>
</g>
</svg>
