<svg viewBox="0 0 20413 21060" xmlns="http://www.w3.org/2000/svg" fill-rule="evenodd" clip-rule="evenodd" stroke-linejoin="round" stroke-miterlimit="2">
  <path d="M15749.476 14914.515c0-1287.71 1043.876-2331.627 2331.586-2331.627 1287.709 0 2331.626 1043.917 2331.626 2331.627 0 1287.667-1043.917 2331.585-2331.626 2331.585-1287.71 0-2331.586-1043.918-2331.586-2331.585z" fill="#f5f8fc"/>
  <path d="M2912.716 9937.094c0-3228.544 2617.252-5845.755 5845.755-5845.755 3228.544 0 5845.796 2617.21 5845.796 5845.755 0 3228.544-2617.252 5845.755-5845.796 5845.755-3228.503 0-5845.755-2617.21-5845.755-5845.755z" fill="#ecf2fa"/>
  <path d="M3300.8 11984.887c164.5-151.875 741.5-681.625 861.125-735.625 119.667-54.042 1504.835 1491.46 1368.002 1602.043-136.876 110.541-861.001 777.5-1133.293 947.084-544.042-592.084-922.292-1272.043-1095.834-1813.502z" fill="#fff"/>
  <path d="M3270.716 11877.887c82.209-75.875 262.376-242.083 436.667-395.833 87.126-76.875 172.792-150.626 243.709-208.167 35.458-28.792 67.208-53.5 93.333-72.375 13.042-9.459 24.667-17.417 34.5-23.625 9.75-6.167 17.792-10.584 22.75-12.834l-8.625-19.125v21.167c1.542 0 4.709-.292 8.625-2.042l-8.625-19.125v21.167-9.792l-1.333 9.709c.167 0 .583.083 1.333.083v-9.792l-1.333 9.709.375-2.75-.458 2.75h.083l.375-2.75-.458 2.75h.125c.791.125 4.791 1.416 10.333 4.333 10.917 5.583 27.542 16.667 47.292 32.25 37.25 29.25 86.292 74.125 142.708 130.125 98.75 98.084 220.417 230.417 347.042 376.25 189.875 218.792 391.084 468.25 544.167 679.21 76.542 105.458 141.084 201.375 185.917 278.291 22.417 38.417 39.833 72.125 51.292 99.209 5.708 13.5 9.916 25.333 12.5 34.916 2.667 9.542 3.625 16.875 3.583 20.625 0 1.25-.083 2.084-.166 2.417l-.042.208 7.667 1.709-6.709-3.875c-.75 1.333-.958 2.166-.958 2.166l7.667 1.709-6.709-3.875 13.25 7.625-9.583-11.834c-1.583 1.25-2.958 2.917-3.667 4.209l13.25 7.625-9.583-11.834c-9.209 7.417-20.334 16.917-33.459 28.417-24.541 21.542-56 50.042-92.833 83.875-128.708 118.334-322.875 301.459-506.75 468.875-91.917 83.709-181.25 163.417-258.292 228.959-38.5 32.75-73.959 61.917-104.959 86.208-31 24.25-57.666 43.667-77.958 56.5-17.375 11-22.542 34.042-11.542 51.459 11.042 17.375 34.084 22.542 51.459 11.541 28.916-18.333 64.416-44.875 105.708-77.958 72.125-57.833 161.5-135.625 257.209-221.5 143.541-128.75 301.167-275.667 434.083-399.375 66.459-61.875 126.709-117.917 175.875-162.959 24.584-22.5 46.375-42.25 64.709-58.542 18.292-16.25 33.208-29.125 43.625-37.5a59.696 59.696 0 0011.375-12.25c4.708-6.791 7.708-14.125 9.458-21.208 1.792-7.083 2.417-14 2.459-20.792-.042-11.375-1.792-22.5-4.625-34.166-5.5-22.459-15.167-47-28.334-74.792-24.666-52-61.958-115-108.833-186.667-82-125.208-193.417-276.292-316.5-433-184.626-234.959-395.376-482.209-571.793-671.417-88.25-94.626-167.791-174.626-231.916-231.876-32.125-28.625-60.25-51.541-84.667-68.166-12.25-8.292-23.542-15.084-34.709-20.25-5.625-2.584-11.208-4.792-17.166-6.5-5.959-1.667-12.292-2.875-19.584-2.875-6.666 0-14.375 1.083-22.083 4.583-10 4.542-20.333 10.458-31.958 17.792-21.667 13.75-47.625 32.541-77.459 55.5-52.166 40.208-115.875 93.125-184.5 152.041-102.917 88.376-216.792 190.126-317.625 281.5-100.833 91.417-188.667 172.418-239.292 219.168-15.125 13.958-16.083 37.583-2.083 52.708 13.958 15.125 37.541 16.083 52.666 2.083z" fill="#233f85" fill-rule="nonzero"/>
  <path d="M6889.594 10239.22c793.834 1207.334-1155.75 2722.501-1454.21 2809.543-298.458 87.042-1583.292-1673.501-1490.25-1905.126 93.041-231.626 1985.835-2362.377 2944.46-904.418z" fill="#62c6bd"/>
  <path d="M4876.26 10041.386c165.916-115.084 342.25-216.917 520.375-289.709 178.167-72.791 358-116.417 531.042-116.375 76.208 0 151.125 8.417 224.292 26.458 109.75 27.084 215.667 75.75 316.542 151.126 100.833 75.333 196.625 177.5 285 311.917 64.375 97.875 109.875 197.416 139.458 297.958 29.5 100.542 43.084 202.125 43.084 304.209 0 127.25-21.125 255.208-58.875 382.125-66 222-183.084 440.542-325.5 643.959-213.5 305.208-483.668 576.334-720.251 776.375-118.25 100-228.167 182.292-317.959 242.126-44.916 29.916-84.792 54.25-117.917 72.291-16.541 9-31.375 16.417-44.166 22.167-12.75 5.75-23.5 9.792-31.334 12.042-3.375 1-7.583 1.625-12.791 1.625-6.417.041-14.334-.959-23.584-3.334-17.958-4.5-40.708-14.25-66.458-29.083-48.417-27.75-107.292-73.042-171.792-131.417-113-102.166-243.792-244.125-375.667-403.042-197.875-238.417-398.583-515.208-549.209-754.792-75.291-119.708-138.083-230.25-181.583-321.292-21.75-45.5-38.625-86.167-49.833-120.167-5.625-17-9.792-32.291-12.5-45.541-2.75-13.209-3.959-24.334-3.917-32.667 0-4.125.292-7.583.708-10.208.417-2.625.959-4.417 1.417-5.459 1.375-3.5 4.042-9.041 7.833-15.833 6.667-11.958 16.792-27.875 29.875-46.667 19.625-28.208 46.042-63 78.334-102.667 32.25-39.666 70.416-84.208 113.708-132.125 13.833-15.291 12.625-38.875-2.667-52.666-15.291-13.834-38.833-12.625-52.666 2.666-67.167 74.375-122.459 140.959-163.542 195.084-20.583 27.125-37.583 51.083-50.917 71.625-6.666 10.292-12.416 19.708-17.25 28.417-4.833 8.708-8.791 16.583-11.916 24.333-2.834 7-4.667 14.167-5.834 21.417-1.166 7.25-1.666 14.583-1.666 22.083 0 12.667 1.416 25.75 3.875 39.625 4.833 26.792 13.666 56.458 25.958 89.375 23.042 61.667 58.208 134.708 102.792 216.25 78.083 142.542 185.125 310.834 306.042 483.542 181.375 259.042 393.75 527.876 586.125 733.084 96.292 102.625 187.458 189.334 268.334 251.459 40.5 31.083 78.416 56.041 113.958 73.791 17.792 8.875 35.042 15.959 51.917 20.917 16.916 4.958 33.541 7.875 50.125 7.875 11.333 0 22.666-1.375 33.666-4.583 19.084-5.625 40.584-14.834 65.75-27.459 47.042-23.708 106.376-59.75 175.126-106.833 120.25-82.375 268.958-198.667 424.875-340.584 233.833-212.875 483.792-483.292 676.167-783.5 96.209-150.125 178-307.75 235.875-469.584 57.917-161.833 91.917-328 91.917-494.75 0-108.667-14.5-217.584-46.125-325.25-31.625-107.667-80.417-214.084-148.667-317.876-61.625-93.708-127.291-173.375-196.458-240.125-103.709-100.167-215.292-171.209-331.709-216.917-116.417-45.75-237.5-66.125-360-66.083-185.625 0-374.542 46.5-559.25 121.917-184.709 75.5-365.376 180.041-534.668 297.458-16.916 11.75-21.125 35-9.375 51.917 11.75 16.916 34.959 21.125 51.875 9.375z" fill="#233f85" fill-rule="nonzero"/>
  <path d="M8484.596 9215.218c-894.126-5.375-1773.918 166.667-2207.544 503.543-704.334 547.167-1172.5 3929.503-970.542 4936.045 967.334 709.042 2160.626 1128.001 3451.92 1128.001 1019.375 0 1977.626-261.25 2812.001-719.917 147.709-1256.793-216.375-4849.63-792.209-5286.713-490.958-372.708-1399.459-555.584-2293.626-560.959z" fill="#62c6bd"/>
  <path d="M5517.302 11168.637c84.375-370.5 183.083-709.918 293.416-981.21 55.167-135.625 113.25-254.208 173.417-350.875 60.125-96.708 122.5-171.292 184.667-219.5 103.209-80.167 234.125-151.75 386.167-213.542 228.042-92.75 503.542-163.458 803.917-210.833 300.417-47.375 625.75-71.417 953.96-71.417 451.041 0 907.542 45.458 1312.084 137.667 202.25 46.125 391.542 103.875 560.542 173.25 169.042 69.375 317.75 150.375 439.042 242.5 26.5 20.042 54.083 49.167 81.708 86.709 51.875 70.416 103.625 170.25 153.167 293.291 86.834 215.376 167.375 501.668 238.792 829.21 107.208 491.417 194.125 1075.917 254.167 1657.334 60.042 581.417 93.208 1159.918 93.208 1639.251 0 203.709-6 389.5-18.416 549.793-6.209 80.125-14 153.875-23.417 220.25-9.417 66.333-20.5 125.25-33.083 175.625-5 19.958 7.166 40.208 27.125 45.208 20 5 40.25-7.166 45.25-27.125 13.375-53.666 24.833-114.958 34.541-183.25 14.542-102.375 25.167-220.542 32.167-351.584 7.042-131.083 10.417-275.041 10.417-428.917-.042-784.584-88.042-1827.668-236.792-2722.418-74.417-447.417-163.959-857.584-265.834-1180.46-50.958-161.5-104.958-301.167-162.291-413.333-28.709-56.084-58.209-105.334-88.917-147.084-30.75-41.708-62.625-76.042-96.709-101.917-127.875-97.083-282.167-180.791-455.792-252.083-260.458-106.875-564.625-185.834-889.25-238.292-324.584-52.375-669.668-78.208-1011.71-78.208-442.458.041-879.834 43.166-1261.459 128.333-190.833 42.583-367.709 95.667-524.5 159.417-156.792 63.75-293.5 138.042-403.834 223.75-72.208 56.167-138.958 137.417-202.25 238.959-94.792 152.375-181.625 350.958-261.125 581.667-79.417 230.667-151.334 493.375-215.084 773.292-4.583 20.083 8 40.083 28.084 44.625 20.041 4.583 40.041-8 44.625-28.083zM5215.176 14534.473c-10.958-69.209-19.166-151.084-24.625-243.459-5.458-92.375-8.125-195.208-8.125-306.542 0-180 7-382.125 20.667-598.25 1.292-20.542-14.333-38.25-34.875-39.542-20.583-1.333-38.292 14.292-39.583 34.833-13.709 217.459-20.792 421.042-20.792 602.96 0 112.541 2.708 216.75 8.25 310.958 5.583 94.167 13.958 178.25 25.417 250.708 3.25 20.334 22.333 34.209 42.666 31 20.334-3.25 34.25-22.333 31-42.666z" fill="#233f85" fill-rule="nonzero"/>
  <path d="M1183.798 37.74l-13.167 34.888 2635.753 995.126-1119.71 2965.794L85.797 3051.63 1218.715 50.911l-34.917-13.17-13.167 34.887 13.167-34.888-34.875-13.17L2.84 3060.171c-3.459 9.167-3.125 19.542.916 28.5 4.042 8.958 11.625 16.083 20.792 19.542l2670.669 1008.292c9.208 3.458 19.583 3.125 28.542-.917 8.958-4.041 16.041-11.625 19.541-20.791l1146.043-3035.586c3.458-9.208 3.125-19.583-.917-28.542-4.041-8.958-11.625-16.041-20.833-19.541L1196.965 2.853c-19.25-7.275-40.75 2.446-48.042 21.716l34.875 13.171zM13160.808 15863.099l-37.042 4.083 567.375 5159.63c1.75 16 13.5 29 29.25 32.374 15.75 3.375 31.834-3.708 39.959-17.583l3652.544-6223.463a37.214 37.214 0 00-2.333-41.25c-9.042-12.084-24.333-17.5-38.958-13.792l-4219.879 1063.834c-18.041 4.542-30 21.75-27.958 40.25l37.042-4.083 9.125 36.166 4133.545-1042.084-3550.503 6049.63-555.084-5047.796-37.083 4.084 9.125 36.166-9.125-36.166z" fill="#b9c4e4" fill-rule="nonzero"/>
  <path d="M1066.59 4329.215h74.583c0-211.626 42.875-413.042 120.375-596.293 116.25-274.833 310.542-508.833 555.042-674 244.542-165.167 539.084-261.584 856.46-261.584 211.624 0 413.041 42.834 596.291 120.375 274.834 116.209 508.834 310.5 674.001 555.043 165.167 244.541 261.584 539.042 261.584 856.459 0 211.583-42.834 413-120.376 596.25-116.208 274.875-310.5 508.834-555.042 674-244.542 165.209-539.042 261.584-856.459 261.626-211.583 0-413-42.875-596.25-120.375-274.875-116.25-508.834-310.542-674-555.042-165.21-244.542-261.584-539.084-261.626-856.46h-74.583c0 221.71 44.958 433.084 126.291 625.293 121.959 288.333 325.584 533.583 581.96 706.792 256.374 173.208 565.625 274.375 898.208 274.375 221.709 0 433.126-44.958 625.334-126.292 288.334-121.958 533.542-325.583 706.75-581.958 173.21-256.376 274.418-565.626 274.376-898.21 0-221.708-44.958-433.125-126.25-625.333-121.959-288.334-325.625-533.542-582-706.75-256.334-173.21-565.626-274.418-898.21-274.376-221.708 0-433.083 44.958-625.292 126.25-288.333 121.958-533.584 325.625-706.792 582-173.209 256.334-274.375 565.626-274.375 898.21z" fill="#b9c4e4" fill-rule="nonzero"/>
  <path d="M12242.015 14683.973c-124.583-124.584-983.334-1295.793-1080.084-1406.085-96.75-110.333 1739.251-1632.71 1852.168-1499.584 112.959 133.083 565.626 766.709 776.71 1115-169.751 305.543-1107.502 1489.377-1548.794 1790.669z" fill="#fff"/>
  <path d="M12313.932 14568.931c-25.958-35.333-103.708-142.167-207.125-284.083-155.125-212.876-368.125-504.793-551.459-753.918-91.667-124.542-175.917-238.417-241.875-326.417-32.958-44-61.375-81.5-83.875-110.75-11.292-14.625-21.084-27.166-29.292-37.5-8.25-10.333-14.833-18.333-20.083-24.375v.042l-17.375 15.25 22-7.208c-.792-2.5-2.417-5.584-4.625-8.042l-17.375 15.25 22-7.208-16.209 5.291h17.167c0-.916-.125-2.791-.958-5.291l-16.209 5.291h17.167-5.708l5.666.75s.042-.208.042-.75h-5.708l5.666.75c-.083-.083.834-3.958 3.542-9.625 2.583-5.5 6.708-12.791 12.208-21.25 10.709-16.417 26.584-37.208 46.792-61.042 37.917-44.75 90.959-100.375 154.834-162.833 111.75-109.417 256.708-240.125 413.833-374.375 235.667-201.417 498.834-410.917 719-569.542 110.043-79.292 209.418-145.876 288.543-192.042 39.5-23.084 74-41.084 101.5-52.834 13.708-5.875 25.667-10.208 35.292-12.916 9.541-2.709 16.791-3.625 20.125-3.584 1.041 0 1.708.084 1.875.084h.083l.792-4.334-1.375 4.209c.375.125.583.125.583.125l.792-4.334-1.375 4.209 4.041-12.375-7 10.916c1.25.792 2.334 1.25 2.959 1.459l4.041-12.375-7 10.916 9.5-14.791-13.375 11.375a18.26 18.26 0 003.875 3.416l9.5-14.791-13.375 11.375c13.375 15.791 34 41.666 59.75 75.083 45.125 58.542 106.167 140.417 174.834 235.125 102.958 142.042 223.083 313.042 332.5 477.917 54.75 82.417 106.792 163.292 152.667 238.209 45.875 74.875 85.583 143.833 115.458 202 9.417 18.333 31.917 25.542 50.25 16.125 18.292-9.417 25.5-31.917 16.084-50.25-47.542-92.375-116.709-207.209-195.709-330.209-118.542-184.416-259.125-386.917-380.875-556.042-60.834-84.541-116.959-160.708-163.25-222.125-23.167-30.708-43.875-57.75-61.5-80.292-17.667-22.583-32.209-40.666-43.334-53.791a58.038 58.038 0 00-11.875-10.584c-6.541-4.333-13.458-7.041-20.083-8.666-6.708-1.584-13.125-2.167-19.458-2.167-11.709.042-23.042 1.958-35 4.958-23.084 5.917-48.626 16.292-77.834 30.417-54.667 26.542-121.833 66.667-198.667 117.167-134.333 88.416-297.792 208.625-467.833 341.583-255.084 199.459-524.75 427.334-731.334 618.626-103.334 95.667-190.834 182.083-253.334 251.917-31.292 34.958-56.333 65.708-74.417 92.333-9.041 13.375-16.375 25.708-21.916 37.833-2.792 6.084-5.125 12.126-6.875 18.459-1.75 6.375-3 13.042-3 20.583 0 5.542.708 11.625 2.75 17.917 2 6.25 5.5 12.583 10.166 17.917h.042c2.5 2.875 6.125 7.166 10.542 12.625 8.583 10.541 20.208 25.375 34.375 43.75 53.208 69 141.875 187.916 246.167 329.167 156.5 211.875 348.375 474.292 510 695.792a395350.993 395350.993 0 01211.5 290.208c57.5 78.875 99.209 136.125 117.042 160.417 12.167 16.625 35.5 20.208 52.125 8 16.583-12.167 20.167-35.5 8-52.125z" fill="#233f85" fill-rule="nonzero"/>
  <path d="M10269.139 9596.135c927.292-636 3164.836 1548.877 3159.252 2200.294-5.625 651.459-1995.168 1834.751-2326.585 1663.835-365.292-188.334-2255.293-2888.378-832.667-3864.129z" fill="#62c6bd"/>
  <path d="M9747.013 11010.595c-32.666-158.459-51.041-314.75-51.041-464.959 0-208.375 35.25-404.792 115.916-580.25 40.375-87.75 92.084-170.334 156.667-246.792 64.625-76.5 142.167-146.917 234.375-210.167 54.375-37.292 113.417-64.208 176.917-82 63.459-17.75 131.459-26.25 203.292-26.25 125.792-.042 263.417 26.208 407.625 74 252.417 83.5 524.667 232.875 790.043 418 398.125 277.542 781.084 635.376 1063.25 969.334 141.084 166.917 257 327.917 336.959 469.084 40 70.542 70.958 136.084 91.708 194.5 20.792 58.334 31.125 109.5 31.042 150.417v2.25-.125c-.292 33.583-6.583 69.792-18.792 108.167-22.791 71.917-66.541 151.333-127.208 234.083-106.083 144.917-263.417 300.042-445.917 449.96-273.667 225.04-603.875 439-902.792 595.958-149.417 78.458-291.042 142.75-413.417 187.083-61.167 22.209-117.5 39.375-167.292 50.917-49.75 11.583-93.084 17.417-127.375 17.375-15.834 0-29.667-1.208-41.334-3.458-11.625-2.209-20.958-5.417-28.083-9.084h.042c-10.334-5.291-24-14.25-39.792-26.5-27.708-21.541-61.958-53.166-100.542-93.416-57.958-60.375-125.875-140.125-199.125-235.209-73.292-95.083-152-205.583-231.75-327.667-11.292-17.25-34.417-22.083-51.625-10.791-17.25 11.25-22.084 34.375-10.834 51.583 123.126 188.417 243.75 349.75 347.5 471.5 51.917 60.875 99.584 111.875 141.668 151.667 21.041 19.875 40.666 36.958 58.916 51.208 18.334 14.209 35.167 25.542 51.375 33.917 14.834 7.625 31.042 12.75 48.292 16.083 17.292 3.292 35.708 4.75 55.292 4.75 34.541 0 72.791-4.583 114.666-12.916 78.542-15.667 169.959-44.75 270.792-84.667 176.334-69.833 381.167-172.917 590-296.292 313.168-185.125 635.043-415.625 880.627-648.5 122.791-116.5 226.625-233.584 300.791-347 37.084-56.709 66.792-112.584 87.542-167.334 20.709-54.75 32.5-108.542 32.959-160.792v-2.75c0-40.458-7.417-84.042-20.917-130.75-25.334-87.458-72.125-186.208-136.25-293.334-112.25-187.375-277.917-400.292-477.126-615.167-298.833-322.25-672.875-648.584-1054.75-895.375-190.959-123.417-383.834-226.917-570.751-299.834-186.917-72.875-367.875-115.417-535.417-115.458-77.708 0-152.542 9.208-223.375 29-70.834 19.791-137.667 50.25-199 92.333-97.459 66.792-180.126 141.792-249.167 223.542-103.584 122.583-176.334 260.292-222.959 407.833-46.625 147.542-67.25 304.792-67.25 467.334 0 156.292 19.084 317.5 52.584 480 4.166 20.209 23.875 33.167 44.041 29 20.167-4.166 33.167-23.874 29-44.041z" fill="#233f85" fill-rule="nonzero"/>
  <path d="M2875.424 9937.094h74.584c.042-1604.126 650.084-3056.002 1701.293-4107.212 1051.25-1051.209 2503.085-1701.25 4107.17-1701.25 1604.084 0 3056.002 650.041 4107.253 1701.25 1051.168 1051.21 1701.251 2503.086 1701.251 4107.212 0 1604.085-650.083 3055.96-1701.25 4107.212-1051.252 1051.167-2503.128 1701.21-4107.254 1701.251-1604.043-.042-3055.961-650.084-4107.17-1701.251-1051.21-1051.251-1701.251-2503.127-1701.293-4107.212h-74.584c0 1624.418 658.543 3095.42 1723.127 4159.92 1064.5 1064.584 2535.502 1723.126 4159.92 1723.126 1624.46 0 3095.46-658.542 4160.003-1723.126 1064.543-1064.5 1723.127-2535.46 1723.085-4159.92.042-1624.46-658.542-3095.46-1723.085-4159.962-1064.542-1064.584-2535.544-1723.126-4160.003-1723.084-1624.418-.042-3095.42 658.5-4159.92 1723.084-1064.584 1064.501-1723.127 2535.502-1723.127 4159.962z" fill="#233f85" fill-rule="nonzero"/>
  <path d="M13783.642 10910.053c5.75-167.958 333.041-236.083 731.042-152.208 398.042 83.875 716 288 710.292 455.917-5.75 167.917-333.084 236.042-731.084 152.167-398-83.834-716-287.959-710.25-455.876zM13901.808 10267.594c5.75-167.916 333.042-236.083 731.043-152.208 398.042 83.875 716.042 288 710.292 455.917-5.75 167.917-333.084 236.083-731.084 152.208-398-83.875-716-288-710.25-455.917zM13886.558 9603.635c5.75-167.916 333.042-236.041 731.084-152.208 398 83.875 716 288 710.25 455.917-5.75 167.958-333.083 236.084-731.083 152.208-398-83.875-716-288-710.25-455.917z" fill="#fff"/>
  <path d="M14056.933 9396.635c49.167-9.083 105.792-13.958 167.876-13.916 94.541-.042 201.75 11.208 315 35.041 96.625 20.375 188.417 48 271.542 80.375 62.333 24.292 119.75 51.292 170.625 79.834 76.292 42.791 137.708 89.291 178.583 134.208 20.5 22.417 35.75 44.334 45.625 64.709 9.875 20.416 14.334 39 14.334 55.833 0 1 0 2.125-.042 3.375v-.167c-.375 10.125-2.292 19.334-5.708 28.209-3 7.75-7.167 15.25-12.75 22.708-9.75 13.042-23.917 25.792-42.792 37.583-28.208 17.709-66.875 32.917-113.792 43.75-46.917 10.917-102 17.584-163.042 19.334-20.583.583-36.833 17.75-36.208 38.333.583 20.583 17.75 36.792 38.333 36.208 56.792-1.625 109.417-7.208 156.959-16.708 35.667-7.167 68.458-16.5 98-28.167 22.167-8.75 42.5-18.875 60.833-30.458 27.417-17.417 50.459-38.292 67.167-63.292 8.333-12.5 15-26 19.667-40.291 4.666-14.25 7.333-29.292 7.875-44.667v-.167c.041-1.75.083-3.625.083-5.583 0-26.792-6.333-53.333-17.417-78.833-9.708-22.334-23.041-44-39.375-65.125-28.583-36.917-66.375-72.334-111.666-106.167-68-50.667-153.042-97.75-250-138.5-97-40.667-205.917-74.959-321.46-99.292-117.916-24.833-229.958-36.667-330.374-36.667-65.959 0-126.917 5.084-181.417 15.167-20.25 3.708-33.667 23.167-29.917 43.417s23.208 33.666 43.458 29.916zM13966.892 10091.136c32.208-13.959 72.166-25.209 118.25-32.834 46.083-7.625 98.208-11.666 154.917-11.666 94.583 0 201.75 11.208 315 35.083 96.625 20.375 188.417 48 271.542 80.375 62.333 24.292 119.75 51.292 170.625 79.834 76.292 42.791 137.708 89.291 178.583 134.208 20.5 22.417 35.75 44.333 45.625 64.708 9.875 20.417 14.334 39 14.334 55.834 0 1 0 2.125-.042 3.375v-.167c-.375 10.625-2.458 20.25-6.25 29.542-3.292 8.125-7.917 16-14.083 23.792-10.792 13.666-26.584 27-47.459 39.125-31.333 18.208-73.958 33.416-125.416 43.708-51.417 10.375-111.542 15.917-177.917 15.875-6.334 0-12.75-.042-19.25-.125-20.584-.333-37.542 16.125-37.875 36.708-.292 20.584 16.125 37.542 36.75 37.875 6.833.084 13.625.125 20.375.125 61.375 0 118.458-4.416 170-13.125 38.708-6.583 74.292-15.541 106.375-27.083 24.083-8.625 46.167-18.708 66.042-30.417 29.791-17.583 54.875-38.875 73.125-64.75 9.083-12.916 16.416-26.916 21.541-41.875 5.125-14.916 8.042-30.666 8.584-46.833v-.167c.041-1.75.083-3.625.083-5.583 0-26.792-6.333-53.334-17.417-78.834-9.708-22.333-23.041-44-39.375-65.125-28.583-36.916-66.375-72.333-111.666-106.166-68-50.667-153.042-97.75-250-138.5-97-40.667-205.917-74.959-321.46-99.292-117.916-24.875-229.916-36.709-330.374-36.709-60.209 0-116.292 4.25-167.126 12.667-50.791 8.417-96.375 20.958-135.666 37.958-18.917 8.209-27.584 30.167-19.417 49.042 8.167 18.917 30.125 27.584 49.042 19.417zM14036.767 10692.345c26.958-2.167 55.333-3.25 85-3.25 94.583 0 201.792 11.208 315.125 35.083 96.625 20.375 188.417 48 271.542 80.375 62.333 24.292 119.75 51.292 170.625 79.833 76.292 42.75 137.708 89.25 178.625 134.167 20.459 22.417 35.709 44.375 45.584 64.75 9.875 20.417 14.333 39 14.333 55.834 0 1.041 0 2.166-.042 3.333v-.125c-.333 9.375-2 17.917-4.958 26.208-5.167 14.375-14.375 28.125-28.875 41.584-10.833 10.041-24.583 19.75-41.208 28.708-24.876 13.417-56.167 25.042-92.667 34-36.542 9-78.292 15.375-124.125 18.75-20.542 1.5-36 19.375-34.459 39.917 1.5 20.542 19.375 36 39.917 34.458 50.208-3.708 96.583-10.75 138.458-21.208 31.375-7.834 60.209-17.542 86.209-29.375 38.958-17.709 71.75-40.125 95.958-68.667 12.084-14.25 21.917-30.083 28.834-47.25a160.894 160.894 0 0011.458-54.583v-.084c.042-1.833.083-3.75.083-5.666 0-26.792-6.333-53.334-17.416-78.834-9.709-22.333-23.042-44-39.375-65.125-28.584-36.958-66.375-72.333-111.667-106.167-68-50.708-153.042-97.791-250-138.5-97-40.666-205.917-74.958-321.459-99.291-118-24.875-230.042-36.709-330.5-36.709-31.5 0-61.875 1.167-90.917 3.459-20.542 1.666-35.833 19.625-34.208 40.166 1.625 20.5 19.625 35.834 40.125 34.209z" fill="#233f85" fill-rule="nonzero"/>
  <path d="M2154.174 9847.386c5.75-167.917 333.083-236.042 731.084-152.167 398 83.875 716 287.958 710.25 455.917-5.75 167.917-333.042 236.042-731.084 152.167-398-83.875-716-288-710.25-455.917zM2272.34 9204.927c5.75-167.917 333.084-236.042 731.085-152.167 398 83.875 716 288 710.25 455.917-5.75 167.917-333.042 236.042-731.042 152.167-398.042-83.875-716.042-287.959-710.292-455.917zM2257.09 8540.968c5.75-167.917 333.084-236.042 731.085-152.167 398.042 83.875 716 288 710.25 455.917-5.75 167.917-333.042 236.042-731.042 152.167-398.042-83.875-716-287.959-710.292-455.917z" fill="#fff"/>
  <path d="M2360.007 8668.635c-57.708-38.084-103.291-77.959-133.25-115.834-15-18.875-26.041-37.208-33.208-54.25-7.167-17.083-10.458-32.75-10.458-47.208 0-1.083.041-2.125.083-3.083v-.125c.375-10.625 2.458-20.25 6.208-29.542 3.292-8.084 7.917-16 14.125-23.792 10.792-13.625 26.542-27 47.459-39.125 31.333-18.208 73.958-33.417 125.416-43.708 51.417-10.334 111.542-15.875 177.876-15.875 94.583 0 201.791 11.208 315.041 35.083 174.667 36.75 333.667 97.417 453.834 166.834 17.833 10.291 40.625 4.166 50.917-13.667 10.333-17.833 4.208-40.625-13.625-50.917-128.417-74.083-293.834-136.875-475.75-175.208-117.917-24.834-229.96-36.709-330.417-36.709-61.376 0-118.417 4.417-169.959 13.167-38.708 6.542-74.292 15.5-106.375 27.042-24.083 8.666-46.167 18.75-66.042 30.458-29.833 17.542-54.875 38.833-73.125 64.708-9.083 12.917-16.416 26.959-21.541 41.875-5.125 14.917-8.042 30.667-8.584 46.834v-.083c-.083 2-.125 3.958-.125 5.833 0 25.833 5.917 51.417 16.292 76.083 15.583 37 40.958 72.167 73.792 106.084 32.916 33.833 73.458 66.416 120.333 97.375 17.208 11.333 40.333 6.583 51.667-10.584 11.375-17.208 6.625-40.333-10.584-51.666zM2523.633 9414.219c-50.667-23.459-96.959-48.625-137.626-74.625-61-39-109.333-80.167-141.166-119.334-15.959-19.542-27.75-38.5-35.375-56.167-7.625-17.708-11.125-33.875-11.125-48.75 0-1.125.041-2.166.083-3.166v-.084c.375-10.625 2.458-20.25 6.208-29.541 3.292-8.125 7.917-16 14.125-23.792 10.792-13.667 26.584-27 47.5-39.125 31.292-18.208 73.959-33.417 125.417-43.708 51.417-10.334 111.583-15.875 177.917-15.875 94.583 0 201.75 11.208 314.958 35.041 162.459 34.25 311.417 89.084 428.084 152.459 18.125 9.833 40.75 3.125 50.584-14.959 9.833-18.125 3.125-40.75-15-50.583-124.126-67.375-279.126-124.167-448.293-159.875-117.875-24.833-229.875-36.667-330.333-36.667-61.375 0-118.417 4.417-170 13.125-38.709 6.584-74.292 15.542-106.375 27.084-24.084 8.625-46.167 18.708-66.084 30.416-29.791 17.584-54.875 38.875-73.125 64.75-9.083 12.917-16.416 26.917-21.541 41.875-5.125 14.917-8.042 30.667-8.584 46.834v-.084c-.083 2-.125 3.959-.125 5.875 0 17.709 2.792 35.417 7.917 52.667 8.958 30.25 24.833 59.333 45.958 87.417 31.75 42.083 75.417 82.167 128.584 120.208 53.208 38 115.958 73.834 186.083 106.292 18.708 8.667 40.875.5 49.542-18.167 8.625-18.708.5-40.875-18.208-49.541zM2629.174 10139.678c-80.625-23.459-156.125-51.709-223.708-83-101.375-46.876-185.084-100.834-241.625-154.292-28.292-26.667-49.709-53.167-63.542-77.792-6.917-12.292-12-24.125-15.292-35.25-3.292-11.167-4.833-21.625-4.833-31.542 0-1.125.041-2.166.083-3.166v-.084c.375-10.625 2.458-20.25 6.208-29.541 3.292-8.125 7.917-16 14.125-23.792 10.792-13.667 26.584-27 47.5-39.125 31.292-18.25 73.959-33.459 125.376-43.75 51.458-10.334 111.583-15.875 177.958-15.875 94.542 0 201.75 11.25 314.959 35.083 114.041 24.042 221.375 58.209 315.625 98.375 94.25 40.125 175.375 86.417 236.708 133.917 16.292 12.625 39.709 9.625 52.334-6.625 12.625-16.292 9.625-39.75-6.667-52.333-67.875-52.542-154.125-101.334-253.125-143.584-99-42.167-210.75-77.667-329.5-102.708-117.917-24.834-229.917-36.667-330.334-36.709-61.375 0-118.458 4.459-170 13.167-38.708 6.542-74.292 15.542-106.375 27.042-24.083 8.666-46.167 18.75-66.083 30.458-29.792 17.583-54.876 38.875-73.126 64.75-9.083 12.917-16.416 26.917-21.541 41.875-5.125 14.917-8.042 30.667-8.584 46.834v-.084c-.083 2-.125 3.959-.125 5.875 0 23.625 4.959 47.125 13.75 69.834 15.459 39.75 42.334 77.416 77.625 113.583 53.042 54.167 125.709 105.208 212.667 151.25 87 45.959 188.334 86.709 298.667 118.834 19.792 5.75 40.459-5.584 46.25-25.375 5.75-19.792-5.625-40.459-25.375-46.25z" fill="#233f85" fill-rule="nonzero"/>
  <path d="M9379.096 7930.676c-37.875 215.583-212.667 1083.626-78.666 2024.543-154.376 116.5-1054.501 200.959-1302.085 0 8.75-381.625 17.459-1144.834-17.458-1340.001-34.958-195.167 1436.084-900.084 1398.21-684.542z" fill="#fff"/>
  <path d="M7934.553 9830.886c3.917-170.876 7.792-417.959 7.792-656.668 0-147.625-1.458-292-5.416-413.333-1.959-60.709-4.542-115.625-7.834-162.5-1.667-23.459-3.542-44.875-5.625-64.084-2.083-19.208-4.375-36.125-7-50.833v-.5c-.042-.792.167-2.792 1.208-6 1.959-6.208 7.459-16.5 16.875-28.583 8.792-11.417 20.876-24.5 35.709-38.584 27.875-26.458 65.458-56.458 110.083-88.083 78.084-55.417 177.542-116.042 285.542-175.5 161.959-89.209 343.209-175.834 501.209-239.834 78.958-32 152.167-58.333 213.833-76.458 30.792-9.084 58.709-16.084 82.792-20.75 24-4.709 44.292-6.959 58.917-6.917 7.208 0 13 .542 16.958 1.292 3 .541 4.959 1.208 5.792 1.583l.458.25 1.334-2.292-1.584 2.125.25.167 1.334-2.292-1.584 2.125 6.417-8.625-9.542 4.667c.917 1.917 2.542 3.542 3.125 3.958l6.417-8.625-9.542 4.667 9.917-4.875-10.792 2.333c.125.667.417 1.625.875 2.542l9.917-4.875-10.792 2.333 6.834-1.458-6.959.708.125.75 6.834-1.458-6.959.708 2.375-.25h-2.416l.041.25 2.375-.25h-2.416c0 .042 0 .5-.125 1.375v-.041c-6.875 39-18.417 100.458-31.792 180.208-40.209 239.292-97.209 643.667-97.209 1117.71 0 233 13.75 482.833 50.125 738.333l36.917-5.25-22.458-29.791c-5.959 4.541-15.084 10-26.709 15.541-20.416 9.792-48.458 19.917-81.958 29.459-50.333 14.333-113.042 27.416-182.917 38.166-69.916 10.75-147.083 19.167-226.667 24.417-20.583 1.333-36.125 19.083-34.791 39.625 1.375 20.583 19.125 36.125 39.666 34.792 124.5-8.209 243.042-23.917 340.376-44.5 48.708-10.334 92.083-21.875 128.666-34.542 18.334-6.375 34.917-13.042 49.792-20.125 14.875-7.125 28-14.625 39.459-23.292a37.286 37.286 0 0014.458-35.041c-35.792-251.334-49.375-497.71-49.375-727.793-.042-312.042 25.042-594 53.542-817.459 14.25-111.75 29.333-208.875 42.625-287.917 13.291-79.041 24.708-139.875 31.708-179.625v-.083c.792-4.583 1.25-9.333 1.25-14.167 0-5.625-.625-11.416-2.083-17.166-1.292-5-3.209-10-5.792-14.625-4.417-8.167-10.708-15.084-17.583-20.25-5.167-3.875-10.584-6.875-16.084-9.209-8.25-3.5-16.625-5.583-25.208-6.916-8.583-1.334-17.375-1.875-26.625-1.875-19.5 0-40.917 2.416-64.667 6.708-44.5 8-97.208 22.583-156.292 42.292-103.375 34.5-225.958 84.708-352.292 143-189.5 87.458-387.042 193.042-538.625 291.417-37.917 24.625-73 48.791-104.417 72.208-47.125 35.208-86.042 68.5-114.625 100.167-14.25 15.875-26 31.333-34.833 47.375-4.375 8.042-8.042 16.25-10.709 24.875-2.666 8.625-4.291 17.708-4.291 27.25 0 4.5.375 9.083 1.166 13.667 2.209 12.25 4.334 27.708 6.292 45.708 3.417 31.5 6.292 70.875 8.667 116 7.166 135.417 9.75 322.834 9.75 515.875 0 237.876-3.875 484.584-7.75 654.96-.5 20.583 15.833 37.666 36.416 38.124 20.584.5 37.667-15.833 38.125-36.416z" fill="#233f85" fill-rule="nonzero"/>
  <path d="M6439.636 6681.591c85.666-1050.917 874.375-1845.376 1761.584-1774.501 887.251 70.875 1537.043 980.25 1451.335 2031.168-85.667 1050.876-874.376 1845.377-1761.585 1774.502-887.25-70.875-1537.043-980.251-1451.334-2031.169z" fill="#fff"/>
  <path d="M8718.262 8321.593c-238.625 162.75-512.208 254.833-799.084 254.833-35.5 0-71.208-1.416-107.125-4.25-201-16.083-389.333-76.333-559.458-172.417-170.084-96.083-321.876-228.166-449.084-387.833-12.833-16.125-36.292-18.75-52.375-5.917-16.125 12.834-18.792 36.292-5.958 52.375 132.708 166.625 291.708 305.167 470.708 406.334 179 101.125 378.126 164.833 590.25 181.792 37.876 3 75.542 4.5 113.042 4.5 303 .041 591.46-97.459 841.126-267.792 17-11.584 21.375-34.792 9.792-51.834-11.625-17-34.834-21.375-51.834-9.791zM6465.469 7340.634c-50.667-181.459-78-375.5-78-576.75 0-60.293 2.458-121.25 7.458-182.71 40.375-495.458 239.667-932.417 531.126-1244.75 145.708-156.167 314.333-281.167 497.583-367.084 183.25-85.917 381.042-132.792 585.71-132.792 35.5 0 71.208 1.417 107.083 4.292 203 16.208 393.083 77.458 564.5 175.25 257.084 146.584 472.125 375.625 622.917 657.834 150.792 282.167 237.167 617.292 237.167 975.167 0 60.292-2.458 121.25-7.458 182.709-25.417 311.5-113.584 599.917-248.042 848.709-9.792 18.125-3.042 40.75 15.083 50.542 18.125 9.791 40.75 3.041 50.542-15.084 139.417-258 230.5-556.375 256.75-878.125 5.167-63.459 7.709-126.417 7.709-188.75-.042-493.168-158.584-945.835-424.46-1284.627-133-169.375-292.874-310.292-473.25-413.167-180.375-102.916-381.292-167.708-595.5-184.791a1412.085 1412.085 0 00-113.042-4.542c-216.125 0-424.917 49.583-617.375 139.833-288.75 135.417-540.876 362.042-728.71 650.543-187.791 288.458-311.374 638.958-342.666 1022.792-5.167 63.458-7.708 126.417-7.708 188.75 0 208 28.208 408.75 80.75 596.834 5.541 19.833 26.125 31.417 45.958 25.875 19.833-5.542 31.417-26.125 25.875-45.958z" fill="#233f85" fill-rule="nonzero"/>
  <path d="M7999.387 6297.758c12.25-113.584 63.875-201.167 115.292-195.625 51.375 5.583 83.125 102.166 70.833 215.708-12.292 113.584-63.917 201.167-115.292 195.584-51.416-5.542-83.125-102.125-70.833-215.667z" fill="#233f85"/>
  <path d="M7256.095 6384.466c-19.334 83.625-56.5 174.834-104.917 257.209-24.167 41.208-51.167 80.25-80 115.125-28.792 34.917-59.417 65.625-90.709 90.375-16.166 12.75-18.875 36.208-6.125 52.375 12.792 16.167 36.25 18.875 52.375 6.125 36.25-28.667 70.375-63.083 102-101.375 47.417-57.459 89.292-123.667 123.417-192.75 34.167-69.125 60.584-141.042 76.625-210.209 4.667-20.083-7.833-40.083-27.875-44.75-20.083-4.666-40.125 7.834-44.791 27.875zM7584.803 7487.05h74.584c0-20.75 4.208-40.333 11.75-58.208 11.333-26.792 30.333-49.708 54.208-65.833 23.917-16.125 52.458-25.5 83.542-25.5 20.75 0 40.333 4.166 58.208 11.708 26.75 11.333 49.667 30.333 65.792 54.25s25.5 52.458 25.5 83.583c0 20.75-4.167 40.292-11.708 58.167-11.334 26.792-30.334 49.667-54.209 65.792-23.917 16.125-52.458 25.5-83.583 25.542-20.75 0-40.292-4.209-58.167-11.75-26.792-11.334-49.667-30.334-65.792-54.209-16.125-23.917-25.5-52.458-25.541-83.542h-74.584c0 30.834 6.292 60.375 17.625 87.209 17.042 40.292 45.417 74.417 81.167 98.583 35.708 24.125 79.042 38.292 125.292 38.292 30.833 0 60.416-6.292 87.25-17.625 40.25-17.042 74.417-45.417 98.542-81.167 24.166-35.708 38.333-79.042 38.291-125.292 0-30.833-6.25-60.416-17.625-87.25-17.041-40.25-45.375-74.416-81.125-98.583-35.708-24.167-79.042-38.333-125.333-38.292-30.834 0-60.417 6.25-87.209 17.625-40.291 17.042-74.416 45.417-98.583 81.167-24.125 35.708-38.292 79.042-38.292 125.333z" fill="#233f85" fill-rule="nonzero"/>
  <path d="M9184.18 6968.217c-112.792-8.042-436.543-469.959-104.417-787.46-162.959-158.75-1121.584-876.292-2273.294-431.291-149.625-152.167-558.042-764-205.5-1027.793 352.542-263.75 499.792 55.209 545.459 182-106.5-334.75-46.542-1235.167 850-1245.126 896.501-10 1860.46 2609.544 1821.502 3079.628-39 470.042-40.917 533.542-633.75 230.042z" fill="#f15d65"/>
  <path d="M9111.68 4892.882c162 335.75 297.708 683.25 392.666 978.625 47.5 147.667 84.792 282.334 110.126 395.667 12.666 56.667 22.291 108 28.75 152.792 6.5 44.792 9.708 83.084 9.708 113.167 0 9.958-.375 19-1.042 27.042-5.791 69.958-10.75 130.625-16.875 181.625-4.583 38.25-9.791 71.083-16.25 98.042-4.833 20.25-10.333 37.166-16.375 50.583-4.542 10.083-9.375 18.167-14.333 24.583-3.709 4.792-7.5 8.625-11.417 11.792-5.917 4.792-12.208 8.208-20.208 10.75-8 2.5-17.834 4-30.084 4-17.583.042-40.083-3.208-67.5-10.458-41.125-10.834-93.166-30.584-157.083-59.125-63.917-28.584-139.792-65.917-229.459-111.834-4.416-2.25-9.375-3.666-14.333-4-.708-.042-2.708-.333-5.667-1.417-5.583-1.916-14.25-6.458-24.166-13.666-17.417-12.584-38.667-33.125-59.75-59.5-31.792-39.584-63.625-92.292-87.167-151.75-23.542-59.5-38.792-125.709-38.792-192.834.042-51.708 8.959-103.958 30.042-155.083 21.083-51.125 54.333-101.334 104.208-149.042 7.292-7 11.459-16.708 11.5-26.792.042-10.125-4-19.833-11.25-26.875-16.791-16.375-40.541-37.416-71.125-62.083-53.5-43.125-127.791-97.209-220.292-154.25-138.75-85.542-318.416-177.709-529.667-248.584-211.25-70.875-454.167-120.5-718.875-120.5-23.292 0-46.709.375-70.334 1.167-20.583.708-36.708 17.958-36 38.541.667 20.584 17.917 36.709 38.5 36 22.75-.75 45.375-1.125 67.834-1.125 194.583 0 377.25 27.792 543.834 71.417 249.875 65.459 463.5 166.625 626 262.667 81.25 48.042 149.708 94.75 203.417 134.917 26.875 20.083 50.042 38.542 69.292 54.667 19.208 16.125 34.5 29.958 45.375 40.583l26-26.708-25.75-26.959c-56.917 54.334-96.542 113.667-121.625 174.542-25.125 60.875-35.667 123.167-35.667 183.5 0 63.709 11.667 125.25 30.167 181.917 13.916 42.458 31.708 82.208 51.541 118.167 29.792 53.958 64.084 99.291 98 132.792 17 16.75 33.917 30.583 50.959 41.083 8.541 5.25 17.125 9.667 26 13.042 8.916 3.416 18.166 5.833 28.166 6.541l2.625-37.166-17 33.166c120.375 61.625 216.792 108.375 295.5 140.209 39.376 15.916 74.376 28.125 106.042 36.5 31.667 8.333 60.042 12.916 86.5 12.916 19.417 0 37.834-2.541 55.042-8.291 15-5 29-12.542 41.167-22.25 10.667-8.459 20-18.5 28-29.625 14-19.542 24.083-42.167 32.208-67.709 12.084-38.291 19.792-83.458 26.209-136.792 6.416-53.333 11.416-114.833 17.25-185.125.875-10.458 1.291-21.5 1.291-33.208-.041-35.25-3.666-76.542-10.458-123.792-11.917-82.625-33.625-183.208-63.958-297.375-45.5-171.167-110.334-372.667-190.667-587.125-80.375-214.417-176.167-441.75-283.584-664.376-8.917-18.542-31.208-26.333-49.792-17.375-18.541 8.917-26.333 31.208-17.375 49.792zM6704.178 5548.424c-12.334-12.542-27.084-29.042-43.25-48.667-28.334-34.333-60.959-78.292-93.834-128.5-49.25-75.333-99-164.792-136.083-257.125-18.5-46.209-33.875-93.084-44.584-139.209-10.666-46.083-16.625-91.416-16.625-134.416 0-52.75 8.917-101.875 28.625-145.959 9.875-22.042 22.5-42.917 38.292-62.625 15.792-19.667 34.833-38.167 57.708-55.292 46.792-35 88.959-58.583 126.5-73.333 37.584-14.792 70.459-20.75 99.5-20.75 18.917 0 36.292 2.542 52.542 7.042 28.417 7.958 53.667 22.083 76.542 40.75 34.25 27.833 62.625 66 84.708 104.666 22.125 38.667 37.917 77.626 48.25 106.417 6.917 19.167 27.792 29.209 47.084 22.667 19.291-6.5 29.708-27.208 23.541-46.625-11-34.583-20.375-76.625-26.916-123.75-6.542-47.125-10.292-99.334-10.292-154.5-.042-97.084 11.583-203.25 39.458-307.376 20.875-78.125 50.876-155.083 91.709-226.416 30.625-53.542 67.333-103.917 111-149.5 65.458-68.376 146.375-126 246.667-167.292 100.292-41.209 220.083-66.125 363.25-67.709 1.583-.041 3.125-.041 4.708-.041 51.292 0 103.25 9.333 156 27.333 79.084 27.042 159.834 73.792 240.667 137.333 80.792 63.5 161.584 143.625 241 236.459 13.376 15.667 36.917 17.5 52.584 4.125 15.667-13.375 17.5-36.917 4.125-52.583-109.208-127.626-222.084-233.626-338-308.5-57.959-37.417-116.709-67.042-176.25-87.376-59.459-20.375-119.75-31.375-180.126-31.375-1.875 0-3.708 0-5.541.042-179.334 1.958-328.167 38.792-449.834 100.333-91.208 46.125-167 106.042-228.917 174.625-92.917 102.875-154.583 224.876-193.083 349.584-38.542 124.792-54 252.459-54 368.334 0 58.541 3.958 114.041 11 164.791 7.041 50.709 17.166 96.584 29.708 136.084l35.542-11.292 35.083-12.625c-8.583-23.875-20.667-54.417-37-87.083-12.292-24.459-27-50.125-44.583-75.125-26.375-37.459-59.292-73.584-100.875-100.834-20.75-13.625-43.709-24.958-68.75-32.875-25.042-7.875-52.167-12.291-81-12.291-39.376 0-81.75 8.208-126.792 25.916-45.042 17.709-92.792 44.834-143.875 83.042-27.667 20.708-51.334 43.583-71.167 68.292-29.792 37.041-50.833 78.125-64.208 121.208-13.375 43.125-19.167 88.25-19.167 134.084 0 76.041 15.875 154.125 40.75 230.458 37.375 114.459 95.25 225.209 154.042 318.25 29.375 46.5 59 88.5 86.583 124.334 27.542 35.792 52.958 65.333 74.417 87.167 14.458 14.708 38.042 14.875 52.75.458 14.667-14.458 14.875-38.042.417-52.75z" fill="#233f85" fill-rule="nonzero"/>
  <path d="M8928.054 7191.384c0-226.834 183.875-410.71 410.709-410.71 226.833 0 410.709 183.876 410.709 410.71 0 226.833-183.876 410.708-410.709 410.708-226.834 0-410.709-183.875-410.709-410.708z" fill="#fff"/>
  <path d="M9145.513 6796.508c47.542-21.916 100.292-34.125 156.167-34.125 51.666 0 100.708 10.417 145.333 29.334 67 28.291 124.083 75.708 164.334 135.333 40.291 59.625 63.75 131.25 63.75 208.75 0 51.625-10.417 100.667-29.334 145.292-28.291 66.958-75.708 124.042-135.333 164.333-59.625 40.25-131.25 63.709-208.75 63.75-64-.041-124.042-16.083-176.626-44.333-18.125-9.792-40.75-3-50.5 15.167-9.75 18.125-2.958 40.75 15.167 50.5 63.083 33.958 135.417 53.25 211.959 53.25 61.75 0 120.791-12.542 174.416-35.25 80.417-34 148.75-90.75 197.084-162.25 48.292-71.459 76.542-157.834 76.5-250.459 0-61.75-12.542-120.792-35.208-174.417-34.042-80.458-90.792-148.75-162.25-197.083-71.459-48.292-157.876-76.542-250.542-76.5-66.792 0-130.334 14.666-187.376 40.958-18.708 8.625-26.875 30.75-18.291 49.459 8.625 18.708 30.791 26.875 49.5 18.291z" fill="#233f85" fill-rule="nonzero"/>
</svg>
