<?xml version="1.0" encoding="UTF-8" standalone="no"?>
<!DOCTYPE svg PUBLIC "-//W3C//DTD SVG 1.1//EN" "http://www.w3.org/Graphics/SVG/1.1/DTD/svg11.dtd">
<svg width="100%" height="100%" viewBox="0 0 3287 3295" version="1.1" xmlns="http://www.w3.org/2000/svg" xmlns:xlink="http://www.w3.org/1999/xlink" xml:space="preserve" xmlns:serif="http://www.serif.com/" style="fill-rule:evenodd;clip-rule:evenodd;stroke-linecap:round;stroke-linejoin:round;stroke-miterlimit:2;">
    <g transform="matrix(4.16667,0,0,4.16667,0,0)">
        <rect x="483.882" y="32.132" width="240.721" height="182.262" style="fill:rgb(217,223,241);"/>
        <rect x="613.838" y="66.402" width="70.495" height="126.377" style="fill:rgb(236,242,250);"/>
        <path d="M590.626,94.203C590.626,110.253 577.616,123.264 561.566,123.264C545.515,123.264 532.504,110.253 532.504,94.203C532.504,78.153 545.515,65.142 561.566,65.142C577.616,65.142 590.626,78.153 590.626,94.203Z" style="fill:rgb(241,93,101);fill-rule:nonzero;"/>
        <path d="M727.506,404.466C727.506,443.738 695.67,475.575 656.399,475.575C617.126,475.575 585.29,443.738 585.29,404.466C585.29,365.195 617.126,333.358 656.399,333.358C695.67,333.358 727.506,365.195 727.506,404.466Z" style="fill:white;fill-rule:nonzero;"/>
        <rect x="619.192" y="272.432" width="152.367" height="152.367" style="fill:none;stroke:rgb(182,193,227);stroke-width:3px;"/>
        <path d="M369.355,789.156L747.442,789.156" style="fill:none;stroke:rgb(35,63,133);stroke-width:3.69px;"/>
        <path d="M1.845,789.156L280.437,789.156" style="fill:none;stroke:rgb(35,63,133);stroke-width:3.69px;"/>
        <path d="M436.625,275.154L435.071,282.622L424.671,285.853C424.671,285.853 419.523,269.8 418.815,266.165C413.767,269.9 384.991,277.977 380.018,278.695C379.334,274.825 379.33,241.292 407.288,241.292C431.919,241.292 442.964,265.956 443.612,268.846C442.167,269.692 436.625,271.746 436.625,275.154Z" style="fill:rgb(239,203,85);fill-rule:nonzero;"/>
        <path d="M443.535,339.73C437.281,339.73 391.925,385.499 390.06,395.081C389.247,399.264 375.448,470.668 375.448,470.668L451.122,449.532L455.558,353.244L444.777,339.73L443.535,339.73Z" style="fill:rgb(98,198,189);fill-rule:nonzero;"/>
        <path d="M350.06,472.628C349.927,467.355 393.374,330.216 398.269,325.559C403.328,320.746 408.477,320.651 410.638,320.754C412.796,320.857 423.176,325.758 425.369,330.931C421.626,339.787 412.622,344.708 412.622,344.708L395.094,453.028L350.06,472.628Z" style="fill:white;fill-rule:nonzero;"/>
        <path d="M402.957,554.864L465.741,632.583L435.288,663.19L343.127,582.617L364.93,552.619L402.957,554.864Z" style="fill:rgb(60,55,69);fill-rule:nonzero;"/>
        <path d="M386.459,693.967C377.974,686.282 278.751,562.648 278.751,547.344C278.751,513.24 317.45,501.145 328.015,498.49C342.556,497.172 407.101,491.769 417.254,492.187C424.575,500.118 509.574,518.413 521.891,516.837C521.891,523.004 512.094,566.146 442.572,566.146C435.286,566.146 380.483,563.959 379.464,563.959C379.464,576.784 414.588,660.299 417.941,665.984" style="fill:rgb(60,55,69);fill-rule:nonzero;"/>
        <path d="M476.403,317.367C532.667,317.367 544.849,418.876 544.849,447.685C544.849,484.421 529.946,513.771 522.807,516.519C502.698,524.25 428.882,498.923 424.198,486.935C401.383,428.542 438.944,317.367 476.403,317.367Z" style="fill:rgb(98,198,189);fill-rule:nonzero;"/>
        <path d="M428.363,247.881C432.801,251.828 436.724,256.824 439.741,262.689C440.232,263.643 440.69,264.604 441.116,265.569" style="fill:none;stroke:rgb(35,63,133);stroke-width:3.69px;"/>
        <path d="M381.817,292.487C371.313,272.066 375.765,248.843 391.76,240.615C396.987,237.926 402.798,237.172 408.622,238.085" style="fill:none;stroke:rgb(35,63,133);stroke-width:3.69px;"/>
        <path d="M437.372,308.674C435.244,311.062 432.711,313.061 429.795,314.561C418.877,320.177 405.405,317.356 394.611,308.507" style="fill:none;stroke:rgb(35,63,133);stroke-width:3.69px;"/>
        <path d="M433.049,271.577C434.458,268.035 437.918,265.53 441.963,265.53C447.258,265.53 451.55,269.823 451.55,275.118C451.55,280.413 447.258,284.706 441.963,284.706C440.466,284.706 439.049,284.363 437.787,283.752" style="fill:none;stroke:rgb(35,63,133);stroke-width:3.69px;"/>
        <path d="M441.152,341.681C439.736,336.631 434.668,321.069 428.342,315.251" style="fill:none;stroke:rgb(35,63,133);stroke-width:3.69px;"/>
        <path d="M446.201,287.111C448.15,293.666 465.778,317.32 470.12,320.598C469.86,323.449 464.248,328.955 457.94,333.644" style="fill:none;stroke:rgb(35,63,133);stroke-width:3.69px;"/>
        <path d="M423.672,281.476L431.496,279.046L433.048,271.577" style="fill:none;stroke:rgb(35,63,133);stroke-width:3.69px;"/>
        <path d="M402.611,267.82C408.433,265.877 413.403,263.945 415.238,262.588C415.751,265.231 418.616,274.445 420.14,279.273" style="fill:none;stroke:rgb(35,63,133);stroke-width:3.69px;"/>
        <path d="M376.44,275.118C378.359,274.841 383.814,273.471 390.085,271.676" style="fill:none;stroke:rgb(35,63,133);stroke-width:3.69px;"/>
        <path d="M433.747,492.695C425.855,488.755 420.363,484.924 419.192,481.927C412.153,463.913 410.861,440.876 413.539,417.63" style="fill:none;stroke:rgb(35,63,133);stroke-width:3.69px;"/>
        <path d="M532.054,384.773C537.913,408.268 539.84,431.222 539.84,442.679C539.84,479.415 524.937,508.765 517.797,511.512C508.372,515.136 487.146,511.498 466.77,505.373" style="fill:none;stroke:rgb(35,63,133);stroke-width:3.69px;"/>
        <path d="M463.923,313.793C466.403,312.855 468.9,312.361 471.396,312.361C486.229,312.361 497.998,319.415 507.288,330.333" style="fill:none;stroke:rgb(35,63,133);stroke-width:3.69px;"/>
        <path d="M424.763,369.093C429,357.118 434.109,346.188 439.764,337.189" style="fill:none;stroke:rgb(35,63,133);stroke-width:3.69px;"/>
        <path d="M389.767,327.991C391.429,323.787 392.647,321.135 393.261,320.552C398.319,315.739 403.469,315.643 405.629,315.746C407.789,315.849 418.168,320.751 420.362,325.923" style="fill:none;stroke:rgb(35,63,133);stroke-width:3.69px;"/>
        <path d="M357.297,424.796C364.671,401.235 374.03,372.425 381.413,351.048" style="fill:none;stroke:rgb(35,63,133);stroke-width:3.69px;"/>
        <path d="M345.052,466.905C345.028,465.921 346.518,460.38 348.99,451.985" style="fill:none;stroke:rgb(35,63,133);stroke-width:3.69px;"/>
        <path d="M407.315,324.799C409.452,325.137 414.624,328.285 417.324,331.433" style="fill:none;stroke:rgb(35,63,133);stroke-width:3.69px;"/>
        <path d="M401.32,332.39C403.455,332.727 408.629,335.876 411.327,339.024" style="fill:none;stroke:rgb(35,63,133);stroke-width:3.69px;"/>
        <path d="M390.086,447.44C390.261,442.642 402.127,359.86 407.316,343.591" style="fill:none;stroke:rgb(35,63,133);stroke-width:3.69px;"/>
        <path d="M415.499,353.614C422.781,345.823 431.6,337.453 438.676,334.071" style="fill:none;stroke:rgb(35,63,133);stroke-width:3.69px;"/>
        <path d="M185.912,395.513L231.929,470.271" style="fill:none;stroke:rgb(35,63,133);stroke-width:3.69px;"/>
        <path d="M516.882,511.827C516.882,517.993 507.085,561.135 437.563,561.135C430.277,561.135 375.475,558.949 374.455,558.949C374.455,571.775 409.58,655.288 412.931,660.972" style="fill:none;stroke:rgb(35,63,133);stroke-width:3.69px;"/>
        <path d="M323.007,493.48C312.805,497.297 273.744,508.228 273.744,542.334C273.744,557.638 372.966,681.271 381.452,688.956" style="fill:none;stroke:rgb(35,63,133);stroke-width:3.69px;"/>
        <path d="M376.495,694.497L421.967,665.493" style="fill:none;stroke:rgb(35,63,133);stroke-width:3.69px;"/>
        <path d="M381.45,702.513L428.38,674.092" style="fill:none;stroke:rgb(35,63,133);stroke-width:3.69px;"/>
        <path d="M400.215,631.829L429.384,658.18" style="fill:none;stroke:rgb(35,63,133);stroke-width:3.69px;"/>
        <path d="M417.327,573.668L460.734,627.575" style="fill:none;stroke:rgb(35,63,133);stroke-width:3.69px;"/>
        <path d="M465.759,623.703L427.407,660.975" style="fill:none;stroke:rgb(35,63,133);stroke-width:3.69px;"/>
        <path d="M470.601,630.893L432.247,668.164" style="fill:none;stroke:rgb(35,63,133);stroke-width:3.69px;"/>
        <path d="M165.114,756.022L165.114,789.154" style="fill:none;stroke:rgb(35,63,133);stroke-width:3.69px;"/>
        <path d="M165.113,493.481L165.113,694.495" style="fill:none;stroke:rgb(35,63,133);stroke-width:3.69px;"/>
        <path d="M318.147,493.48L318.147,789.153" style="fill:none;stroke:rgb(35,63,133);stroke-width:3.69px;"/>
        <path d="M496.124,341.926C522.914,351.251 509.272,408.63 501.731,410.564C494.191,412.498 448.761,394.516 447.308,389.682C445.853,384.848 464.826,331.03 496.124,341.926Z" style="fill:rgb(98,198,189);fill-rule:nonzero;"/>
        <path d="M462.105,345.381C469.861,337.607 479.664,332.928 491.118,336.915C517.908,346.241 504.265,403.62 496.724,405.554C489.184,407.488 443.754,389.506 442.3,384.673C441.956,383.531 442.753,379.656 444.581,374.547" style="fill:none;stroke:rgb(35,63,133);stroke-width:3.69px;"/>
        <path d="M450.439,392.494C448.255,395.693 436.187,434.731 436.187,434.731C436.187,434.731 350.92,471.468 346.665,473.402C345.119,471.275 340.02,467.408 329.651,467.408C310.699,467.408 307.415,479.975 307.415,482.682C307.415,485.389 336.225,491.382 343.959,491.19C351.693,490.996 459.776,474.562 463.643,472.628C467.509,470.695 493.37,409.61 493.37,409.61C486.383,409.238 454.095,399.247 450.439,392.494Z" style="fill:white;fill-rule:nonzero;"/>
        <path d="M396.685,478.098C369.404,482.265 342.658,486.087 338.952,486.181C331.217,486.373 302.409,480.379 302.409,477.672C302.409,474.966 305.692,462.399 324.644,462.399C335.013,462.399 340.112,466.265 341.658,468.392C345.912,466.458 431.18,429.722 431.18,429.722C431.18,429.722 443.248,390.684 445.432,387.485" style="fill:none;stroke:rgb(35,63,133);stroke-width:3.69px;"/>
        <path d="M488.359,404.602C488.359,404.602 462.499,465.688 458.632,467.62C457.532,468.17 448.001,469.894 434.747,472.082" style="fill:none;stroke:rgb(35,63,133);stroke-width:3.69px;"/>
        <rect x="413.826" y="563.363" width="165.029" height="15.313" style="fill:rgb(131,135,194);"/>
        <path d="M512.094,573.667L408.815,573.667L408.815,558.353L573.844,558.353L573.844,573.667L544.846,573.667" style="fill:none;stroke:rgb(35,63,133);stroke-width:3.69px;"/>
        <rect x="120.376" y="485.169" width="251.09" height="12.606" style="fill:rgb(131,135,194);"/>
        <path d="M185.912,480.877L367.176,480.877L367.176,493.482L116.087,493.482L116.087,480.877L154.733,480.877" style="fill:none;stroke:rgb(35,63,133);stroke-width:3.69px;"/>
        <rect x="236.219" y="474.566" width="88.431" height="10.603" style="fill:rgb(241,93,101);"/>
        <rect x="231.928" y="470.274" width="88.431" height="10.603" style="fill:none;stroke:rgb(35,63,133);stroke-width:3.69px;"/>
        <path d="M390.075,705.328L419.048,737.038L403.195,780.998L451.838,743.164L423.64,685.001" style="fill:white;fill-rule:nonzero;"/>
        <path d="M435.515,714.817L418.632,679.994" style="fill:none;stroke:rgb(35,63,133);stroke-width:3.69px;"/>
        <path d="M385.067,700.322L414.041,732.032L398.187,775.992L446.831,738.157L441.903,727.993" style="fill:none;stroke:rgb(35,63,133);stroke-width:3.69px;"/>
        <path d="M469.529,641.811L485.675,669.228L496.829,675.032L475.611,724.311L470.766,693.311L442.805,667.781" style="fill:white;fill-rule:nonzero;"/>
        <path d="M444.95,669.303L437.797,662.772" style="fill:none;stroke:rgb(35,63,133);stroke-width:3.69px;"/>
        <path d="M464.521,636.803L480.667,664.22L491.821,670.025L470.603,719.303L465.758,688.303L459.757,682.824" style="fill:none;stroke:rgb(35,63,133);stroke-width:3.69px;"/>
        <path d="M451.427,573.669L451.427,787.702" style="fill:none;stroke:rgb(35,63,133);stroke-width:3.69px;"/>
        <path d="M531.239,655.352L531.239,787.701" style="fill:none;stroke:rgb(35,63,133);stroke-width:3.69px;"/>
        <path d="M531.239,573.666L531.239,618.746" style="fill:none;stroke:rgb(35,63,133);stroke-width:3.69px;"/>
        <path d="M403.212,279.01C403.697,280.704 404.836,281.865 405.759,281.601C406.681,281.338 407.035,279.75 406.55,278.056C406.066,276.361 404.926,275.201 404.003,275.464C403.081,275.728 402.728,277.315 403.212,279.01Z" style="fill:rgb(35,63,133);fill-rule:nonzero;"/>
        <path d="M392.114,297.699C391.982,298.347 391.792,298.966 391.528,299.531" style="fill:none;stroke:rgb(35,63,133);stroke-width:3.14px;"/>
        <path d="M391.046,287.788C391.527,288.961 392.281,291.785 392.35,294.656" style="fill:none;stroke:rgb(35,63,133);stroke-width:3.14px;"/>
        <path d="M418.41,296.735C418.703,298.981 417.134,302.457 414.104,304.489" style="fill:none;stroke:rgb(35,63,133);stroke-width:3.14px;"/>
        <rect x="20.978" y="254.918" width="263.432" height="79.477" style="fill:rgb(217,223,241);"/>
        <path d="M261.751,294.262C261.751,307.074 251.364,317.461 238.552,317.461C225.74,317.461 215.354,307.074 215.354,294.262C215.354,281.45 225.74,271.064 238.552,271.064C251.364,271.064 261.751,281.45 261.751,294.262Z" style="fill:rgb(182,193,227);fill-rule:nonzero;"/>
        <path d="M194.729,280.806L63.791,280.806" style="fill:none;stroke:rgb(236,242,250);stroke-width:3.69px;"/>
        <path d="M194.729,307.718L125.353,307.718" style="fill:none;stroke:rgb(236,242,250);stroke-width:3.69px;"/>
        <rect x="217.897" y="0.498" width="156.558" height="198.662" style="fill:rgb(236,242,250);"/>
        <path d="M278.749,71.73L324.651,179.614L420.957,112.725L278.749,71.73Z" style="fill:none;stroke:rgb(182,193,227);stroke-width:3px;"/>
        <rect x="51.998" y="100.372" width="90.145" height="37.645" style="fill:rgb(236,242,250);"/>
        <rect x="10.054" y="146.91" width="90.147" height="37.646" style="fill:rgb(236,242,250);"/>
    </g>
</svg>
