<svg viewBox="0 0 20069 16302" xmlns="http://www.w3.org/2000/svg" fill-rule="evenodd" clip-rule="evenodd" stroke-linejoin="round" stroke-miterlimit="2">
  <path d="M2347.506 13241.93l69.208-25.04-1136.876-3143.253L186.213 7050.176l3165.21 564.667 3165.17 564.626-2071.627 2458.793-2153.71 2556.252 56.25 47.417 69.208-25.042-69.208 25.042 56.292 47.375 2153.668-2556.21 2153.752-2556.252c16.916-20.084 21.833-47.709 12.916-72.417-8.958-24.709-30.375-42.792-56.25-47.417l-3290.627-587L86.629 6882.968c-25.875-4.625-52.25 4.916-69.167 25-16.958 20.125-21.875 47.708-12.916 72.416l1136.917 3143.294 1136.876 3143.253c8.959 24.708 30.375 42.792 56.25 47.417s52.25-4.917 69.209-25.042l-56.292-47.375z" fill="#b9c5e5" fill-rule="nonzero"/>
  <path fill="#ecf2fa" d="M1259.088 1352.088h10643.384v10247.258H1259.088z"/>
  <path fill="#b6c1e3" d="M4346.174 3035.714h5931.047v409.376H4346.174zM4346.174 4860.84h5931.047v409.335H4346.174zM4346.174 6685.926h5931.047v409.417H4346.174z"/>
  <path d="M3360.173 2794.506l-637.333 602.209-278.5-263.125c-29.542-27.917-76.126-26.584-104 2.958-27.917 29.542-26.584 76.083 2.958 104l329 310.834c28.417 26.833 72.667 26.833 101.042 0l687.875-649.918c29.542-27.875 30.875-74.458 2.958-104-27.916-29.541-74.458-30.833-104-2.958zM3360.173 4706.09l-637.333 602.126-278.5-263.125c-29.542-27.917-76.126-26.583-104 2.958-27.917 29.542-26.584 76.084 2.958 104l329 310.834c28.417 26.833 72.667 26.833 101.042 0l687.875-649.875c29.542-27.875 30.875-74.459 2.958-104-27.916-29.5-74.458-30.834-104-2.917zM3360.173 6617.634l-637.333 602.125-278.5-263.125c-29.542-27.916-76.126-26.583-104 2.959-27.917 29.541-26.584 76.083 2.958 104l329 310.833c28.417 26.834 72.667 26.834 101.042 0l687.875-649.875c29.542-27.875 30.875-74.459 2.958-103.959-27.916-29.541-74.458-30.875-104-2.958z" fill="#b6c1e3" fill-rule="nonzero"/>
  <path fill="#f6f8fc" d="M4346.174 8511.094h5931.047v409.375H4346.174zM4346.174 10336.22h5931.047v409.417H4346.174z"/>
  <path d="M14823.433 9600.511h147.125c0-341.958 69.291-667.375 194.5-963.5 187.833-444.126 501.834-822.251 896.959-1089.168 395.167-266.917 871.042-422.667 1384.001-422.709 341.959 0 667.376 69.25 963.5 194.5 444.126 187.834 822.251 501.793 1089.168 896.918 266.917 395.167 422.667 871.042 422.709 1383.96 0 342-69.25 667.417-194.5 963.542-187.834 444.167-501.792 822.25-896.918 1089.209-395.167 266.917-871.042 422.667-1383.959 422.709-342 0-667.417-69.292-963.542-194.5-444.167-187.834-822.251-501.834-1089.21-896.96-266.917-395.167-422.667-871.042-422.708-1384h-147.125c0 361.916 73.375 707.083 206.125 1020.875 199.125 470.709 531.542 871 950.084 1153.793 418.458 282.75 923.459 447.958 1466.376 447.917 361.875 0 707.042-73.375 1020.834-206.125 470.709-199.126 871-531.542 1153.751-950.084 282.75-418.46 447.959-923.46 447.917-1466.377.042-361.875-73.375-707-206.125-1020.792-199.084-470.75-531.542-871.042-950.043-1153.793-418.5-282.75-923.459-447.958-1466.334-447.917-361.917-.041-707.042 73.375-1020.876 206.125-470.709 199.084-871 531.543-1153.792 950.043-282.75 418.5-447.96 923.459-447.917 1466.334z" fill="#eaf0f9" fill-rule="nonzero"/>
  <path d="M11136.305 5857.967c-654.834-130.709-1468.668 682.625-1411.71 1883.001l790 164.042s678.751-2035.668 621.71-2047.043z" fill="#62c6bd"/>
  <path d="M9592.97 7178.01c-14.042 104.208-21.542 212.458-21.542 324.25 0 39.958.959 80.375 2.917 121.208 1.167 24.292 21.792 43 46.083 41.875 24.25-1.167 43-21.792 41.834-46.083a2464.682 2464.682 0 01-2.792-117c0-107.875 7.208-212.167 20.75-312.459 3.25-24.125-13.625-46.25-37.75-49.5-24.083-3.292-46.25 13.625-49.5 37.708zM11038.596 5695.217c-49.208-9.834-99.208-14.625-149.5-14.625-100.125 0-201.417 18.958-300.792 54.75-149.083 53.708-293.958 145.208-425.542 268.458-131.542 123.292-249.875 278.417-345.542 460.084-11.333 21.5-3.083 48.125 18.459 59.417 21.5 11.333 48.125 3.083 59.416-18.417 121.792-231.292 281.417-416.042 455.126-542.334 86.833-63.167 177.125-111.708 267.917-144.375 90.791-32.708 181.958-49.542 270.958-49.542 44.708 0 88.917 4.25 132.292 12.917 23.833 4.75 47-10.708 51.75-34.542 4.792-23.833-10.708-47.041-34.542-51.791z" fill="#233f85" fill-rule="nonzero"/>
  <path d="M12655.222 5366.966c2472.17 0 2950.461 2858.21 2622.003 6840.172-1071.835 449.46-3705.337 679.96-4869.338-28.833-547.5-1532.834-865.459-6811.339 2247.335-6811.339z" fill="#62c6bd"/>
  <path d="M10873.846 2802.256c0-1048.918 633.334-1899.252 1414.626-1899.252 781.25 0 1414.585 850.334 1414.585 1899.252 0 1048.96-633.334 1899.335-1414.585 1899.335-781.292 0-1414.626-850.376-1414.626-1899.335z" fill="#fff"/>
  <path d="M12024.139 2803.59c0-91.542 38-165.75 84.875-165.75 46.916 0 84.916 74.208 84.916 165.75 0 91.5-38 165.708-84.916 165.708-46.875 0-84.875-74.209-84.875-165.709z" fill="#233f85"/>
  <path d="M11589.263 3111.048c-.625 23.917-2.833 55.333-7.958 90.833-7.708 53.292-21.958 115.834-46.542 176.834-24.625 61.083-59.5 120.375-107.833 168.667-17.167 17.166-17.167 45.041 0 62.25 17.208 17.166 45.083 17.166 62.25 0 39.208-39.209 70.25-83.376 94.875-128.959 36.917-68.375 59.458-139.875 73.292-204.375 13.791-64.542 18.833-122 19.916-162.917.667-24.292-18.541-44.5-42.833-45.167-24.292-.625-44.5 18.542-45.167 42.834zM11962.68 4034.507c62.375-8.5 133.584-24.833 203-58.583 34.667-16.875 68.875-38.167 100.917-64.959 32-26.75 61.875-59.083 87.834-97.625 13.541-20.167 8.208-47.5-11.959-61.083-20.166-13.584-47.5-8.209-61.083 11.958-21.209 31.5-45.292 57.5-71.25 79.25-39 32.542-82.5 55.625-127.084 72.042-44.541 16.375-90.083 26.041-132.25 31.75-24.083 3.291-40.958 25.458-37.666 49.583 3.291 24.084 25.458 40.917 49.541 37.667zM14574.182 8429.594c19.667 56.166 45.625 136.792 73.292 225.708 41.583 133.375 87.125 285.667 122.292 404.542a49785.445 49785.445 0 0143.167 146.75c5.291 18.125 9.5 32.542 12.375 42.375 1.416 4.959 2.5 8.75 3.25 11.292a544.89 544.89 0 011.125 3.917l42.291-12.25 20.084-39.167c-.042-.042-1248.21-640.709-1835.252-936.959-21.708-10.958-48.167-2.25-59.125 19.458-10.917 21.709-2.208 48.167 19.5 59.125 293.209 147.959 751.917 382.167 1137.293 579.334 192.667 98.584 367.042 187.959 493.208 252.625 63.084 32.334 114.126 58.542 149.417 76.625 17.625 9.042 31.334 16.084 40.625 20.834 9.292 4.75 14.125 7.25 14.167 7.25 15.583 8.041 34.542 5.958 48.083-5.167 13.5-11.167 19.167-29.375 14.25-46.208 0-.084-44.083-152.292-98.208-333.126-27.083-90.458-56.625-188.041-84.5-277.458-27.834-89.417-53.917-170.542-74.25-228.584-8.042-22.958-33.167-35.041-56.084-27-22.958 8.042-35.041 33.167-27 56.084zM11533.097 8514.26l-149 491.25c-7.084 23.25 6.083 47.834 29.333 54.876 23.25 7.083 47.833-6.042 54.875-29.333l149-491.25c7.083-23.25-6.083-47.834-29.333-54.876-23.25-7.083-47.834 6.042-54.875 29.333zM12005.722 6956.384l-198.292 653.626c-7.042 23.25 6.083 47.833 29.333 54.875 23.25 7.083 47.834-6.084 54.917-29.334l198.25-653.625c7.084-23.25-6.083-47.833-29.333-54.875-23.25-7.083-47.833 6.042-54.875 29.333z" fill="#233f85" fill-rule="nonzero"/>
  <path d="M13042.056 12427.18c-192.25 12.292-386.959 18.834-580.75 18.834-426.584 0-848.626-31.792-1229.001-103.584-190.209-35.916-369.959-81.792-534.626-138.542-164.667-56.75-314.25-124.333-444.083-203.416l-22.917 37.583 41.458-14.792c-46.875-131.208-92.375-291.417-134.125-474.25-62.625-274.209-116.833-599.292-155.292-954.71-38.5-355.458-61.291-741.291-61.291-1137.292 0-604.75 53.208-1233.167 184.416-1812.96 65.584-289.916 150.667-567.625 258.084-824.167 107.417-256.542 237.209-491.875 392.084-697.209 14.625-19.416 10.75-47-8.625-61.625-19.417-14.625-47-10.791-61.667 8.625-160.084 212.292-293.209 454.084-403 716.21-164.626 393.208-276.792 832.25-348 1287.375-71.167 455.125-101.292 926.334-101.334 1383.751.042 532.5 40.875 1046.293 105.667 1494.418 32.416 224.084 70.791 431.75 113.166 617.209 42.334 185.458 88.625 348.667 137.042 484.209 3.417 9.583 9.875 17.5 18.542 22.791 136.458 83.084 291.708 153.042 461.209 211.459 254.25 87.625 540.625 149.208 844.375 189.083 303.667 39.834 624.667 57.875 947.918 57.875 195.75 0 392.333-6.625 586.375-19.041 24.25-1.542 42.667-22.459 41.083-46.709-1.541-24.291-22.458-42.666-46.708-41.125zM11449.847 5514.3c144.791-77.834 302.083-138.667 473.042-180.125 170.958-41.417 355.625-63.459 555.167-63.459 250 0 478.5 29.625 687.167 86.709 182.583 49.958 350 120.916 503.542 211.708 268.584 158.917 494.959 378.709 684.084 654.376 141.833 206.791 262.583 445 363.875 712.042 151.917 400.584 259.875 866 329.709 1386.376 69.875 520.417 101.625 1095.793 101.625 1716.335 0 631.625-32.917 1310.042-91.875 2025.001l43.875 3.625-17-40.625c-160.292 67.209-357.626 130-580.626 185.292-23.583 5.875-37.958 29.708-32.125 53.333 5.875 23.584 29.75 37.959 53.334 32.126 226.333-56.167 427.458-120.042 593.417-189.542a43.996 43.996 0 0026.833-37c59.125-716.793 92.167-1397.543 92.209-2032.21-.042-723.918-43-1387.96-139.5-1977.585-72.417-442.209-174.959-842.626-312.46-1195.085-103.166-264.333-226-501.667-370.708-709.208-216.958-311.292-483.542-555.46-804.959-721.084-321.375-165.75-696.875-252.667-1130.417-252.584-206 0-397.75 22.75-575.917 65.917-178.126 43.167-342.584 106.75-493.96 188.125-21.416 11.542-29.458 38.208-17.958 59.625 11.542 21.417 38.209 29.417 59.626 17.917z" fill="#233f85" fill-rule="nonzero"/>
  <path d="M15005.141 12013.805c0 32.833-.667 124.167-1.792 258.292-3.916 469.667-13.791 1465.96-22.666 2344.793-4.417 439.417-8.625 849.501-11.709 1149.71-3.083 300.167-5.041 490.542-5.041 490.542-.25 24.291 19.25 44.208 43.541 44.458 24.334.25 44.209-19.25 44.459-43.542 0 0 10.333-994.5 20.625-2022.251 5.166-513.876 10.291-1036.043 14.166-1446.376 1.917-205.167 3.542-382.376 4.667-516.584 1.125-134.292 1.75-225.417 1.75-259.042 0-24.292-19.667-44-44-44-24.292 0-44 19.708-44 44z" fill="#233f85" fill-rule="nonzero"/>
  <path d="M12006.264 7806.26c-149 0-793.418 82.083-428.626 678 209.084 341.417 295.376 243.209 383 135.209 68.25 35.542 173.542 119.417 241.417 175.667-.5 1.125-.916 2.25-1.375 3.375 184.292 143.75 2616.96 2267.502 3117.211 2394.877 500.334 127.333 1062.918-367.5 1279.335-739.668 238.75-410.417-213.876-2075.501-293.792-2259.126-79.875-183.667-1544.252 406.792-1544.252 406.792s237.084 709.333 299.667 1002.542c-138-77.625-2313.626-1140.96-2596.96-1467.876-.458.917-1.042 2.583-1.542 3.5-103.833-106.042-339.333-333.292-454.083-333.292z" fill="#fff"/>
  <path d="M10153.137 11975.013l-3 3845.67c0 24.292 19.667 44.042 44 44.042 24.292.041 44-19.667 44.042-43.959l3-3845.67c0-24.291-19.667-44.041-44-44.041-24.292-.042-44 19.667-44.042 43.958zM11997.097 14425.932c135.292 578.5 283.709 1219.71 426.959 1841.543 5.458 23.667 29.083 38.458 52.75 33 23.666-5.458 38.458-29.083 33-52.75-143.209-621.917-291.667-1263.21-427-1841.835-5.542-23.666-29.209-38.333-52.876-32.833-23.666 5.542-38.375 29.208-32.833 52.917v-.042z" fill="#233f85" fill-rule="nonzero"/>
  <path d="M13500.431 3588.715c-8.041 96.625-217.416 1726.126-142.291 2305.96-179.834 153.042-1424.21 175.5-1398.585-53.667 43-383.917 134.25-979.834 56.375-1283.167" fill="#fff"/>
  <path d="M11893.389 5676.842c16.416-146.834 35.958-298.876 51.458-450.25 15.458-151.418 26.917-302.126 26.917-446.585 0-87.541-4.209-172.833-14.375-254.583-3-24.125-24.959-41.25-49.084-38.25-24.125 2.958-41.25 24.958-38.25 49.083 9.584 77.292 13.667 159.042 13.667 243.75.042 139.834-11.125 287.75-26.458 437.626-15.292 149.833-34.792 301.625-51.376 449.417-2.666 24.167 14.709 45.917 38.876 48.625 24.125 2.708 45.916-14.667 48.625-38.833zM13329.848 3648.798c-.333 3.959-1.25 12.5-2.583 24.167-2.542 22-6.667 55.708-11.875 98.875-18.334 151.167-50.459 418.417-77.959 715.959-27.541 297.625-50.541 625.375-50.583 898.959.042 129.708 5.167 247.167 17.75 344.5l43.667-5.666-28.542-33.5c-5.167 4.416-13.792 10.083-25.292 15.833-20.125 10.125-48.916 20.542-83.75 29.958-52.292 14.209-118.25 26.417-191.917 36-73.666 9.542-155.125 16.5-239 20.459-24.292 1.166-43.042 21.791-41.875 46.041 1.167 24.292 21.75 43.042 46.042 41.875 131.125-6.208 256.625-19.416 359.833-39.041 51.667-9.834 97.75-21.25 136.792-34.625 19.5-6.709 37.292-13.959 53.334-21.959 16.041-8.083 30.333-16.875 42.875-27.541 11.333-9.625 17.041-24.417 15.125-39.167-11.875-91.375-17-205.875-17-333.167 0-163.792 8.458-348.917 21.25-535.5 19.25-279.917 48.25-563.126 73.125-783.876 12.458-110.417 23.833-205.167 32.416-276.209 4.334-35.5 7.917-65.083 10.625-87.75 1.334-11.333 2.459-20.958 3.334-28.833s1.541-13.833 1.916-18.458c2-24.25-16-45.5-40.208-47.542-24.208-2-45.5 16-47.5 40.208z" fill="#233f85" fill-rule="nonzero"/>
  <path d="M12774.43 4323.09c-90.5 59.376-186.25 105.5-285.958 136.834-99.75 31.292-203.458 47.792-310.125 47.792-118.167 0-232.667-20.25-342.167-58.417-164.208-57.25-317.167-155-452.542-285.709-135.333-130.708-252.917-294.375-345.833-482.667-10.792-21.791-37.167-30.75-58.959-20-21.792 10.792-30.75 37.167-20 58.959 129.375 262 305.292 480.458 513.542 634 104.167 76.75 216.417 137.25 334.792 178.542 118.375 41.292 242.917 63.333 371.167 63.333 115.792 0 228.542-17.958 336.5-51.875 107.917-33.875 211.084-83.666 307.876-147.166 20.333-13.334 26-40.626 12.666-60.959-13.333-20.333-40.625-26-60.958-12.667zM10849.304 3107.34c-27.125-145.5-41.583-297.876-41.583-454.876 0-257.792 38.917-503.209 109.125-726.042 105.292-334.334 281.042-617.626 500.125-816.25 109.542-99.334 229.834-177.584 357.667-230.96 127.834-53.374 263.209-81.958 403.71-81.958 187.29 0 365.583 50.792 528.875 143.5 122.416 69.5 236.291 162.667 338.25 275.626 152.917 169.416 278.917 383.375 366.542 627.542 87.625 244.167 136.875 518.5 136.875 808.542.083 459.042-123.5 878.75-326.875 1201.793-12.959 20.541-6.75 47.75 13.791 60.666 20.584 12.959 47.75 6.792 60.709-13.791 212.958-338.5 340.375-773.834 340.417-1248.668 0-266.667-40.25-520.875-113.209-752.5-109.458-347.376-292.458-644.043-524.917-855.001-116.25-105.417-244.917-189.375-382.875-246.959-137.917-57.625-285.125-88.791-437.584-88.791-203.375-.042-397.209 55.458-572.375 155-131.459 74.625-252.5 173.917-360.167 293.208-161.459 178.917-292.834 402.75-384.042 656.75-91.125 254.043-142.042 538.293-142.084 838.293 0 162.375 14.959 320.167 43.084 471.042 4.458 23.875 27.458 39.625 51.333 35.167 23.917-4.458 39.667-27.417 35.208-51.334z" fill="#233f85" fill-rule="nonzero"/>
  <path d="M13581.723 3848.34c158.625 28.75 426.792-828.459 481.5-1345.501 97.417-921.042-868.583-2092.96-1590.209-2165.377-141.75-14.208-301.709 131.542-214.834 375.5-174.791-183.583-633.75-426.375-1030-477.291-602-77.376-892.876 322.666-892.876 500.875 0 178.25 108.083 736 324.084 908.167-174.542-2.166-329.917 13.875-349.334 155.25-59.875 436.167 187.208 829.793 605.375 789.751 29.042-245.583 81.709-483.375 167.75-643.334 69.917 629.417 1670.085 418.459 1666.919 523.542-12.084 404.792 468.292 404.834 484.958 414.876 371.042 222.458 93.625 917.584 346.667 963.542z" fill="#eeca55"/>
  <path d="M10159.22 729.13c19.126 122.874 54.584 276.958 107.25 419.208 26.376 71.167 57.084 139.375 92.709 199.458 17.833 30.042 36.917 58.042 57.5 83.375 20.625 25.334 42.708 48 66.708 67.126l27.417-34.459.542-44c-9.167-.083-18.292-.167-27.375-.167-41.834 0-82.75 1.334-121.667 5.709-29.167 3.291-57.208 8.25-83.708 15.958-19.834 5.75-38.875 13.084-56.667 22.542-13.333 7.083-26 15.417-37.667 25.167-17.5 14.625-32.625 32.583-43.958 53.541-11.375 20.959-18.917 44.709-22.459 70.542-6.25 45.417-9.291 90.458-9.291 134.75 0 84.5 11.125 166.209 32.625 242.375 32.208 114.167 87.75 216.125 164.375 295.626 38.292 39.708 81.875 73.791 130.25 100.75 48.333 26.958 101.417 46.708 158.417 58.041 23.875 4.709 47.042-10.791 51.75-34.625 4.75-23.833-10.75-47-34.583-51.75-64.084-12.708-121.376-37.791-171.917-73.083-37.875-26.5-71.959-58.75-101.792-96-44.792-55.834-80.125-122.875-104.208-197.667-24.084-74.792-36.875-157.292-36.875-243.667 0-40.208 2.75-81.292 8.458-122.792 1.792-13.083 4.958-24 9.083-33.375 3.667-8.208 8.042-15.25 13.25-21.666 9.167-11.209 21.084-20.709 36.834-28.959 11.75-6.125 25.541-11.458 41.166-15.875 23.459-6.625 50.917-11.125 81.125-13.833 30.209-2.708 63.084-3.708 97.459-3.667 8.666 0 17.416.042 26.291.167 18.709.208 35.709-11.583 42-29.25 6.292-17.625.625-37.5-14.041-49.209-18-14.333-35.875-32.458-53.209-53.791-30.375-37.292-58.958-84.375-84.791-137.25-38.834-79.334-71.5-171.5-97.25-263.042-25.792-91.542-44.792-182.584-56.75-259.709-3.75-24-26.25-40.458-50.25-36.708-24.042 3.708-40.5 26.208-36.75 50.25v-.042zM13509.723 958.963c-164.708-227.917-360.167-428.5-563.959-577.876-101.958-74.666-206-136.541-309.625-182.417-103.625-45.875-206.917-75.791-307.292-85.875a234.36 234.36 0 00-23.541-1.166c-33.209 0-66.292 6.875-97.292 20-46.459 19.625-88.375 53.333-118.625 99.125-30.292 45.708-48.5 103.5-48.459 169.208 0 45.459 8.584 94.709 27.209 146.875l41.458-14.75 31.875-30.333c-46.958-49.292-110.625-100.375-186.333-151.125-113.584-75.958-254.376-150.667-405.084-211.625-150.75-60.917-311.334-108.084-464.875-127.875-53.917-6.917-105.542-10.167-154.959-10.167-98.875 0-188.667 13.042-269.125 35.542-80.459 22.5-151.584 54.458-213.25 92.041-20.75 12.667-27.292 39.75-14.667 60.5 12.667 20.75 39.75 27.292 60.5 14.667 54.917-33.5 118.5-62.125 191.125-82.458 72.625-20.292 154.292-32.292 245.417-32.292 45.542 0 93.417 3 143.709 9.458 95.791 12.334 196.291 36.375 295.666 68.5 149.042 48.126 295.459 114.376 420.042 185.167 62.292 35.375 119.084 71.875 167.959 107.667 48.875 35.75 89.792 70.833 120.125 102.667 14.292 15.041 37.292 18 54.917 7.166 17.666-10.875 25.375-32.75 18.416-52.291-15.625-43.792-22.083-82.959-22.083-117.334 0-33.125 5.958-61.875 15.958-86.583 15.042-37.042 39.167-65.292 67.667-84.542s61.25-29.208 92.709-29.208c4.958 0 9.875.25 14.75.75 89.041 8.917 183.666 35.917 280.458 78.792 145.167 64.208 295 164.041 438.209 289.416 143.25 125.376 279.917 276.209 399.667 441.917 14.208 19.709 41.75 24.167 61.458 9.917 19.709-14.25 24.125-41.75 9.875-61.458zM13267.515 3425.548c2.291 33.417 5.458 65.333 10.625 95.333 3.875 22.5 8.875 43.876 15.666 64.084 5.125 15.125 11.25 29.583 18.834 43.208 5.708 10.167 12.25 19.875 19.75 28.875 11.25 13.5 24.875 25.417 40.583 34.625 15.708 9.209 33.417 15.625 52.25 19.042a87.967 87.967 0 0015.792 1.417c9.791 0 19.333-1.625 28.25-4.375 17.291-5.417 32.166-14.667 45.917-25.875 12.875-10.625 24.875-23.167 36.625-37.5 22-26.917 43.208-60.25 64.458-99.292 37.083-68.25 74-154.042 109.667-250.75 53.416-145.084 103.791-314.709 144.708-484.21 40.958-169.54 72.417-338.791 87.75-483.541 4.792-45.084 7.084-90.709 7.084-136.625 0-113.917-14.167-229.834-40.167-345.792-5.334-23.709-28.875-38.625-52.584-33.292-23.708 5.292-38.625 28.833-33.291 52.583 24.708 110.334 38 219.917 38 326.5 0 43-2.125 85.5-6.584 127.376-13.166 124.708-39.25 271-73.375 419.667-25.625 111.5-55.791 224.375-88.375 330.792-24.458 79.792-50.333 155.917-76.625 225.042-19.708 51.833-39.666 99.666-59.416 142.083-14.792 31.792-29.5 60.5-43.75 85.417-10.709 18.667-21.167 35.208-31.167 49.25-14.917 21.083-29 36.5-39.834 45.083-5.416 4.292-9.875 6.875-12.833 8.125-3 1.292-4.292 1.292-4.458 1.292h-.084v.208l.042-.208h-.042v.208l.042-.208c-7.583-1.375-13.833-3.458-19.292-6.125-4.75-2.333-9-5.083-13-8.5-7-5.917-13.5-13.917-19.541-24.917-4.542-8.208-8.709-18-12.459-29.333-5.583-16.958-10.083-37.292-13.541-60.125-3.5-22.875-5.959-48.292-7.792-75.5-1.625-24.25-22.625-42.584-46.875-40.917-24.25 1.625-42.583 22.625-40.958 46.875zM10905.096 1950.339c20.083-61.334 42.917-116.834 68.292-164l-38.75-20.834-43.75 4.833c4.875 43.959 16.541 84.875 34.166 122.25 16.459 35.042 38.084 66.959 63.709 95.75 48.125 54.042 110.042 97.126 180.542 132.25 61.75 30.71 130.25 55.376 202.958 75.5 127.167 35.21 267.292 56.626 406.209 70.417 104.167 10.292 207.625 16.25 304.208 20.292 72.459 3 141 4.917 202.959 6.667 46.458 1.333 89.208 2.625 127 4.208 28.333 1.209 53.917 2.584 76.042 4.334 16.583 1.291 31.291 2.75 43.625 4.416 9.25 1.25 17.166 2.625 23.458 4 4.667 1 8.458 2.042 11.042 2.917 1.875.625 3.125 1.167 3.458 1.333l.042-.041-.042.041.042-.041-.042.041 10.917-18.666-17 12.875c3.333 4.291 5.666 5.5 6.083 5.791l10.917-18.666-17 12.875 25.708-19.5-30.375 10.875c1.292 3.583 3.042 6.5 4.667 8.625l25.708-19.5-30.375 10.875 32.083-11.5h-34.083c0 3.833.708 7.958 2 11.5l32.083-11.5h-34.083 38.583l-38.583-.542v.542h38.583l-38.583-.542 29.083.417-29.083-.459v.042l29.083.417-29.083-.459v.417c0 .292 0 .75.042 1.333l44-.833-44-1.333a532.431 532.431 0 00-.25 16.25c-.042 62.791 11.208 118.041 31.166 165.666 9.375 22.417 35.167 33 57.584 23.625 22.416-9.416 33-35.208 23.625-57.625-15.125-36.208-24.334-79.25-24.375-131.666 0-4.459.083-9 .208-13.584l.042-2.208-39.625.75 39.625.625v-1.375l-39.625.75 39.625.625-4.792-.083 4.792.083-4.792-.083 4.792.083v-.833c.041-8.667-2.292-17.709-6.084-24.917-3.75-7.167-8.5-12.584-13.083-16.709-4.583-4.083-9.083-7-13.458-9.416-8.625-4.75-16.917-7.625-25.709-10.167-8.541-2.375-17.541-4.292-27.333-5.958-18.958-3.209-40.833-5.542-65.875-7.459-46.833-3.583-104.708-5.625-170.75-7.625-115.542-3.416-256.042-6.625-402.459-16.541-109.833-7.5-222.917-18.75-330.917-36.709-80.958-13.458-159.083-30.666-230.625-52.625-53.667-16.458-103.625-35.583-148.333-57.666-33.542-16.542-64.125-34.709-91.209-54.542-40.625-29.75-73.208-63.125-96.958-100.5-23.75-37.459-38.959-78.959-44.375-127.292-2.125-19.125-16.459-34.667-35.375-38.333a43.955 43.955 0 00-47.125 22.375c-28.542 53.041-53.084 113.125-74.417 178.25-7.583 23.125 5 47.958 28.125 55.542 23.083 7.541 47.958-5.042 55.5-28.125z" fill="#233f85" fill-rule="nonzero"/>
  <path d="M12900.723 2696.756c57.875-40.167 128.083-63.667 203.875-63.667 197.792 0 358.167 160.375 358.167 358.167 0 197.792-160.375 358.125-358.167 358.125-22.125 0-43.75-2-64.75-5.833" fill="#fff"/>
  <path d="M12893.264 2658.047c50.792-35.208 112.209-55.75 178.792-55.791 43.5 0 84.709 8.791 122.25 24.666 56.334 23.834 104.375 63.709 138.25 113.876 33.875 50.208 53.625 110.416 53.625 175.625 0 43.5-8.791 84.708-24.666 122.25-23.792 56.333-63.667 104.375-113.834 138.25-50.208 33.875-110.416 53.583-175.625 53.625-19.458 0-38.458-1.75-56.792-5.083-23.916-4.375-46.875 11.458-51.208 35.375-4.375 23.916 11.458 46.833 35.375 51.208 23.625 4.292 47.917 6.5 72.625 6.5 55.417 0 108.417-11.25 156.542-31.625 72.25-30.542 133.542-81.458 176.917-145.625 43.333-64.125 68.708-141.75 68.708-224.875 0-55.417-11.25-108.417-31.625-156.584-30.542-72.208-81.5-133.542-145.667-176.875-64.125-43.375-141.75-68.75-224.875-68.708-84.875-.042-164.042 26.416-228.958 71.458-20 13.875-24.959 41.292-11.084 61.25 13.834 20 41.25 24.958 61.25 11.083z" fill="#233f85" fill-rule="nonzero"/>
  <path d="M8647.594 7695.301l2600.877 415.376-628.917 3937.961-2600.877-415.333L8647.594 7695.3z" fill="#b6c1e3"/>
  <path d="M7941.385 11390.554l621.918-3894.503 2514.002 401.5-195.75 1225.752c-3.834 24 12.5 46.583 36.5 50.416 24 3.834 46.583-12.5 50.416-36.5l202.709-1269.25c1.791-11.417-1.042-23.376-7.834-32.75-6.791-9.376-17.25-15.792-28.708-17.626l-2600.919-415.417c-11.458-1.791-23.375 1.042-32.792 7.834-9.375 6.791-15.791 17.25-17.625 28.708l-628.875 3937.961c-3.833 24 12.542 46.584 36.542 50.417 24 3.833 46.583-12.542 50.416-36.542zM10649.93 10573.637l-187.668 1174.96-1730.334-276.292c-24-3.834-46.584 12.5-50.417 36.5-3.833 24 12.542 46.583 36.542 50.416l1773.793 283.25c11.458 1.834 23.375-1 32.791-7.833 9.375-6.792 15.792-17.25 17.625-28.667l194.584-1218.459c3.833-24-12.5-46.542-36.542-50.375-24-3.833-46.541 12.5-50.375 36.5z" fill="#233f85" fill-rule="nonzero"/>
  <path d="M7900.469 10883.262c-118.375-895.042-27.292-1480.667 482.417-1647.5 205.75-67.376 3.041 1240.917-78.875 1456.375-81.959 215.417-306.459-30.375-403.542 191.125z" fill="#fff"/>
  <path d="M7860.135 9907.053c-10.041-33.041-17.208-74.833-17.208-121.791 0-46.709 7.042-98.542 24.958-152.709 13.459-40.625 33.042-82.625 60.584-124.917 41.333-63.458 100.625-127.75 184.667-188.833 84.041-61.042 192.875-118.75 332.791-168.334 22.917-8.125 34.875-33.291 26.792-56.208-8.125-22.917-33.292-34.917-56.208-26.792-130.334 46.209-236.875 99.834-323.542 158.084-129.959 87.291-215.084 185.292-267.084 282.75-26.041 48.708-43.833 97.167-55.041 143.833-11.25 46.667-15.917 91.5-15.917 133.126 0 55.875 8.375 105.875 21 147.416 7.083 23.25 31.667 36.375 54.958 29.292 23.25-7.083 36.334-31.667 29.25-54.917z" fill="#233f85" fill-rule="nonzero"/>
  <path d="M7819.76 10455.72c-10.041-33-17.166-74.791-17.166-121.708 0-46.708 7-98.542 24.916-152.709 13.459-40.666 33.042-82.625 60.584-124.958 41.333-63.458 100.666-127.792 184.708-188.833 84.042-61.042 192.875-118.792 332.792-168.376 22.917-8.125 34.917-33.25 26.792-56.166-8.125-22.917-33.292-34.917-56.209-26.792-130.333 46.208-236.875 99.792-323.542 158.042-129.958 87.333-215.083 185.333-267.125 282.792-26.041 48.708-43.791 97.166-55.041 143.833-11.209 46.667-15.917 91.542-15.917 133.167.042 55.833 8.417 105.792 21 147.333 7.083 23.25 31.667 36.375 54.917 29.292 23.291-7.083 36.375-31.667 29.333-54.917h-.042zM7856.135 10927.72c-10.083-33-17.25-74.791-17.208-121.75 0-46.75 7-98.541 24.917-152.75 13.458-40.625 33.041-82.625 60.583-124.916 41.333-63.459 100.625-127.75 184.667-188.834 84.042-61.041 192.875-118.75 332.792-168.333 22.916-8.125 34.916-33.292 26.791-56.167-8.125-22.917-33.291-34.917-56.208-26.792-130.292 46.167-236.875 99.792-323.5 158.042-130 87.292-215.084 185.292-267.125 282.75-26.042 48.709-43.834 97.167-55.042 143.834-11.208 46.667-15.917 91.5-15.917 133.167 0 55.833 8.375 105.875 21.042 147.416 7.083 23.25 31.667 36.334 54.917 29.292 23.25-7.083 36.375-31.708 29.291-54.958zM12782.264 2794.964c23.25-55.458 62.125-103 111-136.917 19.959-13.833 24.917-41.25 11.084-61.25-13.875-19.958-41.292-24.916-61.25-11.083-62.584 43.417-112.167 104.083-142 175.167-9.417 22.417 1.166 48.208 23.541 57.625 22.417 9.417 48.25-1.125 57.625-23.542zM16505.309 10015.887c-5.125 36.916-12.042 70.333-20.708 99.5-8.625 29.166-19 54.041-30.625 74.083-46.376 79.75-110.042 166.542-186.209 251.25-114.25 127.209-256.708 249.834-410.625 339.834-76.959 45-156.75 81.875-237.167 107.417-80.459 25.5-161.459 39.666-241.25 39.666-52.292 0-104.125-6.083-155.167-19.041-26.167-6.625-62.667-21.375-106-43.459-81.542-41.416-187.709-108.166-310-193-214.209-148.583-478.543-352.625-756.751-576.084-417.334-335.208-866.167-714.125-1227.251-1016.584-180.584-151.25-339.209-283.333-461.292-381.583-61.083-49.125-113-89.75-154.292-120.292-20.708-15.292-38.708-28.042-54.167-38.208-7.75-5.125-14.875-9.584-21.541-13.417-6.667-3.875-12.834-7.167-19.167-9.959-22.292-9.75-48.25.417-58 22.667-9.75 22.292.417 48.209 22.667 57.959 3.125 1.333 10.75 5.416 20.458 11.625 19.125 12.083 47.083 32.041 81.75 58.333 65.083 49.375 154.25 121.125 260.792 208.792 186.5 153.5 426.542 355.917 687.834 574.667 391.959 328.167 831.667 693.209 1211.334 986.167 189.875 146.5 364.709 274.959 511.667 372.126 73.5 48.625 140.042 89.375 198.459 120.791 29.208 15.709 56.416 29.125 81.625 39.959 25.208 10.875 48.458 19.25 70.167 24.791 58.5 14.875 117.75 21.792 176.875 21.792 120.333-.042 240.042-28.417 354.792-75.458 172.166-70.709 333.542-183.459 470.917-310.167 68.666-63.375 131.333-130.292 186.208-197.417 54.834-67.125 101.917-134.458 139.417-198.917 16.083-27.708 28.75-58.958 38.958-93.333 10.167-34.417 17.834-71.959 23.459-112.334 3.375-24.083-13.417-46.333-37.5-49.666-24.084-3.375-46.292 13.416-49.667 37.5zM16157.767 7970.01c2.125 4.833 4.833 11.667 7.958 20.042 5.834 15.708 13.125 36.958 21.417 62.708 14.5 45.125 32.208 104.25 51.708 173.834 58.5 208.833 133.375 512.167 190.584 822.084 4.417 23.875 27.375 39.666 51.292 35.25 23.916-4.417 39.708-27.334 35.291-51.25-47.041-254.626-105.625-503.918-157.667-701.793-26.041-98.916-50.458-184.958-71-252.542-10.291-33.791-19.625-62.958-27.791-86.916-4.084-12-7.834-22.667-11.334-32.084-3.5-9.375-6.708-17.458-9.708-24.416-9.708-22.292-35.625-32.542-57.917-22.834-22.291 9.709-32.5 35.625-22.833 57.917zM12369.43 7957.468c-21.708-60.916-46.583-113.5-74.708-158.375-21.125-33.625-44.042-62.958-68.75-88-37.083-37.583-78.333-65.5-122.5-83.667-44.125-18.208-90.875-26.625-138.542-26.583-47.75 0-96.458 8.292-145.583 23.167-73.75 22.291-148.625 59.291-224 106.875-75.375 47.625-151.209 105.917-226.376 171.458-18.291 15.959-20.208 43.75-4.208 62.084 15.958 18.333 43.792 20.208 62.083 4.25 96.626-84.334 193.459-155.084 285.167-204.042 45.834-24.5 90.375-43.583 132.792-56.375 42.417-12.834 82.625-19.417 120.125-19.375 33.334 0 64.5 5.083 94 15.667 22.167 7.958 43.417 19.041 64.042 33.791 30.917 22.084 60.458 52.584 88.042 93.5 27.583 40.917 53.083 92.209 75.5 155.167 8.167 22.875 33.333 34.833 56.25 26.667 22.875-8.125 34.833-33.334 26.667-56.209z" fill="#233f85" fill-rule="nonzero"/>
  <path d="M11920.764 7992.343c-5-.333-10.125-.541-15.334-.541-16.958.041-34.958 1.791-54.166 4.791-33.542 5.334-70.75 14.667-109.792 27-58.5 18.5-121.042 43.792-179.209 72.959-29.083 14.583-57.041 30.167-82.916 46.458-25.875 16.292-49.667 33.292-70.376 51.084-18.458 15.833-20.583 43.625-4.791 62.041 15.833 18.459 43.625 20.584 62.083 4.75 25.125-21.583 59.459-44.458 98.125-65.916 57.959-32.292 125.75-61.584 188.125-82.417 31.209-10.417 61.042-18.709 87.417-24.334 13.209-2.791 25.5-4.916 36.542-6.291 11.083-1.417 20.917-2.084 28.958-2.084 3.292 0 6.25.125 8.917.292 24.25 1.792 45.333-16.417 47.125-40.667 1.75-24.25-16.458-45.333-40.708-47.125zM11993.889 8302.219c-1.834-.042-3.667-.084-5.542-.084-33.958.084-69.625 6.459-106.958 16.5-55.959 15.084-115.709 38.625-174.876 64.709-59.083 26.125-117.541 54.833-169.666 80.333-21.834 10.708-30.834 37.083-20.167 58.917 10.708 21.833 37.083 30.833 58.917 20.167 69.5-34.042 148.541-72.876 222.958-102.75 37.167-14.959 73.125-27.626 105.709-36.376 32.5-8.833 61.666-13.541 84.083-13.458 1.208 0 2.375 0 3.583.042 24.292.541 44.417-18.709 44.959-43.042.541-24.292-18.709-44.417-43-44.958z" fill="#233f85" fill-rule="nonzero"/>
  <path d="M14376.974 5677.55c1161.376-394.792 2278.085 2114.002 2223.418 2377.002-54.708 262.917-1882.751 793.459-2093.46 627.334-210.708-166.084-802.792-2775.67-129.958-3004.336z" fill="#62c6bd"/>
  <path d="M14811.683 8474.469c-57.584 9.625-111.667 17.125-160.917 22.25-49.292 5.083-93.75 7.708-131.917 7.708-35.833.042-66.167-2.375-88.917-6.792-11.375-2.208-20.791-4.875-27.958-7.666-7.167-2.75-11.958-5.625-14.5-7.667l.042.042c-1.875-1.417-5.917-5.334-10.709-11.584-4.5-5.791-9.791-13.583-15.416-23-10.625-17.75-22.542-41.333-35.126-69.75-22.041-49.791-46.083-114.291-70.75-190.041-37-113.626-75.416-252.542-111.708-406.5-36.292-153.96-70.5-323.043-99.208-497.168-3.959-24-26.625-40.25-50.584-36.292-24 3.959-40.208 26.625-36.25 50.584 50.375 305.5 117.292 595 183.584 818.5 33.208 111.792 66.166 206.959 97.333 280.167 15.625 36.667 30.75 67.792 45.75 93.292 7.542 12.75 15.042 24.125 22.875 34.208 7.875 10.084 15.958 19 25.667 26.709h.041c11.292 8.875 23.792 15.375 37.126 20.583 20.083 7.709 42.25 12.584 67 15.792 24.708 3.167 51.958 4.625 81.708 4.625 42.208 0 89.417-2.875 140.958-8.208 51.5-5.334 107.334-13.084 166.417-22.959 23.959-4.041 40.167-26.708 36.125-50.667-4-24-26.666-40.166-50.625-36.166h-.041zM14591.266 5522.383c117.375 16.917 234.25 60.458 349.042 125.292 100.458 56.708 199.208 129.708 294.917 214.75 167.458 148.792 325.5 334.417 467.75 532.875 213.417 297.667 391.542 624.251 515.792 898.21 62.083 136.916 110.792 260.791 143.667 360.833 16.416 49.959 28.916 94.042 37.125 130.375 4.125 18.167 7.208 34.417 9.166 48.334 2 13.916 2.917 25.541 2.875 34.166.042 6.459-.541 11.167-1 13.375v-.041c-.541 2.791-2.25 7.541-6.083 13.75-3.542 5.833-8.917 12.833-16.083 20.541-13.459 14.459-33.292 31.25-58.417 48.875-43.958 30.959-103.958 64.792-175.208 99.209-106.917 51.708-239.167 105.083-382.834 155.875s-298.875 99.042-452.125 140.917c-23.417 6.416-37.25 30.625-30.834 54.041 6.417 23.459 30.584 37.292 54.042 30.875 134.583-36.791 270.542-78.375 399.417-122.416 96.667-33 189.333-67.375 274.542-102.167 63.917-26.125 123.583-52.417 177.667-78.625 40.541-19.667 77.958-39.25 111.625-58.667 50.541-29.208 92.708-57.917 125.208-87.083 16.25-14.667 30.167-29.459 41.375-45.25 5.584-7.917 10.542-16.084 14.625-24.709 4.042-8.625 7.292-17.666 9.292-27.25 2.083-10.25 2.792-20.458 2.833-31.25 0-12.458-1.041-25.708-2.875-40.125-3.583-27.833-10.333-60.083-19.916-96.791-17.959-68.792-46.084-153.25-83.417-249.334-65.292-168.125-158.667-371.667-274.625-584.792-174-319.667-398.46-660.667-655.834-934.334-128.709-136.834-265.709-256.875-409.417-348.709-143.625-91.75-294.292-155.458-449.75-177.875-24.084-3.458-46.376 13.25-49.834 37.292-3.5 24.083 13.208 46.375 37.292 49.833z" fill="#233f85" fill-rule="nonzero"/>
  <path d="M15131.683 16257.6l3.833-4015.795-4806.879-30.625-16.958 4046.42h4820.004z" fill="#3c3745"/>
</svg>
