<?xml version="1.0" encoding="UTF-8" standalone="no"?>
<!DOCTYPE svg PUBLIC "-//W3C//DTD SVG 1.1//EN" "http://www.w3.org/Graphics/SVG/1.1/DTD/svg11.dtd">
<svg width="100%" height="100%" viewBox="0 0 4174 4205" version="1.1" xmlns="http://www.w3.org/2000/svg" xmlns:xlink="http://www.w3.org/1999/xlink" xml:space="preserve" xmlns:serif="http://www.serif.com/" style="fill-rule:evenodd;clip-rule:evenodd;stroke-linecap:round;stroke-linejoin:round;">
    <g id="Layer_2">
        <g id="Layer_1-2">
            <path d="M1412.57,3925L684.86,317L4173.31,1490.83L1412.57,3925Z" style="fill:rgb(214,222,255);fill-rule:nonzero;"/>
            <path d="M2136.21,2822.15L2393.51,3863L2605.74,3863L2461.83,1861.3L2169.64,1897.65L2136.21,2822.15Z" style="fill:rgb(60,55,68);fill-rule:nonzero;"/>
            <path d="M2438.18,2061.33L2420.68,1817.83L2128.49,1854.18L2095.06,2778.71L2173.4,3095.64" style="fill:none;fill-rule:nonzero;stroke:rgb(27,60,135);stroke-width:17.9px;"/>
            <path d="M2232,3332.8L2352.32,3819.53L2564.56,3819.53L2483.37,2690.23" style="fill:none;fill-rule:nonzero;stroke:rgb(27,60,135);stroke-width:17.9px;"/>
            <path d="M1795.62,1850.93C1796.97,1905.04 1780.74,3893.68 1780.74,3893.68L2008,3893.68C2025.59,3797.68 2297.5,1875.28 2297.5,1875.28C2297.5,1875.28 1794.27,1796.81 1795.62,1850.93Z" style="fill:rgb(60,55,68);fill-rule:nonzero;"/>
            <path d="M2340.92,464.94C2329.37,545.78 2398.57,674.04 2333.65,788.25C2247.06,940.59 1884.65,843.95 1848.42,826.25C1824.58,814.56 1800.51,799.43 1802.51,710.57C1804.51,621.71 1945.51,495.94 1953.66,395.57C1958.66,334.57 1989.72,178.95 2054.32,151.85C2314.34,5.57 2352.46,384.09 2340.92,464.94Z" style="fill:rgb(251,93,100);fill-rule:nonzero;"/>
            <path d="M1826.24,593C1869.02,524.28 1928.65,449.63 1933.89,385.36C1938.89,324.41 1968.24,163.08 2034.54,141.64" style="fill:none;fill-rule:nonzero;stroke:rgb(27,60,135);stroke-width:17.9px;"/>
            <path d="M1828.65,816.13C1814.14,800.91 1792.56,792.98 1785.21,746.2" style="fill:none;fill-rule:nonzero;stroke:rgb(27,60,135);stroke-width:17.9px;"/>
            <rect x="2903.87" y="449.79" width="628.59" height="346.09" style="fill:rgb(234,240,255);fill-rule:nonzero;"/>
            <path d="M2246,1951.55L2263.44,1828.46C2263.44,1828.46 1760.2,1749.99 1761.55,1804.1C1762.02,1822.84 1760.38,2073.41 1758.03,2393.1" style="fill:none;fill-rule:nonzero;stroke:rgb(27,60,135);stroke-width:17.9px;"/>
            <path d="M2041.55,3387.26C2088.63,3059.91 2150.81,2622.84 2197.37,2294.81" style="fill:none;fill-rule:nonzero;stroke:rgb(27,60,135);stroke-width:17.9px;"/>
            <path d="M1754,2932C1750.33,3404.9 1746.72,3846.87 1746.72,3846.87L1974,3846.87C1976.4,3833.75 1983.56,3786.51 1994.12,3714.73" style="fill:none;fill-rule:nonzero;stroke:rgb(27,60,135);stroke-width:17.9px;"/>
            <path d="M2665.68,1211.67C2684.01,1242.82 2737.21,1329.78 2737.21,1329.78C2737.21,1329.78 2993.38,962.78 3008.78,940.61C3024.18,918.44 3021.68,853.61 3038.53,854.39C3055.38,855.17 3361.78,848.53 3361.78,877.85C3361.78,907.17 3183.67,948.22 3148.48,971.67C3113.29,995.12 2815.7,1607.18 2699.89,1607.18C2584.08,1607.18 2474.13,1459.11 2464.6,1420.27C2455.07,1381.43 2514.92,955.44 2665.68,1211.67Z" style="fill:white;fill-rule:nonzero;"/>
            <path d="M3123.63,816.65C3218.21,817.37 3342.32,821.48 3342.32,840.14C3342.32,869.46 3164.2,910.5 3129.02,933.96C3112.36,945.07 3036.86,1088.15 2949.69,1235.73" style="fill:none;fill-rule:nonzero;stroke:rgb(27,60,135);stroke-width:17.9px;"/>
            <path d="M2771.61,1501.63C2736.07,1543.32 2704.36,1569.47 2680.43,1569.47C2564.61,1569.47 2454.66,1421.4 2445.14,1382.55C2435.62,1343.7 2495.46,917.73 2646.22,1173.96C2664.54,1205.11 2717.75,1292.07 2717.75,1292.07C2717.75,1292.07 2973.91,925.07 2989.31,902.89C2997.83,890.66 3000.87,865.37 3004.74,845.33" style="fill:none;fill-rule:nonzero;stroke:rgb(27,60,135);stroke-width:17.9px;"/>
            <path d="M2365.78,813.18C2522.55,743.63 2690.33,1111.63 2694.39,1190.93C2648.21,1224.86 2434.86,1314.86 2384.32,1309.83C2342,1243.92 2179.11,896 2365.78,813.18Z" style="fill:rgb(70,219,201);fill-rule:nonzero;"/>
            <path d="M2335.46,785.74C2492.23,716.2 2660,1084.2 2664.07,1163.5C2617.89,1197.43 2404.54,1287.43 2354,1282.4C2311.72,1216.49 2148.79,868.55 2335.46,785.74Z" style="fill:none;fill-rule:nonzero;stroke:rgb(27,60,135);stroke-width:17.9px;"/>
            <path d="M3102,422.31L3498.4,422.31L3498.4,768.4L2869.84,768.4L2869.84,535.53" style="fill:none;fill-rule:nonzero;stroke:rgb(27,60,135);stroke-width:17.9px;"/>
            <path d="M3294.07,537.87L3427.77,687.5" style="fill:none;fill-rule:nonzero;stroke:rgb(27,60,135);stroke-width:17.9px;"/>
            <path d="M2975.8,478.6L3182.8,592.69" style="fill:none;fill-rule:nonzero;stroke:rgb(27,60,135);stroke-width:17.9px;"/>
            <path d="M3187.62,596L3490.32,431.09" style="fill:none;fill-rule:nonzero;stroke:rgb(27,60,135);stroke-width:17.9px;"/>
            <path d="M2872.18,767.87L3078.92,536.6" style="fill:none;fill-rule:nonzero;stroke:rgb(27,60,135);stroke-width:17.9px;"/>
            <path d="M1675.43,3847.29L2060.89,3847.29" style="fill:none;fill-rule:nonzero;stroke:rgb(27,60,135);stroke-width:17.9px;"/>
            <path d="M1669.52,3917.61L2055,3917.61" style="fill:none;fill-rule:nonzero;stroke:rgb(27,60,135);stroke-width:17.9px;"/>
            <path d="M2315.93,3820.47L2612.81,3820.47" style="fill:none;fill-rule:nonzero;stroke:rgb(27,60,135);stroke-width:17.9px;"/>
            <path d="M2322.87,3885.6L2619.75,3885.6" style="fill:none;fill-rule:nonzero;stroke:rgb(27,60,135);stroke-width:17.9px;"/>
            <path d="M2159.91,709.1C2506.05,712.32 2573.76,1310.77 2470.02,1866.58C2415.43,1905.89 1891.29,1935.37 1800.65,1874.22C1710.01,1813.07 1690.37,704.74 2159.91,709.1Z" style="fill:rgb(70,219,201);fill-rule:nonzero;"/>
            <path d="M1941.05,1880.71C1862.47,1876.34 1798.41,1866.2 1771.78,1848.23C1681.15,1787.08 1661.49,678.75 2131,683.11C2317.16,684.85 2422.79,858.75 2464.52,1105.59" style="fill:none;fill-rule:nonzero;stroke:rgb(27,60,135);stroke-width:17.9px;"/>
            <path d="M2484.59,1446.57C2480.7,1574.64 2465.74,1708.81 2441.15,1840.57C2419.59,1856.09 2324.81,1870.08 2212.42,1877.57" style="fill:none;fill-rule:nonzero;stroke:rgb(27,60,135);stroke-width:17.9px;"/>
            <path d="M1881.25,807.71C2059.34,840.71 1961.02,1275.91 1912.67,1350.05C1851.43,1352.47 1612.09,1303.31 1572.6,1267.85C1579.86,1182.43 1669.18,768.37 1881.25,807.71Z" style="fill:rgb(70,219,201);fill-rule:nonzero;"/>
            <path d="M1558.74,1238.14C1565.99,1152.72 1655.32,738.65 1867.38,778" style="fill:none;fill-rule:nonzero;stroke:rgb(27,60,135);stroke-width:17.9px;"/>
            <path d="M1966.59,1051.65C1956.1,1168.14 1921.8,1285.07 1898.8,1320.33C1866.67,1321.6 1785.5,1308.67 1709.9,1290.97" style="fill:none;fill-rule:nonzero;stroke:rgb(27,60,135);stroke-width:17.9px;"/>
            <path d="M1615.43,1277.4C1597.53,1332.58 1534.68,1567.32 1541.43,1635.17C1548.18,1703.02 1847.86,2166.76 1894.08,2202.55C1913.47,2169 1960.44,2085.49 1960.44,2085.49C1935.09,2048.21 1782.99,1615.78 1784.44,1568.81C1785.89,1521.84 1843.84,1364.73 1860.24,1337.89" style="fill:white;fill-rule:nonzero;"/>
            <path d="M1771.89,1607C1763.53,1577.18 1758.62,1555.54 1758.89,1546.9C1760.38,1499.9 1818.28,1342.82 1834.68,1315.98" style="fill:none;fill-rule:nonzero;stroke:rgb(27,60,135);stroke-width:17.9px;"/>
            <path d="M1557.41,1372.73C1535.03,1461.36 1511.61,1570.49 1515.84,1613.27C1522.55,1681.12 1822.27,2144.86 1868.49,2180.65C1887.88,2147.1 1934.85,2063.59 1934.85,2063.59C1921.01,2043.24 1869.39,1905.1 1825.61,1776.22" style="fill:none;fill-rule:nonzero;stroke:rgb(27,60,135);stroke-width:17.9px;"/>
            <path d="M1773.08,3951.54L1766.51,4098.94L1738.34,4202.21L2100.28,4204.56L1991.37,4028.56L1992.78,3950.17" style="fill:white;fill-rule:nonzero;"/>
            <path d="M1856.33,4172.23L2073.77,4173.64L1964.87,3997.64L1966.27,3919.25" style="fill:none;fill-rule:nonzero;stroke:rgb(27,60,135);stroke-width:17.9px;"/>
            <path d="M1746.58,3920.61L1740,4068L1711.83,4171.27" style="fill:none;fill-rule:nonzero;stroke:rgb(27,60,135);stroke-width:17.9px;"/>
            <path d="M2397.77,3906.39L2415.52,3980.02L2385.93,4191.02L2873.09,4187.08L2600.26,4004.31L2595,3905.04" style="fill:white;fill-rule:nonzero;"/>
            <path d="M2573.75,3986.68L2568.49,3887.41" style="fill:none;fill-rule:nonzero;stroke:rgb(27,60,135);stroke-width:17.9px;"/>
            <path d="M2371.26,3888.72L2389.01,3962.35L2359.43,4173.35L2846.59,4169.41L2660.52,4044.8" style="fill:none;fill-rule:nonzero;stroke:rgb(27,60,135);stroke-width:17.9px;"/>
            <path d="M3415.54,436.18C3415.54,436.177 3415.54,436.173 3415.54,436.17C3415.54,377.411 3463.89,329.06 3522.65,329.06C3581.41,329.06 3629.76,377.411 3629.76,436.17C3629.76,494.929 3581.41,543.28 3522.65,543.28C3522.65,543.28 3522.64,543.28 3522.64,543.28C3463.89,543.28 3415.54,494.933 3415.54,436.18Z" style="fill:rgb(251,93,100);fill-rule:nonzero;"/>
            <path d="M3608.57,449.57C3595.2,495.03 3553.18,526.47 3505.8,526.47C3447.04,526.47 3398.68,478.114 3398.68,419.35C3398.68,360.59 3447.03,312.236 3505.79,312.23" style="fill:none;fill-rule:nonzero;stroke:rgb(27,60,135);stroke-width:17.9px;"/>
            <path d="M1979.39,371.91C1972.59,230.68 2053.73,112.01 2160.63,106.91C2267.53,101.81 2359.71,212 2366.51,353.27C2373.31,494.54 2292.16,613.18 2185.27,618.32C2078.38,623.46 1986.19,513.15 1979.39,371.91Z" style="fill:white;fill-rule:nonzero;"/>
            <path d="M2004.58,464.42C2011.34,498.03 2038.26,683.42 2036.26,791.42C2068.48,819.69 2192.2,815.79 2213.49,788.03C2208.8,744.03 2204.71,635.62 2215.15,606.84" style="fill:white;fill-rule:nonzero;"/>
            <path d="M2195.45,765.35C2190.76,721.35 2182.52,628.17 2192.96,599.35" style="fill:none;fill-rule:nonzero;stroke:rgb(27,60,135);stroke-width:17.9px;"/>
            <path d="M2007.45,593.28C2013.97,653.28 2019.14,719.15 2018.23,768.74C2035.58,783.97 2079.5,789.87 2119.65,787.74" style="fill:none;fill-rule:nonzero;stroke:rgb(27,60,135);stroke-width:17.9px;"/>
            <path d="M1986.54,441.72C1988.23,450.13 1991.18,468.05 1994.63,491.88" style="fill:none;fill-rule:nonzero;stroke:rgb(27,60,135);stroke-width:17.9px;"/>
            <path d="M2339.85,439.32C2314.21,530.76 2249.15,596.87 2169.96,600.68C2138.34,602.21 2108.01,593.68 2080.8,577.14" style="fill:none;fill-rule:nonzero;stroke:rgb(27,60,135);stroke-width:17.9px;"/>
            <path d="M2331,236.36C2339.26,258.496 2345.07,281.475 2348.3,304.88" style="fill:none;fill-rule:nonzero;stroke:rgb(27,60,135);stroke-width:17.9px;"/>
            <path d="M2134.09,335C2133.35,319.52 2139.97,306.62 2148.88,306.19C2157.79,305.76 2165.63,317.97 2166.37,333.44C2167.11,348.91 2160.5,361.82 2151.58,362.25C2142.66,362.68 2134.84,350.47 2134.09,335Z" style="fill:rgb(27,60,135);fill-rule:nonzero;"/>
            <path d="M2419.75,290.67C2419.75,290.57 2419.91,290.48 2420.12,290.47C2420.33,290.46 2420.51,290.53 2420.51,290.64C2420.51,290.75 2420.35,290.83 2420.14,290.84C2419.93,290.85 2419.76,290.78 2419.75,290.67Z" style="fill:rgb(27,60,135);fill-rule:nonzero;"/>
            <path d="M2227,343.37C2229.29,367.15 2243,408.2 2278.1,420.16" style="fill:none;fill-rule:nonzero;stroke:rgb(27,60,135);stroke-width:17.9px;"/>
            <path d="M2144.34,469.07C2144.26,483.07 2155.87,503.78 2174.93,505.89" style="fill:none;fill-rule:nonzero;stroke:rgb(27,60,135);stroke-width:17.9px;"/>
            <path d="M2328.79,471.37C2319.84,515.27 2347.72,627.1 2343.09,678.7C2338.46,730.3 2309.9,753.17 2309.9,753.17" style="fill:none;fill-rule:nonzero;stroke:rgb(27,60,135);stroke-width:17.9px;"/>
            <path d="M1952.14,87.81C1952.09,86.743 1952.06,85.675 1952.06,84.607C1952.06,48.181 1982.04,18.207 2018.46,18.207C2054.89,18.207 2084.86,48.181 2084.86,84.607C2084.86,119.831 2056.83,149.239 2021.65,150.93C2020.59,150.981 2019.52,151.007 2018.45,151.007C1983.24,151.007 1953.83,122.986 1952.14,87.81Z" style="fill:rgb(251,93,100);fill-rule:nonzero;"/>
            <path d="M1954.39,116.9C1944.95,105.122 1939.8,90.469 1939.8,75.373C1939.8,38.953 1969.77,8.983 2006.19,8.983C2042.61,8.983 2072.58,38.953 2072.58,75.373C2072.58,85.28 2070.36,95.062 2066.09,104" style="fill:none;fill-rule:nonzero;stroke:rgb(27,60,135);stroke-width:17.9px;"/>
            <path d="M2162,101.45C2055.1,106.6 1974,225.27 1980.76,366.51C1981.63,384.65 1983.97,402.69 1987.76,420.45C2022.48,368.29 2068.54,313.64 2099.34,283.02C2169,280.16 2266,258.37 2342,235.14C2306.26,152.55 2237.94,97.8 2162,101.45Z" style="fill:rgb(251,93,100);fill-rule:nonzero;"/>
            <path d="M1970.91,267.37C1961.7,312.616 1961.94,359.281 1971.61,404.43C2006.34,352.26 2052.4,297.61 2083.19,267C2123.26,265.35 2172.43,257.43 2221.45,246.57" style="fill:none;fill-rule:nonzero;stroke:rgb(27,60,135);stroke-width:17.9px;"/>
            <path d="M1976,246.18C1973.51,254.5 1971.35,263.03 1969.54,271.77" style="fill:none;fill-rule:nonzero;stroke:rgb(27,60,135);stroke-width:17.9px;"/>
            <path d="M2324.45,223.52C2288.7,140.93 2220.38,86.18 2144.45,89.83C2066.71,93.58 2002.59,157.35 1976.01,246.18" style="fill:none;fill-rule:nonzero;stroke:rgb(27,60,135);stroke-width:17.9px;"/>
            <path d="M2021.94,431.91C2013.46,438.491 2003.03,442.065 1992.29,442.065C1965.76,442.065 1943.93,420.235 1943.93,393.705C1943.93,367.176 1965.76,345.345 1992.29,345.345C2003.67,345.345 2014.69,349.361 2023.4,356.68" style="fill:white;fill-rule:nonzero;"/>
            <path d="M2010,422.7C2001.52,429.281 1991.09,432.855 1980.35,432.855C1953.82,432.855 1931.99,411.025 1931.99,384.495C1931.99,357.966 1953.82,336.135 1980.35,336.135C1991.73,336.135 2002.75,340.151 2011.46,347.47" style="fill:none;fill-rule:nonzero;stroke:rgb(27,60,135);stroke-width:17.9px;"/>
        </g>
    </g>
</svg>
