<?xml version="1.0" encoding="UTF-8" standalone="no"?>
<!DOCTYPE svg PUBLIC "-//W3C//DTD SVG 1.1//EN" "http://www.w3.org/Graphics/SVG/1.1/DTD/svg11.dtd">
<svg width="100%" height="100%" viewBox="0 0 25504 15370" version="1.1" xmlns="http://www.w3.org/2000/svg" xmlns:xlink="http://www.w3.org/1999/xlink" xml:space="preserve" xmlns:serif="http://www.serif.com/" style="fill-rule:evenodd;clip-rule:evenodd;stroke-linejoin:round;stroke-miterlimit:2;">
    <g transform="matrix(1,0,0,1,0,-3603)">
        <g transform="matrix(4.16667,0,0,4.16667,0,0)">
            <path d="M659.784,2053.18L663.453,2056.58L1015.86,1675.81L1362.39,1301.4L1513.37,1788.7L1664.37,2276.01L1166.85,2163.12L660.89,2048.31L659.784,2053.18L663.453,2056.58L659.784,2053.18L658.677,2058.06L1164.64,2172.87L1670.6,2287.68C1672.34,2288.08 1674.16,2287.51 1675.38,2286.2C1676.59,2284.89 1677.01,2283.03 1676.48,2281.33L1522.92,1785.75L1369.37,1290.17C1368.85,1288.46 1367.45,1287.16 1365.7,1286.77C1363.96,1286.37 1362.14,1286.94 1360.93,1288.25L1008.52,1669.02L656.114,2049.79C654.901,2051.1 654.479,2052.96 655.008,2054.66C655.536,2056.37 656.935,2057.67 658.677,2058.06L659.784,2053.18Z" style="fill:rgb(182,193,227);fill-rule:nonzero;"/>
            <path d="M5237.57,1239.43L5232.75,1238.1L5035.57,1956.15C5035.11,1957.81 5035.55,1959.61 5036.72,1960.87C5037.89,1962.14 5039.65,1962.71 5041.34,1962.38L5689.64,1836.75C5691.33,1836.43 5692.75,1835.23 5693.36,1833.63C5693.97,1832.02 5693.71,1830.19 5692.67,1828.82L5241.55,1236.4C5240.4,1234.89 5238.48,1234.16 5236.62,1234.52C5234.75,1234.88 5233.25,1236.27 5232.75,1238.1L5237.57,1239.43L5233.59,1242.45L5679.83,1828.47L5047.34,1951.03L5242.39,1240.75L5237.57,1239.43L5233.59,1242.45L5237.57,1239.43Z" style="fill:rgb(236,242,250);fill-rule:nonzero;"/>
            <rect x="1145.14" y="1298.3" width="1650.55" height="1726.8" style="fill:rgb(217,223,241);"/>
            <path d="M4958.67,1264.34C4914.97,1209.48 4869.96,1154.87 4823.95,1100.61L4958.67,1100.61L4958.67,1264.34ZM1747.26,1192.99L1747.26,1100.61L1836.52,1100.61C1807.15,1131.46 1777.38,1162.32 1747.26,1192.99Z" style="fill:rgb(244,247,252);fill-rule:nonzero;"/>
            <path d="M4958.67,3414.97L1747.26,3414.97L1747.26,3025.1L2795.69,3025.1L2795.69,1298.3L1747.26,1298.3L1747.26,1192.99C1777.38,1162.32 1807.15,1131.46 1836.52,1100.61L4823.95,1100.61C4869.96,1154.87 4914.97,1209.48 4958.67,1264.34L4958.67,3414.97Z" style="fill:rgb(240,244,251);fill-rule:nonzero;"/>
            <rect x="1747.26" y="1298.3" width="1048.43" height="1726.8" style="fill:rgb(228,234,246);"/>
            <path d="M3757.75,1706.62C3757.75,1478.81 3942.44,1294.12 4170.25,1294.12C4398.07,1294.12 4582.76,1478.81 4582.76,1706.62C4582.76,1934.45 4398.07,2119.12 4170.25,2119.12C3942.44,2119.12 3757.75,1934.45 3757.75,1706.62Z" style="fill:rgb(217,223,241);fill-rule:nonzero;"/>
            <path d="M3028.84,3743.17L3038.84,3743.17C3038.84,3628.24 3085.41,3524.23 3160.73,3448.9C3236.05,3373.59 3340.06,3327.02 3454.99,3327.01C3569.92,3327.02 3673.92,3373.59 3749.24,3448.9C3824.56,3524.23 3871.13,3628.23 3871.13,3743.17C3871.13,3858.1 3824.56,3962.1 3749.24,4037.42C3673.92,4112.73 3569.92,4159.3 3454.99,4159.31C3340.06,4159.3 3236.05,4112.73 3160.73,4037.42C3085.41,3962.1 3038.84,3858.1 3038.84,3743.17L3028.84,3743.17C3028.84,3860.83 3076.55,3967.39 3153.66,4044.49C3230.76,4121.6 3337.33,4169.31 3454.99,4169.3C3572.65,4169.31 3679.21,4121.6 3756.32,4044.49C3833.42,3967.39 3881.13,3860.83 3881.13,3743.17C3881.13,3625.51 3833.42,3518.94 3756.32,3441.83C3679.21,3364.72 3572.65,3317.01 3454.99,3317.02C3337.33,3317.01 3230.76,3364.72 3153.66,3441.83C3076.55,3518.94 3028.84,3625.51 3028.84,3743.17Z" style="fill:rgb(236,242,250);fill-rule:nonzero;"/>
            <path d="M4332.74,914.665L4332.74,1233.91L4334.77,1233.89L4334.77,1574.7L4096.65,1320.1L3411.93,1320.1L3411.93,914.665L4332.74,914.665Z" style="fill:white;fill-rule:nonzero;"/>
            <path d="M2248.45,1460.3L2248.45,1779.55L2246.42,1779.52L2246.42,2120.33L2484.55,1865.74L3169.26,1865.74L3169.26,1460.3L2248.45,1460.3Z" style="fill:white;fill-rule:nonzero;"/>
            <path d="M4773.45,2273.98C4773.45,2502.31 4872.69,2543.7 4872.69,2585.12C4872.69,2626.52 4827.64,2853.63 4814.85,2883.47C4848.34,2930.35 5084.58,2954.71 5129.64,2942.52C5133.29,2898.08 5189.92,2608.85 5202.71,2589.37C5215.49,2569.89 5358.58,2455.43 5358.58,2360.43C5358.58,2147.93 5344.57,1865.41 5203.32,1865.41C5031.61,1865.41 4773.45,1948.83 4773.45,2273.98Z" style="fill:white;fill-rule:nonzero;"/>
            <path d="M5486.22,2953.34C5375.76,2956.08 5137.09,2998.86 5137.09,2998.86C5135.72,3115.47 5167.51,4351.34 5172.31,4537.27L5853.93,4537.27L6095.4,3134.99C6095.4,3034.66 6014.08,2953.34 5913.75,2953.34C5913.75,2953.34 5620.38,2957.59 5506.47,2953.34C5500.35,2953.14 5493.58,2953.14 5486.22,2953.34Z" style="fill:rgb(60,55,69);fill-rule:nonzero;"/>
            <path d="M1902.96,4003.27C1941.87,3981.86 2317.52,3703.85 2338.06,3677.85C2358.59,3651.85 2432.33,3503.3 2438.53,3493.6C2444.73,3483.92 2484.17,3465.8 2489.1,3469.98C2519.36,3495.67 2470.86,3583.13 2465.05,3596.5C2493.22,3570.79 2671.44,3431.43 2693.28,3438.29C2850.26,3487.58 2791.53,3697.1 2692.86,3748.15C2665.84,3762.11 2518.03,3818.57 2503.85,3830.93C2489.67,3843.3 1867.89,4361.01 1853.92,4370.98C1846.21,4335.24 1864.06,4024.68 1902.96,4003.27Z" style="fill:white;fill-rule:nonzero;"/>
            <path d="M4154.11,3276.93C4127.35,3316.54 4059.67,3415.35 4032.9,3453.89C3744.99,3075.08 3446.93,2855.72 3368.65,2481.93C3292.89,2433.72 3297.24,2605.77 3354.15,2734.56C3265.3,2791.41 3181.11,2848.42 3207,2890.55C3306,3051.72 3335.79,3001.01 3372.77,3004.33C3409.76,3007.64 3706.01,3614.95 3791.35,3710.48C3854.25,3780.88 3903.12,3863.2 4097.55,3946.85C4118.45,3768.91 4249.48,3347.58 4276.23,3315.6C4252.2,3298.39 4180.87,3237.33 4154.11,3276.93Z" style="fill:white;fill-rule:nonzero;"/>
            <path d="M4249.67,3358.44C4160.52,3290.48 4100.25,3236.93 4098.65,3211.8C4094.88,3152.36 4451.08,2645.92 4693.45,2806.52C4796.3,2881.25 4426.03,3489.97 4249.67,3358.44Z" style="fill:rgb(98,198,189);fill-rule:nonzero;"/>
            <path d="M4450.98,2794.14C4471.19,2784.12 4491.41,2776.16 4511.38,2770.73C4531.35,2765.3 4551.06,2762.38 4570.31,2762.38C4587.17,2762.39 4603.69,2764.61 4619.84,2769.36C4635.99,2774.11 4651.8,2781.39 4667.25,2791.63C4673.01,2795.44 4680.76,2793.87 4684.58,2788.11C4688.39,2782.36 4686.82,2774.6 4681.06,2770.79C4663.6,2759.21 4645.45,2750.83 4626.89,2745.37C4608.33,2739.91 4589.38,2737.38 4570.31,2737.38C4548.54,2737.38 4526.62,2740.68 4504.82,2746.61C4483.01,2752.54 4461.31,2761.12 4439.87,2771.75C4433.69,2774.81 4431.16,2782.31 4434.23,2788.5C4437.3,2794.68 4444.8,2797.21 4450.98,2794.14Z" style="fill:rgb(35,63,133);fill-rule:nonzero;"/>
            <path d="M4237.76,3323.04C4215.29,3306.6 4194.8,3290.86 4176.73,3276.13C4163.18,3265.09 4150.98,3254.62 4140.33,3244.89C4132.34,3237.58 4125.23,3230.69 4119.07,3224.29C4109.83,3214.7 4102.76,3206.18 4098.19,3199.3C4095.9,3195.87 4094.25,3192.86 4093.24,3190.49C4092.21,3188.11 4091.86,3186.4 4091.83,3185.68L4091.83,3185.5C4091.82,3185.03 4091.93,3183.78 4092.3,3182.08C4092.99,3178.87 4094.55,3174.05 4096.97,3168.25C4101.2,3158.06 4108.01,3144.74 4116.98,3129.41C4130.44,3106.39 4148.79,3078.75 4170.87,3049.19C4192.96,3019.62 4218.79,2988.1 4247.23,2957.21C4251.91,2952.13 4251.58,2944.23 4246.51,2939.55C4241.43,2934.87 4233.52,2935.2 4228.84,2940.28C4181.58,2991.61 4141.55,3044.41 4113.14,3088.12C4098.93,3109.99 4087.64,3129.56 4079.74,3145.76C4075.79,3153.87 4072.69,3161.13 4070.48,3167.6C4069.38,3170.84 4068.5,3173.88 4067.86,3176.81C4067.24,3179.74 4066.84,3182.55 4066.83,3185.5C4066.83,3186.09 4066.85,3186.68 4066.88,3187.27C4067.06,3189.98 4067.59,3192.59 4068.35,3195.13C4069.8,3199.91 4072.05,3204.52 4074.93,3209.3C4079.98,3217.64 4087.05,3226.52 4096.01,3236.26C4109.44,3250.85 4127.15,3267.28 4148.54,3285.26C4169.93,3303.23 4194.98,3322.72 4223,3343.21C4228.57,3347.29 4236.39,3346.08 4240.47,3340.51C4244.54,3334.93 4243.33,3327.11 4237.76,3323.04Z" style="fill:rgb(35,63,133);fill-rule:nonzero;"/>
            <path d="M4919.22,2766.59C4206.43,2773.1 4064.27,3997.17 4031.19,4537.27L5380.59,4537.27C5550.86,4007.45 5676.75,2877.1 5031.15,2775.09C4992.36,2769.01 4955.07,2766.26 4919.22,2766.59Z" style="fill:rgb(98,198,189);fill-rule:nonzero;"/>
            <path d="M219.902,2917.27C119.571,2917.27 38.246,2998.6 38.246,3098.93C38.245,3098.93 168.915,4156.9 216.559,4542.59L1198.75,4542.59C1198.66,4480.36 1196.78,3168.06 1186.69,2917.27L219.902,2917.27Z" style="fill:rgb(60,55,69);fill-rule:nonzero;"/>
            <path d="M1435.34,2873.86C781.828,2873.86 652.686,4013.7 671.715,4542.59L1869.5,4542.59C1976.13,4018.88 1993.82,2873.86 1435.34,2873.86Z" style="fill:rgb(98,198,189);fill-rule:nonzero;"/>
            <path d="M1869.96,3704.62C1872.8,3758.92 1874.13,3813.63 1874.13,3868.05C1874.13,3995 1866.91,4120.33 1854.95,4234.96C1842.99,4349.58 1826.28,4453.53 1807.36,4537.59C1805.85,4544.33 1810.08,4551.02 1816.81,4552.53C1823.55,4554.05 1830.24,4549.81 1831.75,4543.08C1850.94,4457.8 1867.76,4353.02 1879.81,4237.55C1891.86,4122.09 1899.13,3995.95 1899.13,3868.05C1899.13,3813.23 1897.79,3758.08 1894.92,3703.31C1894.56,3696.42 1888.68,3691.12 1881.78,3691.48C1874.89,3691.84 1869.59,3697.73 1869.96,3704.62Z" style="fill:rgb(35,63,133);fill-rule:nonzero;"/>
            <path d="M1552.74,2884.76C1580.75,2899.67 1606.59,2918.66 1630.45,2941.34C1666.23,2975.35 1697.53,3017.67 1724.64,3066.7C1751.75,3115.72 1774.66,3171.42 1793.75,3232.01C1795.82,3238.6 1802.84,3242.25 1809.42,3240.18C1816.01,3238.1 1819.66,3231.08 1817.59,3224.5C1791.6,3142.01 1758.52,3067.78 1716.85,3005.99C1696.01,2975.09 1673.02,2947.31 1647.68,2923.22C1622.34,2899.13 1594.64,2878.74 1564.48,2862.69C1558.39,2859.45 1550.82,2861.76 1547.57,2867.85C1544.33,2873.95 1546.64,2881.52 1552.74,2884.76Z" style="fill:rgb(35,63,133);fill-rule:nonzero;"/>
            <path d="M1045.78,2992.54C1096.5,2942.46 1152.78,2902.89 1215.22,2876.36C1221.57,2873.66 1224.53,2866.32 1221.83,2859.97C1219.13,2853.61 1211.8,2850.65 1205.44,2853.35C1139.72,2881.27 1080.82,2922.81 1028.22,2974.75C1023.3,2979.6 1023.25,2987.52 1028.1,2992.43C1032.95,2997.34 1040.87,2997.39 1045.78,2992.54Z" style="fill:rgb(35,63,133);fill-rule:nonzero;"/>
            <path d="M1896.2,3981.7C1897.87,3980.81 1899.71,3979.77 1901.78,3978.52C1905.8,3976.12 1910.73,3972.98 1916.54,3969.15C1927.43,3961.98 1941.4,3952.4 1957.64,3941.02C2014.44,3901.2 2098.97,3839.38 2172.62,3784.05C2209.44,3756.38 2243.53,3730.35 2270.09,3709.49C2283.37,3699.05 2294.77,3689.91 2303.73,3682.46C2308.21,3678.73 2312.09,3675.43 2315.31,3672.57C2316.93,3671.13 2318.38,3669.81 2319.68,3668.58C2320.99,3667.36 2322.13,3666.23 2323.16,3665.15L2323.16,3665.14C2325.61,3662.55 2327.99,3659.66 2330.39,3656.47C2334.86,3650.49 2339.39,3643.46 2344.03,3635.61C2352.15,3621.88 2360.62,3605.65 2369.12,3588.69C2375.49,3575.97 2381.87,3562.85 2388.07,3550.14C2397.38,3531.09 2406.31,3512.93 2414.11,3498.61C2418.01,3491.46 2421.63,3485.27 2424.76,3480.52C2426.32,3478.14 2427.77,3476.13 2429,3474.58C2430.23,3473.03 2431.28,3471.95 2431.84,3471.46C2435.76,3468.01 2439.39,3464.88 2442.74,3462.17C2447.75,3458.1 2452.14,3455 2455.59,3453.16C2457.31,3452.24 2458.78,3451.63 2459.93,3451.28C2461.09,3450.93 2461.9,3450.83 2462.47,3450.83C2462.82,3450.83 2463.09,3450.87 2463.36,3450.93C2463.75,3451.02 2464.17,3451.17 2464.83,3451.58C2465.48,3452 2466.36,3452.7 2467.43,3453.88L2469.14,3452.34L2467.21,3453.6C2467.24,3453.65 2467.31,3453.75 2467.43,3453.88L2469.14,3452.34L2467.21,3453.6L2467.68,3453.29L2467.19,3453.57L2467.21,3453.6L2467.68,3453.29L2467.19,3453.57C2467.2,3453.57 2467.54,3454.27 2467.78,3455.6C2468.04,3456.92 2468.22,3458.83 2468.21,3461.16C2468.22,3464.03 2467.95,3467.53 2467.4,3471.45C2466.44,3478.3 2464.62,3486.42 2462.09,3495.06C2458.3,3508.03 2452.92,3522.21 2446.6,3535.58C2440.3,3548.94 2433.03,3561.52 2425.72,3571.28C2421.76,3576.56 2422.59,3584.02 2427.62,3588.3C2432.65,3592.57 2440.14,3592.2 2444.72,3587.45C2458.52,3573.12 2477.41,3556.29 2498.61,3539.02C2530.41,3513.1 2567.46,3486.11 2600.81,3464.2C2617.48,3453.24 2633.23,3443.54 2646.87,3435.9C2653.69,3432.08 2659.98,3428.77 2665.55,3426.09C2671.11,3423.41 2675.97,3421.35 2679.79,3420.02C2686.31,3417.76 2689.76,3410.64 2687.5,3404.12C2685.23,3397.6 2678.11,3394.14 2671.59,3396.41C2664.77,3398.78 2657.05,3402.27 2648.35,3406.72C2633.16,3414.51 2615.06,3425.23 2595.53,3437.81C2566.23,3456.67 2533.76,3479.69 2503.75,3503C2488.75,3514.65 2474.36,3526.37 2461.3,3537.7C2448.23,3549.04 2436.49,3559.96 2426.72,3570.1L2435.72,3578.77L2445.72,3586.27C2452.34,3577.43 2458.5,3567.29 2464.12,3556.51C2472.53,3540.35 2479.7,3522.79 2484.84,3506.21C2487.42,3497.91 2489.48,3489.87 2490.93,3482.31C2492.37,3474.74 2493.21,3467.69 2493.21,3461.16C2493.21,3456.85 2492.86,3452.77 2491.87,3448.76C2491.37,3446.76 2490.7,3444.77 2489.75,3442.8C2488.81,3440.84 2487.57,3438.88 2485.95,3437.09C2484.41,3435.39 2482.77,3433.83 2481,3432.44C2478.36,3430.36 2475.4,3428.66 2472.23,3427.52C2469.06,3426.38 2465.71,3425.83 2462.47,3425.83C2460.18,3425.83 2457.95,3426.09 2455.8,3426.55C2452.04,3427.35 2448.55,3428.71 2445.2,3430.39C2440.18,3432.92 2435.42,3436.19 2430.52,3439.96C2425.64,3443.73 2420.63,3448.02 2415.32,3452.69C2413,3454.75 2410.99,3457.03 2408.98,3459.6C2407.1,3462.01 2405.24,3464.68 2403.33,3467.61C2399.76,3473.1 2396.04,3479.52 2392.13,3486.7C2385.3,3499.25 2377.9,3514.09 2370.21,3529.75C2358.7,3553.23 2346.56,3578.56 2335.09,3600.25C2329.36,3611.09 2323.79,3621.02 2318.64,3629.26C2316.07,3633.39 2313.6,3637.09 2311.29,3640.24C2308.99,3643.4 2306.85,3646.02 2305.02,3647.95L2305.02,3647.94C2304.29,3648.71 2303.14,3649.84 2301.67,3651.2C2298.8,3653.85 2294.72,3657.4 2289.68,3661.62C2280.21,3669.55 2267.31,3679.9 2251.97,3691.92C2225.13,3712.96 2190.8,3739.14 2153.9,3766.84C2098.55,3808.38 2037.39,3853.35 1986.85,3889.61C1961.58,3907.74 1938.97,3923.7 1921.11,3935.93C1912.19,3942.05 1904.45,3947.23 1898.2,3951.27C1895.08,3953.29 1892.34,3955.02 1890.03,3956.42C1887.72,3957.82 1885.83,3958.9 1884.56,3959.57C1878.45,3962.79 1876.1,3970.35 1879.32,3976.46C1882.53,3982.57 1890.09,3984.91 1896.2,3981.7Z" style="fill:rgb(35,63,133);fill-rule:nonzero;"/>
            <path d="M2101.08,4111.1C2039.86,4163.84 1981.56,4214.26 1936.12,4253.67C1913.4,4273.38 1893.89,4290.34 1878.84,4303.47C1871.32,4310.03 1864.91,4315.64 1859.76,4320.16C1854.61,4324.68 1850.74,4328.1 1848.24,4330.33C1843.1,4334.94 1842.66,4342.84 1847.27,4347.98C1851.87,4353.13 1859.77,4353.56 1864.92,4348.96C1867.29,4346.83 1871.14,4343.43 1876.25,4338.94C1894.17,4323.22 1927.7,4294.04 1970.12,4257.29C2012.53,4220.53 2063.85,4176.17 2117.4,4130.04C2122.63,4125.53 2123.21,4117.64 2118.71,4112.41C2114.2,4107.18 2106.31,4106.59 2101.08,4111.1Z" style="fill:rgb(35,63,133);fill-rule:nonzero;"/>
            <path d="M2671.94,3702.27C2658.94,3708.9 2642.44,3716.44 2624.32,3724.52C2597.12,3736.65 2566.24,3750 2537.42,3763.66C2523.01,3770.5 2509.1,3777.41 2496.38,3784.34C2483.65,3791.27 2472.11,3798.18 2462.34,3805.15C2460.34,3806.57 2457.91,3808.42 2454.92,3810.75C2449.72,3814.81 2442.89,3820.32 2434.59,3827.12C2409.72,3847.5 2371.68,3879.52 2326.59,3917.84C2321.33,3922.31 2320.69,3930.2 2325.16,3935.46C2329.63,3940.72 2337.52,3941.36 2342.78,3936.89C2377.09,3907.73 2407.31,3882.23 2430.66,3862.8C2442.33,3853.09 2452.28,3844.9 2460.15,3838.55C2464.08,3835.37 2467.49,3832.66 2470.31,3830.46C2473.12,3828.26 2475.37,3826.56 2476.86,3825.5C2482.56,3821.44 2489.25,3817.19 2496.67,3812.85C2509.67,3805.27 2524.89,3797.43 2541.12,3789.6C2565.47,3777.86 2592.06,3766.15 2617,3755.11C2629.48,3749.6 2641.55,3744.25 2652.74,3739.14C2663.94,3734.02 2674.26,3729.15 2683.29,3724.54C2689.45,3721.41 2691.89,3713.88 2688.76,3707.73C2685.62,3701.58 2678.09,3699.13 2671.94,3702.27Z" style="fill:rgb(35,63,133);fill-rule:nonzero;"/>
            <path d="M2519.26,3599.43C2521.18,3597.84 2523.71,3595.83 2526.74,3593.5C2532.04,3589.41 2538.86,3584.34 2546.78,3578.59C2570.56,3561.33 2604.29,3538 2637.84,3516.28C2661.58,3500.9 2685.26,3486.31 2705.16,3475.27C2715.1,3469.76 2724.11,3465.13 2731.57,3461.77C2735.29,3460.09 2738.63,3458.73 2741.43,3457.74C2744.23,3456.74 2746.52,3456.13 2747.94,3455.89C2754.74,3454.69 2759.28,3448.21 2758.09,3441.41C2756.9,3434.61 2750.42,3430.07 2743.62,3431.26C2740.21,3431.87 2736.79,3432.87 2733.1,3434.17C2726.67,3436.44 2719.45,3439.68 2711.39,3443.69C2699.34,3449.71 2685.48,3457.49 2670.65,3466.33C2655.82,3475.17 2640.04,3485.07 2624.25,3495.29C2598.36,3512.06 2572.47,3529.69 2550.91,3544.9C2540.13,3552.51 2530.44,3559.5 2522.35,3565.5C2518.3,3568.5 2514.66,3571.24 2511.48,3573.7C2508.29,3576.16 2505.56,3578.32 2503.31,3580.18C2498,3584.58 2497.26,3592.46 2501.66,3597.78C2506.07,3603.1 2513.95,3603.84 2519.26,3599.43Z" style="fill:rgb(35,63,133);fill-rule:nonzero;"/>
            <path d="M2560.75,3647.69C2562.67,3646.11 2565.2,3644.1 2568.23,3641.76C2573.53,3637.68 2580.35,3632.6 2588.27,3626.85C2612.06,3609.59 2645.78,3586.26 2679.33,3564.54C2703.07,3549.16 2726.75,3534.58 2746.65,3523.54C2756.59,3518.03 2765.6,3513.4 2773.06,3510.04C2776.78,3508.36 2780.12,3507 2782.92,3506.01C2785.72,3505.01 2788.02,3504.4 2789.43,3504.16C2796.23,3502.96 2800.77,3496.48 2799.58,3489.68C2798.39,3482.88 2791.91,3478.34 2785.11,3479.53C2781.7,3480.14 2778.28,3481.14 2774.59,3482.44C2768.16,3484.71 2760.94,3487.95 2752.88,3491.96C2740.83,3497.98 2726.97,3505.75 2712.14,3514.6C2697.31,3523.43 2681.53,3533.33 2665.74,3543.55C2639.85,3560.32 2613.96,3577.95 2592.4,3593.16C2581.62,3600.77 2571.93,3607.77 2563.84,3613.76C2559.8,3616.76 2556.15,3619.51 2552.97,3621.96C2549.78,3624.42 2547.06,3626.58 2544.81,3628.44C2539.49,3632.84 2538.75,3640.72 2543.15,3646.04C2547.55,3651.35 2555.43,3652.1 2560.75,3647.69Z" style="fill:rgb(35,63,133);fill-rule:nonzero;"/>
            <path d="M2580.81,3712.86C2582.5,3711.45 2584.74,3709.64 2587.42,3707.54C2592.11,3703.87 2598.16,3699.3 2605.19,3694.12C2626.28,3678.57 2656.21,3657.54 2685.97,3637.97C2707.03,3624.12 2728.03,3610.98 2745.66,3601.05C2754.46,3596.09 2762.42,3591.93 2768.99,3588.93C2772.27,3587.43 2775.2,3586.22 2777.63,3585.34C2780.06,3584.46 2782.03,3583.94 2783.16,3583.74C2789.96,3582.53 2794.48,3576.04 2793.28,3569.24C2792.07,3562.45 2785.57,3557.92 2778.78,3559.13C2775.62,3559.7 2772.52,3560.62 2769.19,3561.81C2763.39,3563.9 2756.93,3566.84 2749.74,3570.47C2738.99,3575.93 2726.66,3582.95 2713.47,3590.94C2700.29,3598.92 2686.26,3607.86 2672.23,3617.08C2649.22,3632.22 2626.23,3648.13 2607.07,3661.85C2597.49,3668.72 2588.88,3675.03 2581.69,3680.45C2578.09,3683.15 2574.85,3685.64 2572.01,3687.86C2569.17,3690.08 2566.74,3692.03 2564.73,3693.73C2559.44,3698.17 2558.76,3706.05 2563.2,3711.34C2567.64,3716.62 2575.53,3717.31 2580.81,3712.86Z" style="fill:rgb(35,63,133);fill-rule:nonzero;"/>
            <path d="M5202.93,2585.73C5189.94,2622.83 5131.38,2897.29 5127.05,2940.58C5072.01,2960.36 4845.78,2927.51 4817.33,2884.22C4845.16,2802.59 4874.74,2640.63 4872.26,2572.6" style="fill:white;fill-rule:nonzero;"/>
            <path d="M4812.15,2863.61C4819.01,2843.48 4825.87,2818.95 4832.35,2792.24C4842.07,2752.17 4850.92,2707.21 4857.37,2665.32C4860.59,2644.37 4863.22,2624.2 4865.04,2605.75C4866.86,2587.3 4867.89,2570.6 4867.89,2556.46C4867.89,2553.35 4867.84,2550.37 4867.74,2547.52C4867.49,2540.62 4861.7,2535.23 4854.8,2535.47C4847.9,2535.72 4842.51,2541.52 4842.76,2548.41C4842.85,2550.94 4842.89,2553.62 4842.89,2556.46C4842.9,2573.71 4841.18,2596.42 4838.14,2621.77C4833.58,2659.81 4826.09,2703.9 4817.26,2745.66C4812.85,2766.54 4808.1,2786.85 4803.23,2805.52C4798.36,2824.19 4793.36,2841.24 4788.49,2855.54C4786.26,2862.08 4789.75,2869.18 4796.28,2871.41C4802.82,2873.63 4809.92,2870.14 4812.15,2863.61Z" style="fill:rgb(35,63,133);fill-rule:nonzero;"/>
            <path d="M5174.12,2556.96C5173.16,2559.7 5172.13,2563.12 5170.94,2567.32C5168.73,2575.18 5166.02,2585.74 5162.94,2598.4C5157.54,2620.54 5151,2649.04 5144.17,2679.94C5133.91,2726.29 5122.98,2778.02 5114.27,2821.55C5109.91,2843.31 5106.11,2863.03 5103.22,2879.04C5101.78,2887.04 5100.56,2894.12 5099.61,2900.1C5098.66,2906.09 5097.98,2910.92 5097.6,2914.69L5110.04,2915.93L5105.81,2904.17C5103.73,2904.92 5101.01,2905.67 5097.8,2906.32C5092.99,2907.29 5087.06,2908.06 5080.32,2908.57C5073.58,2909.08 5066.02,2909.33 5057.85,2909.33C5042.92,2909.33 5025.97,2908.49 5008.13,2906.9C4990.29,2905.31 4971.55,2902.97 4952.98,2900.01C4946.16,2898.92 4939.75,2903.57 4938.66,2910.39C4937.58,2917.21 4942.22,2923.61 4949.04,2924.7C4968.18,2927.75 4987.46,2930.15 5005.91,2931.8C5024.37,2933.44 5041.99,2934.33 5057.85,2934.33C5069.43,2934.33 5080.06,2933.86 5089.5,2932.83C5094.22,2932.31 5098.65,2931.65 5102.77,2930.82C5106.89,2929.98 5110.71,2928.97 5114.27,2927.7C5118.81,2926.07 5122,2921.98 5122.48,2917.18C5122.71,2914.83 5123.17,2911.37 5123.82,2907.11C5125.04,2899.09 5126.94,2888.16 5129.34,2875.2C5137.74,2829.82 5152.28,2759.51 5166.03,2696.88C5172.91,2665.57 5179.59,2636.15 5185.19,2612.73C5188,2601.03 5190.53,2590.82 5192.68,2582.66C5193.75,2578.59 5194.73,2575.03 5195.58,2572.07C5196.43,2569.12 5197.17,2566.76 5197.72,2565.21C5200,2558.7 5196.56,2551.57 5190.05,2549.29C5183.53,2547.01 5176.4,2550.44 5174.12,2556.96Z" style="fill:rgb(35,63,133);fill-rule:nonzero;"/>
            <path d="M4791.65,2112.29C4800.18,2086.8 4810.82,2061.5 4822.56,2037.89C4834.3,2014.28 4847.14,1992.36 4860.01,1973.64C4863.92,1967.95 4862.48,1960.16 4856.79,1956.25C4851.1,1952.34 4843.32,1953.79 4839.41,1959.47C4825.78,1979.3 4812.4,2002.17 4800.17,2026.76C4787.95,2051.35 4776.88,2077.66 4767.94,2104.36C4765.75,2110.9 4769.28,2117.99 4775.83,2120.18C4782.38,2122.37 4789.46,2118.84 4791.65,2112.29Z" style="fill:rgb(35,63,133);fill-rule:nonzero;"/>
            <path d="M5061.95,2602.08C5047.75,2604.91 5033.49,2606.37 5019.27,2606.37C5005.17,2606.37 4991.11,2604.94 4977.16,2601.95C4945.58,2595.19 4916.79,2581.65 4891.16,2562.46C4871.95,2548.06 4854.54,2530.48 4839.23,2510.2C4816.25,2479.78 4798,2443.29 4785.51,2402.63C4773.02,2361.96 4766.29,2317.14 4766.29,2270.12C4766.29,2262.93 4766.45,2255.69 4766.77,2248.41C4767.07,2241.51 4761.72,2235.68 4754.83,2235.38C4747.93,2235.08 4742.09,2240.42 4741.79,2247.32C4741.46,2254.97 4741.29,2262.57 4741.29,2270.12C4741.29,2314.03 4746.87,2356.26 4757.42,2395.42C4773.25,2454.17 4800.28,2506.09 4836.69,2546.34C4854.9,2566.46 4875.46,2583.65 4898.12,2597.22C4920.76,2610.8 4945.5,2620.75 4971.93,2626.4C4987.64,2629.76 5003.47,2631.38 5019.27,2631.37C5035.21,2631.37 5051.11,2629.73 5066.84,2626.59C5073.61,2625.24 5078.01,2618.66 5076.66,2611.89C5075.31,2605.12 5068.72,2600.73 5061.95,2602.08Z" style="fill:rgb(35,63,133);fill-rule:nonzero;"/>
            <path d="M5133.95,2791.88C5198.36,2822.88 5252,2867.64 5296.5,2923.42C5329.86,2965.25 5358.03,3013.28 5381.51,3066.25C5416.72,3145.69 5441.34,3236.22 5457.1,3333.17C5472.88,3430.12 5479.81,3533.49 5479.81,3638.59C5479.81,3803.52 5462.74,3972.73 5436.18,4128.26C5409.63,4283.79 5373.59,4425.68 5335.81,4535.86C5333.57,4542.39 5337.05,4549.5 5343.58,4551.74C5350.12,4553.98 5357.22,4550.5 5359.46,4543.97C5397.77,4432.2 5434.06,4289.22 5460.83,4132.47C5487.58,3975.72 5504.8,3805.24 5504.81,3638.59C5504.81,3544.19 5499.28,3451.01 5486.79,3362.24C5468.05,3229.08 5433.69,3105.78 5378.46,3003.13C5350.85,2951.81 5317.99,2905.66 5279.23,2866.18C5240.48,2826.7 5195.81,2793.9 5144.79,2769.35C5138.57,2766.36 5131.1,2768.97 5128.1,2775.19C5125.11,2781.42 5127.73,2788.89 5133.95,2791.88Z" style="fill:rgb(35,63,133);fill-rule:nonzero;"/>
            <path d="M4136.67,3699.12C4163.9,3585.44 4197.1,3472.63 4237.55,3366.54C4267.88,3286.97 4302.28,3211.18 4341.26,3141.65C4399.71,3037.35 4468.44,2947.17 4548.94,2879.17C4589.19,2845.16 4632.38,2816.68 4678.76,2794.65C4725.15,2772.62 4774.73,2757.03 4827.89,2748.85C4834.71,2747.8 4839.39,2741.42 4838.34,2734.6C4837.29,2727.77 4830.91,2723.09 4824.09,2724.14C4725.28,2739.33 4637.88,2779.2 4561.11,2837.4C4503.52,2881.06 4451.85,2934.99 4405.44,2996.62C4335.84,3089.07 4278.05,3198.85 4229.88,3317.69C4181.73,3436.54 4143.21,3564.47 4112.36,3693.29C4110.75,3700.01 4114.89,3706.75 4121.61,3708.36C4128.32,3709.97 4135.07,3705.83 4136.68,3699.12L4136.67,3699.12Z" style="fill:rgb(35,63,133);fill-rule:nonzero;"/>
            <path d="M4020.22,4541.1C4026.27,4432.56 4037.44,4290.52 4057.97,4133.78C4058.87,4126.93 4054.05,4120.66 4047.2,4119.76C4040.36,4118.87 4034.08,4123.69 4033.18,4130.53C4012.55,4288.05 4001.34,4430.67 3995.26,4539.71C3994.87,4546.6 4000.15,4552.5 4007.04,4552.89C4013.93,4553.27 4019.83,4548 4020.22,4541.1Z" style="fill:rgb(35,63,133);fill-rule:nonzero;"/>
            <path d="M5274.01,4077.15C5278.52,4143.69 5283.22,4207.7 5287.74,4259.75C5290.01,4285.77 5292.22,4308.81 5294.36,4327.72C5295.42,4337.18 5296.47,4345.61 5297.5,4352.89C5298.53,4360.18 5299.53,4366.31 5300.55,4371.3L5312.8,4368.78L5303.14,4360.84C5293.07,4373.1 5279.79,4389.9 5265.49,4408.26C5222.6,4463.34 5170.56,4532.46 5170.54,4532.49C5166.39,4538 5167.5,4545.84 5173.01,4549.99C5178.53,4554.14 5186.36,4553.04 5190.52,4547.52C5190.52,4547.52 5190.87,4547.05 5191.56,4546.14C5196.7,4539.32 5220.17,4508.21 5246.99,4473.18C5260.4,4455.66 5274.66,4437.15 5287.87,4420.22C5301.07,4403.29 5313.25,4387.91 5322.45,4376.72C5324.86,4373.79 5325.81,4369.99 5325.04,4366.27C5324.18,4362.09 5323.23,4356.36 5322.25,4349.4C5320.53,4337.2 5318.69,4321.18 5316.8,4302.27C5311.1,4245.51 5304.86,4162.66 5298.95,4075.46C5298.48,4068.57 5292.52,4063.37 5285.63,4063.83C5278.74,4064.3 5273.54,4070.26 5274.01,4077.15Z" style="fill:rgb(35,63,133);fill-rule:nonzero;"/>
            <path d="M5249.01,3671.15C5249.29,3675.24 5249.71,3682.01 5250.25,3691.02C5251.88,3718.07 5254.6,3765.35 5258.01,3822.91C5258.42,3829.8 5264.34,3835.05 5271.23,3834.64C5278.12,3834.24 5283.38,3828.32 5282.97,3821.43C5280.69,3783.07 5278.72,3749.28 5277.18,3722.98C5276.41,3709.83 5275.75,3698.56 5275.21,3689.52C5274.66,3680.48 5274.24,3673.69 5273.95,3669.44C5273.48,3662.55 5267.51,3657.35 5260.63,3657.82C5253.74,3658.3 5248.54,3664.26 5249.01,3671.15Z" style="fill:rgb(35,63,133);fill-rule:nonzero;"/>
            <path d="M4118.85,3246.25C4117.15,3248.74 4114.04,3253.32 4109.88,3259.48C4080.72,3302.6 3999.94,3422.64 3999.94,3422.65L4010.31,3429.63L4019.86,3421.56C4019.85,3421.56 4019.4,3421.01 4018.5,3419.95C4004.65,3403.56 3886.74,3263.99 3768.43,3123.24C3709.28,3052.86 3650.02,2982.19 3603.62,2926.47C3580.43,2898.62 3560.45,2874.5 3545.32,2856.05C3537.75,2846.83 3531.4,2839.02 3526.48,2832.89C3524.03,2829.82 3521.92,2827.18 3520.22,2825C3518.52,2822.82 3517.2,2821.09 3516.37,2819.95C3469.4,2755.78 3434.45,2684.04 3410.73,2624.11C3398.86,2594.16 3389.79,2567.15 3383.39,2545.56C3380.18,2534.77 3377.65,2525.33 3375.77,2517.59C3373.9,2509.87 3372.67,2503.78 3372.11,2500C3371.01,2492.67 3369.42,2485.08 3367.28,2477.7C3365.68,2472.16 3363.76,2466.73 3361.48,2461.59C3359.76,2457.74 3357.83,2454.04 3355.62,2450.58C3353.96,2447.98 3352.13,2445.51 3350.09,2443.21C3347.03,2439.78 3343.45,2436.7 3339.16,2434.41C3337.02,2433.27 3334.71,2432.34 3332.26,2431.71C3329.82,2431.07 3327.25,2430.73 3324.65,2430.74C3321.11,2430.73 3317.54,2431.36 3314.11,2432.52C3310.67,2433.68 3307.35,2435.37 3304.13,2437.5L3303.49,2437.94C3300.66,2440.08 3298.13,2442.55 3295.88,2445.26C3291.94,2450 3288.85,2455.43 3286.34,2461.34C3282.59,2470.21 3280.13,2480.21 3278.53,2491.09C3276.94,2501.96 3276.24,2513.72 3276.24,2526.04C3276.24,2542.44 3277.49,2559.84 3279.69,2577.37C3283,2603.66 3288.45,2630.21 3295.16,2653.91C3298.52,2665.76 3302.2,2676.89 3306.13,2686.96C3310.06,2697.02 3314.22,2706.01 3318.67,2713.66C3322.14,2719.62 3329.8,2721.64 3335.76,2718.16C3341.73,2714.69 3343.74,2707.04 3340.27,2701.07C3337.9,2697 3335.45,2692.12 3333.03,2686.6C3328.78,2676.95 3324.63,2665.36 3320.82,2652.62C3315.11,2633.5 3310.19,2611.79 3306.72,2589.89C3303.25,2568 3301.23,2545.89 3301.24,2526.04C3301.24,2517.38 3301.62,2509.16 3302.41,2501.6C3303.58,2490.26 3305.72,2480.4 3308.63,2472.91C3310.07,2469.16 3311.69,2466.01 3313.39,2463.52C3315.08,2461.03 3316.82,2459.21 3318.54,2457.91L3311.02,2447.93L3317.91,2458.35C3319.6,2457.24 3321.01,2456.58 3322.11,2456.21C3323.21,2455.84 3324,2455.74 3324.65,2455.73C3325.4,2455.74 3325.99,2455.86 3326.77,2456.17C3327.44,2456.45 3328.24,2456.92 3329.17,2457.67C3330.8,2458.97 3332.76,2461.19 3334.67,2464.22C3337.55,2468.76 3340.28,2475.02 3342.45,2481.94C3344.63,2488.87 3346.3,2496.45 3347.39,2503.69C3348.13,2508.68 3349.48,2515.26 3351.48,2523.49C3354.97,2537.86 3360.43,2557.15 3368,2579.9C3379.36,2614.01 3395.44,2655.86 3416.66,2700.12C3437.88,2744.38 3464.23,2791.03 3496.19,2834.72C3497.33,2836.28 3498.82,2838.22 3500.7,2840.62C3504.34,2845.27 3509.43,2851.6 3515.82,2859.46C3539.78,2888.91 3582.01,2939.71 3631.96,2999.43C3781.77,3178.55 4000.75,3437.68 4000.76,3437.69C4003.3,3440.69 4007.07,3442.32 4010.99,3442.11C4014.91,3441.89 4018.49,3439.86 4020.68,3436.6C4020.68,3436.6 4021.09,3435.99 4021.87,3434.84C4027.69,3426.19 4053.98,3387.13 4080.38,3347.94C4093.57,3328.35 4106.8,3308.73 4117.5,3292.86C4122.86,3284.93 4127.58,3277.93 4131.35,3272.35C4135.12,3266.78 4137.95,3262.6 4139.49,3260.36C4143.38,3254.66 4141.92,3246.88 4136.22,3242.98C4130.52,3239.09 4122.74,3240.55 4118.85,3246.25Z" style="fill:rgb(35,63,133);fill-rule:nonzero;"/>
            <path d="M3262.27,2727.15C3262.45,2731.61 3263.06,2736.64 3264.05,2742.34C3265.79,2752.29 3268.69,2764.24 3272.69,2777.29C3278.68,2796.86 3287.11,2818.85 3297.83,2839.65C3303.2,2850.06 3309.13,2860.16 3315.67,2869.52C3322.22,2878.88 3329.36,2887.51 3337.22,2894.91C3342.25,2899.64 3350.16,2899.4 3354.89,2894.37C3359.62,2889.34 3359.38,2881.43 3354.35,2876.7C3344.76,2867.69 3335.57,2855.39 3327.41,2841.55C3315.15,2820.8 3305.16,2796.67 3298.25,2775.26C3294.8,2764.56 3292.11,2754.54 3290.25,2746.02C3289.33,2741.76 3288.61,2737.88 3288.11,2734.51C3287.61,2731.15 3287.33,2728.29 3287.25,2726.18C3286.98,2719.28 3281.17,2713.9 3274.27,2714.18C3267.37,2714.45 3262,2720.26 3262.27,2727.15Z" style="fill:rgb(35,63,133);fill-rule:nonzero;"/>
            <path d="M3211.11,2780.12C3211.73,2784.53 3212.84,2789.47 3214.38,2795.05C3217.09,2804.78 3221.16,2816.38 3226.43,2828.98C3234.32,2847.86 3244.88,2868.91 3257.61,2888.55C3263.97,2898.38 3270.88,2907.85 3278.31,2916.52C3285.75,2925.19 3293.71,2933.06 3302.26,2939.65C3307.73,2943.86 3315.58,2942.84 3319.79,2937.37C3324,2931.9 3322.98,2924.05 3317.51,2919.84C3307.07,2911.82 3296.72,2900.48 3287.23,2887.52C3272.98,2868.09 3260.65,2845.05 3251.67,2824.43C3247.17,2814.13 3243.51,2804.42 3240.82,2796.12C3239.48,2791.98 3238.38,2788.19 3237.55,2784.89C3236.72,2781.59 3236.16,2778.77 3235.87,2776.67C3234.92,2769.84 3228.6,2765.06 3221.77,2766.01C3214.93,2766.96 3210.16,2773.28 3211.11,2780.12Z" style="fill:rgb(35,63,133);fill-rule:nonzero;"/>
            <path d="M3160.37,2833.82C3161.26,2838.19 3162.66,2843.05 3164.54,2848.53C3167.84,2858.08 3172.6,2869.41 3178.61,2881.67C3187.63,2900.04 3199.44,2920.41 3213.32,2939.26C3220.27,2948.68 3227.73,2957.72 3235.67,2965.92C3243.62,2974.13 3252.04,2981.51 3260.97,2987.57C3266.69,2991.45 3274.46,2989.95 3278.33,2984.24C3282.21,2978.53 3280.72,2970.75 3275,2966.88C3264.1,2959.5 3253.08,2948.81 3242.83,2936.44C3227.43,2917.9 3213.74,2895.65 3203.53,2875.61C3198.42,2865.6 3194.18,2856.13 3191,2848.01C3189.41,2843.95 3188.08,2840.23 3187.06,2836.99C3186.03,2833.75 3185.3,2830.96 3184.88,2828.89C3183.52,2822.12 3176.93,2817.74 3170.17,2819.1C3163.4,2820.46 3159.01,2827.05 3160.37,2833.82Z" style="fill:rgb(35,63,133);fill-rule:nonzero;"/>
            <path d="M3663.1,3507.39C3614.46,3421.03 3569.34,3329.41 3523.61,3241.51C3477.87,3153.61 3431.54,3069.41 3380.16,2997.76C3376.13,2992.15 3368.32,2990.86 3362.71,2994.89C3357.1,2998.91 3355.82,3006.72 3359.84,3012.33C3409.98,3082.22 3455.89,3165.49 3501.44,3253.05C3547,3340.62 3592.22,3432.47 3641.32,3519.66C3644.7,3525.67 3652.33,3527.8 3658.34,3524.42C3664.36,3521.03 3666.49,3513.41 3663.1,3507.39Z" style="fill:rgb(35,63,133);fill-rule:nonzero;"/>
            <path d="M4080.56,3907.8C4036.69,3897.24 3996.33,3880.01 3958.72,3857.28C3921.12,3834.54 3886.27,3806.29 3853.61,3773.69C3848.72,3768.81 3840.81,3768.82 3835.93,3773.7C3831.05,3778.59 3831.06,3786.51 3835.95,3791.38C3869.79,3825.15 3906.18,3854.73 3945.79,3878.67C3985.39,3902.61 4028.21,3920.91 4074.7,3932.11C4081.41,3933.72 4088.17,3929.59 4089.78,3922.88C4091.4,3916.17 4087.27,3909.42 4080.56,3907.8Z" style="fill:rgb(35,63,133);fill-rule:nonzero;"/>
            <path d="M4844.74,2146.05C4846.14,2139.4 4848.36,2133.26 4851.15,2127.85C4855.33,2119.72 4860.82,2113.26 4866.52,2109.05C4869.37,2106.93 4872.26,2105.38 4875.07,2104.36C4877.89,2103.34 4880.61,2102.86 4883.26,2102.86C4884.72,2102.86 4886.16,2103 4887.6,2103.31C4890.79,2103.98 4893.67,2105.33 4896.41,2107.41C4898.46,2108.97 4900.41,2110.95 4902.19,2113.37C4904.86,2116.98 4907.14,2121.57 4908.72,2126.87C4910.3,2132.18 4911.19,2138.19 4911.19,2144.59C4911.19,2149.45 4910.68,2154.53 4909.6,2159.7C4908.18,2166.46 4912.5,2173.09 4919.26,2174.51C4926.01,2175.93 4932.64,2171.6 4934.06,2164.85C4935.5,2158 4936.19,2151.2 4936.19,2144.59C4936.19,2136.85 4935.25,2129.37 4933.41,2122.34C4930.64,2111.8 4925.88,2102.23 4919.07,2094.52C4915.66,2090.67 4911.73,2087.3 4907.31,2084.62C4902.89,2081.93 4897.98,2079.94 4892.75,2078.84L4892.76,2078.84C4889.6,2078.18 4886.41,2077.86 4883.26,2077.86C4875.59,2077.85 4868.14,2079.76 4861.36,2083.05C4851.16,2088 4842.35,2095.95 4835.33,2105.84C4828.31,2115.75 4823.07,2127.67 4820.28,2140.9C4818.85,2147.65 4823.18,2154.28 4829.93,2155.71C4836.69,2157.13 4843.32,2152.81 4844.74,2146.05Z" style="fill:rgb(35,63,133);fill-rule:nonzero;"/>
            <path d="M5080.98,2200.86C5082.38,2194.21 5084.6,2188.07 5087.39,2182.65C5091.56,2174.53 5097.05,2168.07 5102.75,2163.86C5105.6,2161.74 5108.49,2160.19 5111.31,2159.17C5114.12,2158.15 5116.85,2157.67 5119.5,2157.67C5120.96,2157.67 5122.39,2157.81 5123.84,2158.12C5127.03,2158.79 5129.91,2160.14 5132.65,2162.22C5134.7,2163.78 5136.65,2165.76 5138.43,2168.18C5141.1,2171.79 5143.38,2176.38 5144.96,2181.68C5146.54,2186.99 5147.43,2193 5147.43,2199.4C5147.43,2204.26 5146.92,2209.34 5145.83,2214.51C5144.42,2221.27 5148.74,2227.9 5155.5,2229.32C5162.25,2230.74 5168.88,2226.41 5170.3,2219.66C5171.74,2212.81 5172.43,2206.01 5172.43,2199.4C5172.43,2191.66 5171.49,2184.18 5169.65,2177.15C5166.88,2166.61 5162.13,2157.04 5155.31,2149.33C5151.9,2145.48 5147.97,2142.11 5143.54,2139.43C5139.13,2136.74 5134.22,2134.75 5128.99,2133.65C5125.83,2132.99 5122.65,2132.67 5119.5,2132.67C5111.82,2132.66 5104.38,2134.57 5097.59,2137.86C5087.39,2142.81 5078.58,2150.76 5071.56,2160.65C5064.54,2170.56 5059.3,2182.48 5056.52,2195.71C5055.09,2202.47 5059.42,2209.1 5066.17,2210.52C5072.93,2211.94 5079.56,2207.61 5080.98,2200.86Z" style="fill:rgb(35,63,133);fill-rule:nonzero;"/>
            <path d="M4954.06,2205.75C4950.61,2210.52 4945.59,2216.99 4939.79,2224.05C4931.09,2234.64 4920.58,2246.61 4910.79,2256.51C4905.91,2261.46 4901.2,2265.9 4897.1,2269.34C4895.06,2271.05 4893.17,2272.52 4891.54,2273.65C4889.92,2274.79 4888.54,2275.6 4887.68,2276.01C4881.47,2279.01 4878.86,2286.48 4881.86,2292.7C4884.86,2298.92 4892.34,2301.52 4898.55,2298.52C4901.92,2296.88 4905.04,2294.82 4908.28,2292.39C4911.1,2290.27 4913.97,2287.87 4916.93,2285.23C4922.09,2280.63 4927.47,2275.31 4932.88,2269.65C4940.98,2261.16 4949.12,2251.91 4956.35,2243.25C4963.58,2234.58 4969.86,2226.56 4974.32,2220.4C4978.36,2214.81 4977.11,2206.99 4971.51,2202.95C4965.92,2198.9 4958.1,2200.16 4954.06,2205.75Z" style="fill:rgb(35,63,133);fill-rule:nonzero;"/>
            <path d="M4971.72,2369.11C4977.85,2370.34 4985.48,2371.41 4994.4,2372.2C5003.3,2372.98 5013.45,2373.47 5024.46,2373.47C5044.2,2373.46 5066.69,2371.91 5089.52,2367.6L5087.2,2355.31L5075.17,2358.7C5076.66,2363.98 5077.68,2371.01 5077.68,2378.75C5077.68,2386.84 5076.58,2395.71 5074.02,2404.47C5072.1,2411.04 5069.35,2417.55 5065.65,2423.7C5060.07,2432.93 5052.4,2441.37 5041.71,2448.27C5031.01,2455.15 5017.21,2460.54 4999.19,2463.13C4992.35,2464.11 4987.61,2470.45 4988.58,2477.28C4989.56,2484.11 4995.9,2488.86 5002.73,2487.88C5021.49,2485.19 5037.34,2479.72 5050.46,2472.2C5060.3,2466.56 5068.58,2459.77 5075.38,2452.3C5085.58,2441.09 5092.43,2428.4 5096.68,2415.72C5100.95,2403.03 5102.67,2390.34 5102.67,2378.75C5102.67,2368.86 5101.43,2359.77 5099.23,2351.93C5097.48,2345.69 5091.25,2341.83 5084.88,2343.03C5063.93,2346.99 5042.88,2348.47 5024.46,2348.47C5014.19,2348.47 5004.73,2348.01 4996.58,2347.29C4988.44,2346.58 4981.58,2345.6 4976.66,2344.6C4969.89,2343.24 4963.3,2347.62 4961.94,2354.38C4960.57,2361.15 4964.95,2367.74 4971.72,2369.11Z" style="fill:rgb(35,63,133);fill-rule:nonzero;"/>
            <path d="M611.322,2901.46L1160.95,2901.46C1167.85,2901.46 1173.45,2895.86 1173.45,2888.96C1173.45,2882.05 1167.85,2876.46 1160.95,2876.46L611.322,2876.46C604.418,2876.46 598.822,2882.05 598.822,2888.96C598.822,2895.86 604.418,2901.46 611.322,2901.46Z" style="fill:rgb(35,63,133);fill-rule:nonzero;"/>
            <path d="M206.422,4538.51L24.905,3069.08L12.499,3070.61L24.999,3070.61C25.001,3047.22 29.733,3025 38.288,3004.77C51.119,2974.43 72.586,2948.58 99.592,2930.34C126.606,2912.1 159.087,2901.46 194.166,2901.46L262.607,2901.46C269.511,2901.46 275.107,2895.86 275.107,2888.96C275.107,2882.05 269.511,2876.46 262.607,2876.46L194.166,2876.46C167.392,2876.45 141.821,2881.89 118.584,2891.72C83.723,2906.46 54.101,2931.07 33.167,2962.05C12.233,2993.02 -0.005,3030.45 0,3070.61C0,3071.14 0.03,3071.63 0.094,3072.15L181.611,4541.58C182.457,4548.43 188.697,4553.3 195.549,4552.45C202.4,4551.6 207.268,4545.36 206.422,4538.51Z" style="fill:rgb(35,63,133);fill-rule:nonzero;"/>
            <path d="M5852.52,2918.43L5472.3,2918.43C5465.4,2918.43 5459.8,2924.02 5459.8,2930.93C5459.8,2937.83 5465.4,2943.43 5472.3,2943.43L5852.52,2943.43C5859.42,2943.43 5865.02,2937.83 5865.02,2930.93C5865.02,2924.02 5859.42,2918.43 5852.52,2918.43Z" style="fill:rgb(35,63,133);fill-rule:nonzero;"/>
            <path d="M5826.06,4542.47L6041.75,3299.35C6042.93,3292.55 6038.38,3286.08 6031.58,3284.9C6024.77,3283.72 6018.3,3288.28 6017.12,3295.08L5801.43,4538.2C5800.25,4545 5804.81,4551.47 5811.61,4552.65C5818.41,4553.83 5824.88,4549.27 5826.06,4542.47Z" style="fill:rgb(35,63,133);fill-rule:nonzero;"/>
            <path d="M2197.43,1957.84L2197.25,2076.75C2197.24,2081.84 2200.3,2086.41 2205.02,2088.34C2209.73,2090.26 2215.12,2089.15 2218.68,2085.51L2460.9,1838.05L3133.53,1838.05C3136.82,1838.05 3140.04,1836.71 3142.37,1834.38C3144.69,1832.06 3146.03,1828.84 3146.03,1825.55L3146.03,1419.62C3146.03,1416.32 3144.69,1413.1 3142.37,1410.78C3140.04,1408.45 3136.82,1407.12 3133.53,1407.12L3036.33,1407.12C3029.43,1407.12 3023.83,1412.71 3023.83,1419.62C3023.83,1426.52 3029.43,1432.12 3036.33,1432.12L3121.03,1432.12L3121.03,1813.05L2455.65,1813.05C2452.31,1813.05 2449.05,1814.41 2446.72,1816.8L2222.29,2046.08L2222.43,1957.87C2222.44,1950.97 2216.85,1945.37 2209.95,1945.36C2203.04,1945.34 2197.44,1950.93 2197.43,1957.84Z" style="fill:rgb(35,63,133);fill-rule:nonzero;"/>
            <path d="M2822.62,1407.12L2210.12,1407.12C2206.83,1407.12 2203.61,1408.45 2201.28,1410.78C2198.95,1413.1 2197.62,1416.32 2197.62,1419.62L2197.62,1757.35C2197.62,1764.26 2203.22,1769.85 2210.12,1769.85C2217.02,1769.85 2222.62,1764.26 2222.62,1757.35L2222.62,1432.12L2822.62,1432.12C2829.52,1432.12 2835.12,1426.52 2835.12,1419.62C2835.12,1412.71 2829.52,1407.12 2822.62,1407.12Z" style="fill:rgb(35,63,133);fill-rule:nonzero;"/>
            <path d="M2317.36,1555.08L2987.67,1555.08C2994.57,1555.08 3000.17,1549.48 3000.17,1542.58C3000.17,1535.67 2994.57,1530.08 2987.67,1530.08L2317.36,1530.08C2310.46,1530.08 2304.86,1535.67 2304.86,1542.58C2304.86,1549.48 2310.46,1555.08 2317.36,1555.08Z" style="fill:rgb(35,63,133);fill-rule:nonzero;"/>
            <path d="M2317.36,1713.49L2551.37,1713.49C2558.27,1713.49 2563.87,1707.89 2563.87,1700.99C2563.87,1694.08 2558.27,1688.49 2551.37,1688.49L2317.36,1688.49C2310.46,1688.49 2304.86,1694.08 2304.86,1700.99C2304.86,1707.89 2310.46,1713.49 2317.36,1713.49Z" style="fill:rgb(35,63,133);fill-rule:nonzero;"/>
            <path d="M4164.82,889.805L4280.01,889.805L4280.01,1283.25L4280.33,1503.77L4055.91,1274.49C4053.58,1272.1 4050.32,1270.74 4046.98,1270.74L3381.6,1270.74L3381.6,1228.62C3381.6,1221.72 3376,1216.13 3369.1,1216.13C3362.2,1216.13 3356.6,1221.72 3356.6,1228.62L3356.6,1283.24C3356.6,1286.53 3357.93,1289.75 3360.26,1292.07C3362.59,1294.4 3365.81,1295.74 3369.1,1295.74L4041.72,1295.74L4283.95,1543.2C4287.51,1546.84 4292.89,1547.95 4297.61,1546.03C4302.32,1544.1 4305.39,1539.53 4305.38,1534.44L4305.01,1283.22L4305.01,1283.24L4305.01,877.305C4305.01,874.013 4303.68,870.794 4301.35,868.466C4299.02,866.139 4295.8,864.805 4292.51,864.805L4164.82,864.805C4157.91,864.805 4152.32,870.401 4152.32,877.305C4152.32,884.209 4157.91,889.805 4164.82,889.805Z" style="fill:rgb(35,63,133);fill-rule:nonzero;"/>
            <path d="M3381.6,1071.75L3381.6,889.805L3880.24,889.805C3887.14,889.805 3892.74,884.209 3892.74,877.305C3892.74,870.401 3887.14,864.805 3880.24,864.805L3369.1,864.805C3365.81,864.805 3362.59,866.139 3360.26,868.466C3357.93,870.794 3356.6,874.013 3356.6,877.305L3356.6,1071.75C3356.6,1078.65 3362.2,1084.25 3369.1,1084.25C3376,1084.25 3381.6,1078.65 3381.6,1071.75Z" style="fill:rgb(35,63,133);fill-rule:nonzero;"/>
            <path d="M4185.27,987.765L3514.96,987.765C3508.06,987.765 3502.46,993.361 3502.46,1000.26C3502.46,1007.17 3508.06,1012.76 3514.96,1012.76L4185.27,1012.76C4192.17,1012.76 4197.77,1007.17 4197.77,1000.26C4197.77,993.361 4192.17,987.765 4185.27,987.765Z" style="fill:rgb(35,63,133);fill-rule:nonzero;"/>
            <path d="M3753.24,1146.18L3519.23,1146.18C3512.32,1146.18 3506.73,1151.77 3506.73,1158.68C3506.73,1165.58 3512.32,1171.18 3519.23,1171.18L3753.24,1171.18C3760.14,1171.18 3765.74,1165.58 3765.74,1158.68C3765.74,1151.77 3760.14,1146.18 3753.24,1146.18Z" style="fill:rgb(35,63,133);fill-rule:nonzero;"/>
            <path d="M501.465,3584.96L502.152,3586.74C478.342,3640.1 264.963,4244.2 274.34,4294.27C283.772,4344.65 333.78,4433.47 370.559,4454.02C387.372,4463.42 555.743,4499.47 756.558,4542.59L1967.69,4542.59C1942.95,4479.55 1839.56,4427.64 1743.9,4427.45C1711.45,4426.38 1660.68,4428.6 1623.81,4470.74C1258.94,4302.34 850.223,4206.09 731.402,4175.15L718.37,4141.49C757.877,4065.92 876.989,3847.25 893.62,3813.18C830.348,3781.02 505.817,3587.56 502.965,3585.86L502.746,3585.27L502.59,3585.61L501.465,3584.96Z" style="fill:white;fill-rule:nonzero;"/>
            <path d="M306.641,4034.87C289.66,4088.35 274.791,4137.41 264.121,4176.46C258.785,4196 254.498,4213.03 251.508,4226.97C250.013,4233.95 248.841,4240.16 248.024,4245.59C247.617,4248.31 247.298,4250.84 247.076,4253.21C246.855,4255.58 246.728,4257.77 246.727,4259.88C246.733,4262 246.841,4264.01 247.243,4266.2C248.546,4273.15 250.493,4280.51 252.961,4288.2C257.282,4301.65 263.205,4316.08 270.189,4330.56C280.672,4352.29 293.519,4374.09 307.086,4392.53C313.878,4401.75 320.847,4410.12 327.906,4417.26C331.438,4420.83 334.995,4424.09 338.599,4426.99C342.204,4429.89 345.854,4432.43 349.622,4434.54L349.626,4434.54C350.955,4435.28 352.179,4435.82 353.535,4436.38C356.137,4437.44 359.199,4438.48 362.954,4439.65C369.966,4441.84 379.33,4444.42 390.95,4447.4C411.268,4452.63 438.43,4459.09 470.961,4466.54C568.529,4488.89 714.357,4520.14 865.815,4552.87C872.563,4554.33 879.216,4550.04 880.674,4543.3C882.133,4536.55 877.845,4529.9 871.097,4528.44C744.023,4500.97 620.932,4474.55 527.142,4453.6C480.253,4443.13 440.678,4434.02 411.681,4426.84C397.189,4423.26 385.331,4420.16 376.631,4417.65C372.288,4416.4 368.729,4415.29 366.117,4414.39C364.814,4413.94 363.748,4413.54 362.986,4413.23C362.606,4413.08 362.303,4412.94 362.098,4412.85C361.995,4412.8 361.917,4412.76 361.869,4412.74L361.818,4412.71L361.817,4412.71L361.821,4412.71C358.364,4410.79 354.238,4407.73 349.86,4403.71C342.173,4396.68 333.714,4386.77 325.441,4375.26C313.008,4358 300.922,4337.16 291.317,4316.79C286.512,4306.61 282.321,4296.55 278.992,4287.15C275.661,4277.75 273.2,4269.01 271.816,4261.6L271.812,4261.57C271.788,4261.44 271.724,4260.81 271.727,4259.88C271.726,4258.81 271.799,4257.33 271.967,4255.54C272.279,4252.19 272.924,4247.77 273.887,4242.53C275.57,4233.34 278.219,4221.63 281.675,4207.94C286.859,4187.4 293.856,4162.4 302.155,4134.35C310.455,4106.31 320.059,4075.22 330.468,4042.44C332.558,4035.86 328.917,4028.83 322.338,4026.74C315.758,4024.65 308.73,4028.29 306.641,4034.87Z" style="fill:rgb(35,63,133);fill-rule:nonzero;"/>
            <path d="M474.837,3549.39C474.141,3550.9 473.366,3552.71 472.465,3554.88C470.779,3558.95 468.667,3564.31 466.142,3570.89C457.319,3593.9 443.477,3631.87 426.894,3678.63C410.315,3725.38 391.009,3780.89 371.32,3838.82C369.099,3845.36 372.597,3852.46 379.133,3854.68C385.67,3856.9 392.769,3853.4 394.991,3846.87C418.947,3776.38 442.343,3709.46 460.907,3657.67C470.188,3631.77 478.262,3609.65 484.583,3592.79C487.742,3584.36 490.464,3577.24 492.667,3571.65C493.768,3568.85 494.739,3566.44 495.563,3564.45C496.384,3562.46 497.065,3560.89 497.542,3559.86C500.431,3553.59 497.691,3546.16 491.421,3543.27C485.152,3540.38 477.727,3543.12 474.837,3549.39Z" style="fill:rgb(35,63,133);fill-rule:nonzero;"/>
            <path d="M871.138,3774.23C869.477,3776.94 867.367,3780.54 864.803,3785.03C860.002,3793.43 853.635,3804.88 846.128,3818.57C819.866,3866.47 779.692,3941.7 745.635,4006.3C728.607,4038.6 713.114,4068.24 701.651,4090.49C695.918,4101.62 691.195,4110.89 687.771,4117.77C686.057,4121.22 684.67,4124.06 683.619,4126.29C683.092,4127.4 682.65,4128.37 682.273,4129.23C682.083,4129.66 681.91,4130.07 681.741,4130.5C681.57,4130.93 681.407,4131.34 681.208,4131.96C680.178,4135.19 680.489,4138.64 682.079,4141.63C683.669,4144.62 686.36,4146.81 689.611,4147.76C694.533,4149.2 700.8,4150.9 708.402,4152.9C736.87,4160.38 784.123,4172.01 844.918,4187.97C936.088,4211.9 1057.6,4245.51 1190.81,4289.06C1324.02,4332.6 1468.91,4386.09 1606.75,4449.71C1611.79,4452.04 1617.74,4450.77 1621.4,4446.6C1628.85,4438.08 1636.84,4431.45 1645.16,4426.22C1657.61,4418.38 1670.84,4413.68 1683.92,4410.92C1697,4408.17 1709.88,4407.39 1721.39,4407.39C1724.95,4407.39 1728.38,4407.47 1731.65,4407.58L1732.04,4407.58C1758.58,4407.63 1785.75,4411.12 1811.43,4417.62C1830.69,4422.49 1849.11,4429.07 1865.8,4437.1C1878.32,4443.12 1889.87,4449.96 1900.08,4457.48C1915.41,4468.77 1927.7,4481.58 1936.04,4495.39C1940.22,4502.3 1943.43,4509.46 1945.6,4516.89C1947.77,4524.31 1948.92,4532.01 1948.92,4540.06C1948.92,4546.96 1954.51,4552.56 1961.42,4552.56C1968.32,4552.56 1973.92,4546.96 1973.92,4540.06C1973.92,4527.69 1971.81,4515.77 1967.9,4504.56C1964.48,4494.75 1959.69,4485.47 1953.81,4476.79C1943.5,4461.6 1929.85,4448.22 1913.93,4436.64C1890.05,4419.28 1861.04,4405.89 1829.79,4396.72C1798.54,4387.57 1765.03,4382.65 1732.09,4382.59L1732.07,4395.09L1732.49,4382.59C1729.01,4382.48 1725.29,4382.4 1721.39,4382.4C1704.57,4382.4 1684.17,4383.86 1663.21,4390.56C1652.73,4393.91 1642.12,4398.59 1631.84,4405.06C1621.57,4411.52 1611.65,4419.77 1602.58,4430.13L1611.99,4438.36L1617.23,4427.02C1419.48,4335.75 1208.18,4265.48 1036.78,4215.2C951.079,4190.06 875.362,4169.93 816.357,4154.71C786.856,4147.09 761.532,4140.71 741.255,4135.54C731.118,4132.96 722.242,4130.69 714.753,4128.72C707.267,4126.75 701.155,4125.09 696.62,4123.77L693.116,4135.77L705.023,4139.57L699.984,4137.96L704.935,4139.83C704.939,4139.81 704.964,4139.75 705.023,4139.57L699.984,4137.96L704.935,4139.83L704.945,4139.8C705.014,4139.62 705.336,4138.87 705.801,4137.87C706.712,4135.9 708.199,4132.83 710.14,4128.94C713.784,4121.61 719.049,4111.29 725.491,4098.81C748.046,4055.1 785.053,3984.92 818.808,3921.78C835.686,3890.21 851.756,3860.39 864.797,3836.54C871.316,3824.61 877.079,3814.17 881.797,3805.76C884.155,3801.56 886.252,3797.86 888.045,3794.76C889.836,3791.65 891.328,3789.13 892.44,3787.32C896.054,3781.43 894.214,3773.74 888.332,3770.12C882.449,3766.51 874.752,3768.35 871.138,3774.23Z" style="fill:rgb(35,63,133);fill-rule:nonzero;"/>
            <path d="M1059.75,3043.31C1332.12,3202.56 1046.67,3808.43 972.969,3827.7C828.136,3837.69 494.62,3628.6 462.518,3543.96C430.417,3459.31 790.969,2886.16 1059.75,3043.31Z" style="fill:rgb(98,198,189);fill-rule:nonzero;"/>
            <path d="M1129.56,3391.99C1109.57,3487.52 1073.58,3582.21 1037.73,3653.86C1028.77,3671.77 1019.83,3688.24 1011.17,3702.91C1004.67,3713.91 998.338,3723.89 992.293,3732.7C983.237,3745.91 974.786,3756.49 967.652,3763.75C964.097,3767.38 960.872,3770.17 958.247,3772.03C956.938,3772.96 955.783,3773.66 954.855,3774.13C953.928,3774.6 953.231,3774.84 952.858,3774.94L956.018,3787.03L955.158,3774.56C952.104,3774.77 948.924,3774.88 945.629,3774.88C928.305,3774.89 907.826,3771.93 885.406,3766.42C846.147,3756.81 800.967,3739.45 755.124,3717.69C686.34,3685.06 615.959,3642.51 560.612,3601.65C532.943,3581.23 509.022,3561.22 491.033,3543.29C482.041,3534.33 474.538,3525.89 468.82,3518.31C463.095,3510.75 459.197,3504 457.26,3498.84C456.956,3498.04 456.646,3496.91 456.425,3495.44C456.203,3493.98 456.069,3492.19 456.07,3490.13C456.066,3486.13 456.573,3481.12 457.661,3475.32C459.557,3465.17 463.214,3452.67 468.504,3438.54C476.434,3417.34 488.014,3392.46 502.629,3365.58C517.242,3338.7 534.891,3309.81 554.962,3280.44C558.857,3274.74 557.394,3266.96 551.694,3263.06C545.994,3259.17 538.216,3260.63 534.321,3266.33C503.041,3312.12 477.465,3356.78 459.564,3395.42C450.614,3414.75 443.579,3432.57 438.713,3448.42C436.281,3456.34 434.39,3463.78 433.089,3470.72C431.792,3477.66 431.073,3484.1 431.07,3490.13C431.07,3493.25 431.264,3496.26 431.707,3499.18C432.151,3502.11 432.842,3504.95 433.885,3507.71C436.324,3514.12 439.886,3520.52 444.376,3527.12C452.803,3539.49 464.556,3552.62 479.03,3566.51C504.35,3590.78 538.038,3617.26 576.411,3643.53C633.965,3682.92 701.988,3721.76 767.61,3750.94C800.428,3765.53 832.641,3777.69 862.755,3786.27C892.883,3794.84 920.88,3799.86 945.629,3799.88C949.456,3799.88 953.206,3799.76 956.878,3799.5C957.615,3799.45 958.465,3799.31 959.179,3799.13C963.584,3797.96 967.475,3795.93 971.289,3793.4C974.858,3791.01 978.355,3788.13 981.919,3784.77C988.586,3778.48 995.497,3770.51 1002.76,3760.95C1015.44,3744.23 1029.14,3722.65 1043.18,3697.24C1064.23,3659.13 1085.98,3612.42 1105.48,3561.06C1124.96,3509.71 1142.18,3453.73 1154.03,3397.12C1155.45,3390.36 1151.12,3383.74 1144.36,3382.32C1137.6,3380.91 1130.98,3385.24 1129.56,3391.99Z" style="fill:rgb(35,63,133);fill-rule:nonzero;"/>
            <path d="M721.104,3091.1C756.836,3060.41 794.225,3034.5 831.763,3016.4C850.531,3007.35 869.33,3000.24 887.975,2995.41C906.622,2990.57 925.108,2988.01 943.321,2988.01C959.256,2988.01 974.985,2989.97 990.509,2994.11C1006.03,2998.26 1021.36,3004.59 1036.49,3013.44C1056.33,3025.04 1072.91,3039.05 1086.75,3055.15C1100.59,3071.25 1111.7,3089.46 1120.41,3109.46C1123.16,3115.79 1130.53,3118.69 1136.86,3115.94C1143.19,3113.18 1146.08,3105.82 1143.33,3099.49C1133.74,3077.44 1121.32,3057.02 1105.71,3038.86C1090.1,3020.7 1071.3,3004.82 1049.11,2991.85C1032.11,2981.91 1014.66,2974.68 996.958,2969.96C979.253,2965.23 961.306,2963.01 943.321,2963.01C922.758,2963.01 902.152,2965.9 881.7,2971.21C851.017,2979.17 820.67,2992.52 791.059,3009.8C761.448,3027.09 732.562,3048.31 704.818,3072.13C699.58,3076.63 698.98,3084.52 703.478,3089.76C707.975,3095 715.867,3095.6 721.105,3091.1L721.104,3091.1Z" style="fill:rgb(35,63,133);fill-rule:nonzero;"/>
            <path d="M1220.14,2998.21C1259.8,2890.39 1253.67,2527.99 1249.74,2492.14C1245,2448.87 1212.42,2136.83 1290.65,2070.91C1368.88,2005.01 1489.12,1931.12 1560.1,1936.2C1631.09,1941.27 1842.32,2153.83 1842.32,2411.18C1842.32,2668.55 1608.27,2791.5 1553.43,2793.23C1545.93,2850.38 1546.51,3003.35 1546.51,3058.76C1524,3080.31 1277.67,3073.06 1220.14,2998.21Z" style="fill:white;fill-rule:nonzero;"/>
            <path d="M1259.2,2266.53C1222.53,2264.29 1194.05,2297.37 1163.43,2328.93C1135.95,2125.8 1231.69,1768.72 1368.96,1744.29C1392.56,1745.22 1395.53,1776.5 1388.64,1804.03C1474.77,1725.47 1636.55,1681.81 1705.22,1681.24C1794.25,1681.24 1825.68,1751.43 1825.68,1775.52C1825.68,1836.55 1785.72,1927.66 1770.97,1951.26C1794.51,1938.74 1813.37,1934.16 1831.56,1934.16C1877.34,1934.16 1888.53,2005.18 1888.53,2026.33C1888.53,2100.16 1810.34,2175.31 1771.56,2175.31C1753.37,2175.31 1703.09,2146.98 1687.85,2125.83C1693.22,2141.54 1699.18,2145.93 1699.4,2170.06C1699.57,2189.98 1670.63,2200.91 1653.42,2200.91C1607.8,2200.91 1517.36,2111.87 1434.62,2111.87C1407.09,2111.87 1372.35,2151.31 1372.35,2173.56C1372.35,2195.8 1384.02,2300.85 1377,2304.5C1355.64,2321.33 1345.73,2271.27 1260.93,2265.83" style="fill:rgb(239,203,85);fill-rule:nonzero;"/>
            <path d="M1766.33,2535.04C1740.65,2598.56 1701.62,2651.82 1654.34,2689.01C1630.7,2707.61 1605.01,2722.21 1577.84,2732.17C1550.67,2742.12 1522.02,2747.43 1492.35,2747.43C1462.3,2747.43 1433.3,2741.98 1405.82,2731.78C1378.34,2721.58 1352.39,2706.62 1328.55,2687.57C1323.16,2683.26 1315.29,2684.14 1310.98,2689.53C1306.67,2694.92 1307.55,2702.79 1312.94,2707.1C1338.7,2727.69 1366.98,2744.03 1397.12,2755.22C1427.25,2766.41 1459.26,2772.44 1492.35,2772.43C1525.02,2772.44 1556.64,2766.56 1586.44,2755.64C1631.16,2739.26 1671.77,2711.57 1706.25,2675.46C1740.74,2639.34 1769.13,2594.78 1789.51,2544.41C1792.09,2538.01 1789,2530.73 1782.61,2528.14C1776.21,2525.55 1768.92,2528.64 1766.33,2535.04Z" style="fill:rgb(35,63,133);fill-rule:nonzero;"/>
            <path d="M1754.74,2155.28C1770.04,2185.52 1781.3,2216.76 1788.78,2250.15C1796.26,2283.54 1799.94,2319.11 1799.94,2357.93C1799.94,2376.26 1798.93,2394.28 1797,2411.94C1796.25,2418.8 1801.21,2424.97 1808.07,2425.72C1814.93,2426.47 1821.1,2421.52 1821.85,2414.65C1823.88,2396.11 1824.94,2377.17 1824.94,2357.93C1824.94,2317.53 1821.1,2280.08 1813.18,2244.69C1805.26,2209.31 1793.25,2176.01 1777.04,2143.99C1773.92,2137.83 1766.4,2135.36 1760.24,2138.48C1754.08,2141.6 1751.62,2149.12 1754.74,2155.28Z" style="fill:rgb(35,63,133);fill-rule:nonzero;"/>
            <path d="M1529.47,3025.25C1528.95,3015.64 1528.55,3003.49 1528.28,2989.74C1528.01,2975.99 1527.87,2960.64 1527.87,2944.55C1527.87,2908.46 1528.56,2868.66 1529.99,2834.91C1530.7,2818.03 1531.6,2802.67 1532.68,2790.11C1533.21,2783.83 1533.8,2778.25 1534.41,2773.59C1535.02,2768.94 1535.67,2765.16 1536.26,2762.71C1537.86,2755.99 1533.71,2749.25 1526.99,2747.65C1520.28,2746.06 1513.54,2750.2 1511.94,2756.92C1511.04,2760.73 1510.3,2765.15 1509.62,2770.34C1508.43,2779.39 1507.44,2790.72 1506.6,2803.73C1505.33,2823.23 1504.4,2846.47 1503.79,2870.83C1503.17,2895.19 1502.87,2920.66 1502.87,2944.55C1502.87,2960.78 1503.01,2976.29 1503.28,2990.23C1503.56,3004.18 1503.96,3016.56 1504.51,3026.6C1504.88,3033.49 1510.77,3038.78 1517.66,3038.41C1524.56,3038.03 1529.84,3032.14 1529.47,3025.25Z" style="fill:rgb(35,63,133);fill-rule:nonzero;"/>
            <path d="M1207.19,2795.38C1204.74,2827.71 1201.44,2858.95 1197.13,2887.17C1192.83,2915.39 1187.5,2940.62 1181.14,2960.7C1179.84,2964.81 1180.75,2969.31 1183.55,2972.58C1187.36,2977.05 1191.79,2981.19 1196.74,2985.1C1205.41,2991.93 1215.68,2998.06 1227.2,3003.68C1244.49,3012.09 1264.63,3019.33 1286.4,3025.41C1308.16,3031.48 1331.54,3036.36 1355.21,3039.93C1362.04,3040.95 1368.4,3036.25 1369.43,3029.42C1370.46,3022.6 1365.76,3016.23 1358.93,3015.2C1324.29,3010 1290.32,3001.8 1262.38,2991.45C1248.42,2986.29 1235.97,2980.59 1225.76,2974.59C1220.65,2971.6 1216.11,2968.53 1212.22,2965.47C1208.33,2962.4 1205.1,2959.33 1202.57,2956.36L1193.06,2964.48L1204.98,2968.25C1211.91,2946.29 1217.41,2920.01 1221.85,2890.94C1226.28,2861.89 1229.63,2830.07 1232.12,2797.27C1232.65,2790.39 1227.49,2784.38 1220.61,2783.86C1213.72,2783.34 1207.72,2788.49 1207.19,2795.38Z" style="fill:rgb(35,63,133);fill-rule:nonzero;"/>
            <path d="M1207.24,2466.21C1207.52,2467.53 1207.9,2469.92 1208.26,2472.99C1208.91,2478.4 1209.57,2486.02 1210.18,2495.35C1211.1,2509.37 1211.9,2527.29 1212.48,2547.95C1213.05,2568.61 1213.39,2592.03 1213.39,2617.1C1213.39,2633.34 1213.25,2650.28 1212.93,2667.61C1212.8,2674.52 1218.3,2680.22 1225.2,2680.34C1232.1,2680.47 1237.8,2674.98 1237.93,2668.08C1238.25,2650.58 1238.39,2633.49 1238.39,2617.1C1238.39,2578.54 1237.59,2543.86 1236.38,2516.79C1235.77,2503.24 1235.06,2491.61 1234.29,2482.28C1233.91,2477.61 1233.51,2473.52 1233.09,2470.02C1232.66,2466.5 1232.24,2463.61 1231.71,2461.1C1230.3,2454.34 1223.68,2450.01 1216.92,2451.42C1210.16,2452.83 1205.83,2459.46 1207.24,2466.21Z" style="fill:rgb(35,63,133);fill-rule:nonzero;"/>
            <path d="M1446.98,2279.05C1446.98,2259.81 1455.25,2244.22 1465.46,2244.22C1475.66,2244.22 1483.93,2259.81 1483.93,2279.05C1483.93,2298.29 1475.66,2313.87 1465.46,2313.87C1455.25,2313.87 1446.98,2298.29 1446.98,2279.05Z" style="fill:rgb(35,63,133);fill-rule:nonzero;"/>
            <path d="M1709.86,2292.98C1709.86,2273.75 1718.13,2258.16 1728.33,2258.16C1738.54,2258.16 1746.81,2273.75 1746.81,2292.98C1746.81,2312.22 1738.54,2327.81 1728.33,2327.81C1718.13,2327.81 1709.86,2312.22 1709.86,2292.98Z" style="fill:rgb(35,63,133);fill-rule:nonzero;"/>
            <path d="M1623.42,2372.8C1624.68,2381.63 1627.28,2391.29 1630.89,2401.37C1636.31,2416.46 1644.02,2432.42 1653.26,2446.88C1657.89,2454.1 1662.9,2460.95 1668.27,2467.11C1673.65,2473.27 1679.37,2478.75 1685.56,2483.21C1691.17,2487.24 1698.98,2485.97 1703.01,2480.36C1707.04,2474.76 1705.76,2466.95 1700.16,2462.92C1694.58,2458.92 1688.51,2452.79 1682.74,2445.37C1674.06,2434.24 1666,2420.25 1659.88,2406.49C1656.81,2399.61 1654.22,2392.78 1652.23,2386.43C1650.24,2380.08 1648.86,2374.19 1648.18,2369.31C1647.21,2362.47 1640.89,2357.71 1634.05,2358.68C1627.22,2359.64 1622.46,2365.97 1623.42,2372.8Z" style="fill:rgb(35,63,133);fill-rule:nonzero;"/>
            <path d="M1622.37,2535.02C1621.82,2534.95 1620.91,2534.77 1619.78,2534.48C1617.65,2533.93 1614.75,2532.98 1611.45,2531.69C1605.66,2529.45 1598.59,2526.19 1591.23,2522.32C1580.18,2516.52 1568.42,2509.3 1558.87,2502.07C1554.1,2498.46 1549.89,2494.85 1546.63,2491.55C1545,2489.9 1543.62,2488.33 1542.52,2486.92C1541.43,2485.51 1540.63,2484.26 1540.14,2483.3C1537.03,2477.31 1529.71,2474.86 1523.62,2477.79C1521.03,2479.04 1518.74,2480.64 1516.72,2482.43C1513.17,2485.57 1510.36,2489.28 1507.96,2493.36C1504.37,2499.47 1501.71,2506.47 1499.85,2514C1498,2521.53 1496.98,2529.6 1496.97,2537.81C1496.98,2544.14 1497.59,2550.55 1498.97,2556.84C1500.02,2561.55 1501.5,2566.2 1503.52,2570.67C1506.55,2577.36 1510.84,2583.67 1516.64,2588.87C1519.54,2591.46 1522.8,2593.76 1526.38,2595.67C1529.97,2597.58 1533.88,2599.09 1538.05,2600.15C1544.74,2601.85 1551.55,2597.81 1553.25,2591.12C1554.96,2584.43 1550.91,2577.63 1544.22,2575.92C1540.11,2574.86 1536.98,2573.22 1534.3,2571.08C1532.3,2569.47 1530.57,2567.55 1529.04,2565.29C1526.75,2561.92 1524.96,2557.75 1523.76,2553.03C1522.56,2548.33 1521.97,2543.1 1521.97,2537.81C1521.97,2533.16 1522.43,2528.46 1523.25,2524.03C1524.47,2517.39 1526.58,2511.34 1528.93,2507.06C1530.09,2504.92 1531.29,2503.22 1532.32,2502.1C1533.35,2500.97 1534.16,2500.45 1534.46,2500.32L1529.04,2489.06L1517.94,2494.81C1520.17,2499.08 1523.08,2502.89 1526.43,2506.58C1529.37,2509.8 1532.68,2512.92 1536.26,2515.97C1542.52,2521.31 1549.64,2526.46 1557.09,2531.29C1568.26,2538.53 1580.14,2545.04 1590.88,2550.05C1596.26,2552.55 1601.34,2554.68 1606,2556.34C1608.33,2557.17 1610.55,2557.88 1612.69,2558.46C1614.84,2559.04 1616.89,2559.5 1618.99,2559.79C1625.83,2560.72 1632.13,2555.93 1633.06,2549.09C1634,2542.25 1629.21,2535.95 1622.37,2535.02Z" style="fill:rgb(35,63,133);fill-rule:nonzero;"/>
            <path d="M1762.16,2137.74C1757.78,2139.3 1754.05,2139.94 1751.49,2139.93C1748.67,2139.94 1744.9,2139.29 1740.61,2137.89C1736.86,2136.68 1732.72,2134.91 1728.41,2132.72C1720.86,2128.9 1712.81,2123.8 1705.11,2118.3C1693.55,2110.05 1682.72,2100.92 1674.87,2093.9C1670.94,2090.39 1667.74,2087.4 1665.55,2085.31C1664.45,2084.27 1663.6,2083.44 1663.04,2082.89C1662.75,2082.62 1662.54,2082.41 1662.4,2082.27L1662.22,2082.09L1662.22,2082.08L1660.45,2083.85L1662.22,2082.08L1660.45,2083.85L1662.22,2082.08L1662.21,2082.08L1653.97,2090.34L1662.22,2082.09L1662.21,2082.08L1653.97,2090.34L1662.22,2082.09C1658,2077.87 1651.43,2077.21 1646.46,2080.51C1641.49,2083.81 1639.55,2090.13 1641.81,2095.65C1645.35,2104.32 1648.54,2111.48 1651.32,2117.47C1655.48,2126.46 1658.66,2132.88 1660.52,2137.59C1661.45,2139.95 1662.07,2141.86 1662.44,2143.52C1662.82,2145.19 1662.98,2146.62 1662.99,2148.28C1662.99,2148.7 1662.92,2149.23 1662.72,2149.89C1662.38,2151.05 1661.59,2152.62 1660.16,2154.32C1658.03,2156.88 1654.49,2159.64 1649.75,2161.74C1645.01,2163.84 1639.12,2165.3 1632.3,2165.49C1631.83,2165.5 1631.34,2165.51 1630.85,2165.51C1624.63,2165.51 1618.04,2164.39 1611.01,2162.24C1604.86,2160.37 1598.4,2157.71 1591.67,2154.43C1579.9,2148.71 1567.35,2141.1 1554.15,2132.85C1534.33,2120.47 1513.06,2106.63 1489.93,2095.71C1478.36,2090.25 1466.31,2085.53 1453.71,2082.15C1441.11,2078.78 1427.95,2076.76 1414.3,2076.77C1410.03,2076.77 1405.82,2077.47 1401.58,2078.62C1394.18,2080.65 1386.64,2084.1 1379.22,2088.69C1373.67,2092.13 1368.2,2096.23 1363.06,2100.91C1355.35,2107.94 1348.36,2116.29 1343.15,2125.88C1340.55,2130.68 1338.4,2135.79 1336.89,2141.19C1335.39,2146.58 1334.54,2152.26 1334.54,2158.1C1334.54,2161.6 1334.67,2165.68 1334.89,2170.28C1335.29,2178.3 1335.96,2187.87 1336.75,2197.99C1337.93,2213.17 1339.38,2229.58 1340.52,2243.59C1341.1,2250.58 1341.59,2256.98 1341.94,2262.27C1342.12,2264.92 1342.26,2267.29 1342.35,2269.29C1342.44,2271.3 1342.49,2272.96 1342.49,2274.08C1342.49,2274.63 1342.42,2274.83 1342.39,2274.92L1342.32,2275.07C1342.25,2275.17 1342.07,2275.42 1341.51,2275.84C1340.95,2276.25 1340.02,2276.81 1338.67,2277.38C1332.31,2280.06 1329.33,2287.39 1332.01,2293.75C1334.69,2300.11 1342.03,2303.1 1348.39,2300.41C1350.9,2299.35 1353.31,2298.09 1355.59,2296.5C1357.3,2295.31 1358.92,2293.94 1360.4,2292.36C1362.62,2290 1364.49,2287.11 1365.71,2283.95C1366.93,2280.79 1367.49,2277.4 1367.49,2274.08C1367.49,2271.44 1367.35,2268.25 1367.13,2264.4C1366.73,2257.68 1366.06,2249.07 1365.27,2239.52C1364.09,2225.19 1362.65,2208.78 1361.51,2193.92C1360.94,2186.49 1360.44,2179.45 1360.09,2173.3C1359.74,2167.15 1359.54,2161.86 1359.54,2158.1C1359.54,2154.63 1360.05,2151.18 1361.02,2147.73C1362.72,2141.71 1365.89,2135.69 1370.11,2130.07C1373.27,2125.87 1377.01,2121.9 1381.04,2118.37C1387.07,2113.06 1393.76,2108.73 1399.85,2105.87C1402.89,2104.44 1405.77,2103.38 1408.28,2102.71C1410.78,2102.03 1412.9,2101.76 1414.3,2101.76C1424.05,2101.77 1433.6,2103.01 1443.05,2105.24C1459.57,2109.14 1475.78,2116.1 1491.68,2124.55C1503.6,2130.89 1515.34,2138.05 1526.91,2145.28C1544.29,2156.12 1561.25,2167.14 1578.29,2175.71C1586.82,2179.98 1595.39,2183.64 1604.13,2186.28C1612.85,2188.91 1621.77,2190.51 1630.85,2190.51C1631.56,2190.51 1632.28,2190.5 1633.01,2190.48C1640.6,2190.26 1647.68,2188.97 1654.09,2186.84C1658.89,2185.23 1663.32,2183.15 1667.3,2180.67C1673.27,2176.94 1678.27,2172.33 1681.94,2166.9C1683.78,2164.19 1685.28,2161.26 1686.33,2158.13C1687.39,2155.01 1687.99,2151.69 1687.99,2148.28C1687.99,2145.92 1687.81,2143.6 1687.46,2141.34C1686.85,2137.36 1685.74,2133.62 1684.36,2129.95C1682.28,2124.43 1679.62,2118.98 1676.41,2112.12C1673.19,2105.28 1669.37,2097.04 1664.95,2086.2L1653.38,2090.93L1644.54,2099.76C1644.65,2099.87 1648.63,2103.85 1655.15,2109.78C1660.04,2114.23 1666.36,2119.78 1673.58,2125.64C1684.41,2134.43 1697.2,2143.91 1710.44,2151.44C1717.06,2155.2 1723.81,2158.48 1730.63,2160.9C1737.45,2163.31 1744.36,2164.91 1751.49,2164.92C1757.81,2164.91 1764.1,2163.55 1770.48,2161.31C1776.99,2159.01 1780.4,2151.87 1778.11,2145.36C1775.81,2138.85 1768.67,2135.44 1762.16,2137.74Z" style="fill:rgb(35,63,133);fill-rule:nonzero;"/>
            <path d="M1638.78,1677.15C1652.32,1675.35 1665.77,1674.36 1678.95,1674.37C1694.47,1674.36 1709.2,1676.98 1722.53,1681.6C1742.52,1688.52 1759.32,1699.99 1770.87,1713.61C1776.65,1720.42 1781.13,1727.75 1784.15,1735.31C1787.16,1742.89 1788.74,1750.68 1788.74,1758.6C1788.74,1764.21 1788.21,1770.85 1787.18,1778.1C1785.38,1790.81 1782.09,1805.42 1777.8,1820.38C1771.37,1842.82 1762.71,1866.1 1753.74,1885.4C1749.26,1895.05 1744.69,1903.71 1740.39,1910.69C1738.24,1914.18 1736.16,1917.25 1734.23,1919.8C1732.3,1922.34 1730.51,1924.35 1729.08,1925.7C1724.64,1929.9 1723.88,1936.66 1727.28,1941.74C1730.68,1946.82 1737.21,1948.69 1742.79,1946.19C1751.31,1942.36 1758.26,1939.17 1764.16,1936.57C1768.58,1934.63 1772.39,1933.03 1775.81,1931.74C1780.96,1929.8 1785.17,1928.56 1789.56,1927.75C1793.95,1926.95 1798.62,1926.56 1804.69,1926.55C1809.78,1926.56 1814.08,1927.22 1817.8,1928.35C1821.06,1929.34 1823.89,1930.68 1826.45,1932.34C1828.7,1933.8 1830.74,1935.51 1832.63,1937.49C1835.94,1940.96 1838.81,1945.28 1841.21,1950.33C1844.82,1957.9 1847.32,1967.1 1848.83,1976.77C1850.36,1986.43 1850.92,1996.54 1850.92,2005.95C1850.92,2021.47 1847.65,2036.7 1842.07,2051.1C1833.72,2072.68 1820.09,2092.33 1805.21,2107.57C1797.78,2115.19 1790.05,2121.7 1782.64,2126.82C1775.24,2131.94 1768.12,2135.65 1762.17,2137.73C1755.66,2140.03 1752.24,2147.16 1754.53,2153.68C1756.82,2160.19 1763.96,2163.61 1770.47,2161.32C1776.24,2159.28 1782.08,2156.49 1787.98,2153.05C1798.29,2147.02 1808.77,2138.98 1818.83,2129.28C1833.9,2114.74 1848.03,2096.46 1858.54,2075.53C1863.79,2065.06 1868.13,2053.92 1871.16,2042.27C1874.19,2030.62 1875.92,2018.44 1875.92,2005.95C1875.92,1995.61 1875.32,1984.34 1873.56,1973.04C1872.23,1964.57 1870.24,1956.07 1867.26,1947.92C1865.03,1941.81 1862.23,1935.9 1858.68,1930.39C1856.01,1926.26 1852.92,1922.36 1849.33,1918.83C1843.96,1913.54 1837.45,1909.12 1829.92,1906.13C1822.39,1903.12 1813.91,1901.55 1804.69,1901.56C1798.33,1901.55 1792.61,1901.93 1787.1,1902.81C1782.97,1903.47 1778.98,1904.41 1775,1905.61C1769.03,1907.41 1763.11,1909.77 1756.37,1912.69C1749.62,1915.62 1742.01,1919.13 1732.55,1923.38L1737.67,1934.79L1746.26,1943.87C1750.45,1939.88 1754.27,1935.03 1758.11,1929.35C1761.45,1924.39 1764.77,1918.8 1768.05,1912.69C1773.8,1902.01 1779.47,1889.73 1784.78,1876.64C1792.75,1857 1799.91,1835.55 1805.15,1815.03C1807.76,1804.77 1809.9,1794.75 1811.39,1785.26C1812.88,1775.76 1813.73,1766.82 1813.74,1758.6C1813.74,1743.58 1809.71,1729.07 1802.66,1715.98C1797.37,1706.16 1790.38,1697.11 1782.07,1689.04C1769.6,1676.95 1754.13,1667.07 1736.62,1660.17C1719.12,1653.27 1699.57,1649.37 1678.95,1649.37C1664.53,1649.37 1649.99,1650.44 1635.49,1652.36C1628.65,1653.27 1623.84,1659.56 1624.75,1666.4C1625.66,1673.24 1631.94,1678.05 1638.78,1677.15Z" style="fill:rgb(35,63,133);fill-rule:nonzero;"/>
            <path d="M1225.57,1870.31C1236.49,1847.42 1247.84,1827.27 1259.04,1809.97C1267.45,1797 1275.77,1785.63 1283.75,1775.92C1295.71,1761.35 1306.95,1750.51 1316.25,1743.64C1320.88,1740.2 1325.02,1737.77 1328.32,1736.32C1329.96,1735.59 1331.39,1735.11 1332.53,1734.83C1333.67,1734.54 1334.52,1734.46 1335.01,1734.47C1340.57,1734.46 1344.38,1735.33 1346.93,1736.4C1348.85,1737.21 1350.11,1738.11 1351.14,1739.13C1351.91,1739.9 1352.56,1740.76 1353.15,1741.8C1354.03,1743.36 1354.75,1745.36 1355.23,1747.78C1355.71,1750.2 1355.95,1753 1355.95,1756C1355.95,1761 1355.29,1766.48 1354.48,1771.55C1354.08,1774.08 1353.64,1776.52 1353.23,1778.82C1352.83,1781.12 1352.46,1783.24 1352.21,1785.36C1351.57,1790.68 1354.39,1795.8 1359.22,1798.12C1364.05,1800.43 1369.81,1799.41 1373.56,1795.58C1375.2,1793.89 1377.82,1791.52 1381.18,1788.77C1387.08,1783.94 1395.3,1777.89 1405.31,1771.19C1420.34,1761.13 1439.44,1749.59 1461.26,1738.09C1483.08,1726.6 1507.62,1715.14 1533.55,1705.19C1539.99,1702.71 1543.21,1695.48 1540.74,1689.04C1538.27,1682.59 1531.04,1679.37 1524.59,1681.84C1483.45,1697.64 1446.03,1716.91 1416.57,1734.52C1401.84,1743.33 1389.1,1751.73 1378.85,1759.12C1373.72,1762.82 1369.21,1766.27 1365.35,1769.43C1361.49,1772.59 1358.29,1775.44 1355.68,1778.11L1364.62,1786.85L1377.03,1788.33C1377.16,1787.19 1377.47,1785.34 1377.86,1783.14C1378.44,1779.82 1379.2,1775.65 1379.83,1771.03C1380.45,1766.41 1380.94,1761.32 1380.95,1756C1380.94,1750.97 1380.51,1745.71 1379.19,1740.41C1378.19,1736.44 1376.68,1732.42 1374.39,1728.6C1372.68,1725.75 1370.52,1723.01 1367.92,1720.59C1364.02,1716.94 1359.12,1714.06 1353.58,1712.21C1348.03,1710.35 1341.85,1709.47 1335.01,1709.47C1332.43,1709.47 1329.91,1709.79 1327.43,1710.35C1322.77,1711.4 1318.24,1713.24 1313.62,1715.7C1305.54,1720.02 1297.15,1726.29 1288.29,1734.46C1275.02,1746.72 1260.75,1763.32 1246.23,1784.2C1231.72,1805.08 1216.98,1830.24 1203.01,1859.56C1200.03,1865.79 1202.68,1873.25 1208.91,1876.22C1215.14,1879.19 1222.6,1876.55 1225.57,1870.31Z" style="fill:rgb(35,63,133);fill-rule:nonzero;"/>
            <path d="M1150.98,2199.38C1154.17,2106.34 1169.6,2026.07 1190.63,1959.59C1192.71,1953.01 1189.06,1945.99 1182.48,1943.91C1175.9,1941.83 1168.87,1945.47 1166.79,1952.06C1145.08,2020.7 1129.26,2103.21 1126,2198.53C1125.76,2205.43 1131.16,2211.21 1138.06,2211.45C1144.96,2211.68 1150.74,2206.28 1150.98,2199.38Z" style="fill:rgb(35,63,133);fill-rule:nonzero;"/>
            <path d="M1280.43,2474.7C1274.64,2475.62 1268.71,2476.1 1262.67,2476.1C1201.19,2476.1 1151.35,2426.27 1151.35,2364.8C1151.35,2303.31 1201.19,2253.48 1262.67,2253.48C1305.41,2253.48 1342.53,2277.56 1361.18,2312.91" style="fill:white;fill-rule:nonzero;"/>
            <path d="M1265.62,2451.67C1260.5,2452.5 1255.23,2452.93 1249.85,2452.93C1236.17,2452.92 1223.2,2450.16 1211.39,2445.16C1193.67,2437.67 1178.56,2425.13 1167.9,2409.35C1157.24,2393.56 1151.03,2374.61 1151.03,2354.1C1151.03,2340.43 1153.79,2327.46 1158.79,2315.65C1166.28,2297.93 1178.83,2282.82 1194.61,2272.16C1210.39,2261.51 1229.34,2255.3 1249.85,2255.3C1268.86,2255.3 1286.52,2260.63 1301.58,2269.9C1316.63,2279.17 1329.03,2292.38 1337.3,2308.06C1340.53,2314.16 1348.09,2316.5 1354.19,2313.28C1360.3,2310.06 1362.64,2302.5 1359.41,2296.39C1349.04,2276.73 1333.55,2260.23 1314.69,2248.61C1295.84,2237 1273.58,2230.29 1249.85,2230.3C1232.79,2230.29 1216.47,2233.76 1201.65,2240.03C1179.41,2249.44 1160.53,2265.12 1147.18,2284.87C1133.83,2304.62 1126.02,2328.51 1126.03,2354.1C1126.03,2371.17 1129.49,2387.48 1135.76,2402.3C1145.17,2424.54 1160.86,2443.42 1180.61,2456.77C1200.36,2470.12 1224.25,2477.93 1249.85,2477.92C1256.55,2477.92 1263.15,2477.39 1269.59,2476.36C1276.41,2475.26 1281.05,2468.84 1279.95,2462.03C1278.85,2455.21 1272.44,2450.58 1265.62,2451.67Z" style="fill:rgb(35,63,133);fill-rule:nonzero;"/>
            <path d="M5716.5,3630.68C5635,3672.52 5478.46,3696.95 5280.5,3703.86C5286,3820.11 5312.6,4186.66 5326.75,4387.81C5295.93,4432.76 5250.91,4491.47 5215.06,4537.27L5552.28,4537.27C5605.09,4452.26 5678.05,4330.35 5688.87,4301.31C5705.5,4256.66 5710.19,3824.44 5716.5,3630.68Z" style="fill:white;fill-rule:nonzero;"/>
            <path d="M5687.58,3593.01C5687.21,3606.35 5685.99,3654.03 5684.18,3718.7C5681.46,3815.68 5677.39,3950.82 5672.82,4065.16C5670.53,4122.32 5668.12,4174.29 5665.69,4213.61C5664.47,4233.27 5663.25,4249.77 5662.05,4262.07C5661.46,4268.21 5660.86,4273.31 5660.3,4277.13C5660.03,4279.03 5659.75,4280.62 5659.52,4281.79C5659.29,4282.96 5659.06,4283.75 5659.03,4283.8C5658.42,4285.62 5657.39,4288.21 5656.02,4291.31C5653.45,4297.14 5649.69,4304.81 5645.07,4313.69C5636.98,4329.26 5626.23,4348.61 5614.27,4369.37C5596.33,4400.53 5575.65,4434.91 5556.95,4464.84C5547.61,4479.8 5538.76,4493.66 5531.02,4505.42C5523.28,4517.17 5516.62,4526.87 5511.8,4533.34C5507.68,4538.88 5508.83,4546.71 5514.36,4550.83C5519.9,4554.95 5527.73,4553.81 5531.86,4548.27C5536.19,4542.44 5541.5,4534.79 5547.58,4525.68C5558.21,4509.75 5571.19,4489.41 5584.88,4467.27C5605.41,4434.08 5627.54,4396.9 5645.65,4364.83C5654.7,4348.79 5662.75,4334.03 5669.12,4321.61C5672.3,4315.4 5675.07,4309.78 5677.35,4304.82C5679.63,4299.85 5681.42,4295.6 5682.7,4291.85C5683.09,4290.7 5683.37,4289.63 5683.64,4288.5C5684.16,4286.27 5684.59,4283.8 5685.02,4280.89C5685.85,4275.27 5686.63,4268.06 5687.42,4259.28C5688.9,4242.83 5690.37,4220.95 5691.82,4195.03C5696.91,4104.38 5701.79,3964.53 5705.57,3842.03C5707.45,3780.79 5709.06,3723.91 5710.26,3679.73C5711.47,3635.57 5712.28,3604.08 5712.57,3593.72C5712.77,3586.82 5707.33,3581.06 5700.43,3580.87C5693.53,3580.68 5687.78,3586.11 5687.58,3593.01Z" style="fill:rgb(35,63,133);fill-rule:nonzero;"/>
            <path d="M5357.89,2922.27C5631.59,2862.51 5819.48,3527.71 5779.43,3583.64C5739.39,3639.57 5246.09,3720.73 5202.05,3680.64C5158.02,3640.53 5128.68,2972.31 5357.89,2922.27Z" style="fill:rgb(98,198,189);fill-rule:nonzero;"/>
            <path d="M5424.47,3640.77C5389.94,3645.86 5356.19,3650 5325.3,3652.86C5294.41,3655.73 5266.35,3657.31 5243.35,3657.31C5235.17,3657.31 5227.63,3657.11 5220.85,3656.7C5215.78,3656.4 5211.13,3655.98 5206.98,3655.45C5200.77,3654.67 5195.66,3653.61 5192.03,3652.47C5190.22,3651.91 5188.79,3651.32 5187.81,3650.82C5186.82,3650.33 5186.3,3649.92 5186.21,3649.83L5185.82,3650.26L5186.23,3649.85L5186.21,3649.83L5185.82,3650.26L5186.23,3649.85C5186.21,3649.84 5185.74,3649.31 5185.14,3648.3C5184.57,3647.36 5183.88,3646.02 5183.15,3644.34C5181.77,3641.18 5180.26,3636.85 5178.78,3631.6C5176.18,3622.39 5173.64,3610.34 5171.35,3596.08C5167.91,3574.7 5165.02,3548.33 5162.99,3518.61C5160.97,3488.88 5159.81,3455.77 5159.81,3420.8C5159.81,3348.65 5164.75,3268.53 5177.05,3193.59C5178.17,3186.78 5173.56,3180.35 5166.74,3179.23C5159.93,3178.11 5153.5,3182.73 5152.38,3189.54C5139.8,3266.22 5134.81,3347.51 5134.81,3420.8C5134.81,3482.89 5138.39,3539.19 5144.07,3582.23C5145.49,3592.99 5147.05,3602.93 5148.72,3611.95C5151.24,3625.49 5154,3636.92 5157.11,3646.15C5158.67,3650.77 5160.32,3654.85 5162.21,3658.49C5163.15,3660.31 5164.17,3662.02 5165.32,3663.66C5166.48,3665.29 5167.77,3666.85 5169.38,3668.32C5171.36,3670.11 5173.48,3671.51 5175.69,3672.7C5179.58,3674.77 5183.78,3676.22 5188.44,3677.43C5195.42,3679.22 5203.46,3680.39 5212.63,3681.17C5221.8,3681.95 5232.08,3682.3 5243.35,3682.31C5267.48,3682.3 5296.17,3680.67 5327.6,3677.76C5359.03,3674.84 5393.19,3670.65 5428.11,3665.5C5434.94,3664.49 5439.66,3658.14 5438.66,3651.31C5437.65,3644.48 5431.3,3639.76 5424.47,3640.77Z" style="fill:rgb(35,63,133);fill-rule:nonzero;"/>
            <path d="M5377.74,2909.72C5403.67,2911.38 5428.83,2919.85 5453.33,2934.06C5474.75,2946.49 5495.59,2963.33 5515.56,2983.62C5550.53,3019.1 5582.79,3065.09 5611.29,3115.66C5654.05,3191.52 5688.4,3277.67 5711.93,3354.06C5723.69,3392.25 5732.77,3428.01 5738.87,3458.76C5741.92,3474.14 5744.23,3488.26 5745.76,3500.76C5747.3,3513.26 5748.06,3524.16 5748.06,3532.97C5748.07,3539.45 5747.64,3544.81 5746.93,3548.64C5746.59,3550.56 5746.17,3552.08 5745.79,3553.13C5745.42,3554.19 5745.07,3554.74 5745.02,3554.8L5745.03,3554.8C5744.51,3555.53 5743.36,3556.79 5741.56,3558.26C5738.41,3560.86 5733.35,3564.04 5726.79,3567.34C5716.95,3572.31 5703.77,3577.61 5688.18,3582.93C5672.58,3588.24 5654.54,3593.6 5634.79,3598.84C5628.12,3600.62 5624.14,3607.46 5625.92,3614.13C5627.69,3620.81 5634.53,3624.78 5641.21,3623.01C5656.58,3618.92 5671.01,3614.76 5684.22,3610.55C5694.13,3607.39 5703.36,3604.21 5711.81,3601C5724.48,3596.19 5735.37,3591.36 5744.3,3586.34C5748.76,3583.82 5752.74,3581.26 5756.25,3578.52C5759.76,3575.77 5762.83,3572.86 5765.35,3569.35C5767.11,3566.88 5768.34,3564.29 5769.31,3561.6C5770.76,3557.57 5771.64,3553.26 5772.22,3548.52C5772.8,3543.79 5773.06,3538.62 5773.06,3532.97C5773.06,3524.07 5772.41,3513.98 5771.17,3502.77C5768.84,3481.76 5764.42,3456.81 5758.07,3429.05C5746.95,3380.49 5729.9,3323.37 5707.63,3264.65C5690.93,3220.61 5671.3,3175.67 5649,3132.81C5632.27,3100.67 5614.05,3069.69 5594.4,3041.12C5564.93,2998.28 5532.3,2960.83 5496.48,2933.13C5478.56,2919.28 5459.83,2907.88 5440.28,2899.58C5420.73,2891.29 5400.35,2886.11 5379.33,2884.77C5372.44,2884.33 5366.5,2889.56 5366.06,2896.45C5365.62,2903.34 5370.85,2909.28 5377.74,2909.72Z" style="fill:rgb(35,63,133);fill-rule:nonzero;"/>
            <path d="M5416.11,2323.62C5486.41,2253.97 5524.45,2102.54 5524.45,2019.74C5524.45,1849.51 5424.32,1779.64 5405.59,1779.64C5386.87,1779.64 5367.18,1819.03 5370.18,1846.58C5353.27,1823.12 5204.89,1677.98 4937.43,1677.98C4863.34,1677.98 4810.13,1713.87 4810.13,1772.89C4810.13,1799.73 4822.56,1841.62 4844.16,1856.02C4822.23,1857.64 4791.14,1873.33 4791.14,1916.89C4791.14,1966.64 4857.91,1990.18 4884.41,1990.18C4910.92,1990.18 4950.19,1962.7 4969.17,1936.85C4975.07,1965.31 4957.25,2011.7 5019.25,2012.12C5045.43,2012.29 5155.71,1956.48 5176.33,1937.83C5155.39,1973.83 5126.59,1990.35 5126.59,2031.1C5126.59,2069.2 5145.24,2095.89 5174.04,2095.89C5202.84,2095.89 5285.96,2056.62 5301.35,2038.95C5304.62,2064.81 5275.79,2245.24 5284.47,2294.43C5313.41,2296.6 5348.93,2259.75 5349.39,2289.95" style="fill:rgb(228,158,117);fill-rule:nonzero;"/>
            <path d="M5102.99,1962.69C5116.75,1955.63 5129.76,1948.49 5140.56,1942.05C5145.97,1938.82 5150.82,1935.77 5154.99,1932.94C5157.08,1931.53 5158.99,1930.17 5160.74,1928.85C5162.49,1927.53 5164.06,1926.25 5165.51,1924.95L5157.13,1915.68L5146.32,1909.39C5141.51,1917.67 5136.16,1924.96 5130.66,1932.02C5126.54,1937.32 5122.33,1942.47 5118.26,1947.82C5115.2,1951.84 5112.22,1955.96 5109.45,1960.34C5105.3,1966.9 5101.61,1974.06 5099,1982.13C5096.38,1990.19 5094.88,1999.11 5094.89,2008.95C5094.89,2019.49 5096.17,2029.42 5098.71,2038.51C5100.62,2045.33 5103.24,2051.68 5106.59,2057.42C5109.1,2061.73 5112.02,2065.69 5115.36,2069.22C5120.37,2074.52 5126.33,2078.83 5133.03,2081.77C5139.73,2084.71 5147.14,2086.24 5154.84,2086.24C5157.35,2086.23 5159.87,2086.03 5162.49,2085.68C5167.39,2085.03 5172.63,2083.87 5178.22,2082.34C5187.98,2079.67 5198.82,2075.84 5209.93,2071.35C5226.59,2064.62 5243.81,2056.43 5258.32,2048.4C5265.59,2044.37 5272.17,2040.4 5277.75,2036.57C5280.55,2034.65 5283.09,2032.77 5285.39,2030.88C5287.68,2028.99 5289.72,2027.11 5291.57,2025L5282.14,2016.8L5269.74,2018.37C5269.77,2018.63 5269.82,2019.14 5269.85,2019.82C5269.88,2020.49 5269.9,2021.34 5269.9,2022.32C5269.9,2026.01 5269.63,2031.5 5269.13,2038.16C5268.25,2049.83 5266.69,2065.19 5264.84,2082.46C5262.07,2108.37 5258.65,2138.61 5255.92,2167.72C5254.56,2182.28 5253.36,2196.56 5252.51,2209.92C5251.65,2223.28 5251.13,2235.7 5251.13,2246.62C5251.13,2252.01 5251.26,2257.05 5251.54,2261.68C5251.83,2266.32 5252.27,2270.55 5252.96,2274.44C5253.95,2280.05 5258.65,2284.3 5264.33,2284.73C5265.5,2284.82 5266.66,2284.86 5267.81,2284.86C5274.51,2284.85 5280.78,2283.51 5286.6,2281.73C5290.97,2280.4 5295.11,2278.8 5298.99,2277.19C5304.79,2274.77 5310.04,2272.32 5314.25,2270.64C5316.34,2269.8 5318.17,2269.16 5319.53,2268.79C5320.88,2268.41 5321.76,2268.34 5321.79,2268.35L5321.79,2267.35L5321.71,2268.35L5321.79,2268.35L5321.79,2267.35L5321.71,2268.35L5322,2264.75L5321.05,2268.22C5321.37,2268.31 5321.6,2268.34 5321.71,2268.35L5322,2264.75L5321.05,2268.22L5322.6,2262.54L5318.92,2267.12C5319.63,2267.7 5320.49,2268.08 5321.05,2268.22L5322.6,2262.54L5318.92,2267.12L5322.47,2262.71L5317.73,2265.82C5317.97,2266.19 5318.39,2266.69 5318.92,2267.12L5322.47,2262.71L5317.73,2265.82L5320.47,2264.02L5317.42,2265.25C5317.45,2265.33 5317.54,2265.54 5317.73,2265.82L5320.47,2264.02L5317.42,2265.25L5318.05,2265L5317.4,2265.21L5317.42,2265.25L5318.05,2265L5317.4,2265.21C5317.42,2265.23 5317.67,2266.19 5317.69,2268C5317.8,2274.9 5323.48,2280.41 5330.38,2280.3C5337.28,2280.2 5342.79,2274.52 5342.69,2267.61C5342.64,2264.67 5342.36,2261.88 5341.64,2259.09C5341.11,2257 5340.31,2254.9 5339.11,2252.87C5338.21,2251.36 5337.07,2249.89 5335.71,2248.61C5333.68,2246.68 5331.17,2245.25 5328.73,2244.44C5326.27,2243.62 5323.92,2243.35 5321.79,2243.35C5318.85,2243.36 5316.27,2243.83 5313.81,2244.44C5311.67,2244.99 5309.61,2245.67 5307.58,2246.42C5304.02,2247.74 5300.51,2249.28 5296.96,2250.83C5291.66,2253.16 5286.29,2255.52 5281.24,2257.2C5278.72,2258.05 5276.28,2258.73 5274.02,2259.18C5271.75,2259.63 5269.66,2259.86 5267.81,2259.86C5267.25,2259.86 5266.72,2259.84 5266.21,2259.8L5265.27,2272.27L5277.58,2270.09C5277.12,2267.49 5276.74,2264.1 5276.5,2260.14C5276.25,2256.17 5276.13,2251.62 5276.13,2246.62C5276.13,2231.18 5277.27,2211.5 5279.02,2190.31C5281.64,2158.51 5285.58,2123.23 5288.89,2092.66C5290.54,2077.37 5292.03,2063.26 5293.12,2051.28C5293.66,2045.29 5294.1,2039.82 5294.41,2034.99C5294.72,2030.14 5294.9,2025.93 5294.9,2022.32C5294.9,2021.04 5294.88,2019.82 5294.82,2018.65C5294.77,2017.48 5294.68,2016.37 5294.54,2015.22C5293.92,2010.32 5290.5,2006.27 5285.77,2004.84C5281.05,2003.4 5275.95,2004.86 5272.71,2008.59C5272.29,2009.08 5271.46,2009.91 5270.33,2010.88C5268.21,2012.71 5265.02,2015.07 5261.14,2017.61C5254.34,2022.07 5245.39,2027.16 5235.56,2032.19C5220.81,2039.73 5204,2047.17 5189.02,2052.61C5181.53,2055.33 5174.49,2057.55 5168.51,2059.04C5165.52,2059.79 5162.8,2060.35 5160.47,2060.72C5158.13,2061.08 5156.18,2061.24 5154.84,2061.24C5149.57,2061.22 5145.15,2060.06 5141.16,2057.94C5138.18,2056.35 5135.42,2054.18 5132.89,2051.35C5129.1,2047.13 5125.83,2041.38 5123.52,2034.22C5121.21,2027.06 5119.89,2018.52 5119.89,2008.95C5119.9,2000.23 5121.38,1993.25 5123.88,1986.74C5125.76,1981.87 5128.26,1977.24 5131.33,1972.53C5135.92,1965.47 5141.8,1958.27 5148.23,1950.13C5154.64,1941.99 5161.57,1932.89 5167.93,1921.96C5171.03,1916.65 5169.78,1909.84 5165,1905.97C5160.22,1902.09 5153.3,1902.28 5148.74,1906.4C5148.05,1907.04 5146.99,1907.9 5145.67,1908.9C5143.36,1910.65 5140.23,1912.79 5136.53,1915.17C5130.97,1918.73 5124.1,1922.81 5116.45,1927.11C5108.79,1931.42 5100.34,1935.95 5091.57,1940.46C5085.43,1943.61 5083.01,1951.14 5086.16,1957.29C5089.31,1963.43 5096.85,1965.85 5102.99,1962.69Z" style="fill:rgb(35,63,133);fill-rule:nonzero;"/>
            <path d="M4998.72,1647.76C4973.17,1644.9 4946.34,1643.32 4918.23,1643.33C4898.7,1643.33 4880.37,1645.68 4863.73,1650.31C4851.25,1653.78 4839.72,1658.54 4829.38,1664.57C4821.63,1669.09 4814.55,1674.34 4808.29,1680.29C4798.9,1689.21 4791.37,1699.76 4786.24,1711.64C4781.11,1723.52 4778.41,1736.7 4778.42,1750.74C4778.42,1758.4 4779.29,1766.75 4780.92,1775.35C4783.38,1788.24 4787.52,1801.68 4793.48,1813.81C4796.46,1819.88 4799.9,1825.63 4803.93,1830.81C4807.96,1835.98 4812.57,1840.61 4818.03,1844.26L4824.96,1833.85L4824.03,1821.39C4817.29,1821.9 4810.06,1823.44 4802.81,1826.32C4797.38,1828.47 4791.95,1831.38 4786.82,1835.2C4779.13,1840.92 4772.14,1848.75 4767.21,1858.75C4764.75,1863.75 4762.79,1869.27 4761.46,1875.27C4760.14,1881.28 4759.44,1887.76 4759.44,1894.73C4759.43,1902.34 4760.73,1909.59 4763.05,1916.26C4765.08,1922.11 4767.88,1927.5 4771.2,1932.43C4777.04,1941.06 4784.46,1948.25 4792.52,1954.26C4804.62,1963.27 4818.2,1969.69 4830.96,1974C4837.35,1976.15 4843.53,1977.76 4849.29,1978.85C4855.05,1979.94 4860.35,1980.53 4865.21,1980.53C4869.6,1980.53 4873.99,1979.97 4878.37,1979.01C4886.03,1977.32 4893.68,1974.41 4901.25,1970.69C4912.6,1965.09 4923.75,1957.64 4933.87,1949.27C4943.98,1940.88 4953.04,1931.61 4960.05,1922.08L4949.97,1914.68L4937.73,1917.22C4938.23,1919.62 4938.55,1922.53 4938.74,1925.78C4939.07,1931.49 4938.97,1938.22 4939.23,1945.35C4939.43,1950.7 4939.83,1956.31 4940.96,1962.02C4941.81,1966.3 4943.08,1970.66 4945.07,1974.92C4946.56,1978.12 4948.47,1981.26 4950.87,1984.18C4954.45,1988.56 4959.13,1992.38 4964.7,1995.24C4970.28,1998.13 4976.7,2000.11 4984,2001.25C4990.82,2002.33 4997.21,1997.67 4998.29,1990.85C4999.36,1984.03 4994.7,1977.63 4987.88,1976.56C4983.21,1975.82 4979.68,1974.7 4977.02,1973.45C4974.68,1972.34 4973,1971.15 4971.64,1969.87C4970.46,1968.75 4969.51,1967.54 4968.67,1966.15C4967.95,1964.93 4967.32,1963.56 4966.77,1962C4965.81,1959.27 4965.15,1955.97 4964.74,1952.24C4964.12,1946.63 4964.1,1940.12 4963.99,1933.32C4963.93,1929.92 4963.85,1926.43 4963.6,1922.89C4963.36,1919.36 4962.96,1915.77 4962.21,1912.15C4961.21,1907.31 4957.45,1903.52 4952.63,1902.47C4947.8,1901.42 4942.81,1903.31 4939.89,1907.29C4935.74,1912.95 4930.24,1918.99 4923.99,1924.72C4914.62,1933.34 4903.52,1941.31 4892.86,1946.91C4887.53,1949.71 4882.31,1951.92 4877.57,1953.38C4872.82,1954.85 4868.56,1955.54 4865.21,1955.54C4862.81,1955.54 4859.49,1955.25 4855.68,1954.6C4849.01,1953.47 4840.83,1951.25 4832.56,1947.96C4826.36,1945.5 4820.09,1942.44 4814.27,1938.84C4805.53,1933.45 4797.88,1926.84 4792.65,1919.49C4790.03,1915.81 4787.99,1911.95 4786.6,1907.87C4785.21,1903.78 4784.44,1899.47 4784.44,1894.73C4784.44,1885.32 4786.1,1877.93 4788.63,1871.99C4790.54,1867.53 4792.96,1863.86 4795.74,1860.74C4799.9,1856.09 4804.94,1852.67 4810.26,1850.3C4815.56,1847.93 4821.13,1846.67 4825.89,1846.32C4831.2,1845.92 4835.7,1842.18 4837.05,1837.03C4838.4,1831.88 4836.32,1826.41 4831.89,1823.45C4830.13,1822.28 4828.28,1820.69 4826.43,1818.71C4823.19,1815.26 4819.98,1810.58 4817.12,1805.16C4812.82,1797.02 4809.31,1787.23 4806.97,1777.55C4805.79,1772.72 4804.9,1767.91 4804.3,1763.35C4803.71,1758.8 4803.42,1754.5 4803.42,1750.74C4803.43,1737.85 4806.28,1726.67 4811.45,1716.83C4815.34,1709.46 4820.58,1702.82 4827.13,1696.91C4836.95,1688.07 4849.8,1680.9 4865.21,1675.96C4880.6,1671.02 4898.52,1668.32 4918.23,1668.32C4945.4,1668.33 4971.3,1669.85 4995.94,1672.61C5002.8,1673.38 5008.98,1668.44 5009.75,1661.58C5010.52,1654.72 5005.58,1648.53 4998.72,1647.76Z" style="fill:rgb(35,63,133);fill-rule:nonzero;"/>
            <path d="M5507.92,2086.32C5511.16,2069.93 5513.61,2054.06 5515.25,2039.13C5516.9,2024.2 5517.75,2010.22 5517.75,1997.58C5517.75,1953.8 5511.3,1916.2 5501.22,1884.47C5493.67,1860.66 5484.08,1840.16 5473.68,1822.8C5458.07,1796.76 5440.69,1777.79 5425.46,1765.12C5417.84,1758.79 5410.77,1754.02 5404.49,1750.67C5401.34,1749 5398.39,1747.67 5395.52,1746.69C5394.07,1746.2 5392.64,1745.79 5391.16,1745.49C5389.67,1745.19 5388.14,1744.98 5386.39,1744.98C5382.15,1744.97 5378.17,1746.02 5374.67,1747.62C5371.59,1749.02 5368.84,1750.84 5366.31,1752.91C5361.9,1756.53 5358.14,1760.93 5354.8,1765.84C5349.8,1773.2 5345.76,1781.74 5342.84,1790.75C5339.95,1799.77 5338.18,1809.24 5338.17,1818.6C5338.17,1821 5338.29,1823.39 5338.55,1825.78L5350.98,1824.41L5361.12,1817.1C5360.16,1815.77 5359.04,1814.37 5357.72,1812.79C5355.24,1809.84 5352.02,1806.33 5348.01,1802.28C5340.99,1795.19 5331.53,1786.47 5319.62,1776.76C5301.75,1762.19 5278.37,1745.4 5249.53,1728.73C5220.7,1712.06 5186.42,1695.52 5146.79,1681.5C5140.28,1679.2 5133.14,1682.61 5130.83,1689.12C5128.53,1695.62 5131.94,1702.77 5138.45,1705.07C5200.33,1726.96 5248.54,1755.22 5282.57,1779.83C5299.58,1792.13 5313.04,1803.52 5322.85,1812.69C5327.75,1817.28 5331.74,1821.31 5334.77,1824.59C5336.29,1826.22 5337.57,1827.67 5338.59,1828.89C5339.61,1830.1 5340.38,1831.09 5340.84,1831.73C5344.15,1836.32 5350.18,1838.11 5355.47,1836.08C5360.75,1834.05 5364.02,1828.68 5363.4,1823.05C5363.25,1821.66 5363.17,1820.17 5363.17,1818.6C5363.17,1813.28 5364.1,1807.14 5365.83,1801.1C5367.11,1796.57 5368.83,1792.09 5370.81,1788.02C5372.29,1784.96 5373.93,1782.14 5375.61,1779.69C5376.87,1777.86 5378.16,1776.23 5379.4,1774.88C5381.25,1772.85 5383.02,1771.46 5384.3,1770.75C5384.93,1770.39 5385.44,1770.19 5385.78,1770.09C5386.13,1769.98 5386.3,1769.98 5386.39,1769.97L5386.39,1766.6L5386.04,1769.96C5386.09,1769.96 5386.2,1769.97 5386.39,1769.97L5386.39,1766.6L5386.04,1769.96L5386.14,1769.01L5386.02,1769.96L5386.04,1769.96L5386.14,1769.01L5386.02,1769.96L5386.05,1769.96C5386.23,1769.98 5387.18,1770.21 5388.49,1770.74C5390.99,1771.72 5394.81,1773.7 5399.27,1776.68C5407.1,1781.89 5416.99,1790.15 5427.26,1801.59C5442.69,1818.76 5459.05,1843.08 5471.55,1875.4C5484.06,1907.74 5492.74,1948.1 5492.75,1997.58C5492.75,2009.11 5491.97,2022.23 5490.41,2036.39C5488.84,2050.55 5486.5,2065.75 5483.39,2081.49C5482.06,2088.26 5486.46,2094.83 5493.24,2096.17C5500.01,2097.51 5506.58,2093.1 5507.92,2086.33L5507.92,2086.32Z" style="fill:rgb(35,63,133);fill-rule:nonzero;"/>
            <path d="M5405.71,2310.35C5418.67,2297.49 5430.38,2282.29 5440.97,2265.53C5451.56,2248.76 5461.02,2230.43 5469.41,2211.27C5472.18,2204.94 5469.29,2197.57 5462.97,2194.8C5456.65,2192.04 5449.28,2194.92 5446.51,2201.24C5438.54,2219.44 5429.62,2236.69 5419.83,2252.18C5410.05,2267.67 5399.41,2281.4 5388.11,2292.6C5383.2,2297.46 5383.17,2305.37 5388.03,2310.28C5392.89,2315.18 5400.81,2315.21 5405.71,2310.35Z" style="fill:rgb(35,63,133);fill-rule:nonzero;"/>
            <path d="M5316.5,2284.79C5322.99,2282.4 5329.97,2281.1 5337.32,2281.09C5345.67,2281.1 5353.57,2282.78 5360.77,2285.83C5371.57,2290.39 5380.8,2298.05 5387.3,2307.68C5393.8,2317.32 5397.58,2328.85 5397.59,2341.37C5397.59,2349.73 5395.9,2357.63 5392.86,2364.83C5388.29,2375.63 5380.63,2384.86 5371.01,2391.37C5361.37,2397.87 5349.84,2401.65 5337.32,2401.66C5330.66,2401.65 5324.3,2400.58 5318.35,2398.61C5300.49,2392.71 5286.25,2378.56 5280.21,2360.76C5277.99,2354.22 5270.9,2350.72 5264.36,2352.94C5257.82,2355.16 5254.32,2362.26 5256.54,2368.8C5262.27,2385.64 5273.07,2400.08 5287.14,2410.33C5294.17,2415.46 5302.03,2419.54 5310.48,2422.34C5318.93,2425.14 5327.97,2426.66 5337.32,2426.65C5349.06,2426.66 5360.31,2424.27 5370.51,2419.95C5385.83,2413.46 5398.83,2402.67 5408.02,2389.06C5417.21,2375.47 5422.59,2358.99 5422.59,2341.37C5422.59,2329.64 5420.2,2318.39 5415.88,2308.18C5409.4,2292.86 5398.61,2279.86 5385,2270.67C5371.41,2261.47 5354.94,2256.09 5337.32,2256.1C5326.99,2256.09 5317.05,2257.95 5307.87,2261.32C5301.39,2263.71 5298.07,2270.89 5300.46,2277.37C5302.84,2283.85 5310.02,2287.17 5316.5,2284.79Z" style="fill:rgb(35,63,133);fill-rule:nonzero;"/>
            <path d="M77.495,4553.08L6108.4,4553.08C6115.3,4553.08 6120.9,4547.48 6120.9,4540.58C6120.9,4533.67 6115.3,4528.08 6108.4,4528.08L77.495,4528.08C70.591,4528.08 64.995,4533.67 64.995,4540.58C64.995,4547.48 70.591,4553.08 77.495,4553.08Z" style="fill:rgb(35,63,133);fill-rule:nonzero;"/>
        </g>
    </g>
</svg>
