<?xml version="1.0" encoding="UTF-8" standalone="no"?>
<!DOCTYPE svg PUBLIC "-//W3C//DTD SVG 1.1//EN" "http://www.w3.org/Graphics/SVG/1.1/DTD/svg11.dtd">
<svg width="100%" height="100%" viewBox="0 0 4124 3599" version="1.1" xmlns="http://www.w3.org/2000/svg" xmlns:xlink="http://www.w3.org/1999/xlink" xml:space="preserve" xmlns:serif="http://www.serif.com/" style="fill-rule:evenodd;clip-rule:evenodd;stroke-miterlimit:2;">
    <g transform="matrix(4.16667,0,0,4.16667,0,0)">
        <rect x="803.435" y="732.439" width="55.145" height="73.412" style="fill:rgb(217,223,241);"/>
        <rect x="71.675" y="126.134" width="689.008" height="521.416" style="fill:rgb(217,223,241);"/>
        <path d="M105.298,147.46C105.298,152.88 100.904,157.274 95.485,157.274C90.065,157.274 85.671,152.88 85.671,147.46C85.671,142.041 90.065,137.647 95.485,137.647C100.904,137.647 105.298,142.041 105.298,147.46Z" style="fill:rgb(241,93,101);fill-rule:nonzero;"/>
        <path d="M143.016,147.46C143.016,152.88 138.622,157.274 133.202,157.274C127.783,157.274 123.389,152.88 123.389,147.46C123.389,142.041 127.783,137.647 133.202,137.647C138.622,137.647 143.016,142.041 143.016,147.46Z" style="fill:rgb(241,93,101);fill-rule:nonzero;"/>
        <path d="M180.734,147.46C180.734,152.88 176.339,157.274 170.921,157.274C165.501,157.274 161.107,152.88 161.107,147.46C161.107,142.041 165.501,137.647 170.921,137.647C176.339,137.647 180.734,142.041 180.734,147.46Z" style="fill:rgb(241,93,101);fill-rule:nonzero;"/>
        <rect x="811.241" y="759.643" width="13.862" height="13.861" style="fill:rgb(241,93,101);"/>
        <path d="M818.173,759.643L818.173,732.439" style="fill:none;fill-rule:nonzero;"/>
        <path d="M818.173,759.643L818.173,732.439" style="fill:none;stroke:rgb(35,63,133);stroke-width:2.33px;"/>
        <path d="M876.704,769.739C876.704,759.277 868.224,750.795 857.761,750.795C847.299,750.795 838.818,759.277 838.818,769.739C838.818,780.202 847.299,788.683 857.761,788.683C868.224,788.683 876.704,780.202 876.704,769.739Z" style="fill:none;stroke:rgb(217,223,241);stroke-width:6.99px;"/>
        <path d="M830.67,267.758L541.84,101.003L375.084,389.834L663.914,556.59L830.67,267.758Z" style="fill:none;stroke:rgb(182,193,227);stroke-width:3.49px;stroke-linecap:round;stroke-linejoin:round;"/>
        <path d="M177.137,662.751C177.137,660.931 173.232,652.936 163.283,652.936C157.491,652.936 148.553,658.412 148.553,659.179C155.586,660.721 162.027,669.801 166.349,669.801C170.851,669.801 177.137,667.255 177.137,662.751Z" style="fill:rgb(131,135,194);fill-rule:nonzero;"/>
        <rect x="897.642" y="789.641" width="91.937" height="25.875" style="fill:rgb(131,135,194);"/>
        <path d="M834.558,186.063C836.21,180.139 837.112,173.903 837.112,167.452C837.112,129.24 806.136,98.264 767.925,98.264C729.714,98.264 698.737,129.24 698.737,167.452C698.737,173.903 699.64,180.139 701.291,186.063L834.558,186.063Z" style="fill:rgb(131,135,194);fill-rule:nonzero;"/>
        <path d="M476.123,554.169C476.123,563.143 468.278,595.094 433.159,595.094C401.234,595.094 320.093,457.64 317.557,452.359C309.109,451.514 294.436,440.632 290.251,425.785C289.611,423.516 299.253,410.512 309.778,413.633C312.246,414.366 301.64,401.145 300.192,398.873C296.876,393.675 298.848,386.596 300.484,386.596C302.12,386.596 323.167,415.243 324.745,415.359C326.324,415.476 338.658,421.147 339.302,422.317C339.944,423.485 339.221,440.711 341.62,443.936C344.018,447.159 426.243,534.774 426.243,534.774C426.993,526.38 435.402,503.311 436.751,500.912C438.1,498.514 476.123,527.73 476.123,554.169Z" style="fill:white;fill-rule:nonzero;"/>
        <path d="M303.479,418.317C301.727,415.921 300.576,408.589 306.244,408.573C325.416,408.521 335.389,414.508 335.389,417.47C335.389,420.431 335.389,435.433 336.968,438.198C337.468,439.071 345.605,448.037 356.631,460.032C361.648,465.722 369.856,474.378 369.856,474.378C392.279,498.653 418.318,526.626 420.667,529.199C421.456,524.066 427.181,505.51 429.899,499.826" style="fill:none;stroke:rgb(35,63,133);stroke-width:4.3px;stroke-linecap:round;stroke-linejoin:round;"/>
        <path d="M376.108,543.982C346.235,504.75 316.021,453.448 311.981,447.123" style="fill:none;stroke:rgb(35,63,133);stroke-width:4.3px;stroke-linecap:round;stroke-linejoin:round;"/>
        <path d="M464.748,566.935C462.796,572.088 453.786,589.518 426.33,589.518C421.208,589.518 414.738,585.745 407.492,579.426" style="fill:none;stroke:rgb(35,63,133);stroke-width:4.3px;stroke-linecap:round;stroke-linejoin:round;"/>
        <path d="M495.59,361.566C493.571,350.102 484.883,326.318 484.883,305.566C484.883,274.361 504.127,256.709 540.367,256.709C565.915,256.709 576.042,273.441 579.922,281.714C583.163,288.626 581.234,296.204 584.856,303.386C599.28,331.976 611.109,329.046 632.088,364.509C637.159,373.081 640.146,403.128 638.479,412.574C629.529,412.963 617.524,417.074 617.524,417.074C612.643,422.162 610.534,428.915 610.699,434.26C606.505,430.808 584.55,413.045 559.224,413.045C552.399,413.045 519.922,418.979 511.448,425.38C509.968,423.324 503.062,419.623 500.348,419.623C495.578,420.2 491.621,420.57 487.885,421.906C483.648,407.43 496.006,388.011 496.006,365.414C496.006,364.368 495.856,363.073 495.59,361.566Z" style="fill:rgb(239,203,85);fill-rule:nonzero;"/>
        <path d="M501.706,420.62C449.142,420.62 431.319,492.136 431.319,499.355C431.319,506.575 471.701,531.691 477.342,531.691C482.981,531.691 516.82,448.37 516.82,442.955C516.82,437.541 512.084,420.62 501.706,420.62Z" style="fill:rgb(98,198,189);fill-rule:nonzero;"/>
        <path d="M464.747,425.033C436.207,444.964 425.742,488.247 425.742,493.779C425.742,500.998 466.125,526.116 471.765,526.116C477.405,526.116 511.245,442.794 511.245,437.379C511.245,431.965 506.507,415.045 496.129,415.045" style="fill:none;stroke:rgb(35,63,133);stroke-width:4.3px;stroke-linecap:round;stroke-linejoin:round;"/>
        <path d="M553.547,414.341C681.604,405.914 663.639,679.367 653.796,690.11C643.951,700.854 533.081,733.297 519.807,726.345C506.536,719.394 389.607,425.129 553.547,414.341Z" style="fill:rgb(98,198,189);fill-rule:nonzero;"/>
        <path d="M572.094,356.959C572.094,356.959 569.96,369.733 569.844,373.747C569.343,380.439 572.168,421.037 573.193,427.982C569.206,432.424 540.281,436.523 537.036,434.018C537.094,428.438 534.245,399.625 533.159,395.633C511.495,392.833 494.522,366.791 494.522,335.076C494.522,328.486 495.255,322.141 496.61,316.2C503.134,314.101 512.629,303.847 514.05,300.102L512.55,296.41C518.677,316.2 555.781,334.413 569.408,335.989L567.926,338.331C569.856,334.462 573.304,331.885 577.236,331.885C583.28,331.885 588.18,337.973 588.18,345.485C588.18,352.995 583.28,359.085 577.236,359.085C574.299,359.085 571.632,357.647 569.666,355.306" style="fill:white;fill-rule:nonzero;"/>
        <path d="M506.413,378.247C496.035,367.159 489.318,349.453 489.318,329.501C489.318,322.911 490.05,316.565 491.406,310.623" style="fill:none;stroke:rgb(35,63,133);stroke-width:4.3px;stroke-linecap:round;stroke-linejoin:round;"/>
        <path d="M555.655,379.871C548.859,386.459 540.66,390.307 531.832,390.307C527.989,390.307 524.267,389.579 520.727,388.213" style="fill:none;stroke:rgb(35,63,133);stroke-width:4.3px;stroke-linecap:round;stroke-linejoin:round;"/>
        <path d="M562.722,332.755C564.651,328.886 568.099,326.308 572.031,326.308C578.075,326.308 582.975,332.397 582.975,339.909C582.975,347.419 578.075,353.509 572.031,353.509C569.093,353.509 566.427,352.071 564.461,349.729" style="fill:none;stroke:rgb(35,63,133);stroke-width:4.3px;stroke-linecap:round;stroke-linejoin:round;"/>
        <path d="M531.832,316.75C543.886,324.355 557.172,329.599 564.204,330.412" style="fill:none;stroke:rgb(35,63,133);stroke-width:4.3px;stroke-linecap:round;stroke-linejoin:round;"/>
        <path d="M507.344,290.834C508.937,295.978 512.624,301.015 517.445,305.682" style="fill:none;stroke:rgb(35,63,133);stroke-width:4.3px;stroke-linecap:round;stroke-linejoin:round;"/>
        <path d="M508.846,294.527C507.425,298.271 497.93,308.526 491.406,310.623" style="fill:none;stroke:rgb(35,63,133);stroke-width:4.3px;stroke-linecap:round;stroke-linejoin:round;"/>
        <path d="M586.478,309.921C597.995,326.423 609.104,329.413 626.512,358.841C631.582,367.413 634.637,397.048 632.97,406.493" style="fill:none;stroke:rgb(35,63,133);stroke-width:4.3px;stroke-linecap:round;stroke-linejoin:round;"/>
        <path d="M533.191,251.053C533.721,251.045 534.254,251.041 534.792,251.041C560.339,251.041 570.467,267.774 574.347,276.046C576.165,279.924 576.356,284.012 576.813,288.122" style="fill:none;stroke:rgb(35,63,133);stroke-width:4.3px;stroke-linecap:round;stroke-linejoin:round;"/>
        <path d="M482.309,416.238C478.072,401.763 490.43,382.343 490.43,359.746C490.43,350.743 479.308,323.379 479.308,299.899C479.308,278.649 488.232,263.684 505.369,256.298" style="fill:none;stroke:rgb(35,63,133);stroke-width:4.3px;stroke-linecap:round;stroke-linejoin:round;"/>
        <path d="M565.522,391.73C564.864,381.112 564.414,371.19 564.641,368.171" style="fill:none;stroke:rgb(35,63,133);stroke-width:4.3px;stroke-linecap:round;stroke-linejoin:round;"/>
        <path d="M551.311,427.756C558.87,426.468 566.132,424.474 567.988,422.407C567.621,419.918 567.024,413.12 566.431,405.108" style="fill:none;stroke:rgb(35,63,133);stroke-width:4.3px;stroke-linecap:round;stroke-linejoin:round;"/>
        <path d="M527.954,390.058C529.04,394.049 531.89,422.863 531.832,428.443" style="fill:none;stroke:rgb(35,63,133);stroke-width:4.3px;stroke-linecap:round;stroke-linejoin:round;"/>
        <path d="M485.753,437.287C496.367,424.656 510.978,415.464 530.569,411.17" style="fill:none;stroke:rgb(35,63,133);stroke-width:4.3px;stroke-linecap:round;stroke-linejoin:round;"/>
        <path d="M462.832,550.594C460.021,520.803 461.172,491.7 469.235,467.667" style="fill:none;stroke:rgb(35,63,133);stroke-width:4.3px;stroke-linecap:round;stroke-linejoin:round;"/>
        <path d="M654.534,639.876C653.341,664.685 650.553,681.987 648.219,684.533C638.375,695.278 527.505,727.721 514.232,720.769C508.673,717.858 484.933,664.551 471.259,602.78" style="fill:none;stroke:rgb(35,63,133);stroke-width:4.3px;stroke-linecap:round;stroke-linejoin:round;"/>
        <path d="M636.787,484.129C649.529,521.102 654.243,565.655 655.008,603.386" style="fill:none;stroke:rgb(35,63,133);stroke-width:4.3px;stroke-linecap:round;stroke-linejoin:round;"/>
        <path d="M566.777,409.659C581.232,412.134 593.438,418.736 603.719,428.335" style="fill:none;stroke:rgb(35,63,133);stroke-width:4.3px;stroke-linecap:round;stroke-linejoin:round;"/>
        <path d="M524.247,327.088C524.247,330.419 522.956,333.12 521.366,333.12C519.775,333.12 518.484,330.419 518.484,327.088C518.484,323.757 519.775,321.055 521.366,321.055C522.956,321.055 524.247,323.757 524.247,327.088Z" style="fill:rgb(35,63,133);fill-rule:nonzero;"/>
        <path d="M508.846,333.121C508.486,335.834 506.399,346.933 501.894,351.383" style="fill:none;stroke:rgb(35,63,133);stroke-width:4.3px;stroke-linecap:round;stroke-linejoin:round;"/>
        <path d="M517.224,365.945C519.093,366.275 526.675,363.803 528.433,358.693" style="fill:none;stroke:rgb(35,63,133);stroke-width:4.3px;stroke-linecap:round;stroke-linejoin:round;"/>
        <path d="M692.293,519.673C692.293,519.673 722.118,605.445 722.118,615.047C722.118,624.651 632.832,689.285 632.832,689.285L587.218,693.101L666.382,611.811L636.67,537.827L692.293,519.673Z" style="fill:white;fill-rule:nonzero;"/>
        <path d="M631.094,532.249C632.796,536.562 660.806,606.234 660.806,606.234L582.936,686.692" style="fill:none;stroke:rgb(35,63,133);stroke-width:4.3px;stroke-linecap:round;stroke-linejoin:round;"/>
        <path d="M710.056,586.688C713.837,599.068 716.543,608.326 716.543,609.471C716.543,613.272 702.186,625.106 702.186,625.106" style="fill:none;stroke:rgb(35,63,133);stroke-width:4.3px;stroke-linecap:round;stroke-linejoin:round;"/>
        <path d="M686.718,512.432C686.718,512.432 691.434,527.172 697.113,545.172" style="fill:none;stroke:rgb(35,63,133);stroke-width:4.3px;stroke-linecap:round;stroke-linejoin:round;"/>
        <path d="M610.56,420.189C663.218,405.3 705.992,497.084 701.148,509.724C696.302,522.365 635.208,542.8 624.885,537.534C614.563,532.266 576.283,429.88 610.56,420.189Z" style="fill:rgb(98,198,189);fill-rule:nonzero;"/>
        <path d="M631.094,532.249C625.652,533.036 621.42,533.033 619.309,531.956C616.118,530.328 610.257,519.425 604.693,504.845" style="fill:none;stroke:rgb(35,63,133);stroke-width:4.3px;stroke-linecap:round;stroke-linejoin:round;"/>
        <path d="M694.014,491.469C695.825,497.419 696.409,501.964 695.571,504.148C693.021,510.801 674.891,519.613 656.779,525.7" style="fill:none;stroke:rgb(35,63,133);stroke-width:4.3px;stroke-linecap:round;stroke-linejoin:round;"/>
        <path d="M591.716,454.478C589.491,434.84 592.159,418.239 604.983,414.613C634.074,406.388 660.149,430.719 676.845,456.276" style="fill:none;stroke:rgb(35,63,133);stroke-width:4.3px;stroke-linecap:round;stroke-linejoin:round;"/>
        <path d="M456.818,659.773C509.695,659.773 703.935,757.524 703.935,763.633C703.935,769.744 704.988,807.453 698.246,807.453C492.21,807.453 399.936,767.847 399.936,700.643C399.936,673.887 427.534,659.773 456.818,659.773Z" style="fill:rgb(60,55,69);fill-rule:nonzero;"/>
        <path d="M714.727,765.218C710.614,765.218 708.239,803.227 710.75,807.453C717.865,810.214 745.91,814.401 750.095,814.401C754.28,814.401 778.725,810.214 778.725,786.356C778.725,770.451 754.072,765.218 714.727,765.218Z" style="fill:white;fill-rule:nonzero;"/>
        <path d="M514.951,670.582C591.712,698.69 698.359,753.533 698.359,758.061C698.359,764.17 699.413,801.88 692.671,801.88C486.635,801.88 394.36,762.274 394.36,695.07C394.36,668.315 421.958,654.2 451.242,654.2C455.197,654.2 459.944,654.746 465.342,655.761" style="fill:none;stroke:rgb(35,63,133);stroke-width:4.3px;stroke-linecap:round;stroke-linejoin:round;"/>
        <path d="M709.151,759.642C707.709,759.642 706.482,764.315 705.602,770.564" style="fill:none;stroke:rgb(35,63,133);stroke-width:4.3px;stroke-linecap:round;stroke-linejoin:round;"/>
        <path d="M705.602,770.56C703.974,782.137 703.544,799.128 705.174,801.873C712.29,804.634 740.334,808.82 744.519,808.82C748.705,808.82 773.149,804.634 773.149,780.776C773.149,768.27 757.91,762.363 732.274,760.409" style="fill:none;stroke:rgb(35,63,133);stroke-width:4.3px;stroke-linecap:round;stroke-linejoin:round;"/>
        <path d="M300.311,385.438C298.27,382.841 296.825,380.832 296.473,379.972C294.998,376.377 286.888,383.774 294.537,395.055" style="fill:none;stroke:rgb(35,63,133);stroke-width:4.3px;stroke-linecap:round;stroke-linejoin:round;"/>
        <path d="M322.042,410.137C320.189,408.629 313.674,401.419 307.673,394.374" style="fill:none;stroke:rgb(35,63,133);stroke-width:4.3px;stroke-linecap:round;stroke-linejoin:round;"/>
        <path d="M295.254,408.058C286.928,411.241 299.109,426.789 305.293,432.361" style="fill:none;stroke:rgb(35,63,133);stroke-width:4.3px;stroke-linecap:round;stroke-linejoin:round;"/>
        <path d="M286.652,416.26C281.633,422.809 295.805,436.338 299.906,438.358" style="fill:none;stroke:rgb(35,63,133);stroke-width:4.3px;stroke-linecap:round;stroke-linejoin:round;"/>
        <path d="M734.693,621.851C762.713,621.851 778.725,649.871 778.725,666.513C778.725,761.527 505.273,807.453 498.742,807.453C492.21,807.453 484.627,771.217 484.627,768.479C484.627,765.741 675.917,621.851 734.693,621.851Z" style="fill:rgb(60,55,69);fill-rule:nonzero;"/>
        <path d="M531.53,723.166C563.178,700.662 604.596,672.782 642.592,651.139" style="fill:none;stroke:rgb(35,63,133);stroke-width:4.3px;stroke-linecap:round;stroke-linejoin:round;"/>
        <path d="M652.269,761.166C578.134,788.476 496.693,801.881 493.165,801.881C486.635,801.881 479.05,765.646 479.05,762.908C479.05,762.316 487.969,755.143 502.55,744.257" style="fill:none;stroke:rgb(35,63,133);stroke-width:4.3px;stroke-linecap:round;stroke-linejoin:round;"/>
        <path d="M673.822,634.48C696.432,623.388 716.049,616.275 729.117,616.275C757.137,616.275 773.149,644.294 773.149,660.938C773.149,684.108 756.886,704.358 732.199,721.735" style="fill:none;stroke:rgb(35,63,133);stroke-width:4.3px;stroke-linecap:round;stroke-linejoin:round;"/>
        <path d="M473.423,770.451C467.772,770.451 408.545,780.496 408.545,798.913C408.545,820.05 421.311,828.631 428.426,828.631C435.543,828.631 479.282,819.005 483.259,812.308C487.235,805.61 473.423,770.451 473.423,770.451Z" style="fill:white;fill-rule:nonzero;"/>
        <path d="M457.683,815.67C467.555,812.782 476.035,809.502 477.683,806.727C481.66,800.03 467.846,764.87 467.846,764.87C462.196,764.87 402.969,774.915 402.969,793.332C402.969,814.47 415.735,823.051 422.85,823.051C424.188,823.051 426.82,822.71 430.238,822.114" style="fill:none;stroke:rgb(35,63,133);stroke-width:4.3px;stroke-linecap:round;stroke-linejoin:round;"/>
        <path d="M826.75,178.256C828.401,172.332 829.304,166.095 829.304,159.644C829.304,121.432 798.327,90.457 760.117,90.457C721.906,90.457 690.929,121.432 690.929,159.644C690.929,166.095 691.832,172.332 693.484,178.256L826.75,178.256Z" style="fill:none;stroke:rgb(35,63,133);stroke-width:4.3px;stroke-linecap:round;stroke-linejoin:round;"/>
        <rect x="890.945" y="782.949" width="91.938" height="25.875" style="fill:none;stroke:rgb(35,63,133);stroke-width:4.44px;stroke-linecap:round;stroke-linejoin:round;"/>
        <path d="M936.914,782.949L936.914,54.152L760.113,54.152L760.113,90.457" style="fill:none;stroke:rgb(35,63,133);stroke-width:4.44px;stroke-linecap:round;stroke-linejoin:round;"/>
        <rect x="92.571" y="795.886" width="188.401" height="27.169" style="fill:rgb(217,223,241);"/>
        <rect x="121.335" y="773.97" width="188.4" height="22.564" style="fill:rgb(131,135,194);"/>
        <rect x="99.701" y="751.407" width="188.401" height="22.563" style="fill:rgb(217,223,241);"/>
        <path d="M206.165,639.301C201.601,638.929 195.305,621.183 201.047,612.318C213.137,593.652 244.487,587.578 256.097,561.144C256.014,570.244 265.248,644.107 206.165,639.301Z" style="fill:rgb(131,135,194);fill-rule:nonzero;"/>
        <path d="M186.772,704.271C186.772,671.825 211.1,620.127 226.548,609.421" style="fill:none;stroke:rgb(35,63,133);stroke-width:2.33px;stroke-linecap:round;stroke-linejoin:round;"/>
        <path d="M212.691,625.961C211.606,623.656 209.882,616.227 210.529,612.027" style="fill:none;stroke:rgb(35,63,133);stroke-width:2.33px;stroke-linecap:round;stroke-linejoin:round;"/>
        <path d="M220.833,614.747C222.748,615.258 231.416,614.666 236.314,613.212" style="fill:none;stroke:rgb(35,63,133);stroke-width:2.33px;stroke-linecap:round;stroke-linejoin:round;"/>
        <path d="M190.039,680.337C189.897,677.248 185.131,660.711 166.897,662.847" style="fill:none;stroke:rgb(35,63,133);stroke-width:2.33px;stroke-linecap:round;stroke-linejoin:round;"/>
        <path d="M172.153,662.751C171.498,661.314 168.869,658.412 167.501,657.974" style="fill:none;stroke:rgb(35,63,133);stroke-width:2.33px;stroke-linecap:round;stroke-linejoin:round;"/>
        <path d="M209.29,751.406L218.982,704.271L157.376,704.271L167.068,751.406L209.29,751.406Z" style="fill:rgb(241,93,101);fill-rule:nonzero;"/>
        <path d="M1.745,276.436L116.067,565.154L298.866,362.333L1.745,276.436Z" style="fill:none;stroke:rgb(182,193,227);stroke-width:3.49px;stroke-linecap:round;stroke-linejoin:round;"/>
        <path d="M183.068,256.709L183.068,342.251L221.281,342.251L239.995,374.456L258.709,342.251L296.922,342.251L296.922,256.709L183.068,256.709Z" style="fill:rgb(246,248,252);fill-rule:nonzero;"/>
        <path d="M223.095,298.258C223.095,301.54 220.435,304.202 217.151,304.202C213.869,304.202 211.209,301.54 211.209,298.258C211.209,294.975 213.869,292.314 217.151,292.314C220.435,292.314 223.095,294.975 223.095,298.258Z" style="fill:rgb(241,93,101);fill-rule:nonzero;"/>
        <path d="M245.939,298.258C245.939,301.54 243.277,304.202 239.995,304.202C236.712,304.202 234.051,301.54 234.051,298.258C234.051,294.975 236.712,292.314 239.995,292.314C243.277,292.314 245.939,294.975 245.939,298.258Z" style="fill:rgb(241,93,101);fill-rule:nonzero;"/>
        <path d="M268.781,298.258C268.781,301.54 266.121,304.202 262.839,304.202C259.555,304.202 256.894,301.54 256.894,298.258C256.894,294.975 259.555,292.314 262.839,292.314C266.121,292.314 268.781,294.975 268.781,298.258Z" style="fill:rgb(241,93,101);fill-rule:nonzero;"/>
    </g>
</svg>
