<?xml version="1.0" encoding="UTF-8" standalone="no"?>
<!DOCTYPE svg PUBLIC "-//W3C//DTD SVG 1.1//EN" "http://www.w3.org/Graphics/SVG/1.1/DTD/svg11.dtd">
<svg width="100%" height="100%" viewBox="0 0 3146 2214" version="1.1" xmlns="http://www.w3.org/2000/svg" xmlns:xlink="http://www.w3.org/1999/xlink" xml:space="preserve" xmlns:serif="http://www.serif.com/" style="fill-rule:evenodd;clip-rule:evenodd;stroke-linecap:round;stroke-linejoin:round;stroke-miterlimit:2;">
    <g transform="matrix(1,0,0,1,0,-442)">
        <g transform="matrix(4.16667,0,0,4.16667,0,0)">
            <rect x="77.951" y="146.087" width="599.465" height="434.812" style="fill:rgb(217,223,241);"/>
            <rect x="77.951" y="146.087" width="599.465" height="47.679" style="fill:rgb(236,242,250);"/>
            <path d="M569.7,169.926C569.7,176.473 564.392,181.779 557.846,181.779C551.301,181.779 545.993,176.473 545.993,169.926C545.993,163.38 551.301,158.073 557.846,158.073C564.392,158.073 569.7,163.38 569.7,169.926Z" style="fill:rgb(241,93,101);fill-rule:nonzero;"/>
            <path d="M615.258,169.926C615.258,176.473 609.951,181.779 603.405,181.779C596.858,181.779 591.551,176.473 591.551,169.926C591.551,163.38 596.858,158.073 603.405,158.073C609.951,158.073 615.258,163.38 615.258,169.926Z" style="fill:rgb(241,93,101);fill-rule:nonzero;"/>
            <path d="M660.815,169.926C660.815,176.473 655.508,181.779 648.963,181.779C642.415,181.779 637.109,176.473 637.109,169.926C637.109,163.38 642.415,158.073 648.963,158.073C655.508,158.073 660.815,163.38 660.815,169.926Z" style="fill:rgb(241,93,101);fill-rule:nonzero;"/>
            <path d="M602.839,251.003C596.6,251.003 594.953,263.388 583.842,263.388L518.333,263.388L518.333,329.234L623.101,329.234L623.101,251.003L602.839,251.003Z" style="fill:rgb(246,248,252);fill-rule:nonzero;"/>
            <path d="M469.177,251.003C462.937,251.003 461.29,263.388 450.179,263.388L384.671,263.388L384.671,329.234L489.439,329.234L489.439,251.003L469.177,251.003Z" style="fill:rgb(246,248,252);fill-rule:nonzero;"/>
            <path d="M316.517,263.387L251.008,263.387L251.008,329.233L355.776,329.233L355.776,251.002L335.514,251.002C329.275,251.002 327.627,263.387 316.517,263.387Z" style="fill:rgb(246,248,252);fill-rule:nonzero;"/>
            <path d="M488.119,386.472L462.902,478.299L545.81,462.234L488.119,386.472Z" style="fill:none;stroke:rgb(236,242,250);stroke-width:3px;"/>
            <path d="M412.959,585.261C412.959,567.593 398.637,553.271 380.97,553.271C363.302,553.271 348.98,567.593 348.98,585.261C348.98,602.928 363.302,617.251 380.97,617.251C398.637,617.251 412.959,602.928 412.959,585.261Z" style="fill:none;stroke:rgb(236,242,250);stroke-width:3px;"/>
            <path d="M439.498,533.467C439.498,524.076 431.884,516.462 422.491,516.462C413.099,516.462 405.485,524.076 405.485,533.467C405.485,542.86 413.099,550.474 422.491,550.474C431.884,550.474 439.498,542.86 439.498,533.467Z" style="fill:none;stroke:rgb(236,242,250);stroke-width:3px;"/>
            <path d="M232.031,107.766L326.215,127.789L206.349,217.757L232.031,107.766Z" style="fill:none;stroke:rgb(182,193,227);stroke-width:3px;"/>
            <rect x="583.842" y="370.48" width="171.127" height="253.793" style="fill:rgb(236,242,250);"/>
            <path d="M722.762,448.583C722.762,478.051 698.874,501.94 669.405,501.94C639.936,501.94 616.048,478.051 616.048,448.583C616.048,419.114 639.936,395.226 669.405,395.226C698.874,395.226 722.762,419.114 722.762,448.583Z" style="fill:rgb(205,213,237);fill-rule:nonzero;"/>
            <rect x="602.915" y="526.334" width="132.977" height="29.229" style="fill:rgb(182,193,227);"/>
            <rect x="602.915" y="576.277" width="132.977" height="29.23" style="fill:rgb(182,193,227);"/>
            <path d="M37.988,557.4C37.729,563.15 33.488,604.299 28.306,619.842C45.661,617.55 140.211,598.806 168.655,582.407C166.387,567.026 46.3,555.8 37.988,557.4Z" style="fill:rgb(60,55,69);fill-rule:nonzero;"/>
            <path d="M94.363,249.625C94.363,263.818 82.856,275.325 68.663,275.325C54.47,275.325 42.964,263.818 42.964,249.625C42.964,235.432 54.47,223.926 68.663,223.926C82.856,223.926 94.363,235.432 94.363,249.625Z" style="fill:rgb(239,203,85);fill-rule:nonzero;"/>
            <path d="M174.706,294.169C176.542,293.314 179.195,287.523 179.195,278.94C179.195,257.626 162.955,247.566 137.091,247.566C119.003,247.566 97.677,254.319 84.067,279.703C73.938,298.595 69.811,340.257 61.34,355.229C55.98,364.704 44.605,383.884 35.88,401.925C32.6,406.499 16.114,441.439 41.29,452.916C66.467,464.394 183.398,459.67 186.507,454.74C189.615,449.807 172.137,414.595 166.389,407.483C160.639,400.371 152.356,391.286 157.087,356.208C161.819,321.131 157.541,300.468 161.566,298.802C165.591,297.137 170.494,297.032 174.706,294.169Z" style="fill:rgb(239,203,85);fill-rule:nonzero;"/>
            <path d="M109.716,318.713C109.716,324.736 104.832,329.62 98.808,329.62C92.785,329.62 87.901,324.736 87.901,318.713C87.901,312.689 92.785,307.806 98.808,307.806C104.832,307.806 109.716,312.689 109.716,318.713Z" style="fill:white;fill-rule:nonzero;"/>
            <path d="M33.859,553.27C33.6,559.02 29.359,600.169 24.178,615.712" style="fill:none;stroke:rgb(35,63,133);stroke-width:3.69px;"/>
            <path d="M275.577,383.256C284.027,369.871 281.565,354.445 277.949,359.19C276.736,360.783 260.962,392.773 257.802,396.026L257.829,396.075C255.385,396.151 253.432,396.474 252.611,397.141C249.408,399.744 250.609,417.964 249.408,419.566C248.206,421.167 202.557,491.245 200.554,493.447C200.354,494.248 194.548,467.218 192.778,462.428C188.219,466.102 176.867,472.611 173.452,473.724C173.835,476.818 175.758,515.011 173.452,527.425C175.386,531.268 187.11,542.904 192.087,542.904C201.685,542.904 211.878,539.212 214.565,537.368C225.75,529.684 268.934,430.517 272.092,428.451C278.401,424.318 288.909,410.035 290.378,400.995C290.378,396.961 293.66,394.379 275.577,383.256Z" style="fill:white;fill-rule:nonzero;"/>
            <path d="M148.114,396.929C176.281,387.733 201.909,451.698 199.907,456.856C197.904,462.014 169.474,477.431 163.266,476.629C157.06,475.829 137.171,400.502 148.114,396.929Z" style="fill:rgb(98,198,189);fill-rule:nonzero;"/>
            <path d="M143.984,392.8C172.152,383.603 197.779,447.569 195.778,452.726C193.775,457.884 165.344,473.301 159.137,472.5C152.931,471.699 133.041,396.373 143.984,392.8Z" style="fill:none;stroke:rgb(35,63,133);stroke-width:3.69px;"/>
            <path d="M114.197,380.947C193.934,382.814 173.786,560.879 170.126,567.245C165.204,575.803 63.139,583.575 38.788,559.692C33.163,554.174 38.508,379.174 114.197,380.947Z" style="fill:rgb(98,198,189);fill-rule:nonzero;"/>
            <path d="M100.83,377.516C103.786,376.985 106.864,376.743 110.068,376.818C134.571,377.392 149.641,394.604 158.657,418.361" style="fill:none;stroke:rgb(35,63,133);stroke-width:3.69px;"/>
            <path d="M170.397,482.797C172.557,523.16 167.631,560.271 165.995,563.116C161.074,571.673 59.009,579.446 34.659,555.563C29.539,550.542 33.502,405.22 91.267,380.394" style="fill:none;stroke:rgb(35,63,133);stroke-width:3.69px;"/>
            <path d="M168.024,274.469C168.182,284.37 99.173,293.748 98.787,307.806C98.4,321.865 98.177,329.988 98.177,329.988C100.653,343.098 95.304,389.441 93.791,394.288C99.579,399.669 128.621,399.263 131.769,396.026C131.363,392.764 131.419,370.565 132.254,368.057L132.246,368.049C133.46,368.21 134.687,368.301 135.929,368.301C158.141,368.301 176.147,342.089 176.147,309.755C176.147,292.853 175.871,288.387 168.024,274.469Z" style="fill:white;fill-rule:nonzero;"/>
            <path d="M73.049,386.35C103.915,395.946 85.439,470.721 79.538,473.67C73.638,476.621 15.819,460.1 14.638,453.611C13.458,447.121 33.721,374.124 73.049,386.35Z" style="fill:rgb(98,198,189);fill-rule:nonzero;"/>
            <path d="M86.282,420.768C86.025,443.495 78.727,467.88 75.408,469.54C69.508,472.49 11.688,455.97 10.507,449.48C10.161,447.574 11.664,439.931 14.956,430.395" style="fill:none;stroke:rgb(35,63,133);stroke-width:3.69px;"/>
            <path d="M31.222,398.489C40.679,385.958 53.295,377.363 68.919,382.22C70.22,382.625 71.433,383.145 72.563,383.771" style="fill:none;stroke:rgb(35,63,133);stroke-width:3.69px;"/>
            <path d="M218.338,456.436C231.032,437.114 244.629,416.3 245.278,415.437C246.479,413.834 245.278,395.615 248.482,393.012C251.685,390.41 272.082,393.008 272.082,395.334C272.082,397.66 263.746,405.317 261.711,405.898" style="fill:none;stroke:rgb(35,63,133);stroke-width:3.69px;"/>
            <path d="M188.867,458.944C190.637,463.734 196.223,490.119 196.424,489.318C196.934,488.756 200.281,483.785 205.005,476.661" style="fill:none;stroke:rgb(35,63,133);stroke-width:3.69px;"/>
            <path d="M271.447,379.126C279.897,365.741 277.435,350.315 273.82,355.061C272.606,356.653 256.832,388.643 253.673,391.895" style="fill:none;stroke:rgb(35,63,133);stroke-width:3.69px;"/>
            <path d="M274.272,382.629C273.142,384.776 267.961,393.402 267.961,393.402" style="fill:none;stroke:rgb(35,63,133);stroke-width:3.69px;"/>
            <path d="M279.806,386.019C278.678,388.842 274.297,397.317 272.081,400.368" style="fill:none;stroke:rgb(35,63,133);stroke-width:3.69px;"/>
            <path d="M284.779,389.748C283.762,392.459 277.73,403.532 275.945,405.904" style="fill:none;stroke:rgb(35,63,133);stroke-width:3.69px;"/>
            <path d="M271.391,421.493C270.173,422.669 269.009,423.635 267.961,424.321C264.804,426.389 221.62,525.555 210.434,533.239C207.748,535.084 197.554,538.776 187.957,538.776C182.979,538.776 172.33,528.803 170.396,524.961" style="fill:none;stroke:rgb(35,63,133);stroke-width:3.69px;"/>
            <path d="M286.247,396.866C285.636,400.636 283.451,405.317 280.656,409.792" style="fill:none;stroke:rgb(35,63,133);stroke-width:3.69px;"/>
            <path d="M162.948,342.661C155.572,355.79 144.357,364.17 131.797,364.17C123.779,364.17 116.307,360.753 110.034,354.867" style="fill:none;stroke:rgb(35,63,133);stroke-width:3.69px;"/>
            <path d="M163.894,270.34C168.992,280.152 172.016,292.375 172.016,305.626C172.016,312.035 171.31,318.203 170.002,323.974" style="fill:none;stroke:rgb(35,63,133);stroke-width:3.69px;"/>
            <path d="M100.83,323.526C99.076,324.737 96.949,325.445 94.657,325.445C88.646,325.445 83.773,320.572 83.773,314.561C83.773,308.55 88.646,303.677 94.657,303.677C96.16,303.677 97.591,303.981 98.893,304.532" style="fill:none;stroke:rgb(35,63,133);stroke-width:3.69px;"/>
            <path d="M134.074,302.278C134.074,304.594 133.054,306.47 131.795,306.47C130.535,306.47 129.515,304.594 129.515,302.278C129.515,299.963 130.535,298.086 131.795,298.086C133.054,298.086 134.074,299.963 134.074,302.278Z" style="fill:rgb(35,63,133);fill-rule:nonzero;"/>
            <path d="M154.836,321.871C155.236,322.643 155.7,323.354 156.238,323.973" style="fill:none;stroke:rgb(35,63,133);stroke-width:3.69px;"/>
            <path d="M152.608,308.972C152.424,310.625 152.491,314.463 153.442,318.115" style="fill:none;stroke:rgb(35,63,133);stroke-width:3.69px;"/>
            <path d="M121.278,330.151C121.72,333.093 124.956,336.916 129.514,338.388" style="fill:none;stroke:rgb(35,63,133);stroke-width:3.69px;"/>
            <path d="M127.637,391.895C127.232,388.633 127.288,366.434 128.121,363.926" style="fill:none;stroke:rgb(35,63,133);stroke-width:3.69px;"/>
            <path d="M92.437,370.479C91.386,380.332 90.241,388.296 89.66,390.157C91.957,392.291 97.914,393.515 104.462,394.013" style="fill:none;stroke:rgb(35,63,133);stroke-width:3.69px;"/>
            <path d="M94.048,325.858C95.009,330.95 94.789,341.053 94.074,351.791" style="fill:none;stroke:rgb(35,63,133);stroke-width:3.69px;"/>
            <path d="M45.505,262.767C41.36,258.204 38.834,252.145 38.834,245.495C38.834,234.002 46.378,224.272 56.784,220.985" style="fill:none;stroke:rgb(35,63,133);stroke-width:3.69px;"/>
            <path d="M88.213,235.492C89.514,238.566 90.232,241.947 90.232,245.496C90.232,259.689 78.727,271.195 64.533,271.195C62.426,271.195 60.377,270.941 58.417,270.463" style="fill:none;stroke:rgb(35,63,133);stroke-width:3.69px;"/>
            <path d="M154.187,246.42C167.389,250.823 175.065,260.157 175.065,274.81C175.065,283.394 172.411,289.184 170.574,290.04" style="fill:none;stroke:rgb(35,63,133);stroke-width:3.69px;"/>
            <path d="M64.533,329.394C69.05,311.16 73.143,288.246 79.937,275.573C92.691,251.783 112.224,244.359 129.518,243.52" style="fill:none;stroke:rgb(35,63,133);stroke-width:3.69px;"/>
            <path d="M31.75,397.795C37.754,385.381 45.012,372.427 50.701,362.468" style="fill:none;stroke:rgb(35,63,133);stroke-width:3.69px;"/>
            <path d="M152.313,383.771C152.743,387.72 153.389,391.036 154.296,392.832" style="fill:none;stroke:rgb(35,63,133);stroke-width:3.69px;"/>
            <path d="M152.525,355.807C151.804,358.333 151.438,366.484 151.704,374.637" style="fill:none;stroke:rgb(35,63,133);stroke-width:3.69px;"/>
            <path d="M166.58,263.827C166.579,284.549 94.656,286.421 94.656,303.675" style="fill:none;stroke:rgb(35,63,133);stroke-width:3.69px;"/>
            <path d="M202.688,566.99C209.621,568.156 213.575,556.747 217.79,557.35C220.871,557.792 235.596,559.681 236.249,560.707C236.902,561.732 234.494,572.341 234.494,572.341" style="fill:rgb(236,242,250);fill-rule:nonzero;"/>
            <path d="M234.494,572.34L129.707,554.708L118.76,619.772L223.546,637.405L234.494,572.34Z" style="fill:rgb(236,242,250);"/>
            <path d="M224.338,604.033L219.418,633.276L158.655,623.051" style="fill:none;stroke:rgb(35,63,133);stroke-width:3.69px;"/>
            <path d="M230.366,568.21L228.307,580.448" style="fill:none;stroke:rgb(35,63,133);stroke-width:3.69px;"/>
            <path d="M124.183,617.251L114.63,615.643L125.578,550.578L214.811,565.593" style="fill:none;stroke:rgb(35,63,133);stroke-width:3.69px;"/>
            <path d="M198.558,562.859C205.491,564.026 209.445,552.616 213.66,553.22C216.741,553.661 231.466,555.55 232.118,556.576C232.771,557.601 230.365,568.211 230.365,568.211" style="fill:none;stroke:rgb(35,63,133);stroke-width:3.69px;"/>
            <path d="M218.459,576.957L203.232,574.393L198.556,602.177L213.783,604.74L218.459,576.957Z" style="fill:rgb(241,93,101);"/>
            <path d="M134.614,568.21L194.436,578.276" style="fill:none;stroke:rgb(35,63,133);stroke-width:3.69px;"/>
            <path d="M183.273,589.467L192.169,590.964" style="fill:none;stroke:rgb(35,63,133);stroke-width:3.69px;"/>
            <path d="M132.348,580.899L166.724,586.683" style="fill:none;stroke:rgb(35,63,133);stroke-width:3.69px;"/>
            <path d="M199.581,571.023C198.015,558.969 194.415,546.287 168.896,547.382C165.451,544.565 98.449,525.573 58.049,515.131C62.745,505.424 68.225,475.833 68.51,473.174C65.541,472.618 21.241,458.996 21.241,458.996C21.241,458.996 2.724,536.35 6.749,542.828C31.515,558.605 124.438,569.971 166.389,567.027C169.331,569.331 168.932,570.786 173.101,571.376C177.269,571.966 199.581,571.023 199.581,571.023Z" style="fill:white;fill-rule:nonzero;"/>
            <path d="M119.637,528.962C143.524,535.804 162.951,541.77 164.764,543.253C190.285,542.157 193.886,554.838 195.451,566.894" style="fill:none;stroke:rgb(35,63,133);stroke-width:3.69px;"/>
            <path d="M64.38,469.044C64.095,471.703 58.615,501.293 53.918,511C67.983,514.635 85.273,519.307 101.983,523.972" style="fill:none;stroke:rgb(35,63,133);stroke-width:3.69px;"/>
            <path d="M173.36,555.564C174.221,558.15 175.084,563.995 174.605,568.211" style="fill:none;stroke:rgb(35,63,133);stroke-width:3.69px;"/>
            <path d="M181.064,555.562C181.927,558.149 182.789,563.994 182.311,568.21" style="fill:none;stroke:rgb(35,63,133);stroke-width:3.69px;"/>
            <path d="M187.266,555.564C188.129,558.15 188.991,563.995 188.512,568.211" style="fill:none;stroke:rgb(35,63,133);stroke-width:3.69px;"/>
            <path d="M3.653,518.928C1.905,529.714 1.162,537.773 2.619,538.697C37.247,560.651 141.908,564.135 162.259,562.897" style="fill:none;stroke:rgb(35,63,133);stroke-width:3.69px;"/>
            <path d="M17.11,454.865C16.734,456.201 13.16,471.207 9.566,488.169" style="fill:none;stroke:rgb(35,63,133);stroke-width:3.69px;"/>
        </g>
    </g>
</svg>
