<?xml version="1.0" encoding="utf-8"?>
<!-- Generator: Adobe Illustrator 23.1.0, SVG Export Plug-In . SVG Version: 6.00 Build 0)  -->
<svg version="1.1" id="Calque_1" xmlns="http://www.w3.org/2000/svg" xmlns:xlink="http://www.w3.org/1999/xlink" x="0px" y="0px"
	 viewBox="0 0 120 84" style="enable-background:new 0 0 120 84;" xml:space="preserve">
<style type="text/css">
	.st0{fill:#FFFFFF;}
	.st1{fill:none;stroke:#044938;stroke-width:1.4335;stroke-miterlimit:10;}
	.st2{fill:#044938;}
</style>
<g>
	<path class="st0" d="M4.8,57c-0.4,0-0.7-0.3-0.7-0.6V12.8c0-0.3,0.3-0.6,0.7-0.6h109.4c0.4,0,0.7,0.3,0.7,0.6v43.5
		c0,0.3-0.3,0.6-0.7,0.6H4.8z"/>
	<path class="st0" d="M19.2,52.7c-5.1,0-9.2,4.3-9.2,9.6c0,5.3,4.1,9.6,9.2,9.6s9.2-4.3,9.2-9.6C28.3,56.9,24.2,52.7,19.2,52.7
		 M19.2,67c-2.5,0-4.6-2.1-4.6-4.8c0-2.6,2-4.8,4.6-4.8s4.6,2.1,4.6,4.8C23.8,64.9,21.7,67,19.2,67"/>
	<path class="st0" d="M46.9,61.8L46.9,61.8c-0.5-4.6-4.3-8.2-9-8.2c-3.5,0-6.5,1.9-8,4.8h0c-0.7,1.3-1.1,2.7-1.1,4.3
		c0,5,4.1,9.1,9.1,9.1c5,0,9.1-4.1,9.1-9.1C47,62.4,46.9,62.1,46.9,61.8z M37.9,67.3c-2.5,0-4.5-2-4.5-4.5c0-0.3,0-0.6,0.1-0.9h0
		c0.4-2.1,2.3-3.6,4.4-3.6c2.2,0,4,1.6,4.4,3.6h0c0.1,0.3,0.1,0.6,0.1,0.9C42.4,65.2,40.4,67.3,37.9,67.3z"/>
</g>
<polygon class="st0" points="104.4,72 104.5,70.8 105.1,70.6 105.4,57.8 93.1,57 103.5,57 113.9,57 107,57.8 106.5,70.5 107.1,70.7 
	106.8,72 "/>
<rect x="2.8" y="55.1" class="st0" width="4.6" height="4.6"/>
<path class="st0" d="M49,57.4v7.8h46.5v-7.8H49z M64,64.5H49.6v-6.4H64V64.5z M79.4,64.5H65v-6.4h14.4V64.5z M94.9,64.5H80.5v-6.4
	h14.4V64.5z"/>
<g>
	<path class="st1" d="M79.2,39.8V20.5c0-2.8-2.3-5.1-5.1-5.1c-2.8,0-5.1,2.3-5.1,5.1v19.4c-1.7,1.5-2.7,3.6-2.7,6
		c0,4.4,3.5,7.9,7.9,7.9c4.4,0,7.9-3.5,7.9-7.9C82,43.4,80.9,41.2,79.2,39.8z"/>
	<path class="st2" d="M75.1,42.3v-1.5c0-0.6-0.5-1-1-1c-0.6,0-1,0.5-1,1v1.5c-1.5,0.4-2.5,1.8-2.5,3.4c0,2,1.6,3.5,3.5,3.5
		c2,0,3.5-1.6,3.5-3.5C77.6,44.1,76.6,42.7,75.1,42.3"/>
	<polygon class="st2" points="59.1,44.9 59.1,24.2 59.3,24 62.7,21.1 61.5,19.6 59.1,21.6 59.1,17.2 56.9,17.2 56.9,21.6 54.6,19.6 
		53.3,21.1 56.8,24 56.9,24.2 56.9,44.9 56.8,45 53.3,47.9 54.6,49.4 56.9,47.4 56.9,51.9 59.1,51.9 59.1,47.4 61.5,49.4 62.7,47.9 
		59.3,45 	"/>
	<path class="st2" d="M66,40.4c0.2-0.2,0.4-0.4,0.6-0.5v-1.6l-17-9.8l0-0.2l-0.8-4.4l-1.9,0.3l0.5,3l-3.9-2.2l-1.1,1.9l3.9,2.2
		l-2.9,1l0.7,1.8l4.2-1.5l0.2-0.1L66,40.4z"/>
	<polygon class="st2" points="66.5,30.9 66.5,28.4 48.5,38.8 48.3,38.7 44.1,37.2 43.4,39.1 46.3,40.1 42.4,42.3 43.5,44.2 47.4,42 
		46.8,45 48.8,45.3 49.5,40.9 49.6,40.7 	"/>
</g>
</svg>
