<?xml version="1.0" encoding="utf-8"?>
<!-- Generator: Adobe Illustrator 23.1.0, SVG Export Plug-In . SVG Version: 6.00 Build 0)  -->
<svg version="1.1" id="Calque_1" xmlns="http://www.w3.org/2000/svg" xmlns:xlink="http://www.w3.org/1999/xlink" x="0px" y="0px"
	 viewBox="0 0 120 84" style="enable-background:new 0 0 120 84;" xml:space="preserve">
<style type="text/css">
	.st0{clip-path:url(#SVGID_2_);fill:#FFFFFF;}
	.st1{clip-path:url(#SVGID_4_);fill:none;stroke:#044938;stroke-width:1.6347;stroke-miterlimit:10;}
	.st2{clip-path:url(#SVGID_4_);fill:#044938;}
</style>
<g>
	<defs>
		<rect id="SVGID_1_" width="120" height="84"/>
	</defs>
	<clipPath id="SVGID_2_">
		<use xlink:href="#SVGID_1_"  style="overflow:visible;"/>
	</clipPath>
	<path class="st0" d="M14.9,83.8c-8.1,0-14.6-6.6-14.6-14.6c0-8.1,6.6-14.6,14.6-14.6s14.6,6.6,14.6,14.6
		C29.5,77.2,22.9,83.8,14.9,83.8 M14.9,61.6c-4.2,0-7.6,3.4-7.6,7.6c0,4.2,3.4,7.6,7.6,7.6s7.6-3.4,7.6-7.6
		C22.5,65,19.1,61.6,14.9,61.6"/>
	<path class="st0" d="M29.1,65.9c-1.5-6.5-7.3-11.3-14.2-11.3S2.2,59.4,0.7,65.9c-0.2,1.1-0.4,2.2-0.4,3.3c0,8.1,6.6,14.6,14.6,14.6
		s14.6-6.6,14.6-14.6C29.5,68.1,29.3,67,29.1,65.9 M14.9,76.8c-4.2,0-7.6-3.4-7.6-7.6c0-1.2,0.3-2.3,0.8-3.3
		c1.2-2.5,3.8-4.3,6.8-4.3s5.6,1.8,6.8,4.3c0.5,1,0.8,2.1,0.8,3.3C22.5,73.4,19.1,76.8,14.9,76.8"/>
	<path class="st0" d="M53.3,65.9c-1.5-6.5-7.3-11.3-14.2-11.3c-5,0-9.5,2.6-12.1,6.5c-1,1.4-1.7,3.1-2.1,4.8
		c-0.2,1.1-0.4,2.2-0.4,3.3c0,8.1,6.6,14.6,14.6,14.6s14.6-6.6,14.6-14.6C53.7,68.1,53.5,67,53.3,65.9 M39.1,76.8
		c-4.2,0-7.6-3.4-7.6-7.6c0-1.2,0.3-2.3,0.8-3.3c1.2-2.5,3.8-4.3,6.8-4.3c3,0,5.6,1.8,6.8,4.3c0.5,1,0.8,2.1,0.8,3.3
		C46.7,73.4,43.3,76.8,39.1,76.8"/>
	<path class="st0" d="M118.7,40.9l-9.9-10c-4.8-6-7.4-6.7-11.5-6.9l-7.7,0V5.7C89.5,2.6,87,0,83.9,0H5.7C2.6,0,0,2.6,0,5.7v60.2h0.7
		C2.2,59.4,8,54.6,14.9,54.6c5,0,9.5,2.6,12.1,6.5c2.6-3.9,7.1-6.5,12.1-6.5c6.9,0,12.7,4.8,14.2,11.3h31.3
		c1.5-6.5,7.3-11.3,14.2-11.3c6.9,0,12.7,4.8,14.2,11.3h4.4c1.4,0,2.6-1.2,2.6-2.6V49C120,49,120.7,42.9,118.7,40.9 M89.5,42v-9.1
		h7.1l1.5,0.3c0.3,0.1,0.5,0.2,0.7,0.4l8.4,8.4H89.5z"/>
	<path class="st0" d="M113,65.9c-1.5-6.5-7.3-11.3-14.2-11.3c-6.9,0-12.7,4.8-14.2,11.3c-0.2,1.1-0.4,2.2-0.4,3.3
		c0,8.1,6.6,14.6,14.6,14.6s14.6-6.6,14.6-14.6C113.4,68.1,113.2,67,113,65.9 M98.8,76.8c-4.2,0-7.6-3.4-7.6-7.6
		c0-1.2,0.3-2.3,0.8-3.3c1.2-2.5,3.8-4.3,6.8-4.3c3,0,5.6,1.8,6.8,4.3c0.5,1,0.8,2.1,0.8,3.3C106.4,73.4,103,76.8,98.8,76.8"/>
</g>
<g>
	<defs>
		<rect id="SVGID_3_" x="18" y="3.4" width="65.4" height="45.8"/>
	</defs>
	<clipPath id="SVGID_4_">
		<use xlink:href="#SVGID_3_"  style="overflow:visible;"/>
	</clipPath>
	<path class="st1" d="M69.2,32.4V10.4c0-3.2-2.6-5.9-5.9-5.9c-3.2,0-5.9,2.6-5.9,5.9v22.1c-1.9,1.7-3.1,4.1-3.1,6.8c0,5,4,9,9,9
		s9-4,9-9C72.4,36.5,71.2,34,69.2,32.4z"/>
	<path class="st2" d="M64.6,35.2v-1.7c0-0.6-0.5-1.2-1.2-1.2c-0.6,0-1.2,0.5-1.2,1.2v1.7c-1.7,0.5-2.9,2-2.9,3.9c0,2.2,1.8,4,4,4
		c2.2,0,4-1.8,4-4C67.5,37.3,66.2,35.7,64.6,35.2"/>
	<polygon class="st2" points="46.3,38.2 46.3,14.6 46.5,14.4 50.5,11.1 49,9.4 46.3,11.6 46.3,6.6 43.9,6.6 43.9,11.6 41.2,9.4 
		39.8,11.1 43.7,14.4 43.9,14.6 43.9,38.2 43.7,38.4 39.8,41.6 41.2,43.3 43.9,41.1 43.9,46.2 46.3,46.2 46.3,41.1 49,43.3 
		50.5,41.6 46.5,38.4 	"/>
	<path class="st2" d="M54.2,33.1c0.2-0.2,0.4-0.4,0.6-0.6v-1.9L35.5,19.4l0-0.3l-0.9-5l-2.2,0.4l0.6,3.4l-4.4-2.5l-1.2,2.1l4.4,2.5
		l-3.3,1.2l0.8,2.1l4.8-1.7l0.3-0.1L54.2,33.1z"/>
	<polygon class="st2" points="54.8,22.2 54.8,19.4 34.3,31.2 34,31.2 29.2,29.4 28.4,31.5 31.7,32.7 27.3,35.3 28.5,37.4 32.9,34.9 
		32.3,38.3 34.5,38.7 35.4,33.7 35.5,33.4 	"/>
</g>
</svg>
