<?xml version="1.0" encoding="utf-8"?>
<!-- Generator: Adobe Illustrator 23.1.0, SVG Export Plug-In . SVG Version: 6.00 Build 0)  -->
<svg version="1.1" id="Calque_1" xmlns="http://www.w3.org/2000/svg" xmlns:xlink="http://www.w3.org/1999/xlink" x="0px" y="0px"
	 viewBox="0 0 120 84" style="enable-background:new 0 0 120 84;" xml:space="preserve">
<style type="text/css">
	.st0{fill:#FFFFFF;}
	.st1{fill:#044938;}
	.st2{fill:none;stroke:#044938;stroke-width:1.4299;stroke-miterlimit:10;}
</style>
<g>
	<path class="st0" d="M2.4,56.5c-0.3,0-0.6-0.3-0.6-0.6V14.8c0-0.3,0.3-0.6,0.6-0.6h93.7c0.3,0,0.6,0.3,0.6,0.6v41.1
		c0,0.3-0.3,0.6-0.6,0.6H2.4z"/>
	<path class="st0" d="M95.9,55.8H2.6V15h93.3V55.8z M96.1,13.5H2.4c-0.7,0-1.3,0.6-1.3,1.3v41.1c0,0.7,0.6,1.3,1.3,1.3h93.7
		c0.7,0,1.3-0.6,1.3-1.3V14.8C97.4,14.1,96.8,13.5,96.1,13.5"/>
	<path class="st0" d="M15.3,49.8c-5.7,0-10.4,4.6-10.4,10.4c0,5.7,4.6,10.4,10.4,10.4s10.4-4.6,10.4-10.4
		C25.7,54.4,21,49.8,15.3,49.8 M15.3,65.3c-2.9,0-5.2-2.3-5.2-5.2s2.3-5.2,5.2-5.2s5.2,2.3,5.2,5.2S18.2,65.3,15.3,65.3"/>
	<path class="st0" d="M103.1,49.8c-5.7,0-10.4,4.6-10.4,10.4c0,5.7,4.6,10.4,10.4,10.4c5.7,0,10.4-4.6,10.4-10.4
		C113.5,54.4,108.8,49.8,103.1,49.8 M103.1,65.3c-2.9,0-5.2-2.3-5.2-5.2s2.3-5.2,5.2-5.2c2.9,0,5.2,2.3,5.2,5.2S106,65.3,103.1,65.3
		"/>
	<path class="st0" d="M103.1,49.8c-5.7,0-10.4,4.6-10.4,10.4c0,5.7,4.6,10.4,10.4,10.4c5.7,0,10.4-4.6,10.4-10.4
		C113.5,54.4,108.8,49.8,103.1,49.8 M103.1,65.3c-2.9,0-5.2-2.3-5.2-5.2s2.3-5.2,5.2-5.2c2.9,0,5.2,2.3,5.2,5.2S106,65.3,103.1,65.3
		"/>
	<path class="st0" d="M108.3,60.2c0,2.9-2.3,5.2-5.2,5.2c-2.9,0-5.2-2.3-5.2-5.2c0-0.4,0-0.7,0.1-1h-3c-0.6,0-1.1-0.6-1.1-1.3v-2.5
		c-0.8,1.5-1.2,3.1-1.2,4.9c0,5.7,4.6,10.4,10.4,10.4c5.7,0,10.4-4.6,10.4-10.4c0-0.4,0-0.7-0.1-1h-5.2
		C108.3,59.4,108.3,59.8,108.3,60.2"/>
	<path class="st0" d="M103.1,49.8c-4,0-7.4,2.2-9.1,5.5v2.5c0,0.7,0.5,1.3,1.1,1.3h3c0.5-2.4,2.6-4.1,5.1-4.1c2.5,0,4.6,1.8,5.1,4.1
		h5.2C112.9,53.9,108.5,49.8,103.1,49.8"/>
	<path class="st0" d="M118.8,37.3l-3.3-8.3c-0.3-0.7-1.1-1.4-1.7-1.4H95.1c-0.6,0-1.1,0.6-1.1,1.3v26.4c1.7-3.3,5.2-5.5,9.1-5.5
		c5.4,0,9.8,4.1,10.3,9.3h4.4c0.6,0,1.1-0.6,1.1-1.3V38.1C118.9,37.8,118.9,37.5,118.8,37.3 M113.2,41.1c0,0.2-0.3,0.4-0.7,0.4h-14
		c-0.4,0-0.7-0.2-0.7-0.4v-8.6c0-0.2,0.3-0.4,0.7-0.4H110c0.4,0,0.8,0.2,1,0.4l2,2.5c0.1,0.1,0.1,0.2,0.1,0.2V41.1z"/>
</g>
<g>
	<path class="st1" d="M73,42.6v-1.5c0-0.6-0.5-1-1-1c-0.6,0-1,0.5-1,1v1.5c-1.5,0.4-2.5,1.8-2.5,3.4c0,1.9,1.6,3.5,3.6,3.5
		c2,0,3.6-1.6,3.6-3.5C75.5,44.4,74.5,43,73,42.6"/>
	<polygon class="st1" points="56.9,45.2 56.9,24.7 57.1,24.6 60.5,21.7 59.2,20.2 56.9,22.2 56.9,17.8 54.7,17.8 54.7,22.2 
		52.3,20.2 51.1,21.7 54.5,24.6 54.7,24.7 54.7,45.2 54.5,45.3 51.1,48.2 52.3,49.6 54.7,47.7 54.7,52.1 56.9,52.1 56.9,47.7 
		59.2,49.6 60.5,48.2 57.1,45.3 	"/>
	<path class="st1" d="M63.8,40.7c0.2-0.2,0.4-0.4,0.6-0.5v-1.6l-17.1-9.7l0-0.2l-0.8-4.3l-1.9,0.3l0.5,3l-3.9-2.2l-1.1,1.9l3.9,2.2
		l-2.9,1l0.7,1.8l4.2-1.5l0.2-0.1L63.8,40.7z"/>
	<g>
		<path class="st2" d="M77.1,40.1v-19c0-2.8-2.3-5.1-5.2-5.1c-2.9,0-5.2,2.3-5.2,5.1v19.1C65,41.7,64,43.8,64,46.1
			c0,4.3,3.6,7.8,8,7.8c4.4,0,8-3.5,8-7.8C79.9,43.7,78.8,41.6,77.1,40.1z"/>
		<polygon class="st1" points="64.4,31.3 64.4,28.9 46.2,39.2 46,39.1 41.7,37.6 41,39.4 43.9,40.4 40.1,42.6 41.2,44.5 45,42.3 
			44.5,45.3 46.4,45.6 47.2,41.3 47.3,41 		"/>
	</g>
</g>
</svg>
