<?xml version="1.0" encoding="utf-8"?>
<!-- Generator: Adobe Illustrator 21.0.0, SVG Export Plug-In . SVG Version: 6.00 Build 0)  -->
<svg version="1.1" id="Calque_1" xmlns="http://www.w3.org/2000/svg" xmlns:xlink="http://www.w3.org/1999/xlink" x="0px" y="0px"
	 viewBox="0 0 512 512" style="enable-background:new 0 0 512 512;" xml:space="preserve">
<style type="text/css">
	.st0{fill:#6A7A91;stroke:#6A7A91;stroke-width:10;stroke-miterlimit:10;}
	.st1{fill:#6A7A91;stroke:#6A7A91;stroke-width:5;stroke-miterlimit:10;}
</style>
<rect x="267" y="438.8" transform="matrix(3.320169e-03 -1 1 3.320169e-03 -183.1299 743.0876)" class="st0" width="28.3" height="49.2"/>
<rect x="267.2" y="396" transform="matrix(3.320169e-03 -1 1 3.320169e-03 -140.2206 700.5969)" class="st0" width="28.3" height="49.2"/>
<rect x="267.3" y="353.2" transform="matrix(3.320169e-03 -1 1 3.320169e-03 -97.3048 658.0801)" class="st0" width="28.3" height="49.2"/>
<path class="st1" d="M266.6,142l-1.2,349.2c0,0.8-0.6,1.4-1.4,1.4l-33-0.1c-0.8,0-1.4-0.6-1.4-1.4l1.2-349.2c0-0.8,0.6-1.4,1.4-1.4
	l33,0.1C266,140.6,266.6,141.3,266.6,142z"/>
<rect x="180.6" y="38.4" transform="matrix(0.7476 0.6641 -0.6641 0.7476 129.9997 -136.7458)" class="st0" width="128.6" height="128.6"/>
</svg>
