<?xml version="1.0" encoding="utf-8"?>
<!-- Generator: Adobe Illustrator 21.0.0, SVG Export Plug-In . SVG Version: 6.00 Build 0)  -->
<svg version="1.1" id="Calque_1" xmlns="http://www.w3.org/2000/svg" xmlns:xlink="http://www.w3.org/1999/xlink" x="0px" y="0px"
	 viewBox="0 0 100 100" style="enable-background:new 0 0 100 100;" xml:space="preserve">
<style type="text/css">
	.st0{fill:none;stroke:#FFFFFF;stroke-width:5;stroke-miterlimit:10;}
	.st1{fill:#FFFFFF;}
</style>
<path class="st0" d="M87.4,48.5H11.9c-1.6,0-3-1.4-3-3V21.6c0-1.6,1.4-3,3-3h75.5c1.7,0,3,1.4,3,3v23.9
	C90.4,47.1,89.1,48.5,87.4,48.5z"/>
<path class="st0" d="M92.5,84.5h-8.7l-1-10H15.5l-1.3,10H6.8c-1.3,0-2.3-0.9-2.3-2v-22c0-6.6,6.1-12.1,13.6-12.1h63
	c7.5,0,13.6,5.4,13.6,12.1v22C94.8,83.6,93.7,84.5,92.5,84.5z"/>
<path class="st1" d="M39.4,46.9H22c-1.6,0-3-1.4-3-3V30.7c0-1.6,1.4-3,3-3h17.3c1.6,0,3,1.4,3,3v13.2C42.4,45.5,41,46.9,39.4,46.9z"
	/>
<path class="st1" d="M76.5,47H58.8c-1.7,0-3-1.3-3-3V30.5c0-1.6,1.3-3,3-3h17.7c1.7,0,3,1.4,3,3V44C79.5,45.7,78.2,47,76.5,47z"/>
</svg>
