<?xml version="1.0" encoding="utf-8"?>
<!-- Generator: Adobe Illustrator 21.0.0, SVG Export Plug-In . SVG Version: 6.00 Build 0)  -->
<svg version="1.1" id="Calque_1" xmlns="http://www.w3.org/2000/svg" xmlns:xlink="http://www.w3.org/1999/xlink" x="0px" y="0px"
	 viewBox="0 0 100 30" style="enable-background:new 0 0 100 30;" xml:space="preserve">
<style type="text/css">
	.st0{fill:#C5C9D2;}
	.st1{fill:#2D3F63;}
	.st2{display:none;fill:#2D3F63;}
</style>
<circle class="st0" cx="88.7" cy="9.1" r="4.8"/>
<rect x="9.3" y="14.6" class="st1" width="5.2" height="9"/>
<rect x="17" y="14.6" class="st1" width="5.2" height="9"/>
<rect x="24.1" y="14.6" class="st1" width="5.2" height="9"/>
<path class="st1" d="M70.1,16.3H7.4c-0.4,0-0.8-0.4-0.8-0.8v-1.8c0-0.4,0.4-0.8,0.8-0.8h62.7c0.4,0,0.8,0.4,0.8,0.8v1.8
	C70.9,16,70.6,16.3,70.1,16.3z"/>
<path class="st2" d="M87.2,18.8c-1.4,2.1-3.7,3.4-6.4,3.4c-4.2,0-7.6-3.4-7.6-7.6c0-4.2,3.4-7.6,7.6-7.6c1.8,0,2.3,0.1,4.8,1.7
	c3.3,2.5,5.3,0,5.3,0c-2-3.5-5.8-5.8-10.1-5.8c-6.5,0-11.7,5.3-11.7,11.7c0,6.5,5.3,11.7,11.7,11.7c5,0,9.2-3.1,10.9-7.5H87.2z"/>
<path class="st1" d="M89.3,6.4c0.1,0.1,0.2,0.2,0.3,0.3C89.5,6.6,89.4,6.5,89.3,6.4z"/>
<path class="st1" d="M88.2,16.8c-0.9,3.2-3.9,5.5-7.3,5.5c-4.2,0-7.7-3.4-7.7-7.7c0-4.2,3.4-7.7,7.7-7.7c2.2,0,4.1,0.9,5.5,2.3v0
	c0.7,0.9,1.9,1.2,2.8,0.6c0.3-0.2,0.5-0.4,0.6-0.6c0.4-0.7,0.4-1.6-0.1-2.3c0-0.1-0.1-0.1-0.2-0.2c-0.1-0.1-0.2-0.2-0.3-0.3
	c-2.1-2.2-5.1-3.6-8.5-3.6c-6.5,0-11.8,5.3-11.8,11.8c0,6.5,5.3,11.8,11.8,11.8c5.8,0,10.6-4.1,11.6-9.6H88.2z"/>
</svg>
