<?xml version="1.0" encoding="utf-8"?>
<!-- Generator: Adobe Illustrator 21.0.0, SVG Export Plug-In . SVG Version: 6.00 Build 0)  -->
<svg version="1.1" id="Calque_1" xmlns="http://www.w3.org/2000/svg" xmlns:xlink="http://www.w3.org/1999/xlink" x="0px" y="0px"
	 viewBox="0 0 1140 400" style="enable-background:new 0 0 1140 400;" xml:space="preserve">
<style type="text/css">
	.st0{fill:#2D3F63;}
</style>
<g>
	<g>
		
			<rect x="133.1" y="294.5" transform="matrix(0.8767 -0.481 0.481 0.8767 -142.1418 120.2771)" class="st0" width="61" height="85.8"/>
		
			<rect x="211.9" y="251.3" transform="matrix(0.8767 -0.481 0.481 0.8767 -111.6519 152.8302)" class="st0" width="61" height="85.8"/>
		
			<rect x="285" y="211.2" transform="matrix(0.8767 -0.481 0.481 0.8767 -83.3398 183.0581)" class="st0" width="61" height="85.8"/>
		<path class="st0" d="M500.5,91.5L465,99.6l26.8-23.8l-21.4-1.3L69.1,294.6c-0.4,0.2-0.5,0.7-0.3,1.1l18.5,33.7
			c0.2,0.4,0.7,0.5,1.1,0.3l27.8-15.3l-9.6-17.6l53.4-29.3l9.6,17.6l25.3-13.9l-9.6-17.6l53.4-29.3l9.6,17.6l19.7-10.8l-9.6-17.6
			l53.4-29.3l9.6,17.6l169.6-93l-2.9-0.3L500.5,91.5z"/>
	</g>
	
		<rect x="107.6" y="281" transform="matrix(0.8767 -0.481 0.481 0.8767 -122.9588 102.3098)" class="st0" width="61" height="20.1"/>
	
		<rect x="186.4" y="237.8" transform="matrix(0.8767 -0.481 0.481 0.8767 -92.4688 134.863)" class="st0" width="61" height="20.1"/>
	
		<rect x="259.5" y="197.7" transform="matrix(0.8767 -0.481 0.481 0.8767 -64.1567 165.0909)" class="st0" width="61" height="20.1"/>
</g>
<g>
	<path class="st0" d="M836.9,180.6h-278L577,192l-35,8l35,10l-19,9l2.4,1.7h276.4c-1-6.5-1.5-13.2-1.5-20.1
		C835.4,193.8,835.9,187.1,836.9,180.6z"/>
	<path class="st0" d="M1048.1,250.4c-16.1,24.1-43.6,40-74.8,40c-49.6,0-89.8-40.2-89.8-89.8c0-49.6,40.2-89.8,89.8-89.8
		c21.7,0,41.5,7.7,57,20.4h62.2c-23.9-41-68.3-68.6-119.2-68.6c-69.4,0-126.8,51.2-136.5,117.9h19.7c0.4,0,0.8,0.4,0.8,0.8v38.5
		c0,0.4-0.4,0.8-0.8,0.8h-19.7c9.7,66.7,67.1,117.9,136.5,117.9c58.6,0,108.7-36.6,128.7-88.2H1048.1z"/>
</g>
<path class="st0" d="M857.4,219.9v-38.5c0-0.4-0.4-0.8-0.8-0.8h-19.7c-1,6.5-1.5,13.2-1.5,20.1c0,6.8,0.5,13.5,1.5,20.1h19.7
	C857,220.7,857.4,220.3,857.4,219.9z"/>
</svg>
