<?xml version="1.0" encoding="utf-8"?>
<!-- Generator: Adobe Illustrator 21.0.0, SVG Export Plug-In . SVG Version: 6.00 Build 0)  -->
<svg version="1.1" id="Calque_1" xmlns="http://www.w3.org/2000/svg" xmlns:xlink="http://www.w3.org/1999/xlink" x="0px" y="0px"
	 viewBox="0 0 100 70" style="enable-background:new 0 0 100 70;" xml:space="preserve">
<style type="text/css">
	.st0{fill:#2D3F63;}
	.st1{fill:none;stroke:#2D3F63;stroke-width:4;stroke-miterlimit:10;}
	.st2{fill:none;stroke:#2D3F63;stroke-width:2;stroke-miterlimit:10;}
</style>
<g>
	<path class="st0" d="M7.4,67.7h-3c-0.7,0-1.3-0.6-1.3-1.3V3.5c0-0.7,0.6-1.3,1.3-1.3h3c0.7,0,1.3,0.6,1.3,1.3v62.9
		C8.7,67.1,8.1,67.7,7.4,67.7z"/>
	<path class="st0" d="M93.3,67.9h2.3c0.7,0,1.3-0.6,1.3-1.3V19c0-0.7-0.6-1.3-1.3-1.3h-2.3c-0.7,0-1.3,0.6-1.3,1.3v47.6
		C92,67.3,92.6,67.9,93.3,67.9z"/>
	<rect x="8.7" y="31.3" class="st1" width="83.3" height="31.3"/>
	<line class="st2" x1="21.3" y1="31.3" x2="21.3" y2="62.7"/>
	<line class="st2" x1="16.3" y1="31.3" x2="16.3" y2="62.7"/>
	<line class="st2" x1="26.4" y1="31.3" x2="26.4" y2="62.7"/>
	<line class="st2" x1="31.2" y1="30.9" x2="31.2" y2="62.3"/>
	<line class="st2" x1="35.7" y1="30.9" x2="35.7" y2="62.3"/>
	<line class="st2" x1="40.8" y1="30.9" x2="40.8" y2="62.3"/>
	<line class="st2" x1="45.7" y1="30.9" x2="45.7" y2="62.3"/>
	<line class="st2" x1="50.8" y1="31.3" x2="50.8" y2="62.7"/>
	<line class="st2" x1="55.9" y1="30.9" x2="55.9" y2="62.3"/>
	<line class="st2" x1="60.4" y1="30.9" x2="60.4" y2="62.3"/>
	<line class="st2" x1="64.7" y1="30.9" x2="64.7" y2="62.3"/>
	<line class="st2" x1="69" y1="30.9" x2="69" y2="62.3"/>
	<line class="st2" x1="73.6" y1="30.9" x2="73.6" y2="62.3"/>
	<line class="st2" x1="78.8" y1="30.9" x2="78.8" y2="62.3"/>
	<line class="st2" x1="84.4" y1="31.3" x2="84.4" y2="62.7"/>
</g>
</svg>
