<?xml version="1.0" encoding="utf-8"?>
<!-- Generator: Adobe Illustrator 21.0.0, SVG Export Plug-In . SVG Version: 6.00 Build 0)  -->
<svg version="1.1" id="Calque_1" xmlns="http://www.w3.org/2000/svg" xmlns:xlink="http://www.w3.org/1999/xlink" x="0px" y="0px"
	 viewBox="0 0 512 512" style="enable-background:new 0 0 512 512;" xml:space="preserve">
<style type="text/css">
	.st0{fill:#6A7A91;stroke:#6A7A91;stroke-width:10;stroke-miterlimit:10;}
	.st1{fill:#6A7A91;}
</style>
<path class="st0" d="M206.3,425.9H104.4L68.6,250.3c0-6.2,5.9-11.2,13.2-11.2h146.9c7.3,0,13.2,5,13.2,11.2L206.3,425.9z"/>
<g>
	<g>
		<path class="st1" d="M70.8,219.3c0.7-2.1,1.6-4.2,2.4-6.3c0.4-1,0.8-2.1,1.3-3.1c0.2-0.6,0.5-1.1,0.7-1.7c1.3-3.1-1.6,3.8-0.4,1
			c1.3-3.1,2.7-6.2,4.1-9.3c7.3-15.8,15.7-31.2,25.8-45.5c0.7-1,1.4-2,2.1-3c0.4-0.6,2.7-3.7,1-1.4c-1.7,2.3,0.6-0.8,1.1-1.3
			c0.8-1,1.7-2.1,2.5-3.1c3-3.6,6.2-7,9.5-10.2c1.6-1.5,3.2-3,4.9-4.5c0.8-0.7,1.6-1.3,2.4-2c2.1-1.8-3.1,2.3-0.9,0.7
			c0.6-0.4,1.1-0.8,1.6-1.2c3.4-2.4,7-4.5,10.7-6.4c0.4-0.2,1.4-0.5,1.8-0.8c0,0-3.8,1.4-1.8,0.8c1-0.3,2-0.8,3-1.1
			c2-0.7,4-1.2,6.1-1.6c1.9-0.4,4.4,0.4-0.2-0.1c0.8,0.1,1.7-0.2,2.5-0.2c2.2-0.2,4.5-0.1,6.7,0c0.5,0,1.1,0.1,1.6,0.2
			c2.2,0.1-2-0.3-2-0.3c0.9,0.4,2.3,0.4,3.3,0.6c2.3,0.5,4.5,1.3,6.7,2c3.7,1.3-3.1-1.5,0.5,0.2c1,0.5,2.1,1,3.1,1.5
			c2.5,1.3,5,2.9,7.4,4.5c0.5,0.3,0.9,0.7,1.4,1c2,1.4,1.4,0.5-0.2-0.2c1.5,0.7,3.1,2.5,4.3,3.6c2.8,2.5,5.5,5.1,8,7.8
			c2.9,3,5.6,6.2,8.2,9.4c0.5,0.6,1,1.3,1.5,1.9c-2.2-2.8,0.4,0.6,0.7,0.9c1.6,2.1,3.1,4.2,4.6,6.4c13.8,20,24.6,42,34.4,64.2
			c3.3,7.4,14.1,9.1,20.5,5.4c7.7-4.5,8.7-13.1,5.4-20.5c-9.2-21-19.4-41.7-32.1-60.8c-9.1-13.7-19.4-27.2-32.1-37.8
			c-18.7-15.6-42.3-24.9-66.6-17.7c-20,5.9-36.5,20.6-49.3,36.6c-12.5,15.7-22.9,32.8-31.6,50.9c-5.1,10.5-9.9,21.3-13.8,32.3
			c-2.6,7.4,3,16.7,10.5,18.5C60.7,231.6,68,227.2,70.8,219.3L70.8,219.3z"/>
	</g>
</g>
<path class="st0" d="M423.2,405.9h-65.1c0.1-0.4,0.2-0.7,0.2-1.1L350.5,30c0-4.9-4-8.9-8.9-8.9s-8.9,4-8.9,8.9l-3.4,373.7
	c0,1,0.3,1.7,0.8,2.2h-70.2c-6.2,0-11.2,5-11.2,11.2v3.4h185.7v-3.4C434.4,410.9,429.4,405.9,423.2,405.9z"/>
<path class="st0" d="M455.7,499.9h-14.5c0,0-17.9-6.7-18.5-21.3c-5,16.2-18.5,21.3-18.5,21.3h-26.8c0,0-22.9-4.5-35.8-27.4
	c0,16.2,8.9,27.4,8.9,27.4h-41.4c0,0-9.5-2.8-15.1-19.6c-1.7,9.5-15.1,19.6-15.1,19.6h-24.6c0,0,5.6-1.7,6.7-26.3
	c-6.7,21.8-30.2,26.3-30.2,26.3l11.2-60.4h198L455.7,499.9z"/>
</svg>
