<?xml version="1.0" encoding="utf-8"?>
<!-- Generator: Adobe Illustrator 21.0.0, SVG Export Plug-In . SVG Version: 6.00 Build 0)  -->
<svg version="1.1" id="Calque_1" xmlns="http://www.w3.org/2000/svg" xmlns:xlink="http://www.w3.org/1999/xlink" x="0px" y="0px"
	 viewBox="0 0 50 50" style="enable-background:new 0 0 50 50;" xml:space="preserve">
<style type="text/css">
	.st0{fill:#2D3F63;}
</style>
<path class="st0" d="M10.5,34.8l-9.4-9.3c-0.4-0.4-0.4-1,0-1.4l7.6-7.7c0.4-0.4,1-0.4,1.4,0l9.4,9.3c0.4,0.4,0.4,1,0,1.4l-7.6,7.7
	C11.5,35.2,10.9,35.2,10.5,34.8z"/>
<path class="st0" d="M40.1,33.5l-9.4-9.3c-0.4-0.4-0.4-1,0-1.4l7.6-7.7c0.4-0.4,1-0.4,1.4,0l9.4,9.3c0.4,0.4,0.4,1,0,1.4l-7.6,7.7
	C41.2,33.9,40.5,33.9,40.1,33.5z"/>
<path class="st0" d="M25,1.2l9.4,9.3c0.4,0.4,0.4,1,0,1.4l-7.6,7.7c-0.4,0.4-1,0.4-1.4,0L16,10.3c-0.4-0.4-0.4-1,0-1.4l7.6-7.7
	C24,0.8,24.6,0.8,25,1.2z"/>
<path class="st0" d="M24.2,30.9l9.4,9.3c0.4,0.4,0.4,1,0,1.4l-7.6,7.7c-0.4,0.4-1,0.4-1.4,0l-9.4-9.3c-0.4-0.4-0.4-1,0-1.4l7.6-7.7
	C23.2,30.5,23.8,30.5,24.2,30.9z"/>
</svg>
