<?xml version="1.0" encoding="utf-8"?>
<!-- Generator: Adobe Illustrator 21.0.0, SVG Export Plug-In . SVG Version: 6.00 Build 0)  -->
<svg version="1.1" id="Calque_1" xmlns="http://www.w3.org/2000/svg" xmlns:xlink="http://www.w3.org/1999/xlink" x="0px" y="0px"
	 viewBox="0 0 100 100" style="enable-background:new 0 0 100 100;" xml:space="preserve">
<style type="text/css">
	.st0{fill:#6A7A91;}
	.st1{fill:#2E4064;}
</style>
<path class="st0" d="M45.9,3.1H27.1c-5.1,0-9.2,4.1-9.2,9.2v74.9c0,5.1,4.1,9.2,9.2,9.2h18.8c5.1,0,9.2-4.1,9.2-9.2V12.3
	C55.1,7.3,51,3.1,45.9,3.1z M38.3,80l1.1,10.3h-5.9L34.6,80c-1.9-0.7-3.2-2.6-3.2-4.7c0-2.8,2.3-5.1,5.1-5.1c2.8,0,5.1,2.3,5.1,5.1
	C41.6,77.4,40.2,79.2,38.3,80z"/>
<path class="st1" d="M52.8,45.1H20.1c-1.3,0-2.3-1-2.3-2.3V27.2c0-1.3,1-2.3,2.3-2.3h32.7c1.3,0,2.3,1,2.3,2.3v15.6
	C55.1,44.1,54.1,45.1,52.8,45.1z"/>
<path class="st0" d="M45.7,44.8H27.3c-1.3,0-2.3-1-2.3-2.3V27.5c0-1.3,1-2.3,2.3-2.3h18.4c1.3,0,2.3,1,2.3,2.3v15.1
	C48,43.8,47,44.8,45.7,44.8z"/>
<g>
	<path class="st0" d="M79.4,40.1H38.1c-1.9,0-3.4-1.5-3.4-3.4v-3.3c0-1.9,1.5-3.4,3.4-3.4h41.3c1.9,0,3.4,1.5,3.4,3.4v3.3
		C82.9,38.5,81.3,40.1,79.4,40.1z"/>
	<path class="st1" d="M79.4,40.2l-6.9,0.1c-2.3,0-4.6,0.1-6.9,0.2L51.8,41l-6.9,0.3l-3.5,0.2l-1.7,0.1l-0.9,0l-0.4,0
		c-0.2,0-0.3,0-0.5,0c-1.7,0-3.3-1-4.2-2.5c-0.4-0.7-0.7-1.6-0.7-2.5c0-0.6,0-1.2,0-1.7l0-0.9l0-0.4c0-0.1,0-0.3,0-0.5
		c0-0.9,0.3-1.7,0.8-2.5c0.9-1.5,2.6-2.5,4.4-2.5l6.9,0.1l6.9,0.2l13.8,0.6l13.8,0.6c1.3,0.1,2.4,0.9,3,1.9c0.3,0.5,0.4,1.2,0.4,1.8
		l0,1.7c0,0.6,0,1.1,0,1.7c0,0.6-0.2,1.2-0.6,1.7C81.8,39.6,80.6,40.2,79.4,40.2z M79.4,40c1.1,0,2.2-0.6,2.8-1.6
		c0.7-1,0.5-2.2,0.5-3.3c0-1.1,0.2-2.3-0.4-3.3c-0.5-1-1.6-1.6-2.7-1.7l-13.8,0l-27.7,0c-1.1,0-2.2,0.6-2.7,1.5
		c-0.3,0.5-0.5,1-0.5,1.5c0,0.6,0,1.1,0,1.7l0,1.7c0,0.5,0.1,1.1,0.4,1.6c0.5,1,1.6,1.6,2.7,1.6l13.8,0L79.4,40z"/>
</g>
</svg>
