<?xml version="1.0" encoding="utf-8"?>
<!-- Generator: Adobe Illustrator 21.0.0, SVG Export Plug-In . SVG Version: 6.00 Build 0)  -->
<svg version="1.1" id="Calque_1" xmlns="http://www.w3.org/2000/svg" xmlns:xlink="http://www.w3.org/1999/xlink" x="0px" y="0px"
	 viewBox="0 0 500 500" style="enable-background:new 0 0 500 500;" xml:space="preserve">
<style type="text/css">
	.st0{fill:#2D3F63;}
	.st1{fill:#6A7A91;}
	.st2{fill:#2E4064;}
</style>
<path class="st0" d="M228.4,19.3h-93c-25,0-45.5,20.5-45.5,45.5v369.9c0,25,20.5,45.5,45.5,45.5h93c25,0,45.5-20.5,45.5-45.5V64.8
	C273.9,39.7,253.4,19.3,228.4,19.3z M191,399.1l5.4,50.9h-29.1l5.4-50.9c-9.4-3.7-16-12.7-16-23.4c0-13.9,11.3-25.1,25.1-25.1
	c13.9,0,25.1,11.3,25.1,25.1C207,386.4,200.3,395.4,191,399.1z"/>
<path class="st1" d="M253.9,226.9H109.8c-11,0-20-9-20-20v-59.7c0-11,9-20,20-20h144.1c11,0,20,9,20,20v59.7
	C273.9,217.9,264.9,226.9,253.9,226.9z"/>
<path class="st0" d="M218.6,225.5h-73.5c-11,0-20-9-20-20v-56.9c0-11,9-20,20-20h73.5c11,0,20,9,20,20v56.9
	C238.6,216.5,229.6,225.5,218.6,225.5z"/>
<g>
	<path class="st1" d="M395.9,202H187.8c-8.3,0-15-6.8-15-15v-19.8c0-8.3,6.8-15,15-15h208.1c8.3,0,15,6.8,15,15V187
		C410.9,195.2,404.2,202,395.9,202z"/>
	<path class="st2" d="M395.9,202.5c-45.8-0.1-91.7,1.8-137.5,4.3l-34.4,1.7l-17.2,0.7c-5.7,0.2-11.5,0.5-17.2,0.6l-1.1,0l-0.5,0
		l-0.3,0l-0.4,0l-1.6-0.1c-0.5,0-1.1-0.1-1.6-0.2c-2.2-0.3-4.3-0.9-6.3-1.9c-1-0.4-1.9-1-2.9-1.6c-0.9-0.6-1.8-1.3-2.6-2
		c-0.9-0.7-1.6-1.5-2.3-2.3c-0.7-0.9-1.4-1.7-2-2.7c-1.2-1.9-2.1-3.9-2.7-6.1c-0.3-1.1-0.5-2.2-0.7-3.3c-0.1-0.6-0.1-1.1-0.2-1.7
		l-0.1-0.8l0-0.6c-0.1-2.9-0.1-5.7-0.2-8.6l-0.1-8.6l0-2.1c0-0.5,0-1.1,0.1-1.7c0-0.6,0.1-1.1,0.2-1.7c0.3-2.3,1-4.5,1.9-6.6
		c1.9-4.2,5-7.7,8.8-10.2c1.9-1.3,4-2.2,6.2-2.9c2.2-0.7,4.5-1,6.8-1c45.8-0.1,91.7,1.8,137.5,4.3l34.4,1.7l17.2,0.7
		c5.7,0.2,11.5,0.5,17.2,0.6c0.7,0,1.4,0,2.2,0.1l1.2,0.1c0.4,0,0.8,0.1,1.2,0.2c1.6,0.3,3.1,0.8,4.5,1.5c0.7,0.3,1.4,0.8,2,1.2
		c0.6,0.5,1.2,0.9,1.8,1.5c0.6,0.5,1.1,1.1,1.6,1.7c0.4,0.6,0.9,1.2,1.3,1.9c1.6,2.7,2.3,5.8,2.2,8.8c-0.1,2.9-0.1,5.7-0.2,8.6
		l-0.1,8.6l0,2.1c-0.1,0.7,0,1.5-0.2,2.2c-0.2,1.5-0.7,2.9-1.3,4.3c-1.2,2.7-3.3,5-5.8,6.6c-1.2,0.8-2.6,1.4-4,1.8
		C398.9,202.3,397.4,202.5,395.9,202.5z M395.9,201.5c1.4,0,2.8-0.2,4.1-0.6c1.3-0.4,2.6-1,3.7-1.7c2.3-1.5,4.2-3.7,5.3-6.2
		c0.5-1.3,1-2.6,1.1-4c0.1-0.7,0.1-1.4,0.1-2.1l0-2.1l0-8.6l0-8.6c0-1.4-0.1-2.8-0.5-4.1c-0.3-1.3-0.9-2.6-1.6-3.8
		c-0.3-0.6-0.8-1.1-1.2-1.7c-0.5-0.5-0.9-1-1.4-1.5c-0.5-0.5-1.1-0.9-1.6-1.3c-0.6-0.3-1.2-0.7-1.8-1c-1.2-0.6-2.6-1-3.9-1.2
		c-1.3-0.3-2.7-0.2-4.2-0.2l-68.8,0.1l-137.5,0.2c-1.3,0-2.7,0.2-4,0.6c-1.3,0.4-2.5,0.9-3.6,1.7c-2.2,1.5-4.1,3.6-5.2,6
		c-0.5,1.2-1,2.5-1.1,3.8c-0.1,0.7-0.1,1.3-0.2,2l0,2.1l0,8.6l0,8.6c0,1.4,0.1,2.7,0.5,4c0.3,1.3,0.9,2.6,1.6,3.7
		c0.3,0.6,0.8,1.1,1.2,1.7c0.5,0.5,0.9,1,1.4,1.5c0.5,0.5,1,0.9,1.6,1.3c0.6,0.3,1.1,0.7,1.8,1c1.2,0.6,2.5,1,3.8,1.2
		c0.3,0,0.7,0.1,1,0.1l1,0.1c0.7,0,1.4,0,2.1,0l68.8,0.1L395.9,201.5z"/>
</g>
</svg>
